<svg width="209" height="57" viewBox="0 0 209 57" fill="none" xmlns="http://www.w3.org/2000/svg">
<path d="M10 0.5H199C204.247 0.5 208.5 4.7533 208.5 10V47C208.5 52.2467 204.247 56.5 199 56.5H10C4.7533 56.5 0.5 52.2467 0.5 47V10C0.5 4.7533 4.7533 0.500001 10 0.5Z" fill="black" stroke="white"/>
<mask id="path-2-outside-1_1931_1323" maskUnits="userSpaceOnUse" x="60.8828" y="9" width="114" height="14" fill="black">
<rect fill="white" x="60.8828" y="9" width="114" height="14"/>
<path d="M65.6487 21H62.1209V11.1621H65.7818C67.1796 11.1621 68.2713 11.6014 69.0833 12.4933C69.8954 13.3852 70.3081 14.5834 70.3081 16.101C70.3081 17.6053 69.8954 18.8034 69.0567 19.6821C68.2313 20.5607 67.0998 21 65.6487 21ZM63.4521 12.4267V19.7353H65.7019C66.7137 19.7353 67.4991 19.3892 68.0716 18.7102C68.644 18.018 68.9236 17.1394 68.9236 16.0611C68.9236 14.9961 68.644 14.1307 68.0716 13.4518C67.4991 12.7729 66.7137 12.4267 65.7019 12.4267H63.4521ZM75.2711 21.1731C74.1795 21.1731 73.2743 20.8136 72.5687 20.0947C71.8631 19.3626 71.517 18.4706 71.517 17.4189C71.517 16.3672 71.8631 15.4886 72.5687 14.7697C73.2743 14.0376 74.1795 13.6781 75.2711 13.6781C76.3494 13.6781 77.2414 14.0376 77.9469 14.7697C78.6525 15.5019 79.0119 16.3806 79.0119 17.4189C79.0119 18.4706 78.6525 19.3626 77.9469 20.0947C77.2414 20.8136 76.3494 21.1731 75.2711 21.1731ZM77.7339 17.4189C77.7339 16.7134 77.4943 16.1143 77.0151 15.6217C76.5358 15.1159 75.9501 14.8629 75.2711 14.8629C74.5922 14.8629 74.0064 15.1159 73.5272 15.6217C73.0479 16.1143 72.8083 16.7134 72.8083 17.4189C72.8083 18.1245 73.0479 18.7369 73.5272 19.2428C74.0064 19.7486 74.5922 20.0016 75.2711 20.0016C75.9501 20.0016 76.5358 19.7486 77.0151 19.2428C77.4943 18.7369 77.7339 18.1245 77.7339 17.4189ZM83.0431 20.9867H81.9914L79.5419 13.8645H80.8865L82.5772 19.2161L84.5208 13.8645H85.4128L87.4363 19.2161L89.0604 13.8645H90.3916L88.0087 20.9867H86.9437L84.9734 15.6484L83.0431 20.9867ZM92.8391 21H91.5611V13.8645H92.8124V14.8762C93.2651 14.0775 94.0239 13.6781 95.0756 13.6781C95.8743 13.6781 96.5399 13.9311 97.0857 14.4502C97.6316 14.9694 97.8978 15.7016 97.8978 16.6734V21H96.6331V17.0329C96.6331 15.6484 95.8876 14.8629 94.8093 14.8629C94.2369 14.8629 93.7576 15.0626 93.3849 15.4753C93.0254 15.888 92.8391 16.4072 92.8391 17.0462V21ZM101.068 10.9224V21H99.7904V10.9224H101.068ZM106.368 21.1731C105.277 21.1731 104.371 20.8136 103.666 20.0947C102.96 19.3626 102.614 18.4706 102.614 17.4189C102.614 16.3672 102.96 15.4886 103.666 14.7697C104.371 14.0376 105.277 13.6781 106.368 13.6781C107.447 13.6781 108.339 14.0376 109.044 14.7697C109.75 15.5019 110.109 16.3806 110.109 17.4189C110.109 18.4706 109.75 19.3626 109.044 20.0947C108.339 20.8136 107.447 21.1731 106.368 21.1731ZM108.831 17.4189C108.831 16.7134 108.591 16.1143 108.112 15.6217C107.633 15.1159 107.047 14.8629 106.368 14.8629C105.689 14.8629 105.104 15.1159 104.624 15.6217C104.145 16.1143 103.905 16.7134 103.905 17.4189C103.905 18.1245 104.145 18.7369 104.624 19.2428C105.104 19.7486 105.689 20.0016 106.368 20.0016C107.047 20.0016 107.633 19.7486 108.112 19.2428C108.591 18.7369 108.831 18.1245 108.831 17.4189ZM117.278 14.9029V13.8645H118.503V21H117.278V19.9882C116.639 20.7737 115.801 21.1731 114.762 21.1731C113.737 21.1731 112.885 20.8136 112.206 20.0814C111.527 19.3492 111.194 18.4573 111.194 17.379C111.194 16.314 111.527 15.4354 112.206 14.7431C112.885 14.0376 113.737 13.6914 114.762 13.6914C115.774 13.6914 116.613 14.0908 117.278 14.9029ZM117.358 17.4189C117.358 16.7134 117.132 16.101 116.679 15.6084C116.227 15.1159 115.641 14.8629 114.909 14.8629C114.176 14.8629 113.591 15.1159 113.151 15.6084C112.712 16.101 112.486 16.7134 112.486 17.4322C112.486 18.1511 112.712 18.7635 113.151 19.2561C113.591 19.7486 114.176 20.0016 114.909 20.0016C115.641 20.0016 116.227 19.7486 116.679 19.2561C117.132 18.7635 117.358 18.1511 117.358 17.4189ZM126.118 14.9029V10.9224H127.396V21H126.118V20.0016C125.493 20.787 124.667 21.1731 123.642 21.1731C122.604 21.1731 121.739 20.8136 121.06 20.0947C120.381 19.3626 120.048 18.4706 120.048 17.4189C120.048 16.3806 120.381 15.5019 121.06 14.7831C121.739 14.0509 122.591 13.6914 123.616 13.6914C124.641 13.6914 125.466 14.0908 126.118 14.9029ZM126.212 17.4189C126.212 16.7134 125.985 16.101 125.533 15.6084C125.093 15.1159 124.508 14.8629 123.775 14.8629C123.043 14.8629 122.457 15.1159 122.005 15.6084C121.565 16.101 121.339 16.7134 121.339 17.4189C121.339 18.1511 121.565 18.7635 122.005 19.2561C122.457 19.7486 123.043 20.0016 123.775 20.0016C124.508 20.0016 125.093 19.7486 125.533 19.2561C125.985 18.7635 126.212 18.1511 126.212 17.4189ZM135.97 21.1731C134.879 21.1731 133.974 20.8136 133.268 20.0947C132.562 19.3626 132.216 18.4706 132.216 17.4189C132.216 16.3672 132.562 15.4886 133.268 14.7697C133.974 14.0376 134.879 13.6781 135.97 13.6781C137.049 13.6781 137.941 14.0376 138.646 14.7697C139.352 15.5019 139.711 16.3806 139.711 17.4189C139.711 18.4706 139.352 19.3626 138.646 20.0947C137.941 20.8136 137.049 21.1731 135.97 21.1731ZM138.433 17.4189C138.433 16.7134 138.194 16.1143 137.714 15.6217C137.235 15.1159 136.649 14.8629 135.97 14.8629C135.291 14.8629 134.706 15.1159 134.226 15.6217C133.747 16.1143 133.508 16.7134 133.508 17.4189C133.508 18.1245 133.747 18.7369 134.226 19.2428C134.706 19.7486 135.291 20.0016 135.97 20.0016C136.649 20.0016 137.235 19.7486 137.714 19.2428C138.194 18.7369 138.433 18.1245 138.433 17.4189ZM142.514 21H141.236V13.8645H142.487V14.8762C142.94 14.0775 143.699 13.6781 144.75 13.6781C145.549 13.6781 146.215 13.9311 146.761 14.4502C147.306 14.9694 147.573 15.7016 147.573 16.6734V21H146.308V17.0329C146.308 15.6484 145.562 14.8629 144.484 14.8629C143.912 14.8629 143.432 15.0626 143.06 15.4753C142.7 15.888 142.514 16.4072 142.514 17.0462V21ZM156.726 19.5889L157.206 20.574C156.687 20.9734 156.061 21.1731 155.302 21.1731C153.798 21.1731 153.026 20.2012 153.026 18.4972V14.9561H151.761V13.8645H153.039V11.3351H154.29V13.8645H156.82V14.9561H154.29V18.5904C154.29 19.5356 154.676 20.0016 155.448 20.0016C155.861 20.0016 156.287 19.8684 156.726 19.5889ZM159.506 21H158.228V10.9224H159.466V14.7431C159.905 14.1041 160.757 13.6781 161.729 13.6781C162.514 13.6781 163.18 13.9311 163.726 14.4502C164.271 14.9694 164.538 15.7016 164.538 16.6734V21H163.273V17.0329C163.273 15.6351 162.541 14.8629 161.462 14.8629C160.304 14.8629 159.506 15.7549 159.506 17.0329V21ZM173.06 17.2991C173.06 17.3923 173.047 17.6053 173.021 17.9514H167.336C167.549 19.1629 168.348 19.9882 169.839 19.9882C170.691 19.9882 171.676 19.6687 172.328 19.1895L172.874 20.1613C172.169 20.7071 170.997 21.1598 169.812 21.1598C167.123 21.1598 166.005 19.2561 166.005 17.4056C166.005 16.3273 166.338 15.4487 167.003 14.7431C167.682 14.0376 168.548 13.6914 169.613 13.6914C170.624 13.6914 171.45 14.0109 172.089 14.6632C172.741 15.3156 173.06 16.1942 173.06 17.2991ZM167.336 16.8465H171.743C171.676 15.6084 170.784 14.823 169.613 14.823C168.441 14.823 167.549 15.6617 167.336 16.8465Z"/>
</mask>
<path d="M65.6487 21H62.1209V11.1621H65.7818C67.1796 11.1621 68.2713 11.6014 69.0833 12.4933C69.8954 13.3852 70.3081 14.5834 70.3081 16.101C70.3081 17.6053 69.8954 18.8034 69.0567 19.6821C68.2313 20.5607 67.0998 21 65.6487 21ZM63.4521 12.4267V19.7353H65.7019C66.7137 19.7353 67.4991 19.3892 68.0716 18.7102C68.644 18.018 68.9236 17.1394 68.9236 16.0611C68.9236 14.9961 68.644 14.1307 68.0716 13.4518C67.4991 12.7729 66.7137 12.4267 65.7019 12.4267H63.4521ZM75.2711 21.1731C74.1795 21.1731 73.2743 20.8136 72.5687 20.0947C71.8631 19.3626 71.517 18.4706 71.517 17.4189C71.517 16.3672 71.8631 15.4886 72.5687 14.7697C73.2743 14.0376 74.1795 13.6781 75.2711 13.6781C76.3494 13.6781 77.2414 14.0376 77.9469 14.7697C78.6525 15.5019 79.0119 16.3806 79.0119 17.4189C79.0119 18.4706 78.6525 19.3626 77.9469 20.0947C77.2414 20.8136 76.3494 21.1731 75.2711 21.1731ZM77.7339 17.4189C77.7339 16.7134 77.4943 16.1143 77.0151 15.6217C76.5358 15.1159 75.9501 14.8629 75.2711 14.8629C74.5922 14.8629 74.0064 15.1159 73.5272 15.6217C73.0479 16.1143 72.8083 16.7134 72.8083 17.4189C72.8083 18.1245 73.0479 18.7369 73.5272 19.2428C74.0064 19.7486 74.5922 20.0016 75.2711 20.0016C75.9501 20.0016 76.5358 19.7486 77.0151 19.2428C77.4943 18.7369 77.7339 18.1245 77.7339 17.4189ZM83.0431 20.9867H81.9914L79.5419 13.8645H80.8865L82.5772 19.2161L84.5208 13.8645H85.4128L87.4363 19.2161L89.0604 13.8645H90.3916L88.0087 20.9867H86.9437L84.9734 15.6484L83.0431 20.9867ZM92.8391 21H91.5611V13.8645H92.8124V14.8762C93.2651 14.0775 94.0239 13.6781 95.0756 13.6781C95.8743 13.6781 96.5399 13.9311 97.0857 14.4502C97.6316 14.9694 97.8978 15.7016 97.8978 16.6734V21H96.6331V17.0329C96.6331 15.6484 95.8876 14.8629 94.8093 14.8629C94.2369 14.8629 93.7576 15.0626 93.3849 15.4753C93.0254 15.888 92.8391 16.4072 92.8391 17.0462V21ZM101.068 10.9224V21H99.7904V10.9224H101.068ZM106.368 21.1731C105.277 21.1731 104.371 20.8136 103.666 20.0947C102.96 19.3626 102.614 18.4706 102.614 17.4189C102.614 16.3672 102.96 15.4886 103.666 14.7697C104.371 14.0376 105.277 13.6781 106.368 13.6781C107.447 13.6781 108.339 14.0376 109.044 14.7697C109.75 15.5019 110.109 16.3806 110.109 17.4189C110.109 18.4706 109.75 19.3626 109.044 20.0947C108.339 20.8136 107.447 21.1731 106.368 21.1731ZM108.831 17.4189C108.831 16.7134 108.591 16.1143 108.112 15.6217C107.633 15.1159 107.047 14.8629 106.368 14.8629C105.689 14.8629 105.104 15.1159 104.624 15.6217C104.145 16.1143 103.905 16.7134 103.905 17.4189C103.905 18.1245 104.145 18.7369 104.624 19.2428C105.104 19.7486 105.689 20.0016 106.368 20.0016C107.047 20.0016 107.633 19.7486 108.112 19.2428C108.591 18.7369 108.831 18.1245 108.831 17.4189ZM117.278 14.9029V13.8645H118.503V21H117.278V19.9882C116.639 20.7737 115.801 21.1731 114.762 21.1731C113.737 21.1731 112.885 20.8136 112.206 20.0814C111.527 19.3492 111.194 18.4573 111.194 17.379C111.194 16.314 111.527 15.4354 112.206 14.7431C112.885 14.0376 113.737 13.6914 114.762 13.6914C115.774 13.6914 116.613 14.0908 117.278 14.9029ZM117.358 17.4189C117.358 16.7134 117.132 16.101 116.679 15.6084C116.227 15.1159 115.641 14.8629 114.909 14.8629C114.176 14.8629 113.591 15.1159 113.151 15.6084C112.712 16.101 112.486 16.7134 112.486 17.4322C112.486 18.1511 112.712 18.7635 113.151 19.2561C113.591 19.7486 114.176 20.0016 114.909 20.0016C115.641 20.0016 116.227 19.7486 116.679 19.2561C117.132 18.7635 117.358 18.1511 117.358 17.4189ZM126.118 14.9029V10.9224H127.396V21H126.118V20.0016C125.493 20.787 124.667 21.1731 123.642 21.1731C122.604 21.1731 121.739 20.8136 121.06 20.0947C120.381 19.3626 120.048 18.4706 120.048 17.4189C120.048 16.3806 120.381 15.5019 121.06 14.7831C121.739 14.0509 122.591 13.6914 123.616 13.6914C124.641 13.6914 125.466 14.0908 126.118 14.9029ZM126.212 17.4189C126.212 16.7134 125.985 16.101 125.533 15.6084C125.093 15.1159 124.508 14.8629 123.775 14.8629C123.043 14.8629 122.457 15.1159 122.005 15.6084C121.565 16.101 121.339 16.7134 121.339 17.4189C121.339 18.1511 121.565 18.7635 122.005 19.2561C122.457 19.7486 123.043 20.0016 123.775 20.0016C124.508 20.0016 125.093 19.7486 125.533 19.2561C125.985 18.7635 126.212 18.1511 126.212 17.4189ZM135.97 21.1731C134.879 21.1731 133.974 20.8136 133.268 20.0947C132.562 19.3626 132.216 18.4706 132.216 17.4189C132.216 16.3672 132.562 15.4886 133.268 14.7697C133.974 14.0376 134.879 13.6781 135.97 13.6781C137.049 13.6781 137.941 14.0376 138.646 14.7697C139.352 15.5019 139.711 16.3806 139.711 17.4189C139.711 18.4706 139.352 19.3626 138.646 20.0947C137.941 20.8136 137.049 21.1731 135.97 21.1731ZM138.433 17.4189C138.433 16.7134 138.194 16.1143 137.714 15.6217C137.235 15.1159 136.649 14.8629 135.97 14.8629C135.291 14.8629 134.706 15.1159 134.226 15.6217C133.747 16.1143 133.508 16.7134 133.508 17.4189C133.508 18.1245 133.747 18.7369 134.226 19.2428C134.706 19.7486 135.291 20.0016 135.97 20.0016C136.649 20.0016 137.235 19.7486 137.714 19.2428C138.194 18.7369 138.433 18.1245 138.433 17.4189ZM142.514 21H141.236V13.8645H142.487V14.8762C142.94 14.0775 143.699 13.6781 144.75 13.6781C145.549 13.6781 146.215 13.9311 146.761 14.4502C147.306 14.9694 147.573 15.7016 147.573 16.6734V21H146.308V17.0329C146.308 15.6484 145.562 14.8629 144.484 14.8629C143.912 14.8629 143.432 15.0626 143.06 15.4753C142.7 15.888 142.514 16.4072 142.514 17.0462V21ZM156.726 19.5889L157.206 20.574C156.687 20.9734 156.061 21.1731 155.302 21.1731C153.798 21.1731 153.026 20.2012 153.026 18.4972V14.9561H151.761V13.8645H153.039V11.3351H154.29V13.8645H156.82V14.9561H154.29V18.5904C154.29 19.5356 154.676 20.0016 155.448 20.0016C155.861 20.0016 156.287 19.8684 156.726 19.5889ZM159.506 21H158.228V10.9224H159.466V14.7431C159.905 14.1041 160.757 13.6781 161.729 13.6781C162.514 13.6781 163.18 13.9311 163.726 14.4502C164.271 14.9694 164.538 15.7016 164.538 16.6734V21H163.273V17.0329C163.273 15.6351 162.541 14.8629 161.462 14.8629C160.304 14.8629 159.506 15.7549 159.506 17.0329V21ZM173.06 17.2991C173.06 17.3923 173.047 17.6053 173.021 17.9514H167.336C167.549 19.1629 168.348 19.9882 169.839 19.9882C170.691 19.9882 171.676 19.6687 172.328 19.1895L172.874 20.1613C172.169 20.7071 170.997 21.1598 169.812 21.1598C167.123 21.1598 166.005 19.2561 166.005 17.4056C166.005 16.3273 166.338 15.4487 167.003 14.7431C167.682 14.0376 168.548 13.6914 169.613 13.6914C170.624 13.6914 171.45 14.0109 172.089 14.6632C172.741 15.3156 173.06 16.1942 173.06 17.2991ZM167.336 16.8465H171.743C171.676 15.6084 170.784 14.823 169.613 14.823C168.441 14.823 167.549 15.6617 167.336 16.8465Z" fill="white"/>
<path d="M62.1209 21H61.1209V22H62.1209V21ZM62.1209 11.1621V10.1621H61.1209V11.1621H62.1209ZM69.0833 12.4933L69.8228 11.8201L69.8228 11.8201L69.0833 12.4933ZM69.0567 19.6821L68.3333 18.9916L68.3278 18.9974L69.0567 19.6821ZM63.4521 12.4267V11.4267H62.4521V12.4267H63.4521ZM63.4521 19.7353H62.4521V20.7353H63.4521V19.7353ZM68.0716 18.7102L68.8361 19.3549L68.8422 19.3475L68.0716 18.7102ZM68.0716 13.4518L68.8361 12.8072L68.8361 12.8072L68.0716 13.4518ZM65.6487 21V20H62.1209V21V22H65.6487V21ZM62.1209 21H63.1209V11.1621H62.1209H61.1209V21H62.1209ZM62.1209 11.1621V12.1621H65.7818V11.1621V10.1621H62.1209V11.1621ZM65.7818 11.1621V12.1621C66.948 12.1621 67.7525 12.517 68.3439 13.1665L69.0833 12.4933L69.8228 11.8201C68.79 10.6858 67.4112 10.1621 65.7818 10.1621V11.1621ZM69.0833 12.4933L68.3439 13.1665C68.951 13.8334 69.3081 14.7709 69.3081 16.101H70.3081H71.3081C71.3081 14.3959 70.8397 12.9371 69.8228 11.8201L69.0833 12.4933ZM70.3081 16.101H69.3081C69.3081 17.418 68.9515 18.344 68.3333 18.9916L69.0567 19.6821L69.78 20.3725C70.8393 19.2628 71.3081 17.7926 71.3081 16.101H70.3081ZM69.0567 19.6821L68.3278 18.9974C67.7285 19.6354 66.8829 20 65.6487 20V21V22C67.3166 22 68.7341 21.486 69.7855 20.3667L69.0567 19.6821ZM63.4521 12.4267H62.4521V19.7353H63.4521H64.4521V12.4267H63.4521ZM63.4521 19.7353V20.7353H65.7019V19.7353V18.7353H63.4521V19.7353ZM65.7019 19.7353V20.7353C66.9704 20.7353 68.0504 20.2867 68.8361 19.3548L68.0716 18.7102L67.307 18.0657C66.9478 18.4917 66.4569 18.7353 65.7019 18.7353V19.7353ZM68.0716 18.7102L68.8422 19.3475C69.593 18.4395 69.9236 17.3199 69.9236 16.0611H68.9236H67.9236C67.9236 16.9589 67.695 17.5965 67.3009 18.073L68.0716 18.7102ZM68.9236 16.0611H69.9236C69.9236 14.8128 69.5914 13.7031 68.8361 12.8072L68.0716 13.4518L67.307 14.0964C67.6966 14.5584 67.9236 15.1793 67.9236 16.0611H68.9236ZM68.0716 13.4518L68.8361 12.8072C68.0504 11.8754 66.9704 11.4267 65.7019 11.4267V12.4267V13.4267C66.4569 13.4267 66.9478 13.6704 67.307 14.0964L68.0716 13.4518ZM65.7019 12.4267V11.4267H63.4521V12.4267V13.4267H65.7019V12.4267ZM72.5687 20.0948L71.8486 20.7887L71.855 20.7952L72.5687 20.0948ZM72.5687 14.7697L73.2824 15.4702L73.2888 15.4636L72.5687 14.7697ZM77.9469 14.7697L78.667 14.0759L78.667 14.0759L77.9469 14.7697ZM77.9469 20.0948L78.6607 20.7952L78.667 20.7886L77.9469 20.0948ZM77.0151 15.6217L76.289 16.3096L76.2983 16.3191L77.0151 15.6217ZM73.5272 15.6217L74.244 16.3192L74.2531 16.3095L73.5272 15.6217ZM73.5272 19.2428L72.8012 19.9305V19.9305L73.5272 19.2428ZM77.0151 19.2428L77.741 19.9305V19.9305L77.0151 19.2428ZM75.2711 21.1731V20.1731C74.4212 20.1731 73.7819 19.9033 73.2824 19.3943L72.5687 20.0948L71.855 20.7952C72.7666 21.724 73.9378 22.1731 75.2711 22.1731V21.1731ZM72.5687 20.0948L73.2888 19.4009C72.7727 18.8653 72.517 18.2264 72.517 17.4189H71.517H70.517C70.517 18.7148 70.9536 19.8598 71.8486 20.7886L72.5687 20.0948ZM71.517 17.4189H72.517C72.517 16.6135 72.7711 15.9912 73.2824 15.4702L72.5687 14.7697L71.855 14.0693C70.9552 14.9861 70.517 16.121 70.517 17.4189H71.517ZM72.5687 14.7697L73.2888 15.4636C73.7866 14.947 74.4222 14.6781 75.2711 14.6781V13.6781V12.6781C73.9368 12.6781 72.7619 13.1281 71.8486 14.0759L72.5687 14.7697ZM75.2711 13.6781V14.6781C76.1009 14.6781 76.7253 14.9431 77.2269 15.4636L77.9469 14.7697L78.667 14.0759C77.7575 13.132 76.598 12.6781 75.2711 12.6781V13.6781ZM77.9469 14.7697L77.2269 15.4636C77.7532 16.0098 78.0119 16.6398 78.0119 17.4189H79.0119H80.0119C80.0119 16.1213 79.5519 14.9941 78.667 14.0759L77.9469 14.7697ZM79.0119 17.4189H78.0119C78.0119 18.217 77.7493 18.8587 77.2269 19.4009L77.9469 20.0948L78.667 20.7886C79.5557 19.8664 80.0119 18.7243 80.0119 17.4189H79.0119ZM77.9469 20.0948L77.2333 19.3943C76.73 19.9071 76.102 20.1731 75.2711 20.1731V21.1731V22.1731C76.5969 22.1731 77.7528 21.7202 78.6606 20.7952L77.9469 20.0948ZM77.7339 17.4189H78.7339C78.7339 16.4606 78.398 15.6091 77.7318 14.9244L77.0151 15.6217L76.2983 16.3191C76.5906 16.6195 76.7339 16.9661 76.7339 17.4189H77.7339ZM77.0151 15.6217L77.741 14.934C77.0764 14.2325 76.2297 13.8629 75.2711 13.8629V14.8629V15.8629C75.6704 15.8629 75.9952 15.9993 76.2891 16.3095L77.0151 15.6217ZM75.2711 14.8629V13.8629C74.3125 13.8629 73.4658 14.2325 72.8012 14.934L73.5272 15.6217L74.2531 16.3095C74.5471 15.9993 74.8718 15.8629 75.2711 15.8629V14.8629ZM73.5272 15.6217L72.8105 14.9244C72.1442 15.6091 71.8083 16.4606 71.8083 17.4189H72.8083H73.8083C73.8083 16.9661 73.9516 16.6195 74.2439 16.3191L73.5272 15.6217ZM72.8083 17.4189H71.8083C71.8083 18.3741 72.1417 19.2344 72.8012 19.9305L73.5272 19.2428L74.2531 18.555C73.9541 18.2394 73.8083 17.8749 73.8083 17.4189H72.8083ZM73.5272 19.2428L72.8012 19.9305C73.4658 20.632 74.3125 21.0016 75.2711 21.0016V20.0016V19.0016C74.8718 19.0016 74.5471 18.8652 74.2531 18.555L73.5272 19.2428ZM75.2711 20.0016V21.0016C76.2297 21.0016 77.0764 20.632 77.741 19.9305L77.0151 19.2428L76.2891 18.555C75.9952 18.8652 75.6704 19.0016 75.2711 19.0016V20.0016ZM77.0151 19.2428L77.741 19.9305C78.4005 19.2344 78.7339 18.3741 78.7339 17.4189H77.7339H76.7339C76.7339 17.8749 76.5881 18.2394 76.2891 18.555L77.0151 19.2428ZM83.0431 20.9867V21.9867H83.7449L83.9835 21.3267L83.0431 20.9867ZM81.9914 20.9867L81.0458 21.3119L81.2779 21.9867H81.9914V20.9867ZM79.5419 13.8645V12.8645H78.1405L78.5963 14.1897L79.5419 13.8645ZM80.8865 13.8645L81.8401 13.5633L81.6193 12.8645H80.8865V13.8645ZM82.5772 19.2161L81.6236 19.5174L82.5113 22.327L83.5171 19.5575L82.5772 19.2161ZM84.5208 13.8645V12.8645H83.8201L83.5809 13.5231L84.5208 13.8645ZM85.4128 13.8645L86.3481 13.5108L86.1037 12.8645H85.4128V13.8645ZM87.4363 19.2161L86.5009 19.5698L87.54 22.3179L88.3932 19.5065L87.4363 19.2161ZM89.0604 13.8645V12.8645H88.3188L88.1035 13.5741L89.0604 13.8645ZM90.3916 13.8645L91.34 14.1818L91.7807 12.8645H90.3916V13.8645ZM88.0087 20.9867V21.9867H88.7286L88.957 21.304L88.0087 20.9867ZM86.9437 20.9867L86.0056 21.3329L86.2468 21.9867H86.9437V20.9867ZM84.9734 15.6484L85.9116 15.3021L84.9638 12.7342L84.033 15.3083L84.9734 15.6484ZM83.0431 20.9867V19.9867H81.9914V20.9867V21.9867H83.0431V20.9867ZM81.9914 20.9867L82.9371 20.6615L80.4876 13.5393L79.5419 13.8645L78.5963 14.1897L81.0458 21.3119L81.9914 20.9867ZM79.5419 13.8645V14.8645H80.8865V13.8645V12.8645H79.5419V13.8645ZM80.8865 13.8645L79.933 14.1657L81.6236 19.5174L82.5772 19.2161L83.5307 18.9149L81.8401 13.5633L80.8865 13.8645ZM82.5772 19.2161L83.5171 19.5575L85.4608 14.2059L84.5208 13.8645L83.5809 13.5231L81.6373 18.8748L82.5772 19.2161ZM84.5208 13.8645V14.8645H85.4128V13.8645V12.8645H84.5208V13.8645ZM85.4128 13.8645L84.4774 14.2182L86.5009 19.5698L87.4363 19.2161L88.3716 18.8625L86.3481 13.5108L85.4128 13.8645ZM87.4363 19.2161L88.3932 19.5065L90.0173 14.1549L89.0604 13.8645L88.1035 13.5741L86.4794 18.9257L87.4363 19.2161ZM89.0604 13.8645V14.8645H90.3916V13.8645V12.8645H89.0604V13.8645ZM90.3916 13.8645L89.4433 13.5472L87.0604 20.6694L88.0087 20.9867L88.957 21.304L91.34 14.1818L90.3916 13.8645ZM88.0087 20.9867V19.9867H86.9437V20.9867V21.9867H88.0087V20.9867ZM86.9437 20.9867L87.8818 20.6404L85.9116 15.3021L84.9734 15.6484L84.0353 15.9946L86.0056 21.3329L86.9437 20.9867ZM84.9734 15.6484L84.033 15.3083L82.1027 20.6466L83.0431 20.9867L83.9835 21.3267L85.9139 15.9884L84.9734 15.6484ZM92.8391 21V22H93.8391V21H92.8391ZM91.5611 21H90.5611V22H91.5611V21ZM91.5611 13.8645V12.8645H90.5611V13.8645H91.5611ZM92.8124 13.8645H93.8124V12.8645H92.8124V13.8645ZM92.8124 14.8762H91.8124V18.6693L93.6824 15.3693L92.8124 14.8762ZM97.8978 21V22H98.8978V21H97.8978ZM96.6331 21H95.6331V22H96.6331V21ZM93.3849 15.4753L92.6428 14.805L92.6367 14.8117L92.6308 14.8185L93.3849 15.4753ZM92.8391 21V20H91.5611V21V22H92.8391V21ZM91.5611 21H92.5611V13.8645H91.5611H90.5611V21H91.5611ZM91.5611 13.8645V14.8645H92.8124V13.8645V12.8645H91.5611V13.8645ZM92.8124 13.8645H91.8124V14.8762H92.8124H93.8124V13.8645H92.8124ZM92.8124 14.8762L93.6824 15.3693C93.9272 14.9374 94.318 14.6781 95.0756 14.6781V13.6781V12.6781C93.7297 12.6781 92.6029 13.2176 91.9424 14.3832L92.8124 14.8762ZM95.0756 13.6781V14.6781C95.6387 14.6781 96.0513 14.8464 96.3965 15.1748L97.0857 14.4502L97.775 13.7257C97.0286 13.0157 96.1099 12.6781 95.0756 12.6781V13.6781ZM97.0857 14.4502L96.3965 15.1748C96.6895 15.4535 96.8978 15.8901 96.8978 16.6734H97.8978H98.8978C98.8978 15.5132 98.5736 14.4854 97.775 13.7257L97.0857 14.4502ZM97.8978 16.6734H96.8978V21H97.8978H98.8978V16.6734H97.8978ZM97.8978 21V20H96.6331V21V22H97.8978V21ZM96.6331 21H97.6331V17.0329H96.6331H95.6331V21H96.6331ZM96.6331 17.0329H97.6331C97.6331 16.1677 97.3992 15.3696 96.8803 14.7726C96.349 14.1616 95.6058 13.8629 94.8093 13.8629V14.8629V15.8629C95.0911 15.8629 95.2598 15.957 95.3709 16.0848C95.4942 16.2267 95.6331 16.5136 95.6331 17.0329H96.6331ZM94.8093 14.8629V13.8629C93.9761 13.8629 93.2194 14.1666 92.6428 14.805L93.3849 15.4753L94.127 16.1456C94.2958 15.9587 94.4976 15.8629 94.8093 15.8629V14.8629ZM93.3849 15.4753L92.6308 14.8185C92.0934 15.4355 91.8391 16.197 91.8391 17.0462H92.8391H93.8391C93.8391 16.6174 93.9574 16.3405 94.1389 16.1321L93.3849 15.4753ZM92.8391 17.0462H91.8391V21H92.8391H93.8391V17.0462H92.8391ZM101.068 10.9224H102.068V9.92244H101.068V10.9224ZM101.068 21V22H102.068V21H101.068ZM99.7904 21H98.7904V22H99.7904V21ZM99.7904 10.9224V9.92244H98.7904V10.9224H99.7904ZM101.068 10.9224H100.068V21H101.068H102.068V10.9224H101.068ZM101.068 21V20H99.7904V21V22H101.068V21ZM99.7904 21H100.79V10.9224H99.7904H98.7904V21H99.7904ZM99.7904 10.9224V11.9224H101.068V10.9224V9.92244H99.7904V10.9224ZM103.666 20.0948L102.946 20.7887L102.952 20.7952L103.666 20.0948ZM103.666 14.7697L104.38 15.4702L104.386 15.4636L103.666 14.7697ZM109.044 14.7697L109.764 14.0759V14.0759L109.044 14.7697ZM109.044 20.0948L109.758 20.7952L109.764 20.7886L109.044 20.0948ZM108.112 15.6217L107.386 16.3096L107.396 16.3191L108.112 15.6217ZM104.624 15.6217L105.341 16.3192L105.35 16.3095L104.624 15.6217ZM104.624 19.2428L103.898 19.9305V19.9305L104.624 19.2428ZM108.112 19.2428L108.838 19.9305V19.9305L108.112 19.2428ZM106.368 21.1731V20.1731C105.518 20.1731 104.879 19.9033 104.38 19.3943L103.666 20.0948L102.952 20.7952C103.864 21.724 105.035 22.1731 106.368 22.1731V21.1731ZM103.666 20.0948L104.386 19.4009C103.87 18.8653 103.614 18.2264 103.614 17.4189H102.614H101.614C101.614 18.7148 102.051 19.8598 102.946 20.7886L103.666 20.0948ZM102.614 17.4189H103.614C103.614 16.6135 103.868 15.9912 104.38 15.4702L103.666 14.7697L102.952 14.0693C102.052 14.9861 101.614 16.121 101.614 17.4189H102.614ZM103.666 14.7697L104.386 15.4636C104.884 14.947 105.519 14.6781 106.368 14.6781V13.6781V12.6781C105.034 12.6781 103.859 13.1281 102.946 14.0759L103.666 14.7697ZM106.368 13.6781V14.6781C107.198 14.6781 107.822 14.9431 108.324 15.4636L109.044 14.7697L109.764 14.0759C108.855 13.132 107.695 12.6781 106.368 12.6781V13.6781ZM109.044 14.7697L108.324 15.4636C108.85 16.0098 109.109 16.6398 109.109 17.4189H110.109H111.109C111.109 16.1213 110.649 14.9941 109.764 14.0759L109.044 14.7697ZM110.109 17.4189H109.109C109.109 18.217 108.846 18.8587 108.324 19.4009L109.044 20.0948L109.764 20.7886C110.653 19.8664 111.109 18.7243 111.109 17.4189H110.109ZM109.044 20.0948L108.33 19.3943C107.827 19.9071 107.199 20.1731 106.368 20.1731V21.1731V22.1731C107.694 22.1731 108.85 21.7202 109.758 20.7952L109.044 20.0948ZM108.831 17.4189H109.831C109.831 16.4606 109.495 15.6091 108.829 14.9244L108.112 15.6217L107.396 16.3191C107.688 16.6195 107.831 16.9661 107.831 17.4189H108.831ZM108.112 15.6217L108.838 14.934C108.174 14.2325 107.327 13.8629 106.368 13.8629V14.8629V15.8629C106.768 15.8629 107.092 15.9993 107.386 16.3095L108.112 15.6217ZM106.368 14.8629V13.8629C105.41 13.8629 104.563 14.2325 103.898 14.934L104.624 15.6217L105.35 16.3095C105.644 15.9993 105.969 15.8629 106.368 15.8629V14.8629ZM104.624 15.6217L103.908 14.9244C103.241 15.6091 102.905 16.4606 102.905 17.4189H103.905H104.905C104.905 16.9661 105.049 16.6195 105.341 16.3191L104.624 15.6217ZM103.905 17.4189H102.905C102.905 18.3741 103.239 19.2344 103.898 19.9305L104.624 19.2428L105.35 18.555C105.051 18.2394 104.905 17.8749 104.905 17.4189H103.905ZM104.624 19.2428L103.898 19.9305C104.563 20.632 105.41 21.0016 106.368 21.0016V20.0016V19.0016C105.969 19.0016 105.644 18.8652 105.35 18.555L104.624 19.2428ZM106.368 20.0016V21.0016C107.327 21.0016 108.174 20.632 108.838 19.9305L108.112 19.2428L107.386 18.555C107.092 18.8652 106.768 19.0016 106.368 19.0016V20.0016ZM108.112 19.2428L108.838 19.9305C109.498 19.2344 109.831 18.3741 109.831 17.4189H108.831H107.831C107.831 17.8749 107.685 18.2394 107.386 18.555L108.112 19.2428ZM117.278 14.9029L116.505 15.5368L118.278 17.7003V14.9029H117.278ZM117.278 13.8645V12.8645H116.278V13.8645H117.278ZM118.503 13.8645H119.503V12.8645H118.503V13.8645ZM118.503 21V22H119.503V21H118.503ZM117.278 21H116.278V22H117.278V21ZM117.278 19.9882H118.278V17.1745L116.503 19.3572L117.278 19.9882ZM112.206 20.0814L112.94 19.4015V19.4015L112.206 20.0814ZM112.206 14.7431L112.92 15.4434L112.927 15.4365L112.206 14.7431ZM116.679 15.6084L115.943 16.2851V16.2851L116.679 15.6084ZM113.151 19.2561L113.898 18.5904V18.5904L113.151 19.2561ZM116.679 19.2561L115.943 18.5794V18.5794L116.679 19.2561ZM117.278 14.9029H118.278V13.8645H117.278H116.278V14.9029H117.278ZM117.278 13.8645V14.8645H118.503V13.8645V12.8645H117.278V13.8645ZM118.503 13.8645H117.503V21H118.503H119.503V13.8645H118.503ZM118.503 21V20H117.278V21V22H118.503V21ZM117.278 21H118.278V19.9882H117.278H116.278V21H117.278ZM117.278 19.9882L116.503 19.3572C116.056 19.9061 115.504 20.1731 114.762 20.1731V21.1731V22.1731C116.097 22.1731 117.223 21.6413 118.054 20.6193L117.278 19.9882ZM114.762 21.1731V20.1731C114.002 20.1731 113.42 19.9201 112.94 19.4015L112.206 20.0814L111.473 20.7614C112.35 21.7072 113.472 22.1731 114.762 22.1731V21.1731ZM112.206 20.0814L112.94 19.4015C112.447 18.8706 112.194 18.2283 112.194 17.379H111.194H110.194C110.194 18.6863 110.607 19.8279 111.473 20.7614L112.206 20.0814ZM111.194 17.379H112.194C112.194 16.5426 112.447 15.9262 112.92 15.4433L112.206 14.7431L111.492 14.0429C110.608 14.9446 110.194 16.0854 110.194 17.379H111.194ZM112.206 14.7431L112.927 15.4365C113.404 14.9403 113.99 14.6914 114.762 14.6914V13.6914V12.6914C113.485 12.6914 112.366 13.1348 111.486 14.0497L112.206 14.7431ZM114.762 13.6914V14.6914C115.466 14.6914 116.024 14.9501 116.505 15.5368L117.278 14.9029L118.052 14.2689C117.201 13.2315 116.082 12.6914 114.762 12.6914V13.6914ZM117.358 17.4189H118.358C118.358 16.4832 118.051 15.6234 117.416 14.9318L116.679 15.6084L115.943 16.2851C116.213 16.5786 116.358 16.9436 116.358 17.4189H117.358ZM116.679 15.6084L117.416 14.9318C116.761 14.2194 115.902 13.8629 114.909 13.8629V14.8629V15.8629C115.38 15.8629 115.692 16.0123 115.943 16.2851L116.679 15.6084ZM114.909 14.8629V13.8629C113.919 13.8629 113.052 14.2179 112.405 14.9428L113.151 15.6084L113.898 16.2741C114.13 16.0139 114.434 15.8629 114.909 15.8629V14.8629ZM113.151 15.6084L112.405 14.9428C111.79 15.6324 111.486 16.487 111.486 17.4323H112.486H113.486C113.486 16.9397 113.634 16.5696 113.898 16.2741L113.151 15.6084ZM112.486 17.4323H111.486C111.486 18.3775 111.79 19.2321 112.405 19.9217L113.151 19.2561L113.898 18.5904C113.634 18.2949 113.486 17.9248 113.486 17.4323H112.486ZM113.151 19.2561L112.405 19.9217C113.052 20.6466 113.919 21.0016 114.909 21.0016V20.0016V19.0016C114.434 19.0016 114.13 18.8506 113.898 18.5904L113.151 19.2561ZM114.909 20.0016V21.0016C115.902 21.0016 116.761 20.6451 117.416 19.9327L116.679 19.2561L115.943 18.5794C115.692 18.8522 115.38 19.0016 114.909 19.0016V20.0016ZM116.679 19.2561L117.416 19.9327C118.054 19.2375 118.358 18.376 118.358 17.4189H117.358H116.358C116.358 17.9262 116.209 18.2895 115.943 18.5794L116.679 19.2561ZM126.118 14.9029L125.339 15.5291L127.118 17.7446V14.9029H126.118ZM126.118 10.9224V9.92244H125.118V10.9224H126.118ZM127.396 10.9224H128.396V9.92244H127.396V10.9224ZM127.396 21V22H128.396V21H127.396ZM126.118 21H125.118V22H126.118V21ZM126.118 20.0016H127.118V17.1413L125.336 19.3785L126.118 20.0016ZM121.06 20.0948L120.326 20.7747L120.333 20.7814L121.06 20.0948ZM121.06 14.7831L121.787 15.4697L121.793 15.463L121.06 14.7831ZM125.533 15.6084L124.786 16.2741L124.791 16.2796L124.796 16.2851L125.533 15.6084ZM122.005 15.6084L121.268 14.9318L121.263 14.9373L121.258 14.9428L122.005 15.6084ZM122.005 19.2561L121.258 19.9217L121.263 19.9272L121.268 19.9327L122.005 19.2561ZM125.533 19.2561L124.796 18.5794L124.791 18.5849L124.786 18.5904L125.533 19.2561ZM126.118 14.9029H127.118V10.9224H126.118H125.118V14.9029H126.118ZM126.118 10.9224V11.9224H127.396V10.9224V9.92244H126.118V10.9224ZM127.396 10.9224H126.396V21H127.396H128.396V10.9224H127.396ZM127.396 21V20H126.118V21V22H127.396V21ZM126.118 21H127.118V20.0016H126.118H125.118V21H126.118ZM126.118 20.0016L125.336 19.3785C124.908 19.9163 124.375 20.1731 123.642 20.1731V21.1731V22.1731C124.959 22.1731 126.078 21.6577 126.9 20.6246L126.118 20.0016ZM123.642 21.1731V20.1731C122.861 20.1731 122.265 19.9146 121.787 19.4081L121.06 20.0948L120.333 20.7814C121.212 21.7127 122.346 22.1731 123.642 22.1731V21.1731ZM121.06 20.0948L121.793 19.4148C121.298 18.8814 121.048 18.238 121.048 17.4189H120.048H119.048C119.048 18.7032 119.463 19.8437 120.326 20.7747L121.06 20.0948ZM120.048 17.4189H121.048C121.048 16.6169 121.296 15.9896 121.787 15.4697L121.06 14.7831L120.333 14.0964C119.466 15.0143 119.048 16.1442 119.048 17.4189H120.048ZM121.06 14.7831L121.793 15.463C122.274 14.9444 122.856 14.6914 123.616 14.6914V13.6914V12.6914C122.325 12.6914 121.203 13.1573 120.326 14.1031L121.06 14.7831ZM123.616 13.6914V14.6914C124.332 14.6914 124.873 14.949 125.339 15.5291L126.118 14.9029L126.898 14.2766C126.059 13.2326 124.949 12.6914 123.616 12.6914V13.6914ZM126.212 17.4189H127.212C127.212 16.4832 126.904 15.6234 126.269 14.9318L125.533 15.6084L124.796 16.2851C125.066 16.5786 125.212 16.9436 125.212 17.4189H126.212ZM125.533 15.6084L126.279 14.9428C125.632 14.2179 124.765 13.8629 123.775 13.8629V14.8629V15.8629C124.25 15.8629 124.554 16.0139 124.786 16.2741L125.533 15.6084ZM123.775 14.8629V13.8629C122.782 13.8629 121.923 14.2194 121.268 14.9318L122.005 15.6084L122.741 16.2851C122.992 16.0123 123.304 15.8629 123.775 15.8629V14.8629ZM122.005 15.6084L121.258 14.9428C120.645 15.6306 120.339 16.4844 120.339 17.4189H121.339H122.339C122.339 16.9423 122.486 16.5714 122.751 16.2741L122.005 15.6084ZM121.339 17.4189H120.339C120.339 18.3749 120.642 19.2303 121.258 19.9217L122.005 19.2561L122.751 18.5904C122.489 18.2967 122.339 17.9274 122.339 17.4189H121.339ZM122.005 19.2561L121.268 19.9327C121.923 20.6451 122.782 21.0016 123.775 21.0016V20.0016V19.0016C123.304 19.0016 122.992 18.8522 122.741 18.5794L122.005 19.2561ZM123.775 20.0016V21.0016C124.765 21.0016 125.632 20.6466 126.279 19.9217L125.533 19.2561L124.786 18.5904C124.554 18.8506 124.25 19.0016 123.775 19.0016V20.0016ZM125.533 19.2561L126.269 19.9327C126.908 19.2375 127.212 18.376 127.212 17.4189H126.212H125.212C125.212 17.9262 125.063 18.2895 124.796 18.5794L125.533 19.2561ZM133.268 20.0948L132.548 20.7887L132.554 20.7952L133.268 20.0948ZM133.268 14.7697L133.982 15.4702L133.988 15.4636L133.268 14.7697ZM138.646 14.7697L139.366 14.0759V14.0759L138.646 14.7697ZM138.646 20.0948L139.36 20.7952L139.366 20.7886L138.646 20.0948ZM137.714 15.6217L136.988 16.3096L136.998 16.3191L137.714 15.6217ZM134.226 15.6217L134.943 16.3192L134.952 16.3095L134.226 15.6217ZM134.226 19.2428L133.501 19.9305V19.9305L134.226 19.2428ZM137.714 19.2428L138.44 19.9305V19.9305L137.714 19.2428ZM135.97 21.1731V20.1731C135.12 20.1731 134.481 19.9033 133.982 19.3943L133.268 20.0948L132.554 20.7952C133.466 21.724 134.637 22.1731 135.97 22.1731V21.1731ZM133.268 20.0948L133.988 19.4009C133.472 18.8653 133.216 18.2264 133.216 17.4189H132.216H131.216C131.216 18.7148 131.653 19.8598 132.548 20.7886L133.268 20.0948ZM132.216 17.4189H133.216C133.216 16.6135 133.47 15.9912 133.982 15.4702L133.268 14.7697L132.554 14.0693C131.654 14.9861 131.216 16.121 131.216 17.4189H132.216ZM133.268 14.7697L133.988 15.4636C134.486 14.947 135.121 14.6781 135.97 14.6781V13.6781V12.6781C134.636 12.6781 133.461 13.1281 132.548 14.0759L133.268 14.7697ZM135.97 13.6781V14.6781C136.8 14.6781 137.425 14.9431 137.926 15.4636L138.646 14.7697L139.366 14.0759C138.457 13.132 137.297 12.6781 135.97 12.6781V13.6781ZM138.646 14.7697L137.926 15.4636C138.452 16.0098 138.711 16.6398 138.711 17.4189H139.711H140.711C140.711 16.1213 140.251 14.9941 139.366 14.0759L138.646 14.7697ZM139.711 17.4189H138.711C138.711 18.217 138.449 18.8587 137.926 19.4009L138.646 20.0948L139.366 20.7886C140.255 19.8664 140.711 18.7243 140.711 17.4189H139.711ZM138.646 20.0948L137.933 19.3943C137.429 19.9071 136.801 20.1731 135.97 20.1731V21.1731V22.1731C137.296 22.1731 138.452 21.7202 139.36 20.7952L138.646 20.0948ZM138.433 17.4189H139.433C139.433 16.4606 139.097 15.6091 138.431 14.9244L137.714 15.6217L136.998 16.3191C137.29 16.6195 137.433 16.9661 137.433 17.4189H138.433ZM137.714 15.6217L138.44 14.934C137.776 14.2325 136.929 13.8629 135.97 13.8629V14.8629V15.8629C136.37 15.8629 136.694 15.9993 136.988 16.3095L137.714 15.6217ZM135.97 14.8629V13.8629C135.012 13.8629 134.165 14.2325 133.501 14.934L134.226 15.6217L134.952 16.3095C135.246 15.9993 135.571 15.8629 135.97 15.8629V14.8629ZM134.226 15.6217L133.51 14.9244C132.844 15.6091 132.508 16.4606 132.508 17.4189H133.508H134.508C134.508 16.9661 134.651 16.6195 134.943 16.3191L134.226 15.6217ZM133.508 17.4189H132.508C132.508 18.3741 132.841 19.2344 133.501 19.9305L134.226 19.2428L134.952 18.555C134.653 18.2394 134.508 17.8749 134.508 17.4189H133.508ZM134.226 19.2428L133.501 19.9305C134.165 20.632 135.012 21.0016 135.97 21.0016V20.0016V19.0016C135.571 19.0016 135.246 18.8652 134.952 18.555L134.226 19.2428ZM135.97 20.0016V21.0016C136.929 21.0016 137.776 20.632 138.44 19.9305L137.714 19.2428L136.988 18.555C136.694 18.8652 136.37 19.0016 135.97 19.0016V20.0016ZM137.714 19.2428L138.44 19.9305C139.1 19.2344 139.433 18.3741 139.433 17.4189H138.433H137.433C137.433 17.8749 137.287 18.2394 136.988 18.555L137.714 19.2428ZM142.514 21V22H143.514V21H142.514ZM141.236 21H140.236V22H141.236V21ZM141.236 13.8645V12.8645H140.236V13.8645H141.236ZM142.487 13.8645H143.487V12.8645H142.487V13.8645ZM142.487 14.8762H141.487V18.6693L143.357 15.3693L142.487 14.8762ZM147.573 21V22H148.573V21H147.573ZM146.308 21H145.308V22H146.308V21ZM143.06 15.4753L142.318 14.805L142.312 14.8117L142.306 14.8185L143.06 15.4753ZM142.514 21V20H141.236V21V22H142.514V21ZM141.236 21H142.236V13.8645H141.236H140.236V21H141.236ZM141.236 13.8645V14.8645H142.487V13.8645V12.8645H141.236V13.8645ZM142.487 13.8645H141.487V14.8762H142.487H143.487V13.8645H142.487ZM142.487 14.8762L143.357 15.3693C143.602 14.9374 143.993 14.6781 144.75 14.6781V13.6781V12.6781C143.405 12.6781 142.278 13.2176 141.617 14.3832L142.487 14.8762ZM144.75 13.6781V14.6781C145.314 14.6781 145.726 14.8464 146.071 15.1748L146.761 14.4502L147.45 13.7257C146.703 13.0157 145.785 12.6781 144.75 12.6781V13.6781ZM146.761 14.4502L146.071 15.1748C146.364 15.4535 146.573 15.8901 146.573 16.6734H147.573H148.573C148.573 15.5132 148.248 14.4854 147.45 13.7257L146.761 14.4502ZM147.573 16.6734H146.573V21H147.573H148.573V16.6734H147.573ZM147.573 21V20H146.308V21V22H147.573V21ZM146.308 21H147.308V17.0329H146.308H145.308V21H146.308ZM146.308 17.0329H147.308C147.308 16.1677 147.074 15.3696 146.555 14.7726C146.024 14.1616 145.281 13.8629 144.484 13.8629V14.8629V15.8629C144.766 15.8629 144.935 15.957 145.046 16.0848C145.169 16.2267 145.308 16.5136 145.308 17.0329H146.308ZM144.484 14.8629V13.8629C143.651 13.8629 142.894 14.1666 142.318 14.805L143.06 15.4753L143.802 16.1456C143.971 15.9587 144.173 15.8629 144.484 15.8629V14.8629ZM143.06 15.4753L142.306 14.8185C141.768 15.4355 141.514 16.197 141.514 17.0462H142.514H143.514C143.514 16.6174 143.632 16.3405 143.814 16.1321L143.06 15.4753ZM142.514 17.0462H141.514V21H142.514H143.514V17.0462H142.514ZM156.726 19.5889L157.626 19.1514L157.135 18.1434L156.19 18.7452L156.726 19.5889ZM157.206 20.574L157.815 21.3666L158.462 20.8696L158.105 20.1365L157.206 20.574ZM153.026 14.9561H154.026V13.9561H153.026V14.9561ZM151.761 14.9561H150.761V15.9561H151.761V14.9561ZM151.761 13.8645V12.8645H150.761V13.8645H151.761ZM153.039 13.8645V14.8645H154.039V13.8645H153.039ZM153.039 11.3351V10.3351H152.039V11.3351H153.039ZM154.29 11.3351H155.29V10.3351H154.29V11.3351ZM154.29 13.8645H153.29V14.8645H154.29V13.8645ZM156.82 13.8645H157.82V12.8645H156.82V13.8645ZM156.82 14.9561V15.9561H157.82V14.9561H156.82ZM154.29 14.9561V13.9561H153.29V14.9561H154.29ZM156.726 19.5889L155.827 20.0263L156.306 21.0115L157.206 20.574L158.105 20.1365L157.626 19.1514L156.726 19.5889ZM157.206 20.574L156.596 19.7814C156.275 20.028 155.872 20.1731 155.302 20.1731V21.1731V22.1731C156.249 22.1731 157.098 21.9187 157.815 21.3666L157.206 20.574ZM155.302 21.1731V20.1731C154.778 20.1731 154.518 20.0139 154.367 19.8329C154.191 19.6219 154.026 19.2167 154.026 18.4972H153.026H152.026C152.026 19.4818 152.247 20.4145 152.832 21.1154C153.443 21.8463 154.322 22.1731 155.302 22.1731V21.1731ZM153.026 18.4972H154.026V14.9561H153.026H152.026V18.4972H153.026ZM153.026 14.9561V13.9561H151.761V14.9561V15.9561H153.026V14.9561ZM151.761 14.9561H152.761V13.8645H151.761H150.761V14.9561H151.761ZM151.761 13.8645V14.8645H153.039V13.8645V12.8645H151.761V13.8645ZM153.039 13.8645H154.039V11.3351H153.039H152.039V13.8645H153.039ZM153.039 11.3351V12.3351H154.29V11.3351V10.3351H153.039V11.3351ZM154.29 11.3351H153.29V13.8645H154.29H155.29V11.3351H154.29ZM154.29 13.8645V14.8645H156.82V13.8645V12.8645H154.29V13.8645ZM156.82 13.8645H155.82V14.9561H156.82H157.82V13.8645H156.82ZM156.82 14.9561V13.9561H154.29V14.9561V15.9561H156.82V14.9561ZM154.29 14.9561H153.29V18.5904H154.29H155.29V14.9561H154.29ZM154.29 18.5904H153.29C153.29 19.1733 153.405 19.7967 153.808 20.2858C154.241 20.8127 154.853 21.0016 155.448 21.0016V20.0016V19.0016C155.354 19.0016 155.317 18.9871 155.316 18.9867C155.316 18.9866 155.317 18.9872 155.32 18.9888C155.323 18.9904 155.327 18.9928 155.331 18.9958C155.34 19.0025 155.348 19.0097 155.352 19.0151C155.368 19.035 155.29 18.9527 155.29 18.5904H154.29ZM155.448 20.0016V21.0016C156.087 21.0016 156.696 20.7935 157.263 20.4325L156.726 19.5889L156.19 18.7452C155.878 18.9434 155.636 19.0016 155.448 19.0016V20.0016ZM159.506 21V22H160.506V21H159.506ZM158.228 21H157.228V22H158.228V21ZM158.228 10.9224V9.92244H157.228V10.9224H158.228ZM159.466 10.9224H160.466V9.92244H159.466V10.9224ZM159.466 14.7431H158.466V17.9628L160.29 15.3097L159.466 14.7431ZM163.726 14.4502L164.415 13.7257V13.7257L163.726 14.4502ZM164.538 21V22H165.538V21H164.538ZM163.273 21H162.273V22H163.273V21ZM159.506 21V20H158.228V21V22H159.506V21ZM158.228 21H159.228V10.9224H158.228H157.228V21H158.228ZM158.228 10.9224V11.9224H159.466V10.9224V9.92244H158.228V10.9224ZM159.466 10.9224H158.466V14.7431H159.466H160.466V10.9224H159.466ZM159.466 14.7431L160.29 15.3097C160.511 14.9873 161.027 14.6781 161.729 14.6781V13.6781V12.6781C160.487 12.6781 159.299 13.221 158.642 14.1766L159.466 14.7431ZM161.729 13.6781V14.6781C162.276 14.6781 162.689 14.8448 163.036 15.1748L163.726 14.4502L164.415 13.7257C163.67 13.0173 162.752 12.6781 161.729 12.6781V13.6781ZM163.726 14.4502L163.036 15.1748C163.329 15.4535 163.538 15.8901 163.538 16.6734H164.538H165.538C165.538 15.5132 165.213 14.4854 164.415 13.7257L163.726 14.4502ZM164.538 16.6734H163.538V21H164.538H165.538V16.6734H164.538ZM164.538 21V20H163.273V21V22H164.538V21ZM163.273 21H164.273V17.0329H163.273H162.273V21H163.273ZM163.273 17.0329H164.273C164.273 16.1675 164.046 15.3681 163.529 14.7698C162.998 14.1555 162.255 13.8629 161.462 13.8629V14.8629V15.8629C161.749 15.8629 161.911 15.9564 162.016 16.0776C162.134 16.2148 162.273 16.5005 162.273 17.0329H163.273ZM161.462 14.8629V13.8629C160.612 13.8629 159.848 14.1975 159.306 14.7997C158.772 15.3937 158.506 16.1867 158.506 17.0329H159.506H160.506C160.506 16.601 160.639 16.3091 160.793 16.1376C160.94 15.9743 161.155 15.8629 161.462 15.8629V14.8629ZM159.506 17.0329H158.506V21H159.506H160.506V17.0329H159.506ZM173.021 17.9514V18.9514H173.947L174.018 18.0281L173.021 17.9514ZM167.336 17.9514V16.9514H166.145L166.351 18.1246L167.336 17.9514ZM172.328 19.1895L173.2 18.6998L172.647 17.7146L171.736 18.3836L172.328 19.1895ZM172.874 20.1613L173.486 20.9523L174.169 20.4242L173.746 19.6716L172.874 20.1613ZM167.003 14.7431L166.283 14.0497L166.276 14.0569L167.003 14.7431ZM172.089 14.6632L171.374 15.3631L171.382 15.3704L172.089 14.6632ZM167.336 16.8465L166.352 16.6696L166.14 17.8465H167.336V16.8465ZM171.743 16.8465V17.8465H172.798L172.741 16.7928L171.743 16.8465ZM173.06 17.2991H172.06C172.06 17.2991 172.06 17.3002 172.06 17.3026C172.06 17.305 172.06 17.3084 172.06 17.3127C172.06 17.3216 172.06 17.3334 172.059 17.3485C172.058 17.3789 172.055 17.4187 172.052 17.469C172.046 17.5698 172.037 17.7038 172.023 17.8747L173.021 17.9514L174.018 18.0281C174.043 17.6964 174.06 17.4394 174.06 17.2991H173.06ZM173.021 17.9514V16.9514H167.336V17.9514V18.9514H173.021V17.9514ZM167.336 17.9514L166.351 18.1246C166.488 18.9009 166.828 19.6382 167.453 20.1797C168.083 20.7256 168.904 20.9882 169.839 20.9882V19.9882V18.9882C169.283 18.9882 168.959 18.8382 168.763 18.6685C168.563 18.4946 168.398 18.2135 168.321 17.7783L167.336 17.9514ZM169.839 19.9882V20.9882C170.896 20.9882 172.09 20.6052 172.92 19.9954L172.328 19.1895L171.736 18.3836C171.262 18.7323 170.486 18.9882 169.839 18.9882V19.9882ZM172.328 19.1895L171.456 19.6792L172.002 20.651L172.874 20.1613L173.746 19.6716L173.2 18.6998L172.328 19.1895ZM172.874 20.1613L172.262 19.3704C171.731 19.7815 170.774 20.1597 169.812 20.1597V21.1597V22.1597C171.22 22.1597 172.606 21.6327 173.486 20.9523L172.874 20.1613ZM169.812 21.1597V20.1597C168.724 20.1597 168.06 19.7857 167.654 19.32C167.228 18.8307 167.005 18.1418 167.005 17.4056H166.005H165.005C165.005 18.5198 165.34 19.708 166.146 20.6332C166.972 21.582 168.211 22.1597 169.812 22.1597V21.1597ZM166.005 17.4056H167.005C167.005 16.5552 167.258 15.9304 167.731 15.4293L167.003 14.7431L166.276 14.0569C165.417 14.967 165.005 16.0994 165.005 17.4056H166.005ZM167.003 14.7431L167.724 15.4365C168.195 14.9471 168.79 14.6914 169.613 14.6914V13.6914V12.6914C168.305 12.6914 167.17 13.1281 166.283 14.0497L167.003 14.7431ZM169.613 13.6914V14.6914C170.393 14.6914 170.948 14.9278 171.374 15.363L172.089 14.6632L172.803 13.9635C171.951 13.0941 170.856 12.6914 169.613 12.6914V13.6914ZM172.089 14.6632L171.382 15.3704C171.807 15.7958 172.06 16.398 172.06 17.2991H173.06H174.06C174.06 15.9904 173.675 14.8354 172.796 13.9561L172.089 14.6632ZM167.336 16.8465V17.8465H171.743V16.8465V15.8465H167.336V16.8465ZM171.743 16.8465L172.741 16.7928C172.695 15.9378 172.356 15.1807 171.773 14.638C171.192 14.0982 170.425 13.823 169.613 13.823V14.823V15.823C169.971 15.823 170.236 15.9405 170.411 16.1029C170.583 16.2625 170.723 16.5172 170.744 16.9002L171.743 16.8465ZM169.613 14.823V13.823C167.892 13.823 166.639 15.0752 166.352 16.6696L167.336 16.8465L168.32 17.0234C168.46 16.2482 168.99 15.823 169.613 15.823V14.823Z" fill="black" mask="url(#path-2-outside-1_1931_1323)"/>
<mask id="path-4-outside-2_1931_1323" maskUnits="userSpaceOnUse" x="59" y="25.6797" width="103" height="23" fill="black">
<rect fill="white" x="59" y="25.6797" width="103" height="23"/>
<path d="M74.76 42.6797H71.64L70.54 39.4797H65.38L64.24 42.6797H61.14L66.78 27.8997H69.2L74.76 42.6797ZM69.7 36.8397L67.98 31.9197L66.22 36.8397H69.7ZM82.4658 31.4997C84.0058 31.4997 85.2858 32.0597 86.3058 33.1597C87.3258 34.2597 87.8258 35.6197 87.8258 37.2197C87.8258 38.8197 87.3058 40.1797 86.2858 41.2797C85.2658 42.3797 83.9858 42.9397 82.4458 42.9397C81.1058 42.9397 79.9658 42.4397 79.0258 41.4197V47.1597H76.2058V31.7797H79.0058V33.1197C79.9458 32.0397 81.0858 31.4997 82.4658 31.4997ZM81.9658 40.3597C82.8658 40.3597 83.5858 40.0597 84.1458 39.4597C84.7058 38.8597 84.9858 38.1197 84.9858 37.2397C84.9858 36.3597 84.7058 35.6197 84.1458 35.0197C83.5858 34.4197 82.8658 34.1197 81.9658 34.1197C81.0858 34.1197 80.3658 34.4197 79.8058 35.0197C79.2458 35.6197 78.9658 36.3597 78.9658 37.2397C78.9658 38.1197 79.2458 38.8597 79.8058 39.4597C80.3658 40.0597 81.0858 40.3597 81.9658 40.3597ZM96.0791 31.4997C97.6191 31.4997 98.8991 32.0597 99.9191 33.1597C100.939 34.2597 101.439 35.6197 101.439 37.2197C101.439 38.8197 100.919 40.1797 99.8991 41.2797C98.8791 42.3797 97.5991 42.9397 96.0591 42.9397C94.7191 42.9397 93.5791 42.4397 92.6391 41.4197V47.1597H89.8191V31.7797H92.6191V33.1197C93.5591 32.0397 94.6991 31.4997 96.0791 31.4997ZM95.5791 40.3597C96.4791 40.3597 97.1991 40.0597 97.7591 39.4597C98.3191 38.8597 98.5991 38.1197 98.5991 37.2397C98.5991 36.3597 98.3191 35.6197 97.7591 35.0197C97.1991 34.4197 96.4791 34.1197 95.5791 34.1197C94.6991 34.1197 93.9791 34.4197 93.4191 35.0197C92.8591 35.6197 92.5791 36.3597 92.5791 37.2397C92.5791 38.1197 92.8591 38.8597 93.4191 39.4597C93.9791 40.0597 94.6991 40.3597 95.5791 40.3597ZM113.074 42.9197C110.774 42.9197 108.694 41.9397 107.474 40.1597L109.174 38.0997C110.134 39.4397 111.574 40.1597 113.094 40.1597C114.314 40.1597 115.214 39.5197 115.214 38.5797C115.214 37.9797 114.774 37.4597 113.874 37.0397C113.674 36.9397 113.194 36.7597 112.414 36.4597C111.654 36.1597 111.074 35.8797 110.674 35.6597C109.114 34.7597 108.334 33.5397 108.334 31.9797C108.334 30.7397 108.794 29.7197 109.734 28.8997C110.674 28.0797 111.894 27.6597 113.374 27.6597C115.294 27.6597 116.914 28.3197 118.234 29.6597L116.654 31.8197C115.834 30.9397 114.514 30.4397 113.414 30.4397C112.234 30.4397 111.514 30.9997 111.514 31.8597C111.514 32.4397 111.914 32.9197 112.714 33.3197L114.174 33.9597C114.994 34.2997 115.594 34.5597 115.974 34.7397C117.654 35.5597 118.494 36.7797 118.494 38.4197C118.494 39.7397 117.994 40.8197 116.994 41.6597C115.994 42.4997 114.694 42.9197 113.074 42.9197ZM127.152 39.8197L127.992 42.0397C127.092 42.6397 126.032 42.9397 124.772 42.9397C122.272 42.9397 120.972 41.4597 120.972 38.6397V34.1397H119.192V31.7797H120.992V27.9197H123.792V31.7797H127.392V34.1397H123.792V38.4597C123.792 39.7397 124.312 40.3797 125.332 40.3797C125.872 40.3797 126.492 40.1997 127.152 39.8197ZM128.595 37.2197C128.595 35.6197 129.135 34.2597 130.235 33.1597C131.335 32.0397 132.735 31.4797 134.435 31.4797C136.135 31.4797 137.535 32.0397 138.635 33.1597C139.735 34.2597 140.275 35.6197 140.275 37.2197C140.275 38.8397 139.735 40.1997 138.635 41.2997C137.535 42.3997 136.135 42.9597 134.435 42.9597C132.735 42.9597 131.335 42.3997 130.235 41.2997C129.135 40.1997 128.595 38.8397 128.595 37.2197ZM132.275 39.4397C132.855 40.0397 133.575 40.3397 134.435 40.3397C135.295 40.3397 135.995 40.0397 136.575 39.4397C137.155 38.8197 137.455 38.0797 137.455 37.2197C137.455 36.3597 137.155 35.6197 136.575 35.0197C135.995 34.4197 135.295 34.1197 134.435 34.1197C133.575 34.1197 132.855 34.4197 132.275 35.0197C131.695 35.6197 131.415 36.3597 131.415 37.2197C131.415 38.0797 131.695 38.8197 132.275 39.4397ZM145.08 42.6797H142.26V31.7797H144.96V33.2397C145.62 32.0597 146.62 31.4797 147.96 31.4797C148.4 31.4797 148.84 31.5597 149.28 31.7197L149.04 34.4197C148.58 34.2797 148.14 34.1997 147.74 34.1997C146.14 34.1997 145.08 35.2397 145.08 37.4997V42.6797ZM160.887 36.9797C160.887 37.3597 160.847 37.7797 160.787 38.2197H152.607C153.007 39.7597 154.067 40.5397 155.787 40.5397C156.967 40.5397 158.367 40.0797 159.307 39.4397L160.427 41.4197C159.047 42.4197 157.467 42.9197 155.667 42.9197C153.747 42.9197 152.287 42.3597 151.267 41.2597C150.247 40.1597 149.747 38.7997 149.747 37.2197C149.747 35.5597 150.267 34.1997 151.327 33.1197C152.387 32.0397 153.747 31.4997 155.427 31.4997C157.007 31.4997 158.327 31.9997 159.347 32.9797C160.367 33.9597 160.887 35.2797 160.887 36.9797ZM155.427 33.8397C154.007 33.8397 152.947 34.6997 152.607 36.1197H158.147C157.887 34.6997 156.867 33.8397 155.427 33.8397Z"/>
</mask>
<path d="M74.76 42.6797H71.64L70.54 39.4797H65.38L64.24 42.6797H61.14L66.78 27.8997H69.2L74.76 42.6797ZM69.7 36.8397L67.98 31.9197L66.22 36.8397H69.7ZM82.4658 31.4997C84.0058 31.4997 85.2858 32.0597 86.3058 33.1597C87.3258 34.2597 87.8258 35.6197 87.8258 37.2197C87.8258 38.8197 87.3058 40.1797 86.2858 41.2797C85.2658 42.3797 83.9858 42.9397 82.4458 42.9397C81.1058 42.9397 79.9658 42.4397 79.0258 41.4197V47.1597H76.2058V31.7797H79.0058V33.1197C79.9458 32.0397 81.0858 31.4997 82.4658 31.4997ZM81.9658 40.3597C82.8658 40.3597 83.5858 40.0597 84.1458 39.4597C84.7058 38.8597 84.9858 38.1197 84.9858 37.2397C84.9858 36.3597 84.7058 35.6197 84.1458 35.0197C83.5858 34.4197 82.8658 34.1197 81.9658 34.1197C81.0858 34.1197 80.3658 34.4197 79.8058 35.0197C79.2458 35.6197 78.9658 36.3597 78.9658 37.2397C78.9658 38.1197 79.2458 38.8597 79.8058 39.4597C80.3658 40.0597 81.0858 40.3597 81.9658 40.3597ZM96.0791 31.4997C97.6191 31.4997 98.8991 32.0597 99.9191 33.1597C100.939 34.2597 101.439 35.6197 101.439 37.2197C101.439 38.8197 100.919 40.1797 99.8991 41.2797C98.8791 42.3797 97.5991 42.9397 96.0591 42.9397C94.7191 42.9397 93.5791 42.4397 92.6391 41.4197V47.1597H89.8191V31.7797H92.6191V33.1197C93.5591 32.0397 94.6991 31.4997 96.0791 31.4997ZM95.5791 40.3597C96.4791 40.3597 97.1991 40.0597 97.7591 39.4597C98.3191 38.8597 98.5991 38.1197 98.5991 37.2397C98.5991 36.3597 98.3191 35.6197 97.7591 35.0197C97.1991 34.4197 96.4791 34.1197 95.5791 34.1197C94.6991 34.1197 93.9791 34.4197 93.4191 35.0197C92.8591 35.6197 92.5791 36.3597 92.5791 37.2397C92.5791 38.1197 92.8591 38.8597 93.4191 39.4597C93.9791 40.0597 94.6991 40.3597 95.5791 40.3597ZM113.074 42.9197C110.774 42.9197 108.694 41.9397 107.474 40.1597L109.174 38.0997C110.134 39.4397 111.574 40.1597 113.094 40.1597C114.314 40.1597 115.214 39.5197 115.214 38.5797C115.214 37.9797 114.774 37.4597 113.874 37.0397C113.674 36.9397 113.194 36.7597 112.414 36.4597C111.654 36.1597 111.074 35.8797 110.674 35.6597C109.114 34.7597 108.334 33.5397 108.334 31.9797C108.334 30.7397 108.794 29.7197 109.734 28.8997C110.674 28.0797 111.894 27.6597 113.374 27.6597C115.294 27.6597 116.914 28.3197 118.234 29.6597L116.654 31.8197C115.834 30.9397 114.514 30.4397 113.414 30.4397C112.234 30.4397 111.514 30.9997 111.514 31.8597C111.514 32.4397 111.914 32.9197 112.714 33.3197L114.174 33.9597C114.994 34.2997 115.594 34.5597 115.974 34.7397C117.654 35.5597 118.494 36.7797 118.494 38.4197C118.494 39.7397 117.994 40.8197 116.994 41.6597C115.994 42.4997 114.694 42.9197 113.074 42.9197ZM127.152 39.8197L127.992 42.0397C127.092 42.6397 126.032 42.9397 124.772 42.9397C122.272 42.9397 120.972 41.4597 120.972 38.6397V34.1397H119.192V31.7797H120.992V27.9197H123.792V31.7797H127.392V34.1397H123.792V38.4597C123.792 39.7397 124.312 40.3797 125.332 40.3797C125.872 40.3797 126.492 40.1997 127.152 39.8197ZM128.595 37.2197C128.595 35.6197 129.135 34.2597 130.235 33.1597C131.335 32.0397 132.735 31.4797 134.435 31.4797C136.135 31.4797 137.535 32.0397 138.635 33.1597C139.735 34.2597 140.275 35.6197 140.275 37.2197C140.275 38.8397 139.735 40.1997 138.635 41.2997C137.535 42.3997 136.135 42.9597 134.435 42.9597C132.735 42.9597 131.335 42.3997 130.235 41.2997C129.135 40.1997 128.595 38.8397 128.595 37.2197ZM132.275 39.4397C132.855 40.0397 133.575 40.3397 134.435 40.3397C135.295 40.3397 135.995 40.0397 136.575 39.4397C137.155 38.8197 137.455 38.0797 137.455 37.2197C137.455 36.3597 137.155 35.6197 136.575 35.0197C135.995 34.4197 135.295 34.1197 134.435 34.1197C133.575 34.1197 132.855 34.4197 132.275 35.0197C131.695 35.6197 131.415 36.3597 131.415 37.2197C131.415 38.0797 131.695 38.8197 132.275 39.4397ZM145.08 42.6797H142.26V31.7797H144.96V33.2397C145.62 32.0597 146.62 31.4797 147.96 31.4797C148.4 31.4797 148.84 31.5597 149.28 31.7197L149.04 34.4197C148.58 34.2797 148.14 34.1997 147.74 34.1997C146.14 34.1997 145.08 35.2397 145.08 37.4997V42.6797ZM160.887 36.9797C160.887 37.3597 160.847 37.7797 160.787 38.2197H152.607C153.007 39.7597 154.067 40.5397 155.787 40.5397C156.967 40.5397 158.367 40.0797 159.307 39.4397L160.427 41.4197C159.047 42.4197 157.467 42.9197 155.667 42.9197C153.747 42.9197 152.287 42.3597 151.267 41.2597C150.247 40.1597 149.747 38.7997 149.747 37.2197C149.747 35.5597 150.267 34.1997 151.327 33.1197C152.387 32.0397 153.747 31.4997 155.427 31.4997C157.007 31.4997 158.327 31.9997 159.347 32.9797C160.367 33.9597 160.887 35.2797 160.887 36.9797ZM155.427 33.8397C154.007 33.8397 152.947 34.6997 152.607 36.1197H158.147C157.887 34.6997 156.867 33.8397 155.427 33.8397Z" fill="white"/>
<path d="M74.76 42.6797V43.6797H76.2046L75.696 42.3276L74.76 42.6797ZM71.64 42.6797L70.6943 43.0048L70.9263 43.6797H71.64V42.6797ZM70.54 39.4797L71.4857 39.1546L71.2537 38.4797H70.54V39.4797ZM65.38 39.4797V38.4797H64.6747L64.438 39.1441L65.38 39.4797ZM64.24 42.6797V43.6797H64.9453L65.182 43.0153L64.24 42.6797ZM61.14 42.6797L60.2057 42.3232L59.6881 43.6797H61.14V42.6797ZM66.78 27.8997V26.8997H66.0913L65.8457 27.5432L66.78 27.8997ZM69.2 27.8997L70.136 27.5476L69.8922 26.8997H69.2V27.8997ZM69.7 36.8397V37.8397H71.1089L70.644 36.5097L69.7 36.8397ZM67.98 31.9197L68.924 31.5897L67.9908 28.9205L67.0384 31.5829L67.98 31.9197ZM66.22 36.8397L65.2784 36.5029L64.8002 37.8397H66.22V36.8397ZM74.76 42.6797V41.6797H71.64V42.6797V43.6797H74.76V42.6797ZM71.64 42.6797L72.5857 42.3546L71.4857 39.1546L70.54 39.4797L69.5943 39.8048L70.6943 43.0048L71.64 42.6797ZM70.54 39.4797V38.4797H65.38V39.4797V40.4797H70.54V39.4797ZM65.38 39.4797L64.438 39.1441L63.298 42.3441L64.24 42.6797L65.182 43.0153L66.322 39.8153L65.38 39.4797ZM64.24 42.6797V41.6797H61.14V42.6797V43.6797H64.24V42.6797ZM61.14 42.6797L62.0743 43.0362L67.7143 28.2562L66.78 27.8997L65.8457 27.5432L60.2057 42.3232L61.14 42.6797ZM66.78 27.8997V28.8997H69.2V27.8997V26.8997H66.78V27.8997ZM69.2 27.8997L68.264 28.2518L73.824 43.0318L74.76 42.6797L75.696 42.3276L70.136 27.5476L69.2 27.8997ZM69.7 36.8397L70.644 36.5097L68.924 31.5897L67.98 31.9197L67.036 32.2497L68.756 37.1697L69.7 36.8397ZM67.98 31.9197L67.0384 31.5829L65.2784 36.5029L66.22 36.8397L67.1616 37.1765L68.9216 32.2565L67.98 31.9197ZM66.22 36.8397V37.8397H69.7V36.8397V35.8397H66.22V36.8397ZM86.3058 33.1597L85.5725 33.8396V33.8396L86.3058 33.1597ZM79.0258 41.4197L79.7611 40.742L78.0258 38.859V41.4197H79.0258ZM79.0258 47.1597V48.1597H80.0258V47.1597H79.0258ZM76.2058 47.1597H75.2058V48.1597H76.2058V47.1597ZM76.2058 31.7797V30.7797H75.2058V31.7797H76.2058ZM79.0058 31.7797H80.0058V30.7797H79.0058V31.7797ZM79.0058 33.1197H78.0058V35.7918L79.7601 33.7762L79.0058 33.1197ZM79.8058 35.0197L80.5368 35.702V35.702L79.8058 35.0197ZM79.8058 39.4597L80.5368 38.7774V38.7774L79.8058 39.4597ZM82.4658 31.4997V32.4997C83.731 32.4997 84.7441 32.9463 85.5725 33.8396L86.3058 33.1597L87.039 32.4797C85.8274 31.1731 84.2805 30.4997 82.4658 30.4997V31.4997ZM86.3058 33.1597L85.5725 33.8396C86.4048 34.7372 86.8258 35.8468 86.8258 37.2197H87.8258H88.8258C88.8258 35.3925 88.2468 33.7822 87.039 32.4797L86.3058 33.1597ZM87.8258 37.2197H86.8258C86.8258 38.5829 86.3908 39.6957 85.5525 40.5997L86.2858 41.2797L87.0191 41.9596C88.2207 40.6637 88.8258 39.0564 88.8258 37.2197H87.8258ZM86.2858 41.2797L85.5525 40.5997C84.7241 41.4931 83.711 41.9397 82.4458 41.9397V42.9397V43.9397C84.2605 43.9397 85.8074 43.2663 87.0191 41.9596L86.2858 41.2797ZM82.4458 42.9397V41.9397C81.3908 41.9397 80.5157 41.5608 79.7611 40.742L79.0258 41.4197L78.2904 42.0974C79.4159 43.3186 80.8207 43.9397 82.4458 43.9397V42.9397ZM79.0258 41.4197H78.0258V47.1597H79.0258H80.0258V41.4197H79.0258ZM79.0258 47.1597V46.1597H76.2058V47.1597V48.1597H79.0258V47.1597ZM76.2058 47.1597H77.2058V31.7797H76.2058H75.2058V47.1597H76.2058ZM76.2058 31.7797V32.7797H79.0058V31.7797V30.7797H76.2058V31.7797ZM79.0058 31.7797H78.0058V33.1197H79.0058H80.0058V31.7797H79.0058ZM79.0058 33.1197L79.7601 33.7762C80.5216 32.9013 81.392 32.4997 82.4658 32.4997V31.4997V30.4997C80.7796 30.4997 79.37 31.1781 78.2515 32.4632L79.0058 33.1197ZM81.9658 40.3597V41.3597C83.1169 41.3597 84.1106 40.963 84.8768 40.142L84.1458 39.4597L83.4147 38.7774C83.0609 39.1564 82.6147 39.3597 81.9658 39.3597V40.3597ZM84.1458 39.4597L84.8768 40.142C85.6229 39.3427 85.9858 38.353 85.9858 37.2397H84.9858H83.9858C83.9858 37.8864 83.7887 38.3767 83.4147 38.7774L84.1458 39.4597ZM84.9858 37.2397H85.9858C85.9858 36.1264 85.6229 35.1367 84.8768 34.3374L84.1458 35.0197L83.4147 35.702C83.7887 36.1027 83.9858 36.593 83.9858 37.2397H84.9858ZM84.1458 35.0197L84.8768 34.3374C84.1106 33.5164 83.1169 33.1197 81.9658 33.1197V34.1197V35.1197C82.6147 35.1197 83.0609 35.323 83.4147 35.702L84.1458 35.0197ZM81.9658 34.1197V33.1197C80.831 33.1197 79.8386 33.5189 79.0747 34.3374L79.8058 35.0197L80.5368 35.702C80.893 35.3205 81.3406 35.1197 81.9658 35.1197V34.1197ZM79.8058 35.0197L79.0747 34.3374C78.3287 35.1367 77.9658 36.1264 77.9658 37.2397H78.9658H79.9658C79.9658 36.593 80.1629 36.1027 80.5368 35.702L79.8058 35.0197ZM78.9658 37.2397H77.9658C77.9658 38.353 78.3287 39.3427 79.0747 40.142L79.8058 39.4597L80.5368 38.7774C80.1629 38.3767 79.9658 37.8864 79.9658 37.2397H78.9658ZM79.8058 39.4597L79.0747 40.142C79.8386 40.9605 80.831 41.3597 81.9658 41.3597V40.3597V39.3597C81.3406 39.3597 80.893 39.1589 80.5368 38.7774L79.8058 39.4597ZM99.9191 33.1597L99.1858 33.8396V33.8396L99.9191 33.1597ZM92.6391 41.4197L93.3744 40.742L91.6391 38.859V41.4197H92.6391ZM92.6391 47.1597V48.1597H93.6391V47.1597H92.6391ZM89.8191 47.1597H88.8191V48.1597H89.8191V47.1597ZM89.8191 31.7797V30.7797H88.8191V31.7797H89.8191ZM92.6191 31.7797H93.6191V30.7797H92.6191V31.7797ZM92.6191 33.1197H91.6191V35.7918L93.3734 33.7762L92.6191 33.1197ZM93.4191 35.0197L94.1501 35.702V35.702L93.4191 35.0197ZM93.4191 39.4597L94.1501 38.7774V38.7774L93.4191 39.4597ZM96.0791 31.4997V32.4997C97.3443 32.4997 98.3574 32.9463 99.1858 33.8396L99.9191 33.1597L100.652 32.4797C99.4407 31.1731 97.8938 30.4997 96.0791 30.4997V31.4997ZM99.9191 33.1597L99.1858 33.8396C100.018 34.7372 100.439 35.8468 100.439 37.2197H101.439H102.439C102.439 35.3925 101.86 33.7822 100.652 32.4797L99.9191 33.1597ZM101.439 37.2197H100.439C100.439 38.5829 100.004 39.6957 99.1658 40.5997L99.8991 41.2797L100.632 41.9596C101.834 40.6637 102.439 39.0564 102.439 37.2197H101.439ZM99.8991 41.2797L99.1658 40.5997C98.3374 41.4931 97.3243 41.9397 96.0591 41.9397V42.9397V43.9397C97.8738 43.9397 99.4207 43.2663 100.632 41.9596L99.8991 41.2797ZM96.0591 42.9397V41.9397C95.0041 41.9397 94.129 41.5608 93.3744 40.742L92.6391 41.4197L91.9037 42.0974C93.0292 43.3186 94.434 43.9397 96.0591 43.9397V42.9397ZM92.6391 41.4197H91.6391V47.1597H92.6391H93.6391V41.4197H92.6391ZM92.6391 47.1597V46.1597H89.8191V47.1597V48.1597H92.6391V47.1597ZM89.8191 47.1597H90.8191V31.7797H89.8191H88.8191V47.1597H89.8191ZM89.8191 31.7797V32.7797H92.6191V31.7797V30.7797H89.8191V31.7797ZM92.6191 31.7797H91.6191V33.1197H92.6191H93.6191V31.7797H92.6191ZM92.6191 33.1197L93.3734 33.7762C94.1349 32.9013 95.0053 32.4997 96.0791 32.4997V31.4997V30.4997C94.3929 30.4997 92.9833 31.1781 91.8648 32.4632L92.6191 33.1197ZM95.5791 40.3597V41.3597C96.7302 41.3597 97.7239 40.963 98.4901 40.142L97.7591 39.4597L97.028 38.7774C96.6742 39.1564 96.228 39.3597 95.5791 39.3597V40.3597ZM97.7591 39.4597L98.4901 40.142C99.2361 39.3427 99.5991 38.353 99.5991 37.2397H98.5991H97.5991C97.5991 37.8864 97.402 38.3767 97.028 38.7774L97.7591 39.4597ZM98.5991 37.2397H99.5991C99.5991 36.1264 99.2361 35.1367 98.4901 34.3374L97.7591 35.0197L97.028 35.702C97.402 36.1027 97.5991 36.593 97.5991 37.2397H98.5991ZM97.7591 35.0197L98.4901 34.3374C97.7239 33.5164 96.7302 33.1197 95.5791 33.1197V34.1197V35.1197C96.228 35.1197 96.6742 35.323 97.028 35.702L97.7591 35.0197ZM95.5791 34.1197V33.1197C94.4443 33.1197 93.4519 33.5189 92.688 34.3374L93.4191 35.0197L94.1501 35.702C94.5062 35.3205 94.9538 35.1197 95.5791 35.1197V34.1197ZM93.4191 35.0197L92.688 34.3374C91.942 35.1367 91.5791 36.1264 91.5791 37.2397H92.5791H93.5791C93.5791 36.593 93.7761 36.1027 94.1501 35.702L93.4191 35.0197ZM92.5791 37.2397H91.5791C91.5791 38.353 91.942 39.3427 92.688 40.142L93.4191 39.4597L94.1501 38.7774C93.7761 38.3767 93.5791 37.8864 93.5791 37.2397H92.5791ZM93.4191 39.4597L92.688 40.142C93.4519 40.9605 94.4443 41.3597 95.5791 41.3597V40.3597V39.3597C94.9538 39.3597 94.5062 39.1589 94.1501 38.7774L93.4191 39.4597ZM107.474 40.1597L106.702 39.5232L106.223 40.1039L106.649 40.725L107.474 40.1597ZM109.174 38.0997L109.987 37.5173L109.23 36.4607L108.402 37.4632L109.174 38.0997ZM113.874 37.0397L113.427 37.9341L113.439 37.9402L113.451 37.9459L113.874 37.0397ZM112.414 36.4597L112.047 37.3899L112.055 37.393L112.414 36.4597ZM110.674 35.6597L110.174 36.5259L110.183 36.531L110.192 36.5359L110.674 35.6597ZM109.734 28.8997L109.076 28.1461V28.1461L109.734 28.8997ZM118.234 29.6597L119.041 30.2501L119.543 29.5637L118.946 28.9579L118.234 29.6597ZM116.654 31.8197L115.922 32.5014L116.747 33.3863L117.461 32.4101L116.654 31.8197ZM112.714 33.3197L112.267 34.2141L112.289 34.2254L112.312 34.2356L112.714 33.3197ZM114.174 33.9597L113.772 34.8756L113.781 34.8796L113.791 34.8834L114.174 33.9597ZM115.974 34.7397L116.412 33.841L116.402 33.8359L115.974 34.7397ZM116.994 41.6597L117.637 42.4254V42.4254L116.994 41.6597ZM113.074 42.9197V41.9197C111.054 41.9197 109.306 41.064 108.299 39.5943L107.474 40.1597L106.649 40.725C108.082 42.8154 110.493 43.9197 113.074 43.9197V42.9197ZM107.474 40.1597L108.245 40.7962L109.945 38.7362L109.174 38.0997L108.402 37.4632L106.702 39.5232L107.474 40.1597ZM109.174 38.0997L108.361 38.6821C109.505 40.2794 111.245 41.1597 113.094 41.1597V40.1597V39.1597C111.902 39.1597 110.762 38.5999 109.987 37.5173L109.174 38.0997ZM113.094 40.1597V41.1597C113.868 41.1597 114.619 40.9577 115.204 40.5279C115.806 40.0849 116.214 39.4047 116.214 38.5797H115.214H114.214C114.214 38.6947 114.171 38.8044 114.019 38.9165C113.849 39.0417 113.539 39.1597 113.094 39.1597V40.1597ZM115.214 38.5797H116.214C116.214 37.3882 115.317 36.6098 114.297 36.1335L113.874 37.0397L113.451 37.9459C113.824 38.1199 114.025 38.2808 114.125 38.396C114.21 38.4948 114.214 38.5484 114.214 38.5797H115.214ZM113.874 37.0397L114.321 36.1453C114.064 36.0167 113.508 35.809 112.773 35.5263L112.414 36.4597L112.055 37.393C112.88 37.7104 113.284 37.8627 113.427 37.9341L113.874 37.0397ZM112.414 36.4597L112.781 35.5295C112.056 35.2432 111.514 34.9808 111.156 34.7835L110.674 35.6597L110.192 36.5359C110.633 36.7786 111.252 37.0762 112.047 37.3898L112.414 36.4597ZM110.674 35.6597L111.173 34.7935C109.863 34.0376 109.334 33.1182 109.334 31.9797H108.334H107.334C107.334 33.9611 108.364 35.4818 110.174 36.5259L110.674 35.6597ZM108.334 31.9797H109.334C109.334 31.0273 109.67 30.2825 110.391 29.6533L109.734 28.8997L109.076 28.1461C107.918 29.1568 107.334 30.452 107.334 31.9797H108.334ZM109.734 28.8997L110.391 29.6533C111.119 29.0187 112.092 28.6597 113.374 28.6597V27.6597V26.6597C111.696 26.6597 110.229 27.1407 109.076 28.1461L109.734 28.8997ZM113.374 27.6597V28.6597C115.036 28.6597 116.396 29.2193 117.521 30.3615L118.234 29.6597L118.946 28.9579C117.431 27.42 115.551 26.6597 113.374 26.6597V27.6597ZM118.234 29.6597L117.427 29.0693L115.847 31.2293L116.654 31.8197L117.461 32.4101L119.041 30.2501L118.234 29.6597ZM116.654 31.8197L117.385 31.138C116.358 30.0349 114.763 29.4397 113.414 29.4397V30.4397V31.4397C114.265 31.4397 115.31 31.8445 115.922 32.5014L116.654 31.8197ZM113.414 30.4397V29.4397C112.679 29.4397 111.97 29.6127 111.418 30.0294C110.839 30.4675 110.514 31.1189 110.514 31.8597H111.514H112.514C112.514 31.7405 112.549 31.6819 112.624 31.625C112.728 31.5467 112.969 31.4397 113.414 31.4397V30.4397ZM111.514 31.8597H110.514C110.514 33.0076 111.339 33.7503 112.267 34.2141L112.714 33.3197L113.161 32.4253C112.835 32.2623 112.666 32.119 112.585 32.0209C112.519 31.9405 112.514 31.8964 112.514 31.8597H111.514ZM112.714 33.3197L112.312 34.2356L113.772 34.8756L114.174 33.9597L114.575 33.0438L113.115 32.4038L112.714 33.3197ZM114.174 33.9597L113.791 34.8834C114.608 35.2224 115.189 35.4746 115.546 35.6434L115.974 34.7397L116.402 33.8359C115.998 33.6448 115.379 33.3769 114.557 33.0359L114.174 33.9597ZM115.974 34.7397L115.535 35.6384C116.26 35.9922 116.739 36.4007 117.039 36.8377C117.333 37.2668 117.494 37.78 117.494 38.4197H118.494H119.494C119.494 37.4194 119.234 36.5026 118.688 35.7067C118.148 34.9187 117.367 34.3071 116.412 33.841L115.974 34.7397ZM118.494 38.4197H117.494C117.494 39.4479 117.122 40.2463 116.351 40.894L116.994 41.6597L117.637 42.4254C118.866 41.393 119.494 40.0314 119.494 38.4197H118.494ZM116.994 41.6597L116.351 40.894C115.57 41.5498 114.515 41.9197 113.074 41.9197V42.9197V43.9197C114.872 43.9197 116.418 43.4496 117.637 42.4254L116.994 41.6597ZM127.152 39.8197L128.087 39.4658L127.671 38.3667L126.653 38.9531L127.152 39.8197ZM127.992 42.0397L128.547 42.8717L129.209 42.4302L128.927 41.6858L127.992 42.0397ZM120.972 34.1397H121.972V33.1397H120.972V34.1397ZM119.192 34.1397H118.192V35.1397H119.192V34.1397ZM119.192 31.7797V30.7797H118.192V31.7797H119.192ZM120.992 31.7797V32.7797H121.992V31.7797H120.992ZM120.992 27.9197V26.9197H119.992V27.9197H120.992ZM123.792 27.9197H124.792V26.9197H123.792V27.9197ZM123.792 31.7797H122.792V32.7797H123.792V31.7797ZM127.392 31.7797H128.392V30.7797H127.392V31.7797ZM127.392 34.1397V35.1397H128.392V34.1397H127.392ZM123.792 34.1397V33.1397H122.792V34.1397H123.792ZM127.152 39.8197L126.217 40.1736L127.057 42.3936L127.992 42.0397L128.927 41.6858L128.087 39.4658L127.152 39.8197ZM127.992 42.0397L127.437 41.2076C126.725 41.6827 125.864 41.9397 124.772 41.9397V42.9397V43.9397C126.2 43.9397 127.459 43.5967 128.547 42.8717L127.992 42.0397ZM124.772 42.9397V41.9397C123.723 41.9397 123.082 41.6359 122.684 41.1856C122.268 40.7131 121.972 39.914 121.972 38.6397H120.972H119.972C119.972 40.1853 120.327 41.5363 121.185 42.5088C122.062 43.5035 123.321 43.9397 124.772 43.9397V42.9397ZM120.972 38.6397H121.972V34.1397H120.972H119.972V38.6397H120.972ZM120.972 34.1397V33.1397H119.192V34.1397V35.1397H120.972V34.1397ZM119.192 34.1397H120.192V31.7797H119.192H118.192V34.1397H119.192ZM119.192 31.7797V32.7797H120.992V31.7797V30.7797H119.192V31.7797ZM120.992 31.7797H121.992V27.9197H120.992H119.992V31.7797H120.992ZM120.992 27.9197V28.9197H123.792V27.9197V26.9197H120.992V27.9197ZM123.792 27.9197H122.792V31.7797H123.792H124.792V27.9197H123.792ZM123.792 31.7797V32.7797H127.392V31.7797V30.7797H123.792V31.7797ZM127.392 31.7797H126.392V34.1397H127.392H128.392V31.7797H127.392ZM127.392 34.1397V33.1397H123.792V34.1397V35.1397H127.392V34.1397ZM123.792 34.1397H122.792V38.4597H123.792H124.792V34.1397H123.792ZM123.792 38.4597H122.792C122.792 39.2096 122.94 39.9547 123.4 40.5266C123.893 41.1393 124.601 41.3797 125.332 41.3797V40.3797V39.3797C125.044 39.3797 124.981 39.3001 124.959 39.2728C124.904 39.2046 124.792 38.9897 124.792 38.4597H123.792ZM125.332 40.3797V41.3797C126.09 41.3797 126.881 41.1294 127.651 40.6863L127.152 39.8197L126.653 38.9531C126.103 39.27 125.654 39.3797 125.332 39.3797V40.3797ZM130.235 33.1597L130.942 33.8668L130.948 33.8604L130.235 33.1597ZM138.635 33.1597L137.921 33.8604L137.927 33.8668L138.635 33.1597ZM138.635 41.2997L137.927 40.5926V40.5926L138.635 41.2997ZM130.235 41.2997L130.942 40.5926V40.5926L130.235 41.2997ZM132.275 39.4397L131.544 40.1228L131.55 40.1288L131.556 40.1347L132.275 39.4397ZM136.575 39.4397L137.294 40.1347L137.299 40.1288L137.305 40.1228L136.575 39.4397ZM136.575 35.0197L135.856 35.7147V35.7147L136.575 35.0197ZM128.595 37.2197H129.595C129.595 35.8699 130.04 34.7689 130.942 33.8668L130.235 33.1597L129.527 32.4526C128.23 33.7505 127.595 35.3695 127.595 37.2197H128.595ZM130.235 33.1597L130.948 33.8604C131.843 32.9487 132.978 32.4797 134.435 32.4797V31.4797V30.4797C132.491 30.4797 130.826 31.1307 129.521 32.459L130.235 33.1597ZM134.435 31.4797V32.4797C135.891 32.4797 137.026 32.9487 137.921 33.8604L138.635 33.1597L139.348 32.459C138.043 31.1307 136.378 30.4797 134.435 30.4797V31.4797ZM138.635 33.1597L137.927 33.8668C138.83 34.7689 139.275 35.8699 139.275 37.2197H140.275H141.275C141.275 35.3695 140.64 33.7505 139.342 32.4526L138.635 33.1597ZM140.275 37.2197H139.275C139.275 38.5914 138.828 39.6917 137.927 40.5926L138.635 41.2997L139.342 42.0068C140.641 40.7076 141.275 39.088 141.275 37.2197H140.275ZM138.635 41.2997L137.927 40.5926C137.03 41.4897 135.892 41.9597 134.435 41.9597V42.9597V43.9597C136.377 43.9597 138.039 43.3096 139.342 42.0068L138.635 41.2997ZM134.435 42.9597V41.9597C132.977 41.9597 131.839 41.4897 130.942 40.5926L130.235 41.2997L129.527 42.0068C130.83 43.3096 132.492 43.9597 134.435 43.9597V42.9597ZM130.235 41.2997L130.942 40.5926C130.041 39.6917 129.595 38.5914 129.595 37.2197H128.595H127.595C127.595 39.088 128.228 40.7076 129.527 42.0068L130.235 41.2997ZM132.275 39.4397L131.556 40.1347C132.33 40.9362 133.313 41.3397 134.435 41.3397V40.3397V39.3397C133.836 39.3397 133.379 39.1432 132.994 38.7447L132.275 39.4397ZM134.435 40.3397V41.3397C135.564 41.3397 136.524 40.9311 137.294 40.1347L136.575 39.4397L135.856 38.7447C135.465 39.1483 135.025 39.3397 134.435 39.3397V40.3397ZM136.575 39.4397L137.305 40.1228C138.055 39.3211 138.455 38.3381 138.455 37.2197H137.455H136.455C136.455 37.8213 136.254 38.3183 135.844 38.7565L136.575 39.4397ZM137.455 37.2197H138.455C138.455 36.104 138.056 35.1138 137.294 34.3247L136.575 35.0197L135.856 35.7147C136.253 36.1256 136.455 36.6154 136.455 37.2197H137.455ZM136.575 35.0197L137.294 34.3247C136.524 33.5283 135.564 33.1197 134.435 33.1197V34.1197V35.1197C135.025 35.1197 135.465 35.3111 135.856 35.7147L136.575 35.0197ZM134.435 34.1197V33.1197C133.313 33.1197 132.33 33.5232 131.556 34.3247L132.275 35.0197L132.994 35.7147C133.379 35.3162 133.836 35.1197 134.435 35.1197V34.1197ZM132.275 35.0197L131.556 34.3247C130.781 35.1257 130.415 36.1213 130.415 37.2197H131.415H132.415C132.415 36.5981 132.608 36.1137 132.994 35.7147L132.275 35.0197ZM131.415 37.2197H130.415C130.415 38.3212 130.783 39.3089 131.544 40.1228L132.275 39.4397L133.005 38.7565C132.606 38.3305 132.415 37.8382 132.415 37.2197H131.415ZM145.08 42.6797V43.6797H146.08V42.6797H145.08ZM142.26 42.6797H141.26V43.6797H142.26V42.6797ZM142.26 31.7797V30.7797H141.26V31.7797H142.26ZM144.96 31.7797H145.96V30.7797H144.96V31.7797ZM144.96 33.2397H143.96V37.0761L145.833 33.7278L144.96 33.2397ZM149.28 31.7197L150.277 31.8082L150.345 31.0426L149.622 30.7799L149.28 31.7197ZM149.04 34.4197L148.749 35.3764L149.927 35.7349L150.037 34.5082L149.04 34.4197ZM145.08 42.6797V41.6797H142.26V42.6797V43.6797H145.08V42.6797ZM142.26 42.6797H143.26V31.7797H142.26H141.26V42.6797H142.26ZM142.26 31.7797V32.7797H144.96V31.7797V30.7797H142.26V31.7797ZM144.96 31.7797H143.96V33.2397H144.96H145.96V31.7797H144.96ZM144.96 33.2397L145.833 33.7278C146.09 33.268 146.388 32.9692 146.71 32.7803C147.034 32.5913 147.438 32.4797 147.96 32.4797V31.4797V30.4797C147.143 30.4797 146.377 30.658 145.701 31.054C145.023 31.4501 144.491 32.0313 144.088 32.7515L144.96 33.2397ZM147.96 31.4797V32.4797C148.277 32.4797 148.601 32.5367 148.939 32.6595L149.28 31.7197L149.622 30.7799C149.08 30.5826 148.524 30.4797 147.96 30.4797V31.4797ZM149.28 31.7197L148.284 31.6311L148.044 34.3311L149.04 34.4197L150.037 34.5082L150.277 31.8082L149.28 31.7197ZM149.04 34.4197L149.332 33.463C148.809 33.304 148.268 33.1997 147.74 33.1997V34.1997V35.1997C148.013 35.1997 148.352 35.2554 148.749 35.3764L149.04 34.4197ZM147.74 34.1997V33.1997C146.714 33.1997 145.745 33.5421 145.051 34.3514C144.377 35.1376 144.08 36.2287 144.08 37.4997H145.08H146.08C146.08 36.5107 146.314 35.9518 146.57 35.653C146.806 35.3772 147.167 35.1997 147.74 35.1997V34.1997ZM145.08 37.4997H144.08V42.6797H145.08H146.08V37.4997H145.08ZM160.787 38.2197V39.2197H161.66L161.778 38.3548L160.787 38.2197ZM152.607 38.2197V37.2197H151.314L151.639 38.4711L152.607 38.2197ZM159.307 39.4397L160.178 38.9473L159.643 38.0015L158.745 38.6131L159.307 39.4397ZM160.427 41.4197L161.014 42.2294L161.738 41.7051L161.298 40.9273L160.427 41.4197ZM151.267 41.2597L152.001 40.5797L151.267 41.2597ZM151.327 33.1197L150.614 32.4192V32.4192L151.327 33.1197ZM159.347 32.9797L158.655 33.7008V33.7008L159.347 32.9797ZM152.607 36.1197L151.635 35.8868L151.34 37.1197H152.607V36.1197ZM158.147 36.1197V37.1197H159.347L159.131 35.9396L158.147 36.1197ZM160.887 36.9797H159.887C159.887 37.2953 159.854 37.6651 159.797 38.0846L160.787 38.2197L161.778 38.3548C161.841 37.8943 161.887 37.4241 161.887 36.9797H160.887ZM160.787 38.2197V37.2197H152.607V38.2197V39.2197H160.787V38.2197ZM152.607 38.2197L151.639 38.4711C151.885 39.4147 152.358 40.2133 153.112 40.7644C153.859 41.3104 154.779 41.5397 155.787 41.5397V40.5397V39.5397C155.075 39.5397 154.606 39.379 154.293 39.1499C153.986 38.9261 153.73 38.5647 153.575 37.9683L152.607 38.2197ZM155.787 40.5397V41.5397C157.179 41.5397 158.774 41.0128 159.87 40.2663L159.307 39.4397L158.745 38.6131C157.961 39.1466 156.755 39.5397 155.787 39.5397V40.5397ZM159.307 39.4397L158.437 39.932L159.557 41.912L160.427 41.4197L161.298 40.9273L160.178 38.9473L159.307 39.4397ZM160.427 41.4197L159.841 40.6099C158.64 41.4798 157.268 41.9197 155.667 41.9197V42.9197V43.9197C157.667 43.9197 159.455 43.3596 161.014 42.2294L160.427 41.4197ZM155.667 42.9197V41.9197C153.95 41.9197 152.785 41.426 152.001 40.5797L151.267 41.2597L150.534 41.9396C151.789 43.2934 153.545 43.9197 155.667 43.9197V42.9197ZM151.267 41.2597L152.001 40.5797C151.167 39.681 150.747 38.5707 150.747 37.2197H149.747H148.747C148.747 39.0287 149.327 40.6384 150.534 41.9396L151.267 41.2597ZM149.747 37.2197H150.747C150.747 35.7909 151.185 34.6923 152.041 33.8202L151.327 33.1197L150.614 32.4192C149.35 33.7071 148.747 35.3285 148.747 37.2197H149.747ZM151.327 33.1197L152.041 33.8202C152.893 32.9525 153.985 32.4997 155.427 32.4997V31.4997V30.4997C153.509 30.4997 151.882 31.1268 150.614 32.4192L151.327 33.1197ZM155.427 31.4997V32.4997C156.781 32.4997 157.842 32.9205 158.655 33.7008L159.347 32.9797L160.04 32.2586C158.812 31.0789 157.234 30.4997 155.427 30.4997V31.4997ZM159.347 32.9797L158.655 33.7008C159.445 34.4602 159.887 35.5018 159.887 36.9797H160.887H161.887C161.887 35.0576 161.29 33.4592 160.04 32.2586L159.347 32.9797ZM155.427 33.8397V32.8397C153.524 32.8397 152.078 34.0377 151.635 35.8868L152.607 36.1197L153.58 36.3525C153.817 35.3616 154.491 34.8397 155.427 34.8397V33.8397ZM152.607 36.1197V37.1197H158.147V36.1197V35.1197H152.607V36.1197ZM158.147 36.1197L159.131 35.9396C158.965 35.033 158.542 34.2433 157.873 33.6813C157.203 33.1188 156.351 32.8397 155.427 32.8397V33.8397V34.8397C155.943 34.8397 156.322 34.9906 156.587 35.2131C156.852 35.436 157.07 35.7864 157.164 36.2998L158.147 36.1197Z" fill="black" mask="url(#path-4-outside-2_1931_1323)"/>
<path d="M38.585 9.95312C38.6936 11.1144 38.5434 12.2721 38.1416 13.4219L38.1426 13.4229C37.7909 14.4986 37.2368 15.4913 36.4854 16.3984L36.4805 16.4043C35.7257 17.2886 34.8339 18.0007 33.8086 18.5371L33.7998 18.542C32.6597 19.1087 31.521 19.3493 30.3936 19.2373L29.9961 19.1982L29.9463 18.8018C29.807 17.6931 29.977 16.5335 30.4336 15.332L30.4346 15.3291C30.8358 14.292 31.3865 13.3692 32.0869 12.5645L32.3721 12.2471C33.0557 11.5232 33.8804 10.9177 34.8408 10.4287C35.9352 9.87146 37.0102 9.55598 38.0615 9.50098L38.541 9.47559L38.585 9.95312ZM46.5 38.0078L46.4766 38.082C46.2926 38.6568 46.0575 39.2794 45.7725 39.9492L45.7695 39.9561C45.1974 41.2486 44.533 42.4531 43.7764 43.5684L43.7754 43.5693C42.7516 45.0704 41.8872 46.1701 41.1855 46.8408L41.1826 46.8428C40.092 47.8727 38.8828 48.4324 37.5635 48.4609H37.5527C36.9574 48.4609 36.3841 48.3812 35.835 48.2207L35.5312 48.1387C35.2063 48.0398 34.8177 47.8909 34.3721 47.6982C33.7941 47.4484 33.3455 47.2811 33.0195 47.1885L33.0176 47.1875C32.4547 47.0243 31.8517 46.9414 31.207 46.9414C30.5897 46.9414 29.9849 47.0233 29.3916 47.1885L29.3857 47.1904C29.04 47.2821 28.557 47.4605 27.9287 47.7354L27.9248 47.7373C27.3852 47.9672 26.9516 48.1304 26.6367 48.2158L26.6357 48.2148C26.096 48.3749 25.5644 48.4707 25.041 48.498L25.0332 48.499H25.0264C23.757 48.5284 22.5289 47.9378 21.3506 46.8467L21.0596 46.5645C20.3636 45.8584 19.5437 44.8168 18.6025 43.458V43.457C17.4004 41.7418 16.4374 39.7737 15.7109 37.5566L15.5645 37.1074C14.8565 34.8645 14.5 32.6806 14.5 30.5576C14.5 27.9774 15.0509 25.7205 16.1738 23.8066C17.0302 22.2929 18.1969 21.0804 19.6689 20.1758L19.6729 20.1738C21.1725 19.2687 22.7745 18.7983 24.4717 18.7715H24.4795C25.062 18.7715 25.6867 18.8557 26.3506 19.0186L26.6377 19.0938L26.6455 19.0957C27.1031 19.2295 27.7463 19.4651 28.5654 19.7959H28.5645C29.1373 20.0187 29.5599 20.178 29.834 20.2773C30.2426 20.3959 30.5279 20.4433 30.71 20.4434C30.9201 20.4434 31.2203 20.3944 31.624 20.2773C31.8829 20.1746 32.2955 20.0137 32.8604 19.7939L32.8672 19.791C33.8908 19.4094 34.6982 19.1376 35.2812 18.9795L35.2852 18.9785C36.2914 18.7153 37.2268 18.6165 38.085 18.6973C39.1879 18.727 40.2738 18.9686 41.3398 19.4189H41.3389C43.0322 20.0891 44.3959 21.1771 45.4189 22.6758L45.7227 23.1211L45.2559 23.3906C44.5256 23.8122 43.8446 24.4034 43.2148 25.1738L43.21 25.1797C41.9869 26.634 41.3921 28.2909 41.416 30.1709V30.1719C41.4401 32.3533 42.1699 34.1642 43.6006 35.6367L43.8857 35.9082C44.466 36.4357 45.1071 36.875 45.8096 37.2275L46.166 37.3965L46.249 37.4346L46.3145 37.499L46.3525 37.5371L46.5 37.6836V38.0078Z" fill="white" stroke="black"/>
</svg>
