<svg width="68" height="71" viewBox="0 0 68 71" fill="none" xmlns="http://www.w3.org/2000/svg"><g clip-path="url(#clip0_1163_937)"><path d="M0.963163 70.0444C0.203055 69.8456 0 69.3385 0 68.5651C0.0215633 60.4494 0.0125786 52.3301 0.0143756 44.2163C0.0143756 43.0598 0.25876 42.8099 1.38544 42.8099H13.3118C14.3899 42.8099 14.6721 43.0853 14.6792 44.1689C14.6792 44.4844 14.6792 44.7982 14.6792 45.1192C15.8958 45.0189 16.5714 44.4753 16.8715 43.4155L22.1024 25.0481C22.4079 23.9755 22.7278 23.7913 23.761 24.0886L25.1069 24.4826C25.186 18.421 27.407 13.4027 32.0305 9.58842C35.4699 6.75004 39.4735 5.42023 43.8904 5.50049C52.7565 5.66284 60.327 12.4833 61.5975 21.3542C63.1051 31.8887 55.8293 41.0204 46.708 42.4688C47.6927 45.0098 47.5166 46.2575 45.894 48.2531C48.1402 50.5808 47.664 54.2418 44.8284 55.7322C45.5029 56.7347 45.7796 57.959 45.6029 59.1597C45.4232 60.4002 44.8032 61.3633 43.8059 62.1386C44.8284 63.4155 45.1734 64.8511 44.7763 66.4326C44.5885 67.2626 44.1455 68.0104 43.5114 68.5678C42.8772 69.1253 42.0849 69.4636 41.2489 69.5337C40.8908 69.5733 40.5309 69.5928 40.1707 69.5921C33.4322 69.5921 26.6942 69.5957 19.9569 69.603C19.31 69.603 18.8104 69.448 18.3396 68.95C17.3854 67.9193 16.1276 67.5381 14.7457 67.4086C14.469 68.3352 15.1465 69.5975 13.7556 70.0499L0.963163 70.0444ZM23.7646 26.1298C23.6999 26.325 23.646 26.4728 23.6029 26.6242C21.9425 32.4615 20.2624 38.2987 18.6469 44.1451C18.5336 44.6195 18.3199 45.0631 18.0208 45.4451C17.7217 45.8272 17.3442 46.1387 16.9146 46.3578C16.3827 46.6483 15.8179 46.8718 15.2327 47.0237C14.7835 47.1331 14.6721 47.3228 14.6721 47.7533C14.684 53.4544 14.684 59.1543 14.6721 64.8529C14.6721 65.3126 14.8068 65.475 15.265 65.526C16.7655 65.6957 18.1545 66.1955 19.2992 67.2298C19.4613 67.3817 19.6515 67.4993 19.8588 67.5757C20.0662 67.6521 20.2864 67.6858 20.5067 67.6749C27.0644 67.6627 33.622 67.6597 40.1797 67.6658C40.4043 67.6658 40.6289 67.6658 40.8517 67.6493C42.2893 67.5144 43.0871 66.5549 43.0278 65.0627C42.9739 63.6891 42.0737 62.8099 40.6739 62.7898C39.6855 62.7752 38.6972 62.7898 37.7107 62.7898C37.531 62.7898 37.3693 62.757 37.2111 62.7406V60.8781H37.9155C39.1051 60.8781 40.2965 60.8945 41.4861 60.8781C42.8338 60.8507 43.7412 59.904 43.7826 58.5268C43.8239 57.1495 43.0189 56.1554 41.7017 56.0514C40.5391 55.9638 39.3657 56.0131 38.1995 56.004H37.2237V54.0886H38.0018C39.7305 54.0886 41.4609 54.1123 43.1896 54.0722C44.5678 54.0412 45.4555 53.0233 45.425 51.6096C45.3944 50.1959 44.5067 49.271 43.1536 49.2473C41.6496 49.2218 40.1438 49.2382 38.6397 49.2382H37.2291V47.3155C39.1932 47.3155 41.0997 47.3265 43.0063 47.3155C44.1905 47.3155 45.0135 46.7026 45.3028 45.6738C45.8149 43.8606 44.7637 42.4286 42.8679 42.4231C38.1743 42.4231 33.4807 42.4231 28.7871 42.4231C27.5759 42.4231 27.2291 41.9744 27.5544 40.8252C28.1024 38.8788 28.7008 36.9434 29.1968 34.9879C29.4369 34.0433 29.4857 33.059 29.3401 32.0946C29.1944 31.1303 28.8575 30.206 28.3496 29.3778C27.8417 28.5496 27.1734 27.8347 26.3853 27.2764C25.5972 26.7181 24.7056 26.328 23.7646 26.1298ZM59.9461 24.167C59.8598 23.2385 59.8365 22.2973 59.6783 21.3816C57.9443 11.2849 48.2192 5.22687 38.5355 8.19112C31.6658 10.2944 26.796 17.1568 27.0225 24.4261C27.0368 24.9058 26.9937 25.3619 27.4986 25.7468C30.4253 27.9722 31.6598 30.9389 31.2022 34.6468C31.1951 34.9926 31.3185 35.328 31.5472 35.5844C35.15 39.5811 39.8131 41.0441 44.9218 40.6829C53.4196 40.0846 59.8796 32.7843 59.9461 24.167ZM12.7475 68.0196V44.7617H1.94429V68.0196H12.7475ZM34.5157 40.475L30.487 37.4086C30.2066 38.4027 29.9209 39.4151 29.6244 40.475H34.5157Z" fill="#1D4886"></path><path d="M21.6532 24.0666H19.8796C19.4465 14.581 26.5283 2.42668 40.0539 0.312484C52.7152 -1.66672 64.9901 7.52336 66.8625 20.3344C68.92 34.3895 59.3154 45.0699 49.2111 47.3738L48.7637 45.6171C55.5436 43.6799 60.5229 39.5719 63.407 33.0305C65.4681 28.357 65.8059 23.4902 64.5589 18.5321C62.115 8.80026 53.1087 1.79734 43.3423 1.97976C37.3872 2.09103 32.2516 4.22894 28.0449 8.50293C23.8383 12.7769 21.7682 18.0086 21.6532 24.0666Z" fill="#F5A623"></path><path d="M44.3971 33.1473V36.8485H42.5534V33.1236C40.9002 33.1619 39.5256 32.6931 38.557 31.3432C37.8383 30.3509 37.6801 29.2254 37.7951 27.9795H39.6514C39.6514 28.2987 39.6406 28.6107 39.6514 28.9208C39.6607 29.5207 39.901 30.0931 40.3208 30.5155C40.7406 30.9378 41.3065 31.1767 41.8976 31.1809C42.6595 31.201 43.425 31.1937 44.1869 31.1809C45.9281 31.1608 47.2614 29.8493 47.283 28.1492C47.3046 26.4928 46.0251 25.1685 44.3073 25.0481C43.371 24.9843 42.4151 24.9733 41.504 24.7672C38.9182 24.1853 37.6136 22.3958 37.7736 19.7982C37.846 18.6285 38.3231 17.5223 39.1207 16.6749C39.9183 15.8275 40.9852 15.2933 42.133 15.1667C42.221 15.1557 42.3126 15.1357 42.4923 15.1046V11.3706H44.3845V15.101C46.1222 15.0499 47.5633 15.5844 48.5175 17.0784C49.0674 17.9321 49.2578 18.9408 49.1231 20.2123H47.2902C47.2902 19.9095 47.3046 19.6194 47.2902 19.3312C47.2129 17.9759 46.3396 17.0893 45.0027 17.0492C44.15 17.0106 43.2959 17.0167 42.4438 17.0674C40.2875 17.2243 38.9847 19.5921 39.9497 21.5658C40.1009 21.8874 40.325 22.1681 40.6036 22.385C40.8821 22.6018 41.2073 22.7487 41.5525 22.8135C42.4538 22.9858 43.3659 23.0937 44.2821 23.1364C46.814 23.2677 48.7906 25.0098 49.1069 27.4414C49.2878 28.7074 48.9764 29.9951 48.2385 31.0322C47.5007 32.0692 46.3944 32.7741 45.1536 32.9977L44.3971 33.1473Z" fill="#F5A623"></path></g><defs><clipPath id="clip0_1163_937"><rect width="67.1429" height="70" fill="white" transform="translate(0 0.0444336)"></rect></clipPath></defs></svg>