<svg width="48" height="47" viewBox="0 0 48 47" fill="none" xmlns="http://www.w3.org/2000/svg"><g clip-path="url(#clip0_1132_1292)"><path d="M17.1448 36.9461L15.4803 37.4272C15.7475 38.6693 15.699 39.9586 15.3393 41.1771C14.9796 42.3957 14.3202 43.5046 13.4214 44.4026C12.1991 45.6907 10.5442 46.4821 8.7743 46.6251C6.94176 46.8216 5.10025 46.3456 3.59251 45.2856C2.08477 44.2257 1.01352 42.654 0.578157 40.8631C0.142791 39.0722 0.372967 37.1842 1.22584 35.5503C2.07872 33.9165 3.49619 32.6482 5.21442 31.9815C6.15698 31.6163 7.16224 31.4404 8.17279 31.4637C9.18335 31.4871 10.1794 31.7092 11.1041 32.1175C12.0288 32.5258 12.864 33.1123 13.5621 33.8433C14.2601 34.5744 14.8073 35.4359 15.1725 36.3784L16.1923 36.0898L17.2218 35.7723C17.2218 34.7524 17.2218 33.7518 17.2218 32.7512C17.1717 32.5579 17.0517 32.3899 16.885 32.2798L4.13684 23.3608C3.78828 23.1819 3.51302 22.8871 3.35847 22.5271C3.20393 22.167 3.17977 21.7644 3.29017 21.3885C3.37427 21.0257 3.58106 20.7031 3.87558 20.4752C4.1701 20.2473 4.53427 20.1281 4.90654 20.1377C6.07072 20.1377 7.23489 20.1858 8.39907 20.1377C8.63656 20.158 8.87312 20.0894 9.06294 19.9453C9.36193 19.6464 9.75105 19.4542 10.1702 19.3986C10.5893 19.3429 11.015 19.4269 11.3817 19.6374C13.4214 20.7599 15.4547 21.892 17.4816 23.0337C17.7981 23.2095 18.0611 23.4679 18.2424 23.7814C18.4237 24.0948 18.5165 24.4516 18.511 24.8137C19.4732 24.8137 20.4834 24.8618 21.4552 24.8137C21.6073 24.7711 21.7482 24.6956 21.8679 24.5925C21.9876 24.4894 22.0832 24.3613 22.1479 24.2171C22.4416 23.4957 22.9614 22.889 23.6294 22.4882C24.2973 22.0874 25.0773 21.9142 25.8521 21.9946C26.9489 21.9946 28.0554 22.0427 29.1522 22.0523C29.4793 22.0523 29.7391 22.1582 29.8257 22.5045C29.9123 22.8509 29.6236 23.1395 29.1618 23.1395C28.0457 23.1395 26.9297 23.1395 25.8136 23.0722C25.2475 23.004 24.6749 23.1282 24.188 23.4249C23.7011 23.7216 23.3282 24.1735 23.1293 24.7078C22.9802 25.1071 22.7029 25.4456 22.3407 25.6703C21.9785 25.8949 21.552 25.9929 21.128 25.949C20.2525 25.949 19.3866 25.9009 18.5207 25.949C18.3035 25.9605 18.0966 26.0453 17.9338 26.1895C17.6371 26.4915 17.2491 26.6872 16.8299 26.7464C16.4107 26.8055 15.9837 26.7248 15.615 26.5166C13.6908 25.4679 11.7665 24.3999 9.89037 23.3416C9.55362 23.1492 9.40931 22.8798 9.61135 22.5334C9.8134 22.187 10.1117 22.2255 10.4292 22.3987L15.8941 25.439C16.1153 25.5731 16.3668 25.6492 16.6253 25.6603C16.8098 25.6621 16.9887 25.5967 17.1285 25.4763C17.2684 25.356 17.3597 25.1888 17.3854 25.0061C17.4481 24.8263 17.4438 24.6298 17.373 24.453C17.3023 24.2761 17.17 24.1309 17.0005 24.0439C16.5291 23.7457 16.0384 23.4859 15.5477 23.2165L10.9872 20.7054C10.2945 20.3109 10.0251 20.3879 9.51514 20.994C9.31698 21.1712 9.05937 21.2674 8.79354 21.2634C7.58126 21.2634 6.35936 21.2634 5.14707 21.2153C4.78147 21.2153 4.45434 21.2153 4.31002 21.6579C4.1657 22.1004 4.44472 22.2929 4.74298 22.4949C9.07256 25.516 13.4021 28.5563 17.7317 31.5678C17.933 31.6785 18.0971 31.8463 18.2032 32.05C18.3094 32.2537 18.3529 32.4843 18.3282 32.7127C18.2705 34.5889 18.2513 36.4554 18.232 38.3316C18.2009 38.8087 18.27 39.287 18.4348 39.7358C18.5997 40.1846 18.8567 40.5939 19.1893 40.9374C19.5219 41.2809 19.9228 41.5509 20.366 41.7302C20.8093 41.9094 21.2852 41.9938 21.763 41.978C23.3409 41.978 24.9092 42.0454 26.4871 42.055C26.9645 42.0794 27.4418 42.0041 27.8885 41.834C28.3352 41.6639 28.7417 41.4026 29.0819 41.0669C29.4222 40.7311 29.6889 40.3282 29.8649 39.8838C30.041 39.4394 30.1227 38.9632 30.1047 38.4855C30.1047 37.3694 30.1047 36.2534 30.1721 35.1373C30.1971 34.8356 30.3035 34.5463 30.4799 34.3002C31.1727 33.4247 31.9135 32.5877 32.6255 31.7314C32.866 31.4235 33.1643 31.2407 33.501 31.5293C33.8378 31.818 33.6934 32.1451 33.4433 32.4337C32.8083 33.1842 32.1637 33.925 31.519 34.7043C31.3386 34.9454 31.2287 35.2319 31.2015 35.5318C31.1342 36.8306 31.2015 38.1391 31.038 39.3803C30.8829 40.4066 30.3683 41.3445 29.5858 42.0265C28.8033 42.7085 27.804 43.0903 26.7661 43.1037C24.9284 43.1037 23.0908 43.1037 21.2531 43.0075C20.086 42.9116 19.0016 42.3666 18.2282 41.4873C17.4547 40.608 17.0526 39.4629 17.1063 38.2931C17.1544 37.8601 17.1448 37.4368 17.1448 36.9461ZM14.3835 37.7543C13.4214 38.0333 12.5074 38.3219 11.5549 38.5721C11.1989 38.6683 11.093 38.8223 11.0738 39.2071C11.0562 39.6297 10.9506 40.0439 10.7638 40.4234C10.577 40.8028 10.313 41.1391 9.98886 41.4108C9.66469 41.6824 9.28741 41.8835 8.88113 42.001C8.47485 42.1186 8.04851 42.1501 7.62937 42.0935C7.21426 42.044 6.81363 41.9102 6.45207 41.7003C6.09051 41.4905 5.77564 41.209 5.52676 40.8731C5.27788 40.5372 5.10025 40.154 5.00476 39.7469C4.90927 39.3399 4.89793 38.9177 4.97144 38.5062C5.04496 38.0947 5.20177 37.7025 5.43226 37.3537C5.66276 37.0049 5.96207 36.7069 6.31185 36.478C6.66163 36.249 7.05449 36.0939 7.46635 36.0222C7.87821 35.9505 8.30037 35.9637 8.70695 36.0609C9.14756 36.1661 9.56036 36.3649 9.91729 36.6438C10.2742 36.9227 10.5669 37.2752 10.7755 37.6773L14.0756 36.7152C13.4666 35.1411 12.2727 33.8633 10.7436 33.1487C9.2145 32.4342 7.46841 32.3383 5.87022 32.881C4.27203 33.4238 2.94542 34.5631 2.16761 36.061C1.3898 37.559 1.22098 39.2995 1.69642 40.919C2.17187 42.5385 3.25479 43.9116 4.71888 44.7513C6.18298 45.591 7.91496 45.8325 9.5529 45.4251C11.1908 45.0178 12.608 43.9932 13.5082 42.5655C14.4084 41.1378 14.722 39.4174 14.3835 37.7639V37.7543ZM9.66908 38.0141C9.41777 37.595 9.01643 37.2872 8.54649 37.1532C8.07656 37.0192 7.57324 37.069 7.13868 37.2925C6.69105 37.5093 6.34134 37.8866 6.15895 38.3494C5.97657 38.8121 5.97485 39.3265 6.15414 39.7905C6.33343 40.2545 6.68061 40.6341 7.12678 40.8539C7.57295 41.0738 8.08548 41.1179 8.56263 40.9774C8.98636 40.8756 9.35979 40.6258 9.61558 40.273C9.87138 39.9201 9.99271 39.4875 9.95772 39.0532L8.36059 39.5246C7.98536 39.6304 7.63899 39.6112 7.53315 39.1782C7.42732 38.7453 7.70634 38.5817 8.0527 38.4855L9.66908 38.0141Z" fill="#1D4886"></path><path d="M35.2328 30.2783L36.6087 32.5586C37.6449 32.0506 38.7836 31.7864 39.9377 31.7864C41.0917 31.7864 42.2304 32.0506 43.2666 32.5586C44.9542 33.347 46.2834 34.7414 46.9901 36.4648C47.701 38.172 47.7661 40.0797 47.173 41.8313C46.58 43.5829 45.3694 45.0587 43.7675 45.9828C42.1656 46.9069 40.2821 47.2162 38.4688 46.8527C36.6556 46.4893 35.0367 45.478 33.9147 44.0079C33.2975 43.1828 32.8523 42.2422 32.6054 41.2419C32.3585 40.2415 32.3149 39.2017 32.4773 38.1842C32.6397 37.1667 33.0048 36.1922 33.5508 35.3184C34.0969 34.4446 34.8128 33.6893 35.6562 33.0974C35.1847 32.3084 34.694 31.5195 34.2418 30.7498C34.1244 30.5844 34.0688 30.3831 34.0846 30.1808C34.1004 29.9786 34.1867 29.7884 34.3284 29.6433C34.5966 29.2124 34.9806 28.8656 35.4366 28.6427C35.8926 28.4198 36.4022 28.3298 36.9069 28.3829C38.2089 28.3605 39.5025 28.1697 40.7555 27.8153C41.1719 27.7209 41.5575 27.5219 41.8756 27.2371C42.1937 26.9522 42.434 26.591 42.5736 26.1874C42.7133 25.7839 42.7477 25.3514 42.6737 24.9308C42.5997 24.5103 42.4196 24.1155 42.1505 23.784C41.0264 22.2917 39.4664 21.1856 37.6863 20.6185C37.1727 20.5071 36.6412 20.5071 36.1276 20.6185C36.0444 20.6269 35.9637 20.6518 35.8903 20.6919C35.8168 20.7319 35.7522 20.7863 35.7002 20.8518C35.6481 20.9173 35.6098 20.9925 35.5873 21.0731C35.5649 21.1537 35.5589 21.238 35.5696 21.3209C35.5615 21.4974 35.6221 21.6702 35.7388 21.803C35.8554 21.9357 36.0189 22.0181 36.195 22.0329C36.5539 22.0521 36.9136 22.0521 37.2726 22.0329L39.1487 22.1098C39.2229 22.1012 39.298 22.109 39.3688 22.1327C39.4396 22.1563 39.5044 22.1951 39.5585 22.2465C39.6126 22.2979 39.6548 22.3606 39.6821 22.43C39.7094 22.4995 39.7211 22.5741 39.7164 22.6486C39.7186 22.7247 39.7042 22.8002 39.674 22.8701C39.6438 22.9399 39.5987 23.0022 39.5418 23.0527C39.4849 23.1032 39.4177 23.1405 39.3447 23.1621C39.2718 23.1838 39.1951 23.1891 39.1198 23.1778C38.1577 23.1778 37.1186 23.1778 36.118 23.072C35.7687 23.0588 35.4325 22.9353 35.1577 22.7193C34.8828 22.5032 34.6835 22.2057 34.5882 21.8693C34.4569 21.541 34.4299 21.1801 34.5108 20.8359C34.5917 20.4916 34.7766 20.1806 35.0404 19.9451L35.3002 19.666L30.3548 18.6462L30.9802 19.9354C31.4902 20.9649 32.0001 21.9944 32.5004 23.0239C32.6546 23.2703 32.7524 23.5479 32.7869 23.8365C32.8213 24.1252 32.7915 24.418 32.6995 24.6938C32.6076 24.9696 32.4558 25.2217 32.255 25.432C32.0543 25.6423 31.8095 25.8056 31.5383 25.9103C28.0073 27.7094 24.457 29.4894 20.9549 31.2789C20.5027 31.5098 20.1755 31.4521 19.9927 31.1058C19.8099 30.7594 20.1082 30.4804 20.4353 30.3168L30.8744 25.0155C31.7788 24.5633 31.9039 24.188 31.4613 23.2933C30.7878 21.9367 30.0758 20.6089 29.4697 19.2331C29.2204 18.6731 28.8165 18.1958 28.3055 17.8572C27.632 17.3666 26.9778 16.8374 26.3139 16.3371C26.006 16.0965 25.804 15.8175 26.0926 15.4615C26.3813 15.1055 26.6699 15.2402 26.9585 15.4615L28.9886 17.0202C29.3728 17.387 29.8731 17.6082 30.403 17.6456C31.2859 17.7106 32.1615 17.8523 33.0199 18.0689C35.5738 18.5126 38.0335 19.3878 40.2936 20.657C41.4126 21.2932 42.3756 22.1708 43.1127 23.2259C43.4438 23.6936 43.6598 24.2328 43.7429 24.7998C43.8261 25.3668 43.7741 25.9453 43.5912 26.4884C43.4083 27.0314 43.0997 27.5236 42.6905 27.9247C42.2813 28.3258 41.7831 28.6246 41.2365 28.7966C39.7796 29.2544 38.2609 29.4848 36.7338 29.4798C35.8197 29.5182 35.8197 29.5086 35.2328 30.2783ZM36.2623 34.1268C34.8632 35.1077 33.9063 36.5998 33.5984 38.2806C33.2905 39.9614 33.6565 41.6958 34.6171 43.1089C35.5777 44.522 37.0559 45.5004 38.732 45.8324C40.4082 46.1645 42.1477 45.8236 43.5745 44.8834C44.2993 44.4057 44.9215 43.788 45.4046 43.0666C45.8876 42.3453 46.2218 41.5348 46.3876 40.6826C46.5534 39.8305 46.5474 38.9538 46.37 38.104C46.1926 37.2541 45.8473 36.4483 45.3544 35.7336C44.4879 34.4504 43.183 33.5274 41.6845 33.1377C40.1859 32.748 38.5967 32.9184 37.2148 33.6169L38.9755 36.5033C39.722 36.257 40.534 36.3026 41.2482 36.6311C41.9623 36.9596 42.5254 37.5465 42.824 38.2736C43.0661 38.943 43.068 39.6756 42.8295 40.3463C42.5909 41.0169 42.1266 41.5837 41.5162 41.9497C40.9057 42.3158 40.187 42.4583 39.4831 42.3528C38.7792 42.2474 38.1338 41.9005 37.6574 41.3717C36.551 40.092 36.6953 38.5623 38.0134 36.9651L36.2623 34.1268ZM38.6195 38.0523C38.2621 38.3802 38.0417 38.8311 38.0025 39.3145C37.9633 39.798 38.108 40.2784 38.4079 40.6597C38.7049 41.0827 39.1555 41.3729 39.6634 41.4685C40.1714 41.564 40.6966 41.4574 41.127 41.1713C41.5575 40.8851 41.8592 40.4422 41.9677 39.9368C42.0762 39.4314 41.983 38.9037 41.708 38.466C41.5276 38.0828 41.2159 37.7769 40.8293 37.6039C40.4427 37.4309 40.0068 37.4023 39.6009 37.5232L40.3802 38.8317C40.5727 39.1395 40.5919 39.4378 40.2648 39.6398C39.9377 39.8419 39.649 39.6976 39.4566 39.3801L38.6195 38.0523Z" fill="#1D4886"></path><path d="M25.2075 7.36042C25.2075 8.81324 25.3037 10.2468 25.2075 11.7285C25.0877 12.7764 24.745 13.7866 24.2023 14.691C23.6596 15.5955 22.9296 16.3733 22.0613 16.9721C20.5703 18.1103 18.9567 19.0785 17.2507 19.8585C17.0559 19.9351 16.8393 19.9351 16.6445 19.8585C14.7527 19.0235 12.9771 17.9466 11.3625 16.6546C10.4384 15.908 9.69781 14.9596 9.19745 13.8821C8.6971 12.8047 8.45032 11.6269 8.47607 10.4392C8.47607 8.14937 8.47607 5.84988 8.47607 3.55039C8.47607 2.90576 8.59153 2.76145 9.23615 2.7422C11.8343 2.65954 14.3411 1.76449 16.404 0.182939C16.466 0.117732 16.5406 0.0658119 16.6233 0.0303344C16.706 -0.00514303 16.7951 -0.0234375 16.8851 -0.0234375C16.9751 -0.0234375 17.0641 -0.00514303 17.1468 0.0303344C17.2295 0.0658119 17.3041 0.117732 17.3661 0.182939C19.4066 1.75054 21.8856 2.6419 24.457 2.73258C25.1305 2.73258 25.2556 2.89614 25.2556 3.56963V7.36042H25.2075ZM9.51517 3.84865V4.33934C9.51517 6.36943 9.51517 8.40914 9.51517 10.4392C9.48334 11.5106 9.70768 12.5741 10.1695 13.5413C10.6314 14.5086 11.3174 15.3516 12.1706 16.0003C13.5524 17.0817 15.0574 17.9957 16.6542 18.7232C16.7328 18.7588 16.818 18.7772 16.9043 18.7772C16.9906 18.7772 17.0759 18.7588 17.1545 18.7232C18.5015 17.9438 19.8869 17.2319 21.1569 16.3467C22.1569 15.7007 22.9677 14.8012 23.5069 13.7398C24.046 12.6784 24.2942 11.4931 24.2261 10.3045C24.178 8.38028 24.2261 6.36943 24.2261 4.39706C24.2261 4.22388 24.2261 4.0507 24.2261 3.87752C21.5589 3.72736 18.9952 2.7936 16.8562 1.19317C14.7204 2.77498 12.1687 3.69798 9.51517 3.84865Z" fill="#F5A623"></path><path d="M24.0144 39.236H21.5706C21.1762 39.236 20.8587 39.1013 20.8779 38.6683C20.8971 38.2354 21.205 38.1488 21.5803 38.1584L26.4871 38.2354C26.8623 38.2354 27.1606 38.3605 27.151 38.7838C27.1414 39.2071 26.8527 39.3226 26.4775 39.3226H24.0144V39.236Z" fill="#1D4886"></path><path d="M24.0818 34.8869H26.4871C26.872 34.8869 27.1799 34.9735 27.2183 35.4161C27.2568 35.8586 26.9489 35.9741 26.439 35.9645L21.6284 35.8875C21.2435 35.8875 20.926 35.772 20.9356 35.3198C20.9453 34.8676 21.2531 34.8003 21.6284 34.8003H24.0818V34.8869Z" fill="#1D4886"></path><path d="M22.3595 8.46667C22.3595 9.4288 22.4173 10.3043 22.3595 11.2184C22.3063 11.8787 22.1059 12.5188 21.7729 13.0915C21.4399 13.6643 20.9828 14.1551 20.4353 14.5281C19.4154 15.2882 18.2993 15.9232 17.2121 16.587C17.1113 16.6343 17.0012 16.6588 16.8898 16.6588C16.7784 16.6588 16.6684 16.6343 16.5675 16.587C15.1841 15.9427 13.906 15.0928 12.7767 14.0663C12.31 13.6265 11.9386 13.0955 11.6854 12.5064C11.4322 11.9172 11.3026 11.2824 11.3047 10.6411C11.3047 9.10168 11.3047 7.55265 11.3047 6.01324C11.2911 5.9283 11.295 5.84149 11.316 5.75808C11.337 5.67467 11.3748 5.5964 11.427 5.52802C11.4791 5.45965 11.5447 5.40258 11.6196 5.36029C11.6945 5.31801 11.7772 5.29138 11.8627 5.28203C13.4882 4.95109 15.0526 4.37012 16.5002 3.55982C16.6216 3.50684 16.7526 3.47949 16.885 3.47949C17.0175 3.47949 17.1485 3.50684 17.2699 3.55982C18.6847 4.36051 20.2175 4.93204 21.8111 5.25316C21.9048 5.26234 21.9956 5.29078 22.0778 5.3367C22.1599 5.38262 22.2317 5.44503 22.2887 5.52001C22.3456 5.595 22.3864 5.68094 22.4085 5.77244C22.4306 5.86394 22.4336 5.95902 22.4173 6.05173C22.4173 6.84068 22.4173 7.62 22.4173 8.40894L22.3595 8.46667ZM21.3301 8.76493C21.3301 8.10106 21.3301 7.42757 21.3301 6.75408C21.3301 6.43658 21.2435 6.33075 20.926 6.21529C19.6463 5.77271 18.434 5.26278 17.1833 4.81058C16.9806 4.74094 16.7605 4.74094 16.5579 4.81058C15.2879 5.28203 14.0275 5.77271 12.7094 6.24415C12.4592 6.34037 12.3342 6.40772 12.3438 6.69636C12.3438 8.03371 12.3438 9.36145 12.3438 10.6892C12.323 11.2099 12.4245 11.7283 12.64 12.2027C12.8555 12.6772 13.1791 13.0947 13.5849 13.4216C14.547 14.1529 15.5765 14.7975 16.5868 15.4517C16.6612 15.4897 16.7437 15.5096 16.8273 15.5096C16.9109 15.5096 16.9933 15.4897 17.0678 15.4517C18.03 14.8552 18.9921 14.2876 19.8484 13.6141C20.3223 13.2558 20.7016 12.7871 20.9531 12.2489C21.2046 11.7106 21.3208 11.119 21.2916 10.5256C21.3301 9.91949 21.3397 9.34221 21.3301 8.76493Z" fill="#F5A623"></path><path d="M16.2597 10.5834L18.1262 8.65916C18.4918 8.29355 18.8189 8.24544 19.0883 8.52446C19.3577 8.80347 19.2038 9.15946 18.9248 9.42886L16.76 11.5455C16.3463 11.9496 16.1153 11.9496 15.6824 11.5455L14.7203 10.5834C14.6553 10.538 14.6011 10.4788 14.5616 10.41C14.5222 10.3412 14.4984 10.2646 14.4919 10.1855C14.4855 10.1065 14.4966 10.027 14.5244 9.95278C14.5523 9.87852 14.5961 9.81133 14.6529 9.75598C14.7067 9.69707 14.7731 9.65107 14.8471 9.62143C14.9212 9.5918 15.001 9.57929 15.0806 9.58484C15.1602 9.59039 15.2374 9.61386 15.3067 9.65349C15.3759 9.69313 15.4353 9.7479 15.4803 9.81371C15.7978 10.0061 15.9806 10.2659 16.2597 10.5834Z" fill="#F5A623"></path></g><defs><clipPath id="clip0_1132_1292"><rect width="47.1924" height="47" fill="white" transform="translate(0.403809)"></rect></clipPath></defs></svg>