<svg width="70" height="51" viewBox="0 0 70 51" fill="none" xmlns="http://www.w3.org/2000/svg"><g clip-path="url(#clip0_1132_1314)"><path d="M41.9371 40.336H20.2315C19.0119 43.797 17.3684 45.1502 14.6002 44.9878C12.2736 44.8502 10.5087 43.1522 9.82698 40.3113H6.84982C4.96631 40.3113 3.88599 39.2117 3.88599 37.2663C3.87809 35.1012 3.87809 32.9361 3.88599 30.771C3.8934 28.9477 4.91592 27.8652 6.68088 27.7724C8.21021 27.692 9.73955 27.6286 11.2659 27.5033C11.4238 27.4827 11.5762 27.4294 11.7141 27.3466C11.852 27.2637 11.9727 27.153 12.0691 27.0208C13.6311 24.5186 15.1693 21.9994 16.6838 19.4632C17.2677 18.4812 17.979 17.9894 19.1527 18.0002C24.6091 18.0528 30.0665 18.0528 35.5248 18.0002C36.8586 17.9894 37.9685 18.4177 38.868 19.3626C40.7471 21.3406 42.6854 23.2737 44.3852 25.4078C45.7293 27.0935 47.3046 27.8667 49.3377 28.142C52.0244 28.5054 54.6845 29.1039 57.3504 29.6313C59.108 29.9792 59.8563 30.9365 59.8697 32.7722C59.8796 34.3187 59.8796 35.8651 59.8697 37.4116C59.8593 39.1638 58.7627 40.3004 57.0748 40.3113C55.498 40.3113 53.9213 40.3113 52.3682 40.3113C51.1101 43.7383 49.5452 45.076 46.9385 44.9956C44.5052 44.9213 42.8529 43.3996 41.9371 40.336ZM20.2063 38.9117H20.9206C27.687 38.9117 34.4544 38.9163 41.2228 38.9256C41.7815 38.9256 42.0112 38.7973 42.1594 38.1849C42.4537 37.0285 43.1089 36.0075 44.0213 35.283C44.9337 34.5585 46.0514 34.1718 47.1979 34.1841C48.3434 34.2029 49.4513 34.614 50.3509 35.3542C51.2506 36.0944 51.8923 37.1227 52.1771 38.2807C52.226 38.4756 52.2778 38.6705 52.3416 38.9102C53.9198 38.9102 55.4714 38.9194 57.0244 38.9102C58.0751 38.9102 58.5374 38.4014 58.5449 37.2771C58.5537 35.9115 58.5449 34.5444 58.5449 33.1789C58.5449 31.5659 58.2485 31.1994 56.7488 30.9179C53.3493 30.2839 49.9453 29.6653 46.5532 28.9864C46.0368 28.8652 45.5625 28.5977 45.1824 28.2132C44.154 27.1755 43.2026 26.0481 42.2186 24.9655C40.8538 23.4747 39.4964 21.9777 38.1078 20.5117C37.7645 20.1403 37.3493 19.8494 36.8899 19.6585C36.4304 19.4676 35.9373 19.381 35.4433 19.4044C30.061 19.4523 24.6757 19.4431 19.2905 19.4044C18.5495 19.4044 18.1331 19.6812 17.7537 20.3168C16.1666 22.9861 14.5202 25.6182 12.9183 28.2781C12.6485 28.725 12.3255 28.8967 11.8335 28.9075C10.1026 28.9802 8.37915 29.0761 6.65421 29.1766C5.72356 29.2307 5.24343 29.7318 5.2375 30.6922C5.22268 32.9346 5.22268 35.177 5.2375 37.4194C5.24491 38.3782 5.7532 38.887 6.67347 38.9071C7.46333 38.9256 8.25615 38.8715 9.04453 38.9256C9.6373 38.9658 9.88181 38.7926 10.0433 38.1524C10.3395 36.997 10.9976 35.9782 11.9128 35.2582C12.828 34.5383 13.9478 34.1585 15.0937 34.1795C16.2388 34.2032 17.3444 34.6206 18.239 35.3669C19.1337 36.1131 19.7674 37.1466 20.0418 38.307C20.0833 38.4849 20.1352 38.6565 20.2063 38.9117ZM15.0359 43.6006C15.5397 43.5977 16.0381 43.4912 16.5025 43.2873C16.9669 43.0833 17.3883 42.786 17.7425 42.4121C18.0968 42.0382 18.3771 41.5952 18.5673 41.1083C18.7575 40.6214 18.8539 40.1002 18.8511 39.5744C18.8483 39.0486 18.7462 38.5285 18.5508 38.0439C18.3554 37.5592 18.0704 37.1195 17.7122 36.7498C17.3539 36.3801 16.9294 36.0876 16.4628 35.8892C15.9962 35.6907 15.4968 35.59 14.9929 35.593C13.9754 35.5993 13.0019 36.0272 12.2867 36.7826C11.5715 37.538 11.1731 38.5589 11.1792 39.6208C11.1853 40.6827 11.5954 41.6985 12.3192 42.4449C13.043 43.1913 14.0213 43.607 15.0389 43.6006H15.0359ZM47.1178 43.6006C47.6244 43.6052 48.1268 43.5045 48.5957 43.3045C49.0646 43.1045 49.4908 42.8092 49.8493 42.4358C50.2079 42.0623 50.4917 41.6182 50.6842 41.1292C50.8767 40.6402 50.9742 40.1162 50.9708 39.5875C50.9699 38.7954 50.7442 38.0214 50.3221 37.3631C49.9 36.7048 49.3005 36.1917 48.5993 35.8887C47.898 35.5856 47.1264 35.5062 46.3819 35.6604C45.6375 35.8146 44.9534 36.1955 44.4162 36.755C43.879 37.3146 43.5127 38.0277 43.3635 38.8043C43.2143 39.5809 43.2889 40.3863 43.578 41.1187C43.867 41.851 44.3575 42.4777 44.9875 42.9194C45.6175 43.3611 46.3588 43.5982 47.1178 43.6006Z" fill="#1D4886"></path><path d="M35.2062 28.9896C33.5509 28.9896 31.8971 28.9896 30.2418 28.9896C28.8473 28.9803 28.1331 28.2472 28.1212 26.8121C28.1093 25.4471 28.1093 24.0815 28.1212 22.7155C28.1301 21.2541 28.8266 20.5272 30.2122 20.521C31.6689 20.521 33.1271 20.5581 34.5823 20.5071C35.0148 20.4769 35.4486 20.5432 35.8546 20.7016C36.2606 20.86 36.6296 21.1068 36.9371 21.4257C38.6028 23.1439 40.261 24.8759 41.8719 26.6606C42.6306 27.4972 42.2749 28.5705 41.1931 28.8488C40.7104 28.9539 40.2176 29.0012 39.7246 28.9896C38.2175 29.0004 36.7118 28.9896 35.2062 28.9896ZM40.6611 27.5884L40.799 27.2699C39.2252 25.6755 37.6662 24.064 36.0657 22.5067C35.7245 22.1823 35.291 21.983 34.8313 21.9392C33.3049 21.8727 31.7741 21.9268 30.2463 21.9051C29.6683 21.8974 29.4505 22.1526 29.4594 22.7371C29.4771 24.0238 29.4979 25.312 29.4594 26.6033C29.4327 27.3503 29.7009 27.6008 30.4019 27.5946C32.9908 27.5699 35.5811 27.5946 38.17 27.5946L40.6611 27.5884Z" fill="#1D4886"></path><path d="M21.0347 28.9879C19.9248 28.9879 18.8118 28.9972 17.7048 28.9879C17.3103 28.9897 16.9165 28.954 16.5282 28.8812C15.5072 28.6678 15.0789 27.8605 15.5931 26.9342C16.5667 25.1712 17.5863 23.4376 18.6681 21.7489C19.209 20.9045 20.0448 20.473 21.0821 20.5117C22.2899 20.555 23.4991 20.5117 24.7084 20.5194C26.0421 20.5194 26.783 21.2756 26.8038 22.6443C26.8186 24.0608 26.8231 25.4774 26.8038 26.8924C26.786 28.1714 26.0391 28.9585 24.8106 28.9833C23.551 29.0065 22.2928 28.9879 21.0347 28.9879ZM16.8216 27.4569C16.9698 27.5219 17.0098 27.559 17.0528 27.559C19.6215 27.5662 22.1901 27.5719 24.7587 27.576C25.3145 27.576 25.4715 27.2466 25.4671 26.727C25.4567 25.414 25.4523 24.098 25.4671 22.785C25.4671 22.1664 25.2463 21.8911 24.6328 21.905C23.4976 21.9313 22.3595 21.9483 21.2244 21.905C20.4968 21.8726 19.9692 22.1571 19.6032 22.7649C18.6725 24.3036 17.7626 25.864 16.8216 27.4569Z" fill="#1D4886"></path><line x1="5" y1="32.5" x2="59" y2="32.5" stroke="#1D4886"></line></g><path d="M66.0748 13.1564C66.0748 14.5645 66.168 15.9539 66.0748 17.39C65.9587 18.4056 65.6265 19.3847 65.1005 20.2613C64.5746 21.1379 63.867 21.8917 63.0255 22.4721C61.5804 23.5753 60.0165 24.5136 58.363 25.2696C58.1742 25.3439 57.9643 25.3439 57.7755 25.2696C55.9419 24.4604 54.2211 23.4166 52.6561 22.1644C51.7606 21.4408 51.0428 20.5215 50.5578 19.4773C50.0729 18.433 49.8337 17.2915 49.8586 16.1404C49.8586 13.9211 49.8586 11.6924 49.8586 9.46376C49.8586 8.83899 49.9705 8.69911 50.5953 8.68046C53.1134 8.60035 55.543 7.73286 57.5424 6.20002C57.6025 6.13682 57.6748 6.0865 57.755 6.05212C57.8351 6.01773 57.9215 6 58.0087 6C58.0959 6 58.1822 6.01773 58.2623 6.05212C58.3425 6.0865 58.4148 6.13682 58.4749 6.20002C60.4525 7.71934 62.8551 8.58325 65.3474 8.67114C66.0002 8.67114 66.1214 8.82966 66.1214 9.48241V13.1564H66.0748ZM50.8657 9.75283V10.2284C50.8657 12.196 50.8657 14.1729 50.8657 16.1404C50.8349 17.1788 51.0523 18.2096 51.5 19.147C51.9476 20.0844 52.6125 20.9015 53.4394 21.5303C54.7787 22.5784 56.2373 23.4642 57.7849 24.1692C57.861 24.2037 57.9437 24.2216 58.0273 24.2216C58.1109 24.2216 58.1936 24.2037 58.2698 24.1692C59.5753 23.4139 60.9181 22.7239 62.149 21.866C63.1181 21.2399 63.904 20.368 64.4265 19.3393C64.9491 18.3106 65.1896 17.1618 65.1236 16.0099C65.077 14.1449 65.1236 12.196 65.1236 10.2844C65.1236 10.1165 65.1236 9.94866 65.1236 9.78081C62.5385 9.63528 60.0538 8.73028 57.9807 7.17914C55.9106 8.71223 53.4376 9.60681 50.8657 9.75283Z" fill="#F5A623"></path><path d="M63.6158 13.8702C63.6158 14.8027 63.6718 15.6513 63.6158 16.5371C63.5642 17.1772 63.37 17.7975 63.0472 18.3526C62.7245 18.9077 62.2815 19.3835 61.7508 19.7449C60.7624 20.4816 59.6807 21.0971 58.6269 21.7405C58.5292 21.7863 58.4225 21.81 58.3146 21.81C58.2066 21.81 58.0999 21.7863 58.0022 21.7405C56.6613 21.116 55.4226 20.2923 54.3281 19.2973C53.8758 18.8711 53.5158 18.3565 53.2704 17.7855C53.025 17.2145 52.8994 16.5992 52.9014 15.9776C52.9014 14.4857 52.9014 12.9843 52.9014 11.4923C52.8883 11.41 52.892 11.3259 52.9124 11.245C52.9328 11.1642 52.9694 11.0883 53.0199 11.0221C53.0705 10.9558 53.134 10.9005 53.2066 10.8595C53.2792 10.8185 53.3594 10.7927 53.4423 10.7836C55.0177 10.4629 56.534 9.89982 57.9369 9.11447C58.0545 9.06312 58.1815 9.03662 58.3099 9.03662C58.4383 9.03662 58.5652 9.06312 58.6829 9.11447C60.0542 9.89051 61.5397 10.4444 63.0843 10.7557C63.1751 10.7646 63.2631 10.7921 63.3427 10.8366C63.4224 10.8811 63.492 10.9416 63.5471 11.0143C63.6023 11.087 63.6418 11.1703 63.6633 11.2589C63.6847 11.3476 63.6876 11.4398 63.6718 11.5296C63.6718 12.2943 63.6718 13.0496 63.6718 13.8143L63.6158 13.8702ZM62.618 14.1593C62.618 13.5159 62.618 12.8631 62.618 12.2104C62.618 11.9026 62.5341 11.8001 62.2264 11.6882C60.9862 11.2592 59.8112 10.765 58.599 10.3267C58.4026 10.2592 58.1893 10.2592 57.9928 10.3267C56.762 10.7836 55.5404 11.2592 54.2629 11.7161C54.0204 11.8094 53.8992 11.8747 53.9085 12.1544C53.9085 13.4506 53.9085 14.7374 53.9085 16.0243C53.8884 16.529 53.9867 17.0313 54.1956 17.4912C54.4045 17.9511 54.7181 18.3557 55.1114 18.6726C56.0439 19.3813 57.0417 20.006 58.0208 20.6401C58.093 20.677 58.1729 20.6962 58.2539 20.6962C58.335 20.6962 58.4149 20.677 58.4871 20.6401C59.4196 20.062 60.3521 19.5118 61.182 18.8591C61.6414 18.5118 62.0089 18.0576 62.2527 17.5359C62.4965 17.0142 62.6091 16.4409 62.5807 15.8657C62.618 15.2783 62.6274 14.7188 62.618 14.1593Z" fill="#F5A623"></path><path d="M57.6455 16.2674L59.4546 14.4024C59.8089 14.0481 60.126 14.0014 60.3871 14.2719C60.6482 14.5423 60.499 14.8873 60.2286 15.1484L58.1304 17.1999C57.7295 17.5916 57.5057 17.5916 57.086 17.1999L56.1535 16.2674C56.0906 16.2234 56.0381 16.166 55.9998 16.0993C55.9616 16.0327 55.9385 15.9584 55.9323 15.8818C55.926 15.8052 55.9368 15.7282 55.9637 15.6562C55.9907 15.5842 56.0332 15.5191 56.0883 15.4655C56.1404 15.4084 56.2047 15.3638 56.2765 15.3351C56.3483 15.3063 56.4256 15.2942 56.5028 15.2996C56.5799 15.305 56.6548 15.3277 56.7219 15.3661C56.789 15.4045 56.8465 15.4576 56.8902 15.5214C57.1979 15.7079 57.3751 15.9597 57.6455 16.2674Z" fill="#F5A623"></path><defs><clipPath id="clip0_1132_1314"><rect width="56" height="27" fill="white" transform="translate(3.8786 18)"></rect></clipPath></defs></svg>