<svg width="73" height="51" viewBox="0 0 73 51" fill="none" xmlns="http://www.w3.org/2000/svg"><mask id="mask0_2104_1572" style="mask-type:luminance" maskUnits="userSpaceOnUse" x="0" y="22" width="57" height="27"><path d="M56.8786 22H0.8786V49H56.8786V22Z" fill="white"></path></mask><g mask="url(#mask0_2104_1572)"><path d="M38.9371 44.336H17.2315C16.0119 47.797 14.3684 49.1502 11.6002 48.9878C9.2736 48.8502 7.5087 47.1522 6.82698 44.3113H3.84982C1.96631 44.3113 0.88599 43.2117 0.88599 41.2663C0.87809 39.1012 0.87809 36.9361 0.88599 34.771C0.8934 32.9477 1.91592 31.8652 3.68088 31.7724C5.21021 31.692 6.73955 31.6286 8.2659 31.5033C8.4238 31.4827 8.5762 31.4294 8.7141 31.3466C8.852 31.2637 8.9727 31.153 9.0691 31.0208C10.6311 28.5186 12.1693 25.9994 13.6838 23.4632C14.2677 22.4812 14.979 21.9894 16.1527 22.0002C21.6091 22.0528 27.0665 22.0528 32.5248 22.0002C33.8586 21.9894 34.9685 22.4177 35.868 23.3626C37.7471 25.3406 39.6854 27.2737 41.3852 29.4078C42.7293 31.0935 44.3046 31.8667 46.3377 32.142C49.0244 32.5054 51.6845 33.1039 54.3504 33.6313C56.108 33.9792 56.8563 34.9365 56.8697 36.7722C56.8796 38.3187 56.8796 39.8651 56.8697 41.4116C56.8593 43.1638 55.7627 44.3004 54.0748 44.3113C52.498 44.3113 50.9213 44.3113 49.3682 44.3113C48.1101 47.7383 46.5452 49.076 43.9385 48.9956C41.5052 48.9213 39.8529 47.3996 38.9371 44.336ZM17.2063 42.9117H17.9206C24.687 42.9117 31.4544 42.9163 38.2228 42.9256C38.7815 42.9256 39.0112 42.7973 39.1594 42.1849C39.4537 41.0285 40.1089 40.0075 41.0213 39.283C41.9337 38.5585 43.0514 38.1718 44.1979 38.1841C45.3434 38.2029 46.4513 38.614 47.3509 39.3542C48.2506 40.0944 48.8923 41.1227 49.1771 42.2807C49.226 42.4756 49.2778 42.6705 49.3416 42.9102C50.9198 42.9102 52.4714 42.9194 54.0244 42.9102C55.0751 42.9102 55.5374 42.4014 55.5449 41.2771C55.5537 39.9115 55.5449 38.5444 55.5449 37.1789C55.5449 35.5659 55.2485 35.1994 53.7488 34.9179C50.3493 34.2839 46.9453 33.6653 43.5532 32.9864C43.0368 32.8652 42.5625 32.5977 42.1824 32.2132C41.154 31.1755 40.2026 30.0481 39.2186 28.9655C37.8538 27.4747 36.4964 25.9777 35.1078 24.5117C34.7645 24.1403 34.3493 23.8494 33.8899 23.6585C33.4304 23.4676 32.9373 23.381 32.4433 23.4044C27.061 23.4523 21.6757 23.4431 16.2905 23.4044C15.5495 23.4044 15.1331 23.6812 14.7537 24.3168C13.1666 26.9861 11.5202 29.6182 9.9183 32.2781C9.6485 32.725 9.3255 32.8967 8.8335 32.9075C7.1026 32.9802 5.37915 33.0761 3.65421 33.1766C2.72356 33.2307 2.24343 33.7318 2.2375 34.6922C2.22268 36.9346 2.22268 39.177 2.2375 41.4194C2.24491 42.3782 2.7532 42.887 3.67347 42.9071C4.46333 42.9256 5.25615 42.8715 6.04453 42.9256C6.6373 42.9658 6.88181 42.7926 7.0433 42.1524C7.3395 40.997 7.9976 39.9782 8.9128 39.2582C9.828 38.5383 10.9478 38.1585 12.0937 38.1795C13.2388 38.2032 14.3444 38.6206 15.239 39.3669C16.1337 40.1131 16.7674 41.1466 17.0418 42.307C17.0833 42.4849 17.1352 42.6565 17.2063 42.9117ZM12.0359 47.6006C12.5397 47.5977 13.0381 47.4912 13.5025 47.2873C13.9669 47.0833 14.3883 46.786 14.7425 46.4121C15.0968 46.0382 15.3771 45.5952 15.5673 45.1083C15.7575 44.6214 15.8539 44.1002 15.8511 43.5744C15.8483 43.0486 15.7462 42.5285 15.5508 42.0439C15.3554 41.5592 15.0704 41.1195 14.7122 40.7498C14.3539 40.3801 13.9294 40.0876 13.4628 39.8892C12.9962 39.6907 12.4968 39.59 11.9929 39.593C10.9754 39.5993 10.0019 40.0272 9.2867 40.7826C8.5715 41.538 8.1731 42.5589 8.1792 43.6208C8.1853 44.6827 8.5954 45.6985 9.3192 46.4449C10.043 47.1913 11.0213 47.607 12.0389 47.6006H12.0359ZM44.1178 47.6006C44.6244 47.6052 45.1268 47.5045 45.5957 47.3045C46.0646 47.1045 46.4908 46.8092 46.8493 46.4358C47.2079 46.0623 47.4917 45.6182 47.6842 45.1292C47.8767 44.6402 47.9742 44.1162 47.9708 43.5875C47.9699 42.7954 47.7442 42.0214 47.3221 41.3631C46.9 40.7048 46.3005 40.1917 45.5993 39.8887C44.898 39.5856 44.1264 39.5062 43.3819 39.6604C42.6375 39.8146 41.9534 40.1955 41.4162 40.755C40.879 41.3146 40.5127 42.0277 40.3635 42.8043C40.2143 43.5809 40.2889 44.3863 40.578 45.1187C40.867 45.851 41.3575 46.4777 41.9875 46.9194C42.6175 47.3611 43.3588 47.5982 44.1178 47.6006Z" fill="#1D4886"></path><path d="M32.2062 32.9896C30.5509 32.9896 28.8971 32.9896 27.2418 32.9896C25.8473 32.9803 25.1331 32.2472 25.1212 30.8121C25.1093 29.4471 25.1093 28.0815 25.1212 26.7155C25.1301 25.2541 25.8266 24.5272 27.2122 24.521C28.6689 24.521 30.1271 24.5581 31.5823 24.5071C32.0148 24.4769 32.4486 24.5432 32.8546 24.7016C33.2606 24.86 33.6296 25.1068 33.9371 25.4257C35.6028 27.1439 37.261 28.8759 38.8719 30.6606C39.6306 31.4972 39.2749 32.5705 38.1931 32.8488C37.7104 32.9539 37.2176 33.0012 36.7246 32.9896C35.2175 33.0004 33.7118 32.9896 32.2062 32.9896ZM37.6611 31.5884L37.799 31.2699C36.2252 29.6755 34.6662 28.064 33.0657 26.5067C32.7245 26.1823 32.291 25.983 31.8313 25.9392C30.3049 25.8727 28.7741 25.9268 27.2463 25.9051C26.6683 25.8974 26.4505 26.1526 26.4594 26.7371C26.4771 28.0238 26.4979 29.312 26.4594 30.6033C26.4327 31.3503 26.7009 31.6008 27.4019 31.5946C29.9908 31.5699 32.5811 31.5946 35.17 31.5946L37.6611 31.5884Z" fill="#1D4886"></path><path d="M18.0347 32.9884C16.9248 32.9884 15.8118 32.9977 14.7048 32.9884C14.3103 32.9902 13.9165 32.9545 13.5282 32.8817C12.5072 32.6683 12.0789 31.861 12.5931 30.9347C13.5667 29.1717 14.5863 27.4381 15.6681 25.7494C16.209 24.905 17.0448 24.4735 18.0821 24.5122C19.2899 24.5555 20.4991 24.5122 21.7084 24.5199C23.0421 24.5199 23.783 25.2761 23.8038 26.6448C23.8186 28.0613 23.8231 29.4779 23.8038 30.8929C23.786 32.1719 23.0391 32.959 21.8106 32.9838C20.551 33.007 19.2928 32.9884 18.0347 32.9884ZM13.8216 31.4574C13.9698 31.5224 14.0098 31.5595 14.0528 31.5595C16.6215 31.5667 19.1901 31.5724 21.7587 31.5765C22.3145 31.5765 22.4715 31.2471 22.4671 30.7275C22.4567 29.4145 22.4523 28.0985 22.4671 26.7855C22.4671 26.1669 22.2463 25.8916 21.6328 25.9055C20.4976 25.9318 19.3595 25.9488 18.2244 25.9055C17.4968 25.8731 16.9692 26.1576 16.6032 26.7654C15.6725 28.3041 14.7626 29.8645 13.8216 31.4574Z" fill="#1D4886"></path><path d="M2 36.5H56" stroke="#1D4886"></path></g><path d="M57.8096 10.723C57.9826 10.4663 58.2581 10.1118 58.4222 9.93545C58.5862 9.75867 58.7395 9.61433 58.763 9.61433C58.7865 9.61433 58.8415 9.67263 58.8857 9.74362C58.9294 9.81462 59.1358 10.0483 59.7225 10.6525L59.4846 10.8974C59.3535 11.0323 59.1607 11.2585 59.0554 11.401C58.9501 11.5429 58.779 11.818 58.6746 12.0122C58.5703 12.2059 58.4217 12.5449 58.3451 12.7644C58.2685 12.984 58.1674 13.3441 58.1208 13.5637C58.0522 13.8881 58.0358 14.198 58.0301 16.4552H69.0776L69.0771 15.1623C69.0766 13.9098 69.0724 13.8538 68.9492 13.3757C68.8787 13.1039 68.7612 12.7339 68.6874 12.5529C68.6136 12.3718 68.4838 12.0968 68.3992 11.9416C68.3141 11.7865 68.1999 11.5961 68.1449 11.5185C68.0899 11.4409 68.0128 11.337 67.9733 11.2876C67.9343 11.2383 67.7914 11.0742 67.4087 10.6487L67.7965 10.2359C68.01 10.0088 68.2234 9.77089 68.3574 9.59082L68.5675 9.80239C68.6831 9.91853 68.866 10.1301 68.9746 10.2726C69.0827 10.4145 69.1852 10.5415 69.2017 10.5547C69.2186 10.5674 69.3357 10.7474 69.4616 10.9543C69.5876 11.1612 69.7728 11.5105 69.873 11.7301C69.9731 11.9496 70.1019 12.2778 70.1593 12.4588C70.2171 12.6398 70.2975 12.9572 70.3384 13.1641C70.3793 13.3709 70.4348 13.6935 70.462 13.8811C70.4893 14.0687 70.5109 14.9253 70.51 15.7852C70.5086 17.2526 70.5024 17.3584 70.4155 17.5131C70.3647 17.6034 70.2434 17.7247 69.9708 17.8859H57.1369L56.9611 17.782C56.8643 17.7247 56.743 17.6034 56.6922 17.5131C56.6052 17.3589 56.5991 17.2531 56.5982 15.8205C56.5972 14.7814 56.6179 14.1345 56.6621 13.7988C56.6978 13.527 56.7632 13.157 56.8069 12.976C56.8506 12.795 56.9291 12.5199 56.9813 12.3648C57.0335 12.2096 57.1708 11.8815 57.2855 11.636C57.4006 11.3901 57.6362 10.9797 57.8096 10.723Z" fill="#F5A623"></path><path d="M34.555 11.1776C34.6622 11.0808 34.8723 10.8495 35.0218 10.6642L35.2935 10.3266L35.5676 10.6153C35.718 10.7742 35.8708 10.9364 35.907 10.9759C35.9432 11.0159 36.0631 11.1753 36.1736 11.3304C36.2845 11.4856 36.4566 11.7606 36.5567 11.9416C36.6568 12.1227 36.8091 12.44 36.8952 12.6469C36.9812 12.8538 37.0926 13.15 37.142 13.3051C37.1918 13.4603 37.2618 13.7457 37.2976 13.9398C37.3338 14.1336 37.3855 14.4457 37.4132 14.6333C37.4405 14.8209 37.463 15.6616 37.463 16.5022C37.463 17.5803 37.4466 18.0684 37.4071 18.1596C37.3761 18.2306 37.3074 18.3382 37.2543 18.3989C37.2012 18.4591 37.0832 18.539 36.9929 18.5761C36.8529 18.634 35.8957 18.6439 30.5055 18.6439C25.1153 18.6439 24.1582 18.634 24.0181 18.5761C23.9273 18.539 23.8098 18.4591 23.7562 18.3989C23.7031 18.3382 23.6236 18.2306 23.5799 18.1596C23.5099 18.0453 23.5009 17.8479 23.5 16.4435C23.4995 15.5473 23.5183 14.836 23.5423 14.8097C23.5663 14.7838 23.6086 14.5826 23.6368 14.363C23.6655 14.1434 23.7322 13.7941 23.7863 13.5872C23.8399 13.3804 23.9668 12.9995 24.0679 12.7409C24.169 12.4823 24.3631 12.0855 24.4995 11.8594C24.6353 11.6327 24.836 11.3262 24.9456 11.1776C25.0546 11.0291 25.261 10.7855 25.4039 10.6369C25.5464 10.4884 25.6846 10.3666 25.7104 10.3666C25.7363 10.3666 25.7857 10.4141 25.8204 10.4724C25.8548 10.5307 26.0536 10.7582 26.6398 11.3774L26.4034 11.636C26.2732 11.778 26.0668 12.0427 25.9441 12.2237C25.8219 12.4048 25.6418 12.7113 25.544 12.9055C25.4467 13.0992 25.317 13.4062 25.2558 13.5872C25.1947 13.7682 25.1026 14.1331 25.0514 14.3983C24.9743 14.7979 24.9583 15.0772 24.9583 17.184H36.0527L36.0523 16.1849C36.0523 15.6353 36.0316 15.0057 36.0067 14.7861C35.9813 14.5666 35.9108 14.1853 35.8487 13.9398C35.7871 13.694 35.6358 13.2816 35.5126 13.023C35.3889 12.7644 35.2028 12.4259 35.0984 12.2708C34.9941 12.1156 34.7853 11.8457 34.3604 11.3539L34.555 11.1776Z" fill="#F5A623"></path><path d="M42.4603 10.0901C43.1118 9.43471 43.7084 8.86957 43.7859 8.8343C43.8635 8.79904 43.9956 8.76942 44.0798 8.76848C44.1639 8.76754 44.3012 8.79481 44.3853 8.82866C44.4695 8.86299 44.5865 8.95279 44.6458 9.02848C44.7045 9.10418 44.7652 9.22971 44.7802 9.30729C44.7948 9.38487 44.7915 9.53297 44.7727 9.63641C44.7445 9.79156 44.6495 9.91615 44.2269 10.3534C43.9458 10.6444 43.7262 10.9035 43.7389 10.9294C43.7544 10.9599 44.8987 10.9764 47.0297 10.9764C49.1607 10.9764 50.3049 10.9599 50.3204 10.9294C50.3336 10.9035 50.1136 10.6444 49.8324 10.3534C49.4098 9.91615 49.3148 9.79156 49.2866 9.63641C49.2678 9.53297 49.2645 9.38487 49.2791 9.30729C49.2942 9.22971 49.3492 9.10794 49.4018 9.03694C49.4545 8.96595 49.5612 8.87615 49.6387 8.83713C49.7163 8.7981 49.8541 8.7666 49.9443 8.7666C50.035 8.7666 50.1671 8.7887 50.2381 8.81597C50.3091 8.84277 50.8925 9.38769 51.5342 10.0266C52.1759 10.6651 52.7419 11.2674 52.7917 11.3643C52.8416 11.4611 52.8825 11.6092 52.8825 11.6934C52.882 11.7775 52.843 11.9097 52.795 11.9872C52.7466 12.0648 52.1811 12.6539 51.5375 13.2962C50.8098 14.0226 50.3054 14.4895 50.2029 14.5313C50.1126 14.5684 50.0012 14.5985 49.9561 14.5976C49.9109 14.5971 49.784 14.5548 49.674 14.504C49.5466 14.4453 49.4366 14.3475 49.3698 14.2337C49.3125 14.1359 49.265 13.9765 49.2641 13.8796C49.2631 13.7828 49.2928 13.645 49.3299 13.574C49.367 13.503 49.6195 13.2224 49.8917 12.9511C50.1639 12.6798 50.3768 12.4414 50.3651 12.4221C50.3533 12.4029 48.856 12.3869 47.0377 12.3869C45.2188 12.3869 43.7168 12.4029 43.699 12.4221C43.6811 12.4414 43.9086 12.7005 44.2039 12.9981C44.6157 13.4123 44.7487 13.5773 44.7741 13.7033C44.7924 13.7936 44.7948 13.9422 44.7793 14.0325C44.7642 14.1227 44.6909 14.2605 44.6166 14.3381C44.5423 14.4156 44.399 14.5087 44.2984 14.5454C44.1404 14.6023 44.0863 14.6023 43.9096 14.5454C43.7389 14.4904 43.5039 14.2779 42.5082 13.2802C41.8505 12.621 41.2826 12.0286 41.246 11.9637C41.2098 11.8993 41.1792 11.7775 41.1787 11.6934C41.1778 11.6092 41.199 11.4823 41.2262 11.4113C41.253 11.3403 41.8087 10.7455 42.4603 10.0901Z" fill="#F5A623"></path><path d="M62.5431 1.90556C62.6724 1.87735 62.8736 1.83597 62.9897 1.81294C63.1063 1.7899 63.339 1.76921 63.5068 1.76686C63.6751 1.76404 63.9501 1.78473 64.118 1.81247C64.2863 1.83973 64.5081 1.8844 64.6116 1.9112C64.715 1.938 64.8631 1.98126 64.9406 2.00664C65.0182 2.03203 65.124 2.06871 65.1757 2.08845C65.2274 2.1082 65.3543 2.16603 65.4578 2.21728C65.5612 2.269 65.7304 2.3588 65.8338 2.41757C65.9373 2.47634 66.1582 2.63337 66.3246 2.76596C66.4906 2.89855 66.7303 3.1341 66.8568 3.28925C66.9837 3.44441 67.1215 3.61367 67.1638 3.66539C67.2056 3.71711 67.3372 3.94984 67.4566 4.18257C67.5756 4.4153 67.7237 4.78579 67.7857 5.00536C67.884 5.35187 67.899 5.50514 67.899 6.15726C67.8995 6.80092 67.884 6.96407 67.7918 7.28566C67.7331 7.49253 67.6 7.84187 67.4966 8.06143C67.3937 8.281 67.2216 8.57767 67.1149 8.71966C67.0077 8.86165 66.8135 9.09062 66.6829 9.22791C66.5522 9.3652 66.3289 9.56173 66.1864 9.66517C66.0445 9.7686 65.7906 9.92752 65.6223 10.0183C65.4545 10.109 65.2218 10.2162 65.1052 10.2566C64.9891 10.2966 64.8198 10.3493 64.7291 10.3732C64.6388 10.3977 64.4061 10.4475 64.212 10.4847C64.0183 10.5213 63.7325 10.5519 63.5773 10.5528C63.4222 10.5533 63.1684 10.5322 63.0132 10.5058C62.8581 10.479 62.6362 10.4348 62.5196 10.4066C62.4035 10.3789 62.2446 10.3347 62.167 10.3084C62.0895 10.282 61.9522 10.2289 61.8615 10.1903C61.7712 10.1523 61.6123 10.0784 61.5089 10.0263C61.4055 9.97406 61.2052 9.85464 61.0637 9.76061C60.9222 9.66658 60.665 9.45218 60.4925 9.28386C60.3195 9.11554 60.0779 8.83015 59.9552 8.64914C59.833 8.46813 59.6698 8.18273 59.5932 8.01442C59.5171 7.8461 59.3995 7.52874 59.3323 7.30917C59.2242 6.95419 59.2101 6.82772 59.2087 6.18077C59.2068 5.55545 59.2218 5.39889 59.3154 5.07588C59.3751 4.86901 59.4874 4.55165 59.565 4.37064C59.643 4.18962 59.7991 3.90423 59.9124 3.73591C60.0257 3.56759 60.2199 3.32311 60.3435 3.1924C60.4676 3.0617 60.6853 2.85905 60.8272 2.74245C60.9697 2.62538 61.1916 2.46693 61.3208 2.38936C61.4501 2.31225 61.7251 2.18343 61.932 2.10303C62.1388 2.02216 62.4138 1.9333 62.5431 1.90556Z" stroke="#F5A623" stroke-width="1.11902"></path><path d="M28.7544 2.88961C28.9936 2.78618 29.3848 2.66064 29.6241 2.61081C29.8633 2.56097 30.239 2.51865 30.4585 2.51677C30.6785 2.51489 31.0273 2.54357 31.2342 2.58024C31.441 2.61692 31.716 2.68274 31.8453 2.72647C31.9746 2.77066 32.2073 2.86328 32.3624 2.93287C32.5175 3.00245 32.7709 3.14256 32.9256 3.24459C33.0803 3.34661 33.3416 3.55725 33.5066 3.7124C33.6717 3.86756 33.9076 4.13179 34.0308 4.30011C34.154 4.46843 34.3416 4.78579 34.4473 5.00536C34.5531 5.22493 34.6861 5.57426 34.7426 5.78113C34.8258 6.0858 34.846 6.29126 34.8488 6.86251C34.8521 7.45962 34.8356 7.63264 34.7416 7.99091C34.681 8.22364 34.546 8.58331 34.4426 8.79019C34.3387 8.99706 34.1902 9.26129 34.1121 9.37789C34.0336 9.4945 33.7986 9.76108 33.5894 9.9703C33.3797 10.18 33.0817 10.4353 32.9265 10.5373C32.7714 10.6398 32.5284 10.779 32.3859 10.8472C32.2439 10.9149 32.0324 11.0009 31.9158 11.038C31.7997 11.0757 31.5985 11.1349 31.4692 11.1706C31.3169 11.2125 30.978 11.235 30.5055 11.235C30.033 11.235 29.6941 11.2125 29.5418 11.1706C29.4125 11.1349 29.2118 11.0757 29.0952 11.038C28.9791 11.0009 28.7675 10.9149 28.6251 10.8472C28.4831 10.779 28.2133 10.6215 28.0257 10.4974C27.8381 10.3728 27.5626 10.1494 27.4127 10.0009C27.2632 9.85229 27.0347 9.57207 26.905 9.37789C26.7752 9.18419 26.613 8.90867 26.5449 8.76668C26.4772 8.62469 26.3907 8.41312 26.3531 8.29651C26.315 8.17991 26.2558 7.96834 26.2205 7.82635C26.1805 7.66273 26.1575 7.29976 26.1589 6.839C26.1608 6.18312 26.1735 6.07028 26.2863 5.71061C26.3559 5.49104 26.4946 5.14171 26.5956 4.93483C26.6962 4.72796 26.8744 4.43176 26.991 4.2766C27.1081 4.12145 27.3389 3.86756 27.5048 3.7124C27.6703 3.55725 27.9213 3.35085 28.0628 3.25399C28.2039 3.15714 28.5151 2.99305 28.7544 2.88961Z" stroke="#F5A623" stroke-width="1.11902"></path><path d="M47.8438 23.8208C47.2965 24.3947 46.7971 24.8863 46.7346 24.9128C46.6718 24.9397 46.5437 24.9628 46.4498 24.9648C46.3559 24.9662 46.2224 24.9446 46.1536 24.9157C46.0848 24.8873 45.5598 24.3726 44.9879 23.7722C44.4155 23.1718 43.8828 22.5941 43.804 22.4882C43.6964 22.3432 43.6572 22.2364 43.6454 22.0549C43.6344 21.883 43.6554 21.766 43.7183 21.6456C43.7757 21.5358 43.8842 21.4367 44.0286 21.3616C44.231 21.2561 44.2692 21.2508 44.4561 21.3033C44.6247 21.351 44.7505 21.455 45.1624 21.8883C45.4381 22.1781 45.6792 22.4155 45.6979 22.4155C45.7166 22.4159 45.7316 21.1213 45.7312 19.5392C45.7298 17.1464 45.7407 16.6341 45.7954 16.494C45.8314 16.4016 45.9089 16.2793 45.9672 16.223C46.026 16.1671 46.1199 16.0963 46.1764 16.0665C46.2329 16.0371 46.3505 16.0126 46.4384 16.0126C46.5259 16.0126 46.644 16.0371 46.7005 16.0665C46.757 16.0963 46.8508 16.1671 46.9096 16.223C46.968 16.2793 47.0454 16.4016 47.0814 16.494C47.1361 16.6341 47.1471 17.1464 47.1457 19.5392C47.1452 21.1945 47.1621 22.4159 47.1853 22.4159C47.2077 22.4159 47.4387 22.1873 47.698 21.9075C47.9578 21.6278 48.2417 21.3659 48.3296 21.3259C48.4276 21.2812 48.5507 21.2643 48.6486 21.2821C48.7361 21.2975 48.8697 21.351 48.9448 21.4001C49.02 21.4497 49.1203 21.5739 49.1672 21.6759C49.2256 21.8031 49.247 21.9311 49.2342 22.0789C49.2201 22.245 49.1718 22.3514 49.0273 22.5363C48.9234 22.6687 48.3912 23.2465 47.8438 23.8208Z" fill="#F5A623"></path></svg>