<svg width="55" height="61" viewBox="0 0 55 61" fill="none" xmlns="http://www.w3.org/2000/svg"><g clip-path="url(#clip0_1163_1037)"><path d="M44.143 60.0444C43.0865 59.5514 42.0429 59.0431 40.9735 58.5759C40.7387 58.4726 40.4393 58.4855 40.1705 58.4855C28.549 58.4855 16.9274 58.4855 5.30591 58.4855C3.66246 58.4855 2.32774 57.9443 1.40271 56.5509C0.956176 55.8586 0.728718 55.0478 0.750029 54.2243C0.750029 37.5871 0.752377 20.9499 0.757072 4.31271C0.758246 1.81819 2.559 0.0444336 5.06291 0.0444336C14.7311 0.0444336 24.3989 0.0499118 34.0663 0.0608681C34.4057 0.0711593 34.7305 0.201331 34.9831 0.428296C38.2997 3.71207 41.6015 7.01149 44.8884 10.3266C45.0947 10.5517 45.2137 10.8431 45.2241 11.1483C45.2382 19.0955 45.2241 27.0428 45.2441 34.99C45.2623 35.3044 45.4025 35.5993 45.635 35.8118C47.8419 37.6137 50.3306 38.9625 52.9319 40.0859C53.7642 40.4463 54.0647 40.8924 54.0342 41.7951C53.9661 43.8236 53.9544 45.8579 54.026 47.8864C54.1645 51.8577 52.4459 54.9204 49.51 57.4114C48.2389 58.485 46.7753 59.3072 45.1971 59.8343C45.0371 59.8975 44.8803 59.9688 44.7276 60.048L44.143 60.0444ZM33.6014 1.4531H5.27421C3.24925 1.4531 2.1587 2.53661 2.1587 4.55805C2.1587 21.0223 2.1587 37.4861 2.1587 53.9496C2.1587 56.0027 3.24572 57.085 5.3106 57.085C16.2888 57.085 27.2671 57.085 38.2453 57.085C38.4308 57.085 38.6163 57.0674 38.8323 57.0545C38.2007 56.3162 37.5657 55.6564 37.035 54.9204C36.7322 54.499 36.4235 54.371 35.9269 54.3722C25.7696 54.3847 15.6119 54.3874 5.45382 54.3804C5.21904 54.3804 4.92674 54.4391 4.76944 54.3229C4.53466 54.1515 4.27053 53.8533 4.26701 53.5998C4.26701 53.399 4.60157 53.1443 4.84222 53.0128C5.00539 52.9189 5.2613 52.9823 5.47612 52.9823H35.6428C35.313 51.3694 34.9936 49.8034 34.6603 48.1693H5.49021C5.25543 48.1693 4.97604 48.2292 4.80113 48.1224C4.56635 47.9803 4.25292 47.6904 4.26818 47.4873C4.28697 47.242 4.57927 46.9626 4.82226 46.8064C4.9913 46.6984 5.27773 46.7654 5.51134 46.7654H34.051C34.3151 46.7654 34.5781 46.7431 34.8305 46.7325V41.9313H5.50077C5.26599 41.9313 4.98778 41.9935 4.81052 41.889C4.57574 41.7505 4.2541 41.4664 4.26936 41.2657C4.28697 41.0203 4.57575 40.7409 4.81757 40.5848C4.98661 40.4756 5.27304 40.5414 5.50664 40.5414C15.1373 40.5414 24.7679 40.5414 34.3985 40.5414C34.6485 40.5414 34.9279 40.5637 35.1463 40.4663C38.081 39.175 40.9265 37.7217 43.4422 35.6956C43.7615 35.4396 43.8201 35.1544 43.8201 34.7846C43.8147 27.3046 43.8147 19.8249 43.8201 12.3457V11.666H43.1158C41.416 11.666 39.7115 11.666 38.0176 11.666C37.6665 11.6756 37.3152 11.6496 36.9693 11.5885C36.0204 11.4048 35.1655 10.8953 34.5524 10.1481C33.9393 9.40083 33.6067 8.46284 33.612 7.4963C33.5862 5.49951 33.6014 3.51094 33.6014 1.4531ZM44.4364 36.691C42.0417 38.6432 39.3887 40.0824 36.6277 41.3361C36.3119 41.4805 36.2673 41.6765 36.2685 41.9724C36.2779 43.6522 36.2509 45.332 36.2814 47.0107C36.3025 48.1576 36.2098 49.3526 36.4927 50.442C37.5586 54.5283 40.3501 57.0534 44.2099 58.5055C44.3989 58.5759 44.6689 58.5125 44.8755 58.4397C46.7262 57.7902 48.3899 56.6976 49.7213 55.2573C51.3648 53.4965 52.5234 51.4868 52.5833 49.0157C52.6396 46.655 52.5927 44.2908 52.6079 41.9289C52.6079 41.6049 52.4987 41.4453 52.2088 41.3138C49.4666 40.0742 46.8359 38.6279 44.4364 36.6898V36.691ZM35.0148 2.60117C35.0148 4.31388 34.9772 5.98903 35.0265 7.66065C35.0664 9.01415 36.1546 10.1822 37.4541 10.2291C39.1657 10.2902 40.8819 10.242 42.597 10.2373C42.6181 10.2373 42.6392 10.1833 42.6216 10.208L35.0148 2.60117Z" fill="#1D4886"></path><path d="M11.2294 13.1276C9.88413 12.9186 9.26197 12.3821 9.16336 11.4395C9.06827 10.5344 9.58713 9.86531 10.7411 9.44388C10.653 9.31241 10.5744 9.1868 10.4875 9.06706C9.49674 7.71122 9.61648 6.17577 10.8068 4.98661C11.6532 4.14024 12.7437 4.13085 13.6124 4.96314C13.6828 5.03122 13.7498 5.10283 13.8202 5.16974C14.4388 5.75669 14.7065 5.73673 15.2289 5.05235C15.4801 4.72836 15.6984 4.37971 15.9555 4.06041C16.5753 3.28212 17.4064 3.22812 18.1342 3.90428C19.6603 5.32117 19.5253 7.97534 17.8725 9.22319C17.7551 9.31476 17.6377 9.40984 17.4581 9.54484C18.3737 10.0484 18.8304 10.7798 18.551 11.7752C18.2986 12.6721 17.6001 13.0665 16.5554 13.0853C17.0496 13.6558 17.471 14.1571 17.9077 14.6442C19.0417 15.9062 20.286 17.0836 21.2991 18.4359C22.1312 19.5466 22.5854 20.8948 22.5952 22.2827C22.6049 23.6705 22.1696 25.0249 21.3531 26.1472C20.3846 27.4948 19.071 28.3776 17.5133 28.8965C14.5597 29.872 11.6544 29.7534 8.88984 28.2802C5.08173 26.247 4.04401 21.7005 6.61953 18.2399C7.44126 17.1341 8.46372 16.1762 9.39344 15.1502C9.9886 14.4975 10.5849 13.8389 11.2294 13.1276ZM13.8754 28.0888C15.3642 28.1177 16.8364 27.773 18.1577 27.0863C21.2709 25.4429 22.1102 21.8871 20.036 19.0428C19.5728 18.4394 19.0775 17.8614 18.5522 17.3113C17.613 16.2736 16.4849 15.3544 15.7348 14.1923C15.054 13.1358 14.2557 12.9362 13.1828 13.0618C13.144 13.0618 13.0982 13.0501 13.0654 13.0618C12.9461 13.1074 12.8357 13.1733 12.739 13.2567C11.5029 14.6794 10.2586 16.0952 9.03188 17.5355C8.44494 18.2316 7.81925 18.9231 7.34617 19.699C6.00089 21.9036 6.55966 24.7737 8.58111 26.3832C10.1306 27.6122 11.9349 28.0653 13.8754 28.0888ZM17.127 4.85748C16.796 5.30004 16.5131 5.71795 16.1879 6.10298C15.2559 7.21936 14.1313 7.30035 13.0278 6.34715C12.8952 6.22976 12.7696 6.11238 12.6475 5.98325C12.3305 5.65573 12.037 5.70856 11.7494 6.02551C11.0768 6.76623 11.0921 7.54335 11.6943 8.34864C12.2965 9.15393 12.9949 9.63992 14.0514 9.44154C14.3144 9.39223 14.5973 9.44741 14.8732 9.42862C15.0256 9.42735 15.1752 9.38692 15.3075 9.31123C15.9802 8.84168 16.6493 8.37212 17.3031 7.87791C17.4945 7.73235 17.7281 7.52574 17.7621 7.30975C17.9006 6.43754 17.7504 5.61347 17.127 4.85748ZM13.9035 10.8784C13.0079 10.8784 12.1122 10.8784 11.2165 10.8784C10.9218 10.8784 10.5814 10.8584 10.5955 11.2916C10.6108 11.6884 10.9277 11.6555 11.1977 11.6555H16.573C16.87 11.6555 17.2421 11.6778 17.1705 11.254C17.1447 11.1002 16.7937 10.9019 16.5835 10.8948C15.6949 10.8549 14.798 10.8784 13.9035 10.8784Z" fill="#F5A623"></path><path d="M22.9695 35.7216H5.57476C5.41863 35.7216 5.2625 35.7216 5.1052 35.7216C4.53116 35.704 4.19895 35.4469 4.22947 35.0102C4.26586 34.5007 4.60395 34.3188 5.0735 34.3176H40.5063C40.7411 34.3176 41.0204 34.2612 41.1954 34.3681C41.4301 34.5113 41.7494 34.8012 41.7318 35.0031C41.7119 35.2497 41.4125 35.5173 41.1695 35.6828C41.0204 35.7849 40.7528 35.7216 40.5392 35.7216H22.9695Z" fill="#1D4886"></path><path d="M33.538 21.8786C35.8991 21.8786 38.2602 21.8786 40.6213 21.8786C40.8149 21.8786 41.0662 21.8282 41.1918 21.9268C41.4265 22.1111 41.7177 22.3799 41.7318 22.6311C41.7423 22.833 41.4113 23.1007 41.1789 23.2544C41.0415 23.3484 40.8009 23.2979 40.606 23.2979H26.3819C26.1871 23.2979 25.9429 23.3484 25.8091 23.2533C25.5837 23.0913 25.289 22.8354 25.2832 22.6123C25.2773 22.3893 25.5496 22.1052 25.7703 21.942C25.9147 21.8352 26.1835 21.8833 26.3972 21.8822C28.7771 21.8798 31.1573 21.8786 33.538 21.8786Z" fill="#1D4886"></path><path d="M33.4653 29.4975C31.0459 29.4975 28.6265 29.4975 26.2071 29.4893C25.9512 29.4893 25.6425 29.4342 25.4511 29.2851C25.0567 28.981 25.2163 28.3154 25.7035 28.1605C25.9298 28.1043 26.1633 28.0821 26.3961 28.0947C31.1378 28.0947 35.8788 28.0947 40.619 28.0947C40.7164 28.0947 40.815 28.0947 40.9125 28.0947C41.4595 28.1229 41.8164 28.4176 41.7682 28.8402C41.7119 29.3449 41.3703 29.5022 40.8984 29.5011C38.4215 29.494 35.9434 29.4975 33.4653 29.4975Z" fill="#1D4886"></path><path d="M33.5345 15.6573C35.8956 15.6573 38.2563 15.6573 40.6166 15.6573C40.8302 15.6573 41.0991 15.6127 41.2423 15.7207C41.4653 15.8874 41.7435 16.1739 41.7341 16.3981C41.7248 16.6223 41.416 16.8676 41.1836 17.0308C41.0474 17.1247 40.8056 17.0695 40.6107 17.0695H26.3867C26.1918 17.0695 25.9465 17.1247 25.8138 17.0296C25.5861 16.87 25.2903 16.6152 25.2832 16.391C25.2762 16.1668 25.5462 15.8816 25.7669 15.7172C25.9101 15.6092 26.1789 15.6573 26.3925 15.6562C28.7732 15.657 31.1539 15.6573 33.5345 15.6573Z" fill="#1D4886"></path><path d="M37.3685 45.9684C37.3685 45.0117 37.3779 44.0549 37.3685 43.0982C37.3685 42.6369 37.5269 42.3187 37.9554 42.1227C40.0766 41.1648 42.1122 40.0578 43.9481 38.6116C44.2897 38.3416 44.6278 38.3698 44.9624 38.6327C46.7854 40.0625 48.8139 41.1402 50.8964 42.1344C51.1605 42.26 51.474 42.6369 51.4775 42.9022C51.5103 45.0152 51.589 47.1282 51.4282 49.2224C51.2274 51.8378 49.746 53.8076 47.6975 55.3266C46.8312 55.9664 45.8064 56.3949 44.8368 56.8879C44.6275 56.988 44.3882 57.0056 44.1665 56.9372C40.815 55.6624 38.3616 53.4813 37.5434 49.8798C37.2593 48.6249 37.3732 47.2796 37.3086 45.9754L37.3685 45.9684ZM44.4388 40.1917C42.6968 41.1578 40.8866 42.1485 39.0929 43.1722C38.9297 43.2661 38.7959 43.5596 38.7912 43.7591C38.7642 45.0668 38.8253 46.3781 38.7677 47.6834C38.6374 50.6276 39.9675 52.831 42.3082 54.404C44.5515 55.9124 44.3273 55.9007 46.5835 54.404C48.45 53.1655 49.8176 51.4434 50.0265 49.1344C50.1932 47.2749 50.0935 45.3896 50.0899 43.5161C50.0899 43.3929 49.9209 43.2273 49.7894 43.1546C47.9887 42.1474 46.1797 41.1531 44.4388 40.1917Z" fill="#F5A623"></path><path d="M14.602 17.6834C15.189 18.1271 15.6585 18.4171 16.0447 18.8068C16.357 19.1261 16.3863 19.5769 15.9778 19.8856C15.5693 20.1943 15.2277 20.0499 14.9295 19.6602C14.6055 19.2364 13.6664 19.0967 13.2262 19.4102C13.0912 19.5064 12.9562 19.7295 12.9727 19.8797C12.9964 19.9687 13.0397 20.0512 13.0995 20.1212C13.1592 20.1913 13.2337 20.2471 13.3178 20.2847C13.9047 20.5312 14.5328 20.7073 15.1221 20.9597C15.4441 21.0829 15.7225 21.2985 15.9224 21.5794C16.1223 21.8603 16.2347 22.194 16.2455 22.5386C16.2948 23.2887 15.9872 23.8862 15.3474 24.2548C14.9295 24.4896 14.5046 24.6328 14.5128 25.255C14.5128 25.4041 14.0749 25.6987 13.8707 25.6729C13.6359 25.6424 13.252 25.3454 13.2403 25.1458C13.2121 24.6763 12.9691 24.5718 12.617 24.3945C12.2492 24.1873 11.9292 23.905 11.6779 23.5658C11.4208 23.2394 11.4642 22.8497 11.8293 22.5891C12.1944 22.3285 12.5571 22.4153 12.8013 22.7652C13.2027 23.3415 13.7603 23.3134 14.3179 23.1737C14.5187 23.1232 14.7875 22.8802 14.8039 22.6982C14.8227 22.5445 14.5692 22.2792 14.3813 22.1911C13.8883 21.9634 13.36 21.8108 12.8553 21.6194C12.0476 21.3177 11.564 20.7637 11.5487 19.8727C11.5323 19.0345 11.9842 18.4112 12.8259 18.0226C12.9797 17.951 13.1675 17.7609 13.1781 17.6118C13.2192 17.1363 13.3859 16.7983 13.9 16.8018C14.4576 16.8018 14.6114 17.1892 14.6044 17.6763C14.602 17.7339 14.6208 17.7914 14.602 17.6834Z" fill="#F5A623"></path><path d="M42.4925 49.0757L46.4837 45.9168C46.7584 45.6984 47.0319 45.4789 47.3054 45.2641C47.667 44.9847 48.0379 44.953 48.3361 45.3263C48.6343 45.6996 48.5415 46.0623 48.1858 46.3499C47.3512 47.0237 46.5095 47.687 45.669 48.3526C44.7064 49.1168 43.7462 49.8786 42.7789 50.6393C42.0992 51.1723 41.6402 51.0408 41.3702 50.2379C41.1155 49.4607 40.8654 48.6825 40.6283 47.9006C40.4663 47.3642 40.6283 46.9674 41.065 46.8594C41.5674 46.735 41.8257 47.0226 41.9666 47.464C42.1379 47.9781 42.3058 48.4911 42.4925 49.0757Z" fill="#F5A623"></path></g><defs><clipPath id="clip0_1163_1037"><rect width="53.2842" height="60" fill="white" transform="translate(0.75 0.0444336)"></rect></clipPath></defs></svg>