<svg width="48" height="61" viewBox="0 0 48 61" fill="none" xmlns="http://www.w3.org/2000/svg"><path d="M1.01686 60.0224C0.852784 59.8652 0.708841 59.6878 0.588383 59.4945C0.292936 58.8588 0.767816 58.2684 1.57217 58.2669C4.56274 58.2669 7.5533 58.2669 10.5439 58.2669C11.5153 58.2669 11.5153 58.2669 11.5153 57.3001C11.5153 53.0831 11.5153 48.8661 11.5153 44.6491C11.5153 44.4164 11.4488 44.1243 11.5601 43.9619C11.7488 43.687 12.0428 43.3372 12.3134 43.3153C12.5841 43.2934 12.9415 43.5902 13.1534 43.8401C13.288 43.9963 13.2477 44.3242 13.2477 44.5741C13.2477 48.0883 13.2477 51.6019 13.2477 55.1151V55.871H13.9964C16.3878 55.871 18.7823 55.9272 21.1722 55.8476C22.2968 55.8101 23.1831 56.0678 23.9442 56.9206C24.6232 57.6749 25.5374 58.0701 26.5413 58.2153C26.7704 58.2473 27.0015 58.263 27.2327 58.2622C31.7701 58.2622 36.3045 58.2622 40.8357 58.2622C42.2758 58.2622 43.2611 57.2111 43.1714 55.807C43.0956 54.6231 42.1428 53.75 40.8589 53.7313C39.4884 53.711 38.1179 53.7313 36.7489 53.7188C36.1766 53.7188 35.8502 53.3845 35.8425 52.8738C35.8347 52.3631 36.1518 52.0304 36.7118 51.9758C36.8665 51.9617 37.0212 51.9758 37.1758 51.9758H41.4591C41.671 51.9758 41.8829 51.9758 42.0948 51.9758C43.3988 51.9351 44.3346 50.9824 44.3238 49.7095C44.3218 49.4164 44.2625 49.1267 44.1492 48.8568C44.036 48.5869 43.8711 48.3423 43.664 48.137C43.4569 47.9316 43.2116 47.7696 42.9424 47.6602C42.6731 47.5508 42.385 47.4962 42.0948 47.4995C40.8403 47.4807 39.5858 47.4995 38.3313 47.4995C37.6074 47.4995 37.2222 47.1762 37.2362 46.5967C37.2485 46.0423 37.6167 45.7471 38.319 45.744C39.8039 45.744 41.2904 45.744 42.7754 45.744C44.2898 45.744 45.405 44.6663 45.405 43.2216C45.405 41.7769 44.3223 40.7148 42.7878 40.7008C41.5333 40.6898 40.2788 40.7008 39.0243 40.7008C38.3313 40.7008 37.9524 40.3884 37.9415 39.8417C37.9261 39.267 38.3081 38.9499 39.0382 38.9468C40.138 38.9468 41.2379 38.9468 42.3377 38.9468C44.1088 38.9343 45.402 37.6801 45.4081 35.9793C45.4143 34.2784 44.115 33.0118 42.3547 32.9977C41.2549 32.9977 40.1551 32.9977 39.0553 32.9977C38.3855 32.9977 37.9926 32.6479 38.0096 32.0997C38.0251 31.5811 38.4149 31.2484 39.0491 31.2453C40.2448 31.2453 41.4436 31.1938 42.6362 31.2594C44.6316 31.3687 46.0903 32.3745 46.8127 34.2581C47.5258 36.112 47.1483 37.8223 45.7995 39.292C45.7347 39.3641 45.6644 39.431 45.5891 39.4919C45.5102 39.5512 45.4221 39.595 45.3292 39.6481C47.8413 41.6691 47.7377 45.2129 45.0323 46.9888C46.7431 49.0754 46.3223 51.8664 43.9618 53.3486C44.511 54.0952 44.9008 54.9027 44.9209 55.8601C44.9552 56.7521 44.6942 57.6302 44.179 58.3557C43.6639 59.0812 42.924 59.6127 42.0762 59.8662C41.9339 59.9115 41.7978 59.9755 41.6586 60.0302H26.3742C24.814 59.7238 23.3816 58.9492 22.2643 57.8077C22.1297 57.6718 21.842 57.6515 21.6254 57.6515C19.0206 57.6406 16.4157 57.6437 13.8108 57.6515C13.6422 57.6515 13.4736 57.6734 13.2586 57.6874C13.288 58.8791 12.6584 59.5913 11.67 60.0443L1.01686 60.0224Z" fill="#F5A623"></path><path d="M36.6793 0.0475573C37.6693 0.842539 38.7165 1.57505 39.6307 2.45124C40.3407 3.12909 40.2618 4.35201 39.5503 5.05016C38.5541 6.02788 37.5223 6.96967 36.4674 7.88335C35.7682 8.4956 34.8092 8.48154 34.0667 7.91147C33.5908 7.54484 33.1372 7.14949 32.7086 6.72759C32.3821 6.42873 32.1707 6.02307 32.1115 5.58217C32.0524 5.14126 32.1493 4.69343 32.3853 4.31765C33.1216 3.12909 33.8934 1.9577 34.7055 0.825358C34.9484 0.487999 35.3985 0.302139 35.7528 0.0444336L36.6793 0.0475573ZM38.3979 3.71166C38.3034 3.5826 38.2 3.46047 38.0885 3.34618C37.5997 2.9073 37.0877 2.49341 36.6128 2.04204C36.274 1.71874 36.0822 1.80776 35.8564 2.17011C35.4387 2.84483 34.9747 3.48987 34.5478 4.15834C33.6026 5.63742 33.5671 5.10951 34.8494 6.31682C35.1294 6.58077 35.3382 6.59327 35.6228 6.31682C36.4194 5.5562 37.2424 4.82369 38.0514 4.07713C38.1674 3.97873 38.2586 3.85847 38.3979 3.71166Z" fill="#1D4886"></path><path d="M11.902 0.0473633C12.5904 0.330058 13.0436 0.856401 13.4318 1.4827C13.9748 2.35734 14.5719 3.20074 15.1334 4.06132C15.7954 5.07652 15.6701 6.09172 14.7884 6.89451C14.4218 7.23187 14.0413 7.57391 13.6484 7.8816C12.8394 8.50634 11.8587 8.48604 11.1007 7.81288C10.1283 6.95074 9.17028 6.07246 8.22671 5.17804C7.42235 4.42054 7.27386 3.17106 8.02407 2.45105C8.93362 1.57173 9.98547 0.842345 10.9754 0.0473633H11.902ZM11.4101 1.77633C11.2709 1.88097 11.158 1.95438 11.0574 2.04028C10.5624 2.47135 10.0814 2.92117 9.57401 3.33506C9.23525 3.60994 9.28475 3.81454 9.58329 4.07537C10.1927 4.61109 10.7836 5.16867 11.3838 5.71375C12.4357 6.66492 12.4357 6.66336 13.4891 5.71375C13.5185 5.6872 13.5695 5.6669 13.5741 5.63722C13.6082 5.42325 13.7288 5.14368 13.6438 5.00311C13.025 3.99884 12.3568 3.02269 11.6978 2.0356C11.6116 1.93885 11.5151 1.85191 11.4101 1.77633Z" fill="#1D4886"></path><path d="M33.3583 12.7657C31.6815 12.2643 30.0805 11.7068 28.4378 11.3241C27.4416 11.0914 26.9451 10.4417 26.4965 9.65762C26.2474 9.22343 26.3511 8.82203 26.7378 8.51747C27.1013 8.23009 27.6659 8.26757 27.9041 8.70645C28.3001 9.46083 28.973 9.63419 29.6814 9.83723C31.1447 10.2574 32.6019 10.6994 34.0575 11.1492C35.315 11.5365 35.6662 12.6267 34.8757 13.7012C33.7141 15.2787 32.5354 16.8468 31.3396 18.4508C31.4711 18.5648 31.5856 18.6617 31.6954 18.7632C33.6506 20.4812 34.3668 22.6257 33.9414 25.2199C33.6321 27.1144 32.8726 28.8309 32.1316 30.5645C32.0497 30.7551 31.9769 30.9503 31.8687 31.2205C32.7798 31.2205 33.6027 31.2205 34.4271 31.2205C35.1433 31.2205 35.5409 31.5594 35.5239 32.1295C35.5068 32.673 35.1279 32.9729 34.4271 32.9745C31.8996 32.9745 29.3731 32.9745 26.8476 32.9745C26.1454 32.9745 25.7803 32.6715 25.7726 32.1139C25.7648 31.5563 26.1531 31.2236 26.8801 31.2189C27.768 31.2189 28.6559 31.2346 29.5422 31.2049C29.7263 31.2049 30.0063 31.0659 30.0697 30.9175C30.8771 28.9636 31.847 27.0816 32.2353 24.9559C32.7658 22.0415 31.0195 19.4676 28.1145 19.0803C27.0085 18.9334 26.3403 19.3739 26.0402 20.4562C25.8855 21.0388 25.6999 21.6167 25.5761 22.2055C25.0632 24.5064 24.1795 26.7067 22.9604 28.7184C21.5682 31.0612 20.2983 33.468 19.0005 35.8608C18.7128 36.3887 18.3415 36.612 17.7506 36.6011C16.2873 36.5776 14.8225 36.5933 13.2648 36.5933V38.3503C13.2648 38.8002 13.2741 39.2484 13.2648 39.6982C13.2493 40.3729 12.9028 40.7728 12.3692 40.7587C11.8355 40.7447 11.5385 40.3667 11.5354 39.7076C11.5261 38.1848 11.5354 36.6636 11.5354 35.1407C11.5354 34.3177 11.489 34.2708 10.6924 34.2708H1.81507C1.62264 34.2812 1.42969 34.276 1.2381 34.2552C1.05228 34.2369 0.879007 34.1524 0.749428 34.0167C0.619849 33.8809 0.542465 33.703 0.53119 33.5149C0.478598 33.101 0.636376 32.7683 1.02154 32.6184C1.25831 32.5395 1.50715 32.504 1.75629 32.5137C4.61176 32.5075 7.46723 32.5075 10.3227 32.5137C12.3676 32.5137 12.8162 32.8573 13.3298 34.8377C14.6508 34.8377 15.9795 34.8471 17.3098 34.8237C17.3974 34.8051 17.48 34.7676 17.5518 34.7136C17.6236 34.6597 17.683 34.5907 17.7259 34.5113C19.4563 31.4032 21.1779 28.2894 22.8908 25.1699C23.0455 24.8903 23.1058 24.5592 23.2528 24.1235C22.8351 24.2593 22.5335 24.3515 22.2365 24.4561C20.948 24.9169 19.6625 25.3933 18.3694 25.8431C17.0762 26.2929 16.1574 25.64 16.1821 24.2812C16.2146 22.4851 16.2842 20.689 16.2966 18.896C16.2891 18.5593 16.1813 18.2327 15.9872 17.9588C14.9772 16.5782 13.9299 15.2272 12.8936 13.8652C11.9361 12.6048 12.2748 11.5428 13.8031 11.0898C15.4103 10.6103 17.0143 10.1215 18.6292 9.66699C19.0167 9.56212 19.3491 9.31036 19.5573 8.96416C20.5241 7.50539 21.5079 6.06068 22.4964 4.61753C23.2419 3.52424 24.3928 3.52424 25.1507 4.60816C25.2853 4.79871 25.4214 4.98769 25.5405 5.18761C25.8267 5.6671 25.7555 6.15283 25.3688 6.43709C24.9574 6.74946 24.4871 6.64794 24.1128 6.1747C24.0293 6.07005 23.9581 5.95916 23.8235 5.78267C23.6828 5.98259 23.5621 6.14658 23.4492 6.31526C22.5211 7.68188 21.6177 9.06724 20.6525 10.4073C20.3927 10.7563 20.0364 11.0199 19.6285 11.1648C17.8899 11.7208 16.1234 12.2206 14.2934 12.7673C14.4342 12.9703 14.544 13.1405 14.6662 13.3014C15.6763 14.6337 16.7065 15.9566 17.6857 17.3044C17.9091 17.6331 18.0342 18.0196 18.0461 18.418C18.0832 20.2922 18.0631 22.1665 18.0631 24.0829C18.8211 23.8173 19.6641 23.5237 20.5056 23.2238C21.4863 22.874 22.4716 22.5335 23.4446 22.1509C23.6556 22.0501 23.8213 21.8728 23.9086 21.6542C24.0756 21.2178 24.2014 20.7665 24.2845 20.3063C24.6542 18.2759 26.2536 16.8046 28.8709 17.4419C29.5933 17.6168 29.9258 17.4169 30.3141 16.8734C31.1819 15.6551 32.1115 14.4806 33.0133 13.2811C33.1154 13.1374 33.2144 12.9781 33.3583 12.7657Z" fill="#1D4886"></path><path d="M39.5548 13.8869C38.5262 13.8197 37.8874 13.462 37.544 12.6983C37.295 12.1278 37.0882 11.5394 36.9252 10.9381C36.7884 10.4935 36.8151 10.0139 37.0004 9.58753C37.1856 9.16116 37.5171 8.81661 37.9338 8.61718C39.1125 7.99244 40.3035 7.40519 41.5101 6.84605C41.7456 6.73036 42.0023 6.66511 42.2641 6.6544C42.5258 6.6437 42.7869 6.68777 43.0309 6.78384C43.275 6.87992 43.4967 7.02592 43.6822 7.21268C43.8677 7.39943 44.0129 7.62291 44.1088 7.86906C44.4634 8.75236 44.7707 9.65434 45.0291 10.5711C45.2936 11.5082 44.8528 12.5515 43.9463 12.8217C42.4428 13.2762 40.8898 13.5714 39.5548 13.8869ZM43.3988 11.0755C43.0894 10.19 42.814 9.38093 42.5031 8.58751C42.4768 8.51722 42.1798 8.47662 42.0592 8.53284C40.9841 9.04669 39.9122 9.57303 38.8619 10.1353C38.7882 10.2048 38.7338 10.2925 38.704 10.3897C38.6741 10.487 38.6699 10.5904 38.6917 10.6898C38.9392 11.1583 38.7752 11.8502 39.4156 12.1048C39.445 12.1157 39.4899 12.0954 39.527 12.086C40.6902 11.8315 41.8473 11.58 43.0136 11.3051C43.1539 11.2477 43.284 11.1675 43.3988 11.0677V11.0755Z" fill="#1D4886"></path><path d="M10.9321 10.4355C10.5748 11.3289 10.3025 12.2722 9.83073 13.0906C9.43938 13.7778 8.68142 13.9731 7.89408 13.8091C6.66898 13.5639 5.45007 13.303 4.22652 13.025C2.89623 12.722 2.27286 11.5866 2.70288 10.2699C2.94419 9.53118 3.19168 8.79399 3.45774 8.0646C3.91096 6.82606 5.08966 6.33251 6.2699 6.89634C7.40064 7.4383 8.52055 8.00057 9.63737 8.56908C10.3953 8.9533 10.7882 9.59522 10.7929 10.3808L10.9321 10.4355ZM9.08515 10.3964C8.98683 10.2773 8.87286 10.1722 8.74639 10.0841C7.71774 9.56086 6.67981 9.05638 5.65271 8.53784C5.34334 8.38166 5.15927 8.43476 5.04789 8.79086C4.83133 9.45621 4.6024 10.1169 4.36728 10.7713C4.23735 11.1258 4.36728 11.2508 4.70604 11.3211C5.82905 11.5538 6.95051 11.8224 8.0797 12.0567C8.21737 12.0848 8.47879 12.0301 8.51901 11.9396C8.72628 11.4632 8.88406 10.9634 9.08515 10.3964Z" fill="#1D4886"></path><path d="M38.9485 15.2911C40.4041 15.3879 41.6168 15.4473 42.8234 15.555C44.299 15.6862 45.023 16.6405 44.7817 18.1102C44.6533 18.8912 44.5048 19.6814 44.3269 20.453C44.0639 21.601 43.0384 22.2647 41.92 21.9477C40.6083 21.576 39.3105 21.1418 38.025 20.6826C37.114 20.3562 36.6484 19.5253 36.7706 18.5569C36.8434 17.9966 36.9467 17.4408 37.0799 16.892C37.315 15.8612 38.1333 15.2614 38.9485 15.2911ZM39.0862 17.0669C39.0351 17.12 38.7768 17.259 38.7629 17.4246C38.701 17.9697 38.271 18.5085 38.6871 19.0708C38.7165 19.1098 38.7907 19.1176 38.8418 19.1348C39.9416 19.4925 41.0445 19.8392 42.1397 20.2094C42.5063 20.3343 42.6315 20.1781 42.6888 19.8501C42.8032 19.1973 42.9084 18.5413 43.0569 17.8978C43.1652 17.4293 42.9765 17.3074 42.5635 17.2856C41.4699 17.2278 40.3732 17.1481 39.0862 17.0716V17.0669Z" fill="#1D4886"></path><path d="M8.56387 15.2975C9.03377 15.2785 9.49505 15.4288 9.86538 15.7215C10.2357 16.0141 10.491 16.4301 10.5856 16.8953C10.7078 17.4247 10.8052 17.9636 10.8764 18.5024C11.0125 19.5348 10.5392 20.3766 9.58015 20.7156C8.34267 21.1529 7.1052 21.5636 5.84917 21.9338C4.64263 22.2899 3.58768 21.637 3.31698 20.4001C3.13755 19.5848 2.97977 18.7617 2.85293 17.9355C2.65958 16.7032 3.36958 15.7223 4.60396 15.5927C5.9033 15.4506 7.21193 15.3928 8.56387 15.2975ZM8.58707 17.0718C7.27845 17.1561 6.18174 17.2358 5.08348 17.292C4.66738 17.3138 4.4864 17.4482 4.59313 17.9073C4.74008 18.5321 4.85764 19.1662 4.95045 19.8019C5.01696 20.2626 5.22115 20.3345 5.62642 20.1892C6.37045 19.9237 7.12686 19.6957 7.87862 19.452C9.31254 18.9835 9.32337 18.9835 8.91191 17.4872C8.85313 17.2842 8.64276 17.1327 8.58707 17.0718Z" fill="#1D4886"></path><path d="M5.464 54.8496C5.71305 54.8496 5.96363 54.8309 6.21113 54.8496C6.41779 54.8533 6.61473 54.9389 6.75943 55.088C6.90413 55.237 6.98499 55.4375 6.98455 55.6462C7.01549 56.0757 6.8113 56.4599 6.38128 56.5099C5.77593 56.581 5.16446 56.581 4.5591 56.5099C4.13217 56.4599 3.91871 56.0741 3.95274 55.6462C3.95427 55.4381 4.03577 55.2387 4.18005 55.0901C4.32434 54.9415 4.52014 54.8553 4.72616 54.8496C4.96437 54.8309 5.21496 54.8496 5.464 54.8496Z" fill="#1D4886"></path><path d="M31.3183 18.4507C31.3183 18.4507 31.5642 18.6616 31.6741 18.7631C33.6293 20.4811 34.3455 22.6256 33.9201 25.2198C33.6107 27.1143 32.8512 28.8308 32.1103 30.5644C32.0283 30.755 31.9556 30.9502 31.8473 31.2204C32.7584 31.2204 33.5813 31.2204 34.4058 31.2204C35.122 31.2204 35.5195 31.5593 35.5025 32.1294C35.4855 32.6729 35.1065 32.9728 34.4058 32.9744C31.8782 32.9744 29.3517 32.9744 26.8263 32.9744C26.124 32.9744 25.7589 32.6714 25.7512 32.1138C25.7435 31.5562 26.1317 31.2235 26.8587 31.2189C27.7466 31.2189 28.6345 31.2345 29.5209 31.2048C29.7049 31.2048 29.9849 31.0658 30.0483 30.9174C30.8558 28.9635 31.8257 27.0815 32.2139 24.9558C32.7445 22.0414 30.9981 19.4675 28.0931 19.0802C26.9871 18.9334 26.3189 19.3738 26.0188 20.4562C25.8641 21.0387 25.6785 21.6166 25.5548 22.2054C25.0418 24.5063 24.1582 26.7066 22.939 28.7183C21.5469 31.0611 20.2769 33.4679 18.9791 35.8607C18.6914 36.3886 18.3202 36.6119 17.7293 36.601C16.266 36.5776 14.8011 36.5932 13.2434 36.5932V38.3503C13.2434 38.8001 13.2527 39.2483 13.2434 39.6981C13.228 40.3729 12.8815 40.7727 12.3478 40.7586C11.8142 40.7446 11.5172 40.3666 11.5141 39.7075C11.5048 38.1847 11.5141 36.6635 11.5141 35.1407C11.5141 34.3176 11.4677 34.2707 10.671 34.2707H1.79371C1.60128 34.2812 1.40833 34.2759 1.21674 34.2551C1.03092 34.2369 0.857645 34.1523 0.728066 34.0166C0.598487 33.8809 0.521103 33.7029 0.509828 33.5148C0.457236 33.1009 0.615013 32.7682 1.00018 32.6183C1.23694 32.5394 1.48579 32.5039 1.73493 32.5136C4.5904 32.5074 7.44587 32.5074 10.3013 32.5136C12.3463 32.5136 12.7948 32.8572 13.3084 34.8377C14.6294 34.8377 15.9581 34.847 17.2884 34.8236C17.376 34.805 17.4586 34.7675 17.5304 34.7136C17.6023 34.6596 17.6617 34.5906 17.7045 34.5112C19.4349 31.4032 22.8694 25.1698 22.8694 25.1698C22.8694 25.1698 23.7741 23.0149 24.2631 20.3062C24.6328 18.2758 26.2323 16.8046 28.8495 17.4418C30.7474 17.9014 31.3183 18.4507 31.3183 18.4507Z" fill="#F5A623"></path></svg>