<svg width="60" height="64" viewBox="0 0 60 64" fill="none" xmlns="http://www.w3.org/2000/svg"><path d="M51.4002 30.7701C51.2357 30.5733 51.0681 30.373 50.8993 30.1673C49.9089 28.9593 49.5801 27.5184 49.9483 26.0003C50.011 25.7417 50.075 25.4884 50.1379 25.2396C50.7599 22.7808 51.403 20.2382 49.1795 17.4502C46.9561 14.6621 44.3341 14.7232 41.7986 14.7825C41.5421 14.7885 41.281 14.7946 41.0149 14.7982C39.4495 14.8177 38.1213 14.1781 37.164 12.9438C37.0009 12.7335 36.8428 12.5255 36.6876 12.3213C35.153 10.302 33.5661 8.21387 30 8.21387C26.4339 8.21387 24.847 10.302 23.3124 12.3213C23.1571 12.5255 22.9991 12.7335 22.8361 12.9438C21.8787 14.1782 20.5478 14.8194 18.9852 14.7983C18.7191 14.7947 18.4579 14.7886 18.2015 14.7826C15.6657 14.7234 13.0439 14.6622 10.8205 17.4503C8.59709 20.2383 9.24016 22.7809 9.86213 25.2397C9.92502 25.4885 9.98908 25.7417 10.0518 26.0004C10.42 27.5185 10.091 28.9594 9.1007 30.1674C8.93195 30.3731 8.76438 30.5735 8.59983 30.7703C6.97258 32.7158 5.29006 34.7274 6.08352 38.2043C6.87697 41.681 9.26565 42.7635 11.5758 43.8103C11.8096 43.9161 12.0476 44.0239 12.289 44.1362C13.7054 44.7949 14.6269 45.9504 14.9539 47.4779C15.0096 47.7381 15.0617 47.994 15.113 48.2453C15.6196 50.7306 16.1433 53.3004 19.3563 54.8477C22.5692 56.3951 24.905 55.2022 27.1639 54.0486C27.3923 53.932 27.6249 53.8132 27.863 53.6945C29.2611 52.9979 30.739 52.9978 32.1371 53.6945C32.3753 53.8133 32.608 53.9321 32.8365 54.0488C34.3239 54.8083 35.8447 55.5849 37.6274 55.5849C38.5518 55.5849 39.5468 55.376 40.644 54.8476C43.857 53.3002 44.3808 50.7304 44.8872 48.2452C44.9385 47.9939 44.9906 47.738 45.0463 47.4778C45.3733 45.9503 46.2948 44.7948 47.7112 44.1361C47.9526 44.0239 48.1905 43.916 48.4242 43.8102C50.7343 42.7633 53.1231 41.6809 53.9166 38.2042C54.7101 34.7274 53.0275 32.7156 51.4002 30.7701ZM51.6316 37.6826C51.0967 40.0258 49.6487 40.682 47.4568 41.6753C47.2162 41.7843 46.9712 41.8953 46.7228 42.0109C44.6436 42.9777 43.2342 44.745 42.7543 46.9872C42.697 47.255 42.6433 47.5184 42.5905 47.7771C42.11 50.1352 41.7925 51.6931 39.6269 52.7359C37.4614 53.7787 36.0455 53.0557 33.9023 51.9613C33.6671 51.8413 33.4276 51.7189 33.1823 51.5968C32.1561 51.0854 31.0781 50.8297 29.9998 50.8297C28.9218 50.8297 27.8434 51.0854 26.8174 51.5968C26.5723 51.7189 26.3329 51.8412 26.0978 51.9611C23.9545 53.0557 22.5386 53.7785 20.373 52.7359C18.2074 51.693 17.89 50.1352 17.4093 47.7772C17.3566 47.5186 17.3029 47.2551 17.2455 46.9872C16.7655 44.745 15.3562 42.9777 13.2771 42.0109C13.0286 41.8953 12.7836 41.7844 12.543 41.6752C10.3512 40.6819 8.90315 40.0258 8.36828 37.6826C7.83342 35.3392 8.85344 34.1197 10.3973 32.2737C10.5667 32.0713 10.7392 31.8649 10.9128 31.6532C12.3666 29.88 12.8697 27.6762 12.3292 25.4479C12.2647 25.1816 12.1988 24.9209 12.134 24.6649C11.544 22.3318 11.154 20.7906 12.6527 18.9114C14.1512 17.0321 15.7406 17.0691 18.1465 17.1255C18.4105 17.1316 18.6792 17.1379 18.9531 17.1416C21.245 17.1709 23.2825 16.1918 24.6877 14.38C24.8556 14.1635 25.0183 13.9494 25.178 13.7392C26.6342 11.8231 27.5961 10.5574 29.9997 10.5574C32.4033 10.5574 33.3653 11.8231 34.8214 13.7392C34.9812 13.9494 35.1439 14.1635 35.3117 14.38C36.7169 16.1919 38.7529 17.1726 41.0464 17.1416C41.3203 17.1379 41.5891 17.1316 41.8531 17.1255C44.2587 17.0692 45.8483 17.0322 47.3468 18.9114C48.8454 20.7905 48.4556 22.3318 47.8655 24.6648C47.8008 24.9209 47.7349 25.1815 47.6702 25.4478C47.1298 27.6762 47.6327 29.88 49.0865 31.6532C49.2602 31.865 49.4326 32.0712 49.6021 32.2737C51.1464 34.1198 52.1664 35.3393 51.6316 37.6826ZM26.0432 26.2655C26.0432 23.7751 24.017 21.7489 21.5266 21.7489C19.0362 21.7489 17.01 23.7751 17.01 26.2655C17.01 28.756 19.0362 30.7821 21.5266 30.7821C24.017 30.7821 26.0432 28.756 26.0432 26.2655ZM21.5267 28.4384C20.3285 28.4384 19.3538 27.4637 19.3538 26.2655C19.3538 25.0674 20.3285 24.0927 21.5267 24.0927C22.7248 24.0927 23.6995 25.0674 23.6995 26.2655C23.6995 27.4637 22.7247 28.4384 21.5267 28.4384ZM35.2998 25.6243L24.8897 41.0125C24.6632 41.3474 24.2939 41.5278 23.918 41.5278C23.692 41.5278 23.4637 41.4626 23.2624 41.3265C22.7264 40.9638 22.5858 40.2353 22.9485 39.6992L33.3586 24.3109C33.7212 23.7749 34.4498 23.6344 34.986 23.997C35.5218 24.3597 35.6624 25.0882 35.2998 25.6243ZM36.7825 34.8036C34.2921 34.8036 32.2659 36.8297 32.2659 39.3201C32.2659 41.8105 34.2921 43.8367 36.7825 43.8367C39.273 43.8367 41.2991 41.8105 41.2991 39.3201C41.2991 36.8297 39.273 34.8036 36.7825 34.8036ZM36.7825 41.493C35.5844 41.493 34.6097 40.5183 34.6097 39.3201C34.6097 38.122 35.5844 37.1474 36.7825 37.1474C37.9807 37.1474 38.9554 38.122 38.9554 39.3201C38.9554 40.5183 37.9806 41.493 36.7825 41.493Z" fill="#F5A623"></path></svg>