<svg width="60" height="50" viewBox="0 0 60 50" fill="none" xmlns="http://www.w3.org/2000/svg"><g clip-path="url(#clip0_1914_2284)"><path d="M11.5205 21.4316H14.0762C14.4419 21.4318 14.7146 21.7046 14.7148 22.0703C14.7148 22.4362 14.442 22.7089 14.0762 22.709H12.1592V29.2441C12.1592 32.9067 15.1291 35.8778 18.6943 35.8779C22.3575 35.8779 25.3281 32.9073 25.3281 29.2441V22.709H23.3135C22.9475 22.709 22.6748 22.4363 22.6748 22.0703C22.675 21.7046 22.9477 21.4316 23.3135 21.4316H25.8682C26.234 21.4316 26.5066 21.7046 26.5068 22.0703V29.2441C26.5068 33.5409 22.9911 37.0566 18.6943 37.0566C14.3977 37.0565 10.8818 33.5408 10.8818 29.2441V22.0703C10.882 21.7047 11.1549 21.4318 11.5205 21.4316Z" fill="#F5A623" stroke="#F5A623" stroke-width="0.0982704"></path><path d="M21.7402 19.8594H23.3135C23.6791 19.8596 23.952 20.1325 23.9521 20.498V23.6436C23.9519 24.0091 23.679 24.282 23.3135 24.2822H21.7402C20.4901 24.282 19.5293 23.3205 19.5293 22.0703C19.5295 20.9171 20.4916 19.8596 21.7402 19.8594ZM21.7402 21.1367C21.2221 21.137 20.8069 21.5522 20.8066 22.0703C20.8066 22.5886 21.222 23.0037 21.7402 23.0039H22.6738V21.1367H21.7402Z" fill="#F5A623" stroke="#F5A623" stroke-width="0.0982704"></path><path d="M33.5342 29.3916C36.0619 29.3916 38.1034 31.4332 38.1035 33.9609C38.1035 36.4888 36.062 38.5312 33.5342 38.5312C31.0063 38.5312 28.9648 36.4888 28.9648 33.9609C28.965 31.4332 31.0064 29.3916 33.5342 29.3916ZM33.5342 30.6689C31.7383 30.6689 30.2424 32.1651 30.2422 33.9609C30.2422 35.7569 31.7382 37.2529 33.5342 37.2529C35.3302 37.2529 36.8262 35.7569 36.8262 33.9609C36.826 32.1651 35.3301 30.669 33.5342 30.6689ZM14.0762 20.0557H15.6484C16.8987 20.0557 17.8601 21.0164 17.8604 22.2666C17.8604 23.4173 16.9003 24.3799 15.6484 24.3799H14.0762C13.7056 24.3797 13.4378 24.1025 13.4375 23.8398V20.6943C13.4377 20.3287 13.7106 20.0559 14.0762 20.0557ZM23.3145 21.4316H25.8691C26.235 21.4317 26.5077 21.7045 26.5078 22.0703V22.8564C26.5078 23.1193 26.24 23.3974 25.8691 23.3975H23.3145C22.9435 23.3975 22.6748 23.1194 22.6748 22.8564V22.0703C22.6749 21.7045 22.9486 21.4316 23.3145 21.4316ZM14.7148 23.2002H15.6484C16.1669 23.2002 16.582 22.7851 16.582 22.2666C16.5818 21.7483 16.1668 21.333 15.6484 21.333H14.7148V23.2002Z" fill="#F5A623" stroke="#F5A623" stroke-width="0.0982704"></path><path d="M18.6943 35.8779C19.0651 35.8779 19.3327 36.1552 19.333 36.418V47.4248C19.3331 48.4346 20.1416 49.2431 21.1514 49.2432C22.1577 49.2432 23.0673 48.438 23.0674 47.4248V42.5107C23.0676 40.8685 24.4206 39.5138 26.1631 39.5137C27.8064 39.5137 29.1599 40.8675 29.1602 42.5107V47.4248C29.1602 48.438 30.0708 49.2432 31.0771 49.2432C32.0868 49.243 32.8945 48.4345 32.8945 47.4248V37.8926C32.8945 37.5268 33.1674 37.2541 33.5332 37.2539C33.8991 37.2539 34.1719 37.5266 34.1719 37.8926V47.4248C34.1718 49.0681 32.7204 50.5203 31.0771 50.5205C29.3364 50.5205 27.9815 49.0692 27.9814 47.4248V42.5107C27.9812 41.5011 27.1728 40.6934 26.1631 40.6934C25.057 40.6935 24.2473 41.4994 24.2471 42.5107V47.4248C24.247 49.0692 22.8921 50.5205 21.1514 50.5205C19.508 50.5204 18.0557 49.0682 18.0557 47.4248V36.418C18.056 36.1553 18.3238 35.8781 18.6943 35.8779ZM33.5332 31.5537C34.8819 31.5537 35.9414 32.6133 35.9414 33.9619C35.9413 35.313 34.8793 36.4678 33.5332 36.4678C32.1848 36.4676 31.0275 35.3103 31.0273 33.9619C31.0273 32.6159 32.1822 31.5539 33.5332 31.5537ZM33.5332 32.7334C32.8184 32.7336 32.3057 33.247 32.3057 33.9619C32.3058 34.6767 32.8185 35.1903 33.5332 35.1904C34.1472 35.1904 34.7616 34.6794 34.7617 33.9619C34.7617 33.6511 34.6069 33.3442 34.3789 33.1162C34.1509 32.8882 33.844 32.7334 33.5332 32.7334Z" fill="#F5A623" stroke="#F5A623" stroke-width="0.0982704"></path><path d="M34.3193 16.4199H36.4814C36.7651 16.4199 36.9403 16.5143 37.0273 16.6885L37.0283 16.6895C37.7254 17.9838 39.0198 18.6805 40.4121 18.6807C41.8046 18.6807 43.0998 17.9839 43.7969 16.6895L43.7979 16.6885C43.8398 16.6045 43.9263 16.5369 44.0312 16.4902C44.1358 16.4438 44.2526 16.4199 44.3438 16.4199H46.5049C49.7212 16.4199 52.4502 19.0527 52.4502 22.3662V27.6719C52.4502 28.0378 52.1775 28.3115 51.8115 28.3115H29.0127C28.6469 28.3113 28.374 28.0377 28.374 27.6719V22.3662C28.374 19.0523 31.0054 16.4201 34.3193 16.4199ZM34.3193 17.5996C31.736 17.5998 29.6514 19.7855 29.6514 22.3662V27.1318H51.1729V22.3662C51.1729 19.7854 49.0884 17.5996 46.5049 17.5996H44.71L44.6953 17.6211C43.7212 19.0822 42.1637 19.958 40.4121 19.958C38.6607 19.9579 37.1039 19.0821 36.1299 17.6211L36.1152 17.5996H34.3193ZM40.4121 0.303711C43.4313 0.303711 45.8661 2.73866 45.8662 5.75781V8.80469C45.8661 11.8238 43.4313 14.2588 40.4121 14.2588C37.3931 14.2586 34.9582 11.8237 34.958 8.80469V5.75781C34.9581 2.73878 37.3931 0.303899 40.4121 0.303711ZM40.4121 1.58105C38.125 1.58125 36.2364 3.47067 36.2363 5.75781V8.80469C36.2365 11.0918 38.125 12.9803 40.4121 12.9805C42.6994 12.9805 44.5887 11.0919 44.5889 8.80469V5.75781C44.5887 3.47055 42.6994 1.58105 40.4121 1.58105Z" fill="#F5A623" stroke="#F5A623" stroke-width="0.0982704"></path><path d="M34.1484 16.5112C34.5217 16.3264 34.8844 16.4234 35.0645 16.6929L36.5342 19.2407C36.629 19.5278 36.6221 19.7964 36.4463 19.9722L35.7588 20.6606L35.7314 20.688L35.752 20.7212L38.0117 24.3569L38.1016 24.3218L36.9229 18.3276L36.875 18.3364L36.9229 18.3267L36.9209 18.3208C36.8333 18.0572 37.0081 17.6948 37.3711 17.6001C37.5573 17.6009 37.7169 17.6477 37.8408 17.7378C37.9647 17.828 38.0566 17.9639 38.1035 18.1489V18.1499L39.9707 27.5835L39.9727 27.5894C40.0167 27.7216 39.9951 27.8804 39.9258 28.019C39.8574 28.1556 39.7459 28.2657 39.6162 28.311H39.3311C39.173 28.311 39.0168 28.2422 38.9209 28.106L38.8838 28.0435L38.8818 28.0386L34.3643 20.9683C34.2702 20.6821 34.2771 20.4141 34.4521 20.2388L35.166 19.5249L35.1484 19.4927L33.9697 17.3306L33.9678 17.3267L33.9121 17.2212C33.8127 16.9689 33.9096 16.6715 34.1484 16.5112ZM40.5322 3.44385C40.6163 3.40182 40.7266 3.39972 40.8447 3.42334C40.9596 3.44631 41.0761 3.49167 41.1709 3.53857C42.367 4.63069 43.8579 4.52855 44.9434 4.23291L44.9443 4.23389C45.1303 4.1874 45.2884 4.21108 45.4102 4.28857C45.5323 4.36631 45.6241 4.50176 45.6709 4.68896L45.6719 4.69287C45.7159 4.825 45.6952 4.983 45.626 5.12158C45.5739 5.22571 45.4965 5.315 45.4053 5.37158L45.3105 5.4165C44.3271 5.61303 42.675 5.90097 41.1221 5.12451L41.0674 5.09717L41.0527 5.15674C40.9581 5.53512 40.6733 5.91554 40.1973 6.10596H40.1963C39.5272 6.39268 38.7574 6.30009 37.7812 5.81201L37.7373 5.79053L37.7148 5.83447C37.4233 6.41761 36.9406 7.18937 35.8809 7.67432H35.5967C35.4111 7.67419 35.1425 7.58126 35.0537 7.31494L35.0078 7.33057L35.0557 7.31396L35.0479 7.30322L35.0195 7.25342C34.9613 7.13397 34.9665 6.99889 35.0166 6.86865C35.0736 6.72078 35.1873 6.58183 35.3252 6.48877C35.9735 6.23776 36.3245 5.81264 36.5127 5.44873C36.6069 5.2666 36.6605 5.10018 36.6904 4.979C36.7054 4.9184 36.7143 4.86893 36.7197 4.83447C36.7224 4.81728 36.7245 4.80376 36.7256 4.79443C36.7261 4.78982 36.7263 4.7862 36.7266 4.78369C36.7267 4.78243 36.7265 4.78049 36.7266 4.77979L36.6777 4.7749L36.7275 4.77979V4.7749C36.7276 4.63267 36.7511 4.52044 36.8057 4.43311C36.8597 4.34665 36.9477 4.27834 37.0869 4.23193V4.23291L37.0928 4.22998C37.275 4.13887 37.5464 4.14061 37.7246 4.31885L37.7236 4.31982L37.7314 4.32471C38.3228 4.71895 38.7454 4.91833 39.0469 5.00635C39.273 5.07229 39.4345 5.07637 39.5488 5.05029L39.6484 5.01611L39.6533 5.01318C39.8151 4.90536 39.9175 4.69414 39.9912 4.49756C40.0285 4.39802 40.0605 4.29875 40.0879 4.21338C40.1158 4.12644 40.1386 4.05632 40.1611 4.01123L40.167 4.00049V3.98877C40.1671 3.80316 40.2601 3.53456 40.5264 3.4458V3.44678L40.5322 3.44385Z" fill="#F5A623" stroke="#F5A623" stroke-width="0.0982704"></path><path d="M38.0947 12.959C38.2776 12.6847 38.6402 12.596 38.9102 12.7754V12.7764L38.916 12.7793C39.102 12.8723 39.2151 13.01 39.2598 13.1553C39.3042 13.3002 39.2823 13.4566 39.1924 13.5918H39.1914L39.1904 13.5947L37.0283 17.3291L37.0273 17.332C36.9403 17.5061 36.7649 17.5996 36.4814 17.5996C36.4083 17.5996 36.3452 17.5987 36.2832 17.5635L36.2207 17.5156L36.2217 17.5146L36.2139 17.5098L36.1143 17.4316C36.0199 17.346 35.9435 17.2391 35.9004 17.127C35.8434 16.9784 35.8454 16.8242 35.9326 16.6934L35.9346 16.6904L38.0938 12.958L38.0947 12.959ZM41.9131 12.7764C42.1495 12.6188 42.4575 12.6666 42.6533 12.8652L42.7295 12.959L44.8896 16.6904L44.8916 16.6934C45.0715 16.9633 44.9834 17.3268 44.709 17.5098L44.7363 17.5508L44.708 17.5088L44.7012 17.5156C44.6629 17.5538 44.6015 17.5762 44.5312 17.5879C44.4621 17.5994 44.3922 17.5996 44.3428 17.5996C44.165 17.5996 43.9819 17.5109 43.792 17.3223L41.6367 13.5996C41.5926 13.4634 41.5923 13.2794 41.6387 13.1172C41.6859 12.952 41.7765 12.8229 41.9014 12.7812L41.9023 12.7832L41.9131 12.7764Z" fill="#F5A623" stroke="#F5A623" stroke-width="0.0982704"></path><path fill-rule="evenodd" clip-rule="evenodd" d="M41.3955 28.3602C41.3955 28.3602 41.2972 28.3602 41.1989 28.3602C40.9041 28.2619 40.7076 27.8688 40.8058 27.574L42.673 18.14C42.673 17.8452 43.0661 17.5504 43.4591 17.6487C43.7539 17.747 44.0488 18.0418 43.9505 18.4348L42.7712 24.3311L45.0315 20.6951L44.3436 20.0072C44.147 19.8106 44.0488 19.5158 44.2453 19.221L45.7194 16.666C45.9159 16.3712 46.309 16.2729 46.6038 16.4694C46.9969 16.666 47.0951 17.0591 46.8986 17.3539L45.6211 19.5158L46.4073 20.2037C46.6038 20.4003 46.6038 20.6951 46.4073 20.9899L41.9851 28.0654C41.8868 28.2619 41.6903 28.3602 41.3955 28.3602Z" fill="#F5A623" stroke="#F5A623" stroke-width="0.0884434"></path></g><defs><clipPath id="clip0_1914_2284"><rect width="45" height="50" fill="white" transform="translate(7.5)"></rect></clipPath></defs></svg>