<svg width="38" height="43" viewBox="0 0 38 43" fill="none" xmlns="http://www.w3.org/2000/svg"><g clip-path="url(#clip0_1132_1302)"><path d="M32.1765 22.9185H30.9395V23.3805C30.9335 26.1595 30.9755 28.9405 30.9105 31.7185C30.8183 33.6428 30.056 35.4742 28.7558 36.8956C27.4555 38.317 25.6991 39.239 23.7907 39.5019C21.8823 39.7648 19.942 39.3521 18.3058 38.3352C16.6696 37.3182 15.4406 35.7612 14.8315 33.9335C14.5355 33.0366 14.3895 32.097 14.3995 31.1525C14.3915 29.3785 14.3995 27.6035 14.3995 25.8285C14.3995 25.1705 14.5406 24.9915 15.1916 24.8835C17.646 24.4331 19.8526 23.1047 21.3995 21.1465C21.9135 20.5465 22.3515 19.8785 22.8095 19.2295C23.1255 18.7815 23.0986 18.4165 22.7696 18.1805C22.4406 17.9445 22.0745 18.0495 21.7575 18.5395C21.0796 19.5935 20.2835 20.5664 19.3845 21.4395C18.0172 22.7861 16.2098 23.5939 14.2945 23.7144C12.3792 23.835 10.4848 23.2601 8.9595 22.0955C7.90487 21.286 6.98577 20.3138 6.23654 19.2155C6.04354 18.9425 5.87152 18.6545 5.66952 18.3855C5.62636 18.3099 5.56795 18.2442 5.49801 18.1924C5.42807 18.1405 5.34815 18.1038 5.26327 18.0845C5.17839 18.0653 5.09042 18.0639 5.00497 18.0804C4.91951 18.0969 4.83844 18.131 4.76687 18.1805C4.69529 18.2301 4.63478 18.2939 4.5892 18.3681C4.54361 18.4422 4.51392 18.525 4.50204 18.6113C4.49016 18.6975 4.49633 18.7852 4.52017 18.8689C4.544 18.9527 4.58501 19.0305 4.64053 19.0975C5.16953 19.8465 5.67855 20.6175 6.27755 21.3085C7.29532 22.5547 8.59604 23.5397 10.0715 24.1815C10.8234 24.4646 11.5935 24.6967 12.3765 24.8765C12.9655 25.0275 13.1325 25.1835 13.1355 25.7845C13.1355 26.8012 13.1355 27.8185 13.1355 28.8365C13.1377 28.9714 13.1216 29.106 13.0875 29.2365C13.0526 29.3703 12.9726 29.488 12.8609 29.5695C12.7493 29.6511 12.6129 29.6916 12.4748 29.6842C12.3367 29.6768 12.2054 29.6219 12.1032 29.5289C12.0009 29.4358 11.9339 29.3103 11.9135 29.1735C11.8917 29.0266 11.8813 28.8781 11.8825 28.7295C11.8825 27.9595 11.8735 27.1915 11.8825 26.4215C11.8825 26.1895 11.8265 26.0605 11.5825 26.0055C8.47735 25.2217 5.79644 23.2655 4.1025 20.5475C3.9115 20.2725 3.71752 19.9995 3.54452 19.7125C3.34469 19.4172 3.23618 19.0697 3.23245 18.7132C3.22871 18.3567 3.32992 18.0069 3.52352 17.7075C3.58769 17.6199 3.62409 17.515 3.62801 17.4064C3.63194 17.2978 3.60323 17.1906 3.54556 17.0985C2.65564 15.3643 1.95168 13.5409 1.44552 11.6585C1.09287 10.4146 0.939961 9.12247 0.992516 7.83054C1.04297 7.05169 1.28705 6.29776 1.70266 5.63715C2.11827 4.97653 2.69226 4.43014 3.37252 4.04753C3.98065 3.68856 4.61165 3.36988 5.2615 3.09354C5.35856 3.0612 5.44534 3.00372 5.51296 2.92696C5.58059 2.85019 5.62666 2.75688 5.64651 2.65652C5.91851 1.42052 7.8625 0.0705376 9.1105 0.438538C9.64887 0.61973 10.1146 0.969425 10.4388 1.43588C10.763 1.90234 10.9284 2.46077 10.9105 3.02853C10.9326 3.55472 10.7706 4.07213 10.4525 4.49187C10.1344 4.9116 9.68004 5.20745 9.1675 5.32854C8.62498 5.4132 8.07024 5.37211 7.54611 5.20844C7.02197 5.04476 6.5425 4.76289 6.14456 4.38454C6.05056 4.30254 5.87555 4.20753 5.78555 4.24153C4.75152 4.56863 3.81572 5.14926 3.0635 5.93053C2.55136 6.51155 2.26312 7.25612 2.25051 8.03053C2.2028 9.44916 2.4279 10.8638 2.91354 12.1975C3.43654 13.6665 4.08053 15.0925 4.67153 16.5355C4.73953 16.7015 4.81154 16.8195 5.04354 16.8125C5.3928 16.7935 5.74039 16.8724 6.04727 17.0402C6.35414 17.208 6.60813 17.4582 6.78054 17.7625C7.56124 19.0491 8.56728 20.1846 9.75051 21.1145C10.7902 21.8907 12.033 22.3483 13.3278 22.4318C14.6226 22.5152 15.9138 22.2209 17.0445 21.5845C18.2805 20.8378 19.3433 19.8367 20.1625 18.6475C20.3965 18.3255 20.6105 17.9915 20.8345 17.6635C21.0091 17.39 21.2516 17.1663 21.5383 17.0142C21.825 16.8621 22.1461 16.7868 22.4705 16.7955C22.542 16.7899 22.6113 16.7684 22.6734 16.7326C22.7355 16.6968 22.7889 16.6476 22.8296 16.5885C23.9421 14.5344 24.723 12.3174 25.1435 10.0195C25.2568 9.28465 25.296 8.54025 25.2605 7.79753C25.2034 7.18166 24.9856 6.59158 24.6288 6.08633C24.272 5.58109 23.7888 5.17839 23.2275 4.91853C22.7611 4.6605 22.2772 4.43529 21.7795 4.24454C21.7198 4.23293 21.6583 4.23509 21.5995 4.25085C21.5408 4.26662 21.4864 4.29558 21.4405 4.33553C20.8149 4.93183 20.0023 5.29329 19.1405 5.35854C18.5663 5.43491 17.9852 5.2812 17.5238 4.93091C17.0625 4.58062 16.7582 4.06215 16.6775 3.48853C16.5914 3.12276 16.5876 2.74241 16.6665 2.37502C16.7454 2.00762 16.9051 1.66236 17.1338 1.36423C17.3626 1.06609 17.6547 0.82254 17.9892 0.651199C18.3236 0.479859 18.6919 0.38502 19.0675 0.373535C19.6948 0.462605 20.2867 0.718093 20.7818 1.11343C21.2768 1.50877 21.6569 2.02953 21.8825 2.62154C21.9044 2.73383 21.9569 2.83788 22.0342 2.92223C22.1115 3.00657 22.2106 3.06793 22.3205 3.09953C23.4152 3.47905 24.4121 4.09653 25.2395 4.90753C26.0567 5.72369 26.5271 6.82389 26.5525 7.97853C26.574 9.34495 26.3851 10.7065 25.9925 12.0155C25.4978 13.7582 24.8329 15.448 24.0075 17.0605C23.9453 17.1569 23.9134 17.2697 23.9161 17.3843C23.9188 17.499 23.9559 17.6102 24.0225 17.7035C24.2175 17.9956 24.3208 18.3393 24.3192 18.6904C24.3176 19.0416 24.2111 19.3843 24.0135 19.6745C22.8639 21.6295 21.2881 23.2999 19.4035 24.5615C18.3957 25.2243 17.2748 25.6965 16.0965 25.9545C15.7445 26.0275 15.6536 26.1805 15.6576 26.5295C15.6806 28.2045 15.6415 29.8805 15.6815 31.5545C15.7724 33.3509 16.5512 35.0434 17.8565 36.2809C19.1618 37.5185 20.8934 38.206 22.6921 38.201C24.4908 38.196 26.2185 37.4988 27.5169 36.254C28.8153 35.0092 29.5847 33.3124 29.6656 31.5155C29.7296 28.6375 29.6785 25.7575 29.6925 22.8785C29.6925 22.6095 29.5615 22.5175 29.3565 22.4215C28.5685 22.077 27.8742 21.549 27.3318 20.8815C26.7894 20.214 26.4146 19.4264 26.2385 18.5845C25.9794 17.3795 26.1355 16.1222 26.6814 15.0171C27.2273 13.912 28.131 13.024 29.2455 12.4975C29.3186 12.4559 29.3993 12.4293 29.4829 12.4195C29.5664 12.4096 29.6511 12.4167 29.7319 12.4402C29.8127 12.4637 29.8879 12.5032 29.9531 12.5563C30.0184 12.6095 30.0721 12.6752 30.1115 12.7495C30.1512 12.8207 30.1758 12.8993 30.1837 12.9804C30.1916 13.0615 30.1826 13.1434 30.1574 13.2208C30.1321 13.2983 30.0911 13.3697 30.0369 13.4306C29.9827 13.4915 29.9166 13.5405 29.8426 13.5745C29.2143 13.9022 28.6593 14.3543 28.2115 14.9035C27.641 15.6549 27.3381 16.5755 27.3509 17.5189C27.3637 18.4623 27.6915 19.3743 28.2822 20.1099C28.873 20.8455 29.6926 21.3626 30.611 21.5788C31.5293 21.7951 32.4936 21.6981 33.3505 21.3033C34.2074 20.9085 34.9077 20.2386 35.3401 19.4001C35.7725 18.5616 35.9121 17.6025 35.7368 16.6755C35.5615 15.7485 35.0814 14.9067 34.3727 14.2839C33.664 13.6611 32.7675 13.2932 31.8256 13.2385C31.7516 13.2385 31.6765 13.2275 31.6045 13.2175C31.1735 13.1535 30.9495 12.9075 30.9795 12.5335C30.9823 12.4452 31.0048 12.3587 31.0456 12.2803C31.0863 12.2019 31.1442 12.1336 31.2149 12.0806C31.2855 12.0276 31.3672 11.9912 31.4539 11.974C31.5406 11.9569 31.6299 11.9594 31.7155 11.9815C32.4284 12.0498 33.1293 12.2122 33.7996 12.4645C34.778 12.8566 35.6126 13.5392 36.1911 14.4204C36.7695 15.3015 37.064 16.3389 37.0346 17.3925C37.0712 18.4506 36.7861 19.4949 36.2169 20.3876C35.6478 21.2802 34.8213 21.9793 33.8466 22.3925C33.7219 22.4365 33.6158 22.5215 33.5457 22.6335C33.4756 22.7456 33.4455 22.8782 33.4605 23.0095C33.4665 25.9505 33.5115 28.8925 33.4315 31.8315C33.353 34.3542 32.3488 36.7597 30.6105 38.5895C30.5616 38.6662 30.4968 38.7314 30.4206 38.781C30.3443 38.8305 30.2584 38.8631 30.1685 38.8767C30.0786 38.8902 29.9869 38.8844 29.8994 38.8595C29.812 38.8346 29.7308 38.7913 29.6615 38.7325C29.5922 38.6733 29.5367 38.5996 29.4989 38.5166C29.461 38.4336 29.4418 38.3434 29.4426 38.2522C29.4434 38.161 29.4641 38.071 29.5033 37.9887C29.5425 37.9064 29.5992 37.8336 29.6695 37.7755C30.5474 36.808 31.2269 35.6777 31.6696 34.4485C32.0286 33.429 32.2102 32.3554 32.2066 31.2745C32.2066 28.5939 32.2066 25.9132 32.2066 23.2325C32.1976 23.1425 32.1845 23.0335 32.1765 22.9185ZM17.8005 2.95253C17.8835 3.59753 18.2165 4.09154 18.6895 4.11754C19.328 4.15847 19.9579 3.95303 20.4495 3.54353C20.5149 3.50038 20.5704 3.44389 20.6124 3.37778C20.6545 3.31167 20.6821 3.23743 20.6934 3.15991C20.7047 3.0824 20.6995 3.00335 20.6782 2.92798C20.6568 2.8526 20.6198 2.7826 20.5695 2.72253C20.265 2.26389 19.8228 1.91375 19.3065 1.72253C19.1215 1.62551 18.9062 1.60325 18.7052 1.66039C18.5042 1.71752 18.3329 1.84966 18.2265 2.02953C18.0601 2.32511 17.9173 2.63342 17.7995 2.95154L17.8005 2.95253ZM9.67153 2.97353C9.63118 2.75626 9.5757 2.54208 9.50552 2.33253C9.4304 2.10738 9.27662 1.91688 9.07235 1.79601C8.86808 1.67513 8.62703 1.632 8.39352 1.67453C7.81403 1.83565 7.31157 2.19937 6.9775 2.69954C6.91752 2.76088 6.87283 2.83548 6.84707 2.91731C6.82131 2.99915 6.81522 3.08589 6.82925 3.17053C6.84327 3.25517 6.87704 3.33532 6.92782 3.40446C6.9786 3.47361 7.04498 3.52982 7.12154 3.56853C7.47533 3.79143 7.85919 3.96252 8.2615 4.07654C8.42987 4.14115 8.61215 4.16104 8.79049 4.13428C8.96883 4.10752 9.13721 4.03502 9.2792 3.92384C9.42119 3.81267 9.53197 3.66661 9.60073 3.49989C9.66949 3.33318 9.69387 3.15248 9.67153 2.97353Z" fill="#1D4886"></path><path d="M22.5995 42.6123C20.1331 42.5947 17.7472 41.7325 15.8392 40.1695C13.9312 38.6065 12.6163 36.437 12.1134 34.0223C11.9987 33.3506 11.9273 32.6722 11.8995 31.9913C11.8645 31.5303 12.0885 31.2463 12.4595 31.2143C12.8305 31.1823 13.1255 31.4693 13.1335 31.9353C13.1397 33.093 13.3678 34.2386 13.8055 35.3103C14.385 36.8398 15.3575 38.1895 16.6252 39.2231C17.8928 40.2566 19.4106 40.9376 21.0254 41.1973C22.23 41.4294 23.4689 41.418 24.669 41.1638C25.8692 40.9096 27.0064 40.4178 28.0135 39.7173C28.1137 39.6235 28.2382 39.5596 28.3729 39.533C28.5076 39.5063 28.647 39.5178 28.7754 39.5663C28.8836 39.6158 28.9755 39.6949 29.0406 39.7945C29.1056 39.8941 29.141 40.01 29.1428 40.129C29.1446 40.2479 29.1127 40.3649 29.0506 40.4664C28.9886 40.5679 28.8991 40.6497 28.7925 40.7023C27.8939 41.3253 26.9055 41.8075 25.8614 42.1323C24.8059 42.4621 23.7052 42.6241 22.5995 42.6123Z" fill="#F5A623"></path><path d="M29.1076 17.9575C29.1117 17.4695 29.2606 16.9938 29.5354 16.5904C29.8101 16.1871 30.1983 15.8743 30.6509 15.6918C31.1035 15.5092 31.6001 15.465 32.0778 15.5648C32.5555 15.6646 32.9928 15.9039 33.3344 16.2524C33.6761 16.6009 33.9066 17.0429 33.9969 17.5225C34.0872 18.0021 34.0331 18.4977 33.8416 18.9466C33.65 19.3954 33.3296 19.7774 32.9209 20.044C32.5122 20.3107 32.0335 20.4501 31.5455 20.4445C30.8937 20.434 30.2723 20.1671 29.816 19.7015C29.3596 19.236 29.1051 18.6094 29.1076 17.9575ZM32.7846 17.9705C32.7855 17.8124 32.7551 17.6556 32.6952 17.5092C32.6353 17.3628 32.5471 17.2296 32.4356 17.1175C32.324 17.0053 32.1914 16.9163 32.0454 16.8555C31.8993 16.7948 31.7427 16.7635 31.5846 16.7635C31.2596 16.7624 30.9474 16.8897 30.7157 17.1176C30.4841 17.3455 30.3518 17.6556 30.3476 17.9805C30.3566 18.2991 30.487 18.6023 30.7121 18.8279C30.9372 19.0536 31.24 19.1847 31.5586 19.1945C31.7195 19.1949 31.8789 19.1635 32.0277 19.1022C32.1765 19.0408 32.3117 18.9507 32.4256 18.837C32.5395 18.7233 32.6298 18.5882 32.6914 18.4396C32.753 18.2909 32.7847 18.1315 32.7846 17.9705Z" fill="#F5A623"></path></g><defs><clipPath id="clip0_1132_1302"><rect width="36.051" height="42.235" fill="white" transform="translate(0.974487 0.382324)"></rect></clipPath></defs></svg>