<svg width="60" height="61" viewBox="0 0 60 61" fill="none" xmlns="http://www.w3.org/2000/svg"><path d="M53.9264 42.8239C52.0043 43.7135 50.0935 44.595 48.189 45.4893C48.1223 45.5208 48.0624 45.5653 48.0129 45.6201C47.9634 45.6749 47.9252 45.739 47.9005 45.8087C47.3555 48.1402 47.0049 48.5107 44.6972 49.1495C44.3784 51.7557 43.5657 52.7139 41.3504 53.0141C41.3711 54.025 41.1273 54.9624 40.3607 55.7002C39.5941 56.438 38.6491 56.6584 37.6339 56.5626C36.8513 59.6239 35.2433 60.1733 31.8391 58.5604C31.1188 59.6383 30.1275 60.309 28.7792 60.2451C27.4564 60.1829 26.5098 59.4914 25.901 58.3384C23.4594 59.2231 22.2689 58.8526 20.9748 56.8197C17.9595 58.2426 15.3745 55.6603 16.1236 52.9039C15.8957 52.8592 15.6678 52.8225 15.4446 52.7714C13.3234 52.2923 12.2269 50.1109 13.1465 48.1402C13.3059 47.7873 13.2485 47.5988 13.019 47.3146C12.2052 46.3103 11.1683 45.5107 9.99096 44.9798C8.75264 44.4161 7.56852 43.7566 6.37483 43.1322C6.11346 42.9948 5.91743 42.9309 5.63375 43.1322C5.13492 43.4963 4.55641 43.5154 3.98745 43.2807C3.17944 42.9501 2.37302 42.6131 1.57457 42.257C1.2327 42.1151 0.932651 41.888 0.702842 41.5974C0.473032 41.3068 0.321073 40.9621 0.261356 40.5962C-0.334692 37.4646 0.135452 34.4543 1.31639 31.5335C2.42197 28.7434 4.19784 26.27 6.48639 24.3328C7.61155 23.3842 8.36378 23.3091 9.63875 24.0134C10.5073 24.4925 11.3711 24.9859 12.2445 25.4602C12.5213 25.5997 12.7614 25.8025 12.9455 26.0522C13.1296 26.3018 13.2525 26.5914 13.3043 26.8975C13.3774 27.108 13.524 27.285 13.7171 27.3958C16.267 29.0055 19.0496 29.3217 21.9741 29.0023C23.555 28.8298 25.1535 28.6829 26.7122 29.1428C27.4464 29.3725 28.1602 29.6631 28.8461 30.0116C29.1649 30.1713 29.3896 30.1888 29.702 29.9988C31.3148 29.0151 33.0376 28.3396 34.9405 28.1655C36.1516 28.0461 37.3743 28.1876 38.5263 28.5807C41.4094 29.574 44.0007 28.865 46.4487 27.2712C46.5793 27.1653 46.6671 27.0155 46.6957 26.8496C46.7465 26.5641 46.8619 26.2942 47.0332 26.0605C47.2046 25.8268 47.4271 25.6356 47.6838 25.5018C48.64 24.9694 49.5963 24.4371 50.5525 23.9048C51.5087 23.3666 52.4251 23.4433 53.2618 24.1428C56.8986 27.177 59.0661 31.0496 59.8151 35.7175C60.0806 37.334 60.0515 38.9853 59.7291 40.5914C59.669 40.9569 59.5175 41.3013 59.2887 41.5923C59.0599 41.8833 58.7613 42.1114 58.4206 42.2554C57.6046 42.6195 56.7823 42.9709 55.952 43.2998C55.1886 43.6081 54.5192 43.3621 53.9264 42.8239ZM25.3846 48.2169C27.4947 47.8176 28.9609 48.6129 29.6733 50.6826C29.7396 50.6874 29.8062 50.6874 29.8725 50.6826C31.5602 50.3823 32.7236 50.9045 33.6066 52.3466C33.6947 52.4984 33.8176 52.627 33.9651 52.7219C35.0951 53.3878 36.225 54.0537 37.3725 54.6909C38.155 55.1253 39.0284 54.8842 39.4443 54.1655C39.8603 53.4469 39.6403 52.5766 38.8738 52.1007C38.2156 51.6918 37.5351 51.3182 36.8657 50.9301C36.0577 50.4606 35.2449 50.0007 34.4464 49.5168C34.0018 49.2485 33.8902 48.8301 34.142 48.3861C34.3938 47.9422 34.805 47.8448 35.2688 48.0779C35.4473 48.1658 35.6146 48.2744 35.7868 48.3734C37.3358 49.2677 38.8754 50.1779 40.4372 51.0499C41.5177 51.6535 42.7003 51.1169 42.9409 49.9575C43.0859 49.2613 42.7656 48.589 42.0453 48.1642C40.7623 47.4072 39.4682 46.6678 38.1773 45.9204C38.0753 45.8614 37.9685 45.8055 37.8681 45.7432C37.3677 45.4318 37.2036 44.9687 37.4362 44.5407C37.6689 44.1127 38.1598 43.9849 38.6761 44.2804C40.281 45.197 41.8636 46.1456 43.4828 47.0431C43.8577 47.2581 44.2797 47.3771 44.7115 47.3896C45.4494 47.3896 46.0136 46.8339 46.1793 46.1217C46.3387 45.4477 46.0295 44.7403 45.3219 44.2995C44.4964 43.7837 43.6453 43.311 42.8007 42.8255C40.6109 41.5719 38.4291 40.3024 36.225 39.0759C34.3301 38.0203 32.3666 37.95 30.3777 38.8172C29.7402 39.0935 29.1187 39.4065 28.4796 39.6811C27.6827 40.0245 26.8859 40.3998 26.0556 40.6649C24.2658 41.2382 22.645 40.8533 21.2155 39.6412C19.6074 38.279 19.7492 36.2078 21.5342 35.0851C22.2052 34.6619 22.8841 34.2451 23.5582 33.8235L27.6875 31.2364C27.262 31.0767 26.9353 30.9426 26.6006 30.8372C25.179 30.3869 23.7224 30.4827 22.2832 30.6504C18.9269 31.0416 15.749 30.6344 12.8102 28.8378C12.7127 28.7995 12.6073 28.7857 12.5031 28.7973C12.399 28.809 12.2993 28.8459 12.2126 28.9049C8.64746 32.0796 6.75254 36.064 6.48798 40.8357C6.46284 40.9783 6.48869 41.1251 6.56099 41.2505C6.63329 41.3758 6.7474 41.4715 6.88322 41.5208C8.15819 42.1596 9.40766 42.8687 10.7081 43.4755C12.0086 44.0823 13.1816 44.8185 14.0549 45.9827C14.1118 46.0453 14.1748 46.102 14.243 46.152C14.549 45.633 14.8135 45.1443 15.1131 44.6812C15.546 44.0026 16.213 43.5074 16.9869 43.29C17.7609 43.0726 18.5876 43.1483 19.3094 43.5027C20.2656 43.9658 20.8266 44.7483 21.1103 45.7384C23.4945 45.4941 24.6515 46.16 25.3846 48.2169ZM47.5595 43.9274C49.2233 43.1577 51.0322 42.297 52.8634 41.4905C53.3845 41.2605 53.5391 40.9795 53.4913 40.4205C53.1311 36.096 51.4497 32.4038 48.3197 29.3872C47.5228 28.611 47.5117 28.5887 46.5666 29.1476C44.5171 30.3517 42.3417 30.9634 39.9543 30.6072C39.4614 30.5528 38.9751 30.4495 38.5024 30.299C35.7118 29.2913 33.1348 29.8758 30.6933 31.3562C27.9441 33.0282 25.2252 34.7529 22.4952 36.4665C21.5836 37.0366 21.539 37.7153 22.3566 38.4195C23.4722 39.3777 24.728 39.4687 26.0396 38.9354C27.0134 38.5377 27.9345 38.0075 28.9195 37.6482C30.0685 37.2298 31.2399 36.8018 32.4384 36.6134C34.3508 36.3148 36.0736 37.027 37.6976 37.9628C40.2651 39.4384 42.8357 40.906 45.3841 42.4087C46.1156 42.8303 46.7754 43.3701 47.5595 43.9274ZM55.2013 41.8131C56.0093 41.4713 56.6915 41.1551 57.3943 40.8964C57.882 40.716 58.164 40.4173 58.164 39.8967C58.164 38.5297 58.3234 37.1372 58.1242 35.8005C57.4947 31.6484 55.5057 28.2086 52.2785 25.5145C52.0904 25.3548 51.684 25.2431 51.4928 25.3389C50.4314 25.8675 49.405 26.4663 48.283 27.0955C50.4648 28.9608 52.2004 31.0879 53.3988 33.6191C54.5973 36.1503 55.1567 38.8747 55.2013 41.8131ZM11.709 27.0923C10.6778 26.5094 9.72162 26.0112 8.80524 25.4586C8.32712 25.1744 7.98926 25.2463 7.58286 25.5896C6.07345 26.8615 4.80668 28.397 3.84402 30.1218C2.13875 33.1735 1.30842 36.4106 1.82 39.9239C1.89172 40.4157 2.1005 40.7112 2.56905 40.882C3.1651 41.0992 3.74043 41.3723 4.32213 41.6135C4.47341 41.6647 4.62778 41.7063 4.78431 41.738C4.89108 35.8053 7.17168 30.9602 11.709 27.0923ZM22.1765 47.3242C21.8961 47.3062 21.6163 47.3675 21.3689 47.5011C21.1215 47.6346 20.9165 47.835 20.7772 48.0795C19.7923 49.7579 18.8106 51.4411 17.8623 53.1403C17.6586 53.5099 17.6069 53.9446 17.7181 54.3519C17.8294 54.7591 18.0949 55.1068 18.4581 55.3209C18.8213 55.535 19.2535 55.5987 19.6628 55.4983C20.0721 55.398 20.4262 55.1415 20.6497 54.7836C20.9238 54.3699 21.1549 53.9292 21.4035 53.498C22.1079 52.2763 22.8379 51.0642 23.512 49.825C24.159 48.6528 23.4435 47.3417 22.1765 47.3242ZM24.1606 57.2796C24.5575 57.0145 25.093 56.8372 25.3272 56.4683C26.2404 55.0311 27.0915 53.5395 27.8963 52.032C28.2931 51.2894 27.9186 50.3839 27.1887 49.9815C26.8397 49.7777 26.4254 49.7178 26.0332 49.8143C25.641 49.9109 25.3016 50.1563 25.0866 50.4989C24.2244 51.909 23.3909 53.3383 22.6147 54.7883C22.0282 55.8934 22.8554 57.171 24.1606 57.2796ZM16.1554 51.299C16.5507 51.0658 17.0893 50.9269 17.3172 50.582C18.067 49.4353 18.7548 48.2492 19.3779 47.0287C19.7397 46.3213 19.3779 45.4749 18.699 45.0741C18.0201 44.6732 17.0909 44.7642 16.6622 45.4302C15.8952 46.5909 15.2032 47.7996 14.5904 49.0489C14.133 50.0262 14.9904 51.1521 16.1554 51.299ZM28.9896 58.7201C29.4023 58.447 29.9458 58.2649 30.2024 57.8864C30.9103 56.8042 31.5599 55.6847 32.1483 54.5328C32.3258 54.1701 32.3564 53.7526 32.2337 53.3677C32.111 52.9829 31.8446 52.6605 31.4901 52.468C30.7634 52.0448 29.8374 52.2045 29.38 52.9311C28.6916 54.0234 28.0286 55.1381 27.4516 56.2847C26.9193 57.3563 27.7305 58.5699 28.9896 58.7201ZM33.9795 54.6654L32.6599 57.1231C33.2161 57.361 33.7197 57.6357 34.2536 57.7922C34.5536 57.8785 34.8748 57.8503 35.1553 57.7132C35.4358 57.5761 35.6557 57.3397 35.7724 57.0496C35.8994 56.7751 35.9222 56.4637 35.8365 56.1735C35.7509 55.8834 35.5626 55.6345 35.307 55.4734C34.8911 55.1796 34.4337 54.9353 33.9795 54.6654Z" fill="#1D4886"></path><path d="M30.3457 0.469238C33.8838 0.473852 37.2762 1.88175 39.7815 4.38521C42.2867 6.88868 43.701 10.2841 43.7154 13.8294C43.7233 21.1882 37.7214 27.2183 30.3712 27.2326C23.021 27.247 17.008 21.2201 17 13.8597C17.0038 10.3126 18.4105 6.91149 20.912 4.40162C23.4135 1.89174 26.8058 0.477688 30.3457 0.469238ZM30.3664 2.14285C28.8206 2.12414 27.2864 2.41299 25.8527 2.99268C24.419 3.57237 23.1144 4.43137 22.0144 5.51991C20.9145 6.60845 20.041 7.90489 19.4446 9.33412C18.8482 10.7634 18.5408 12.297 18.5402 13.8461C18.5396 15.3952 18.8457 16.9291 19.4409 18.3588C20.0361 19.7885 20.9086 21.0857 22.0076 22.1751C23.1067 23.2646 24.4106 24.1246 25.8438 24.7055C27.277 25.2864 28.811 25.5765 30.3569 25.559C36.7795 25.559 42.0499 20.2891 42.0483 13.8501C42.042 10.7474 40.8093 7.77352 38.6199 5.57939C36.4305 3.38526 33.4629 2.1496 30.3664 2.14285Z" fill="#F5A623"></path><path d="M53.496 5.52209C53.4371 6.06186 53.0386 6.24072 52.5223 6.33015C50.7246 6.64954 49.5739 7.70832 49.0257 9.43623C48.9428 9.70132 48.9842 10.0303 48.8408 10.2347C48.6623 10.4982 48.3802 10.7793 48.0902 10.8575C47.6806 10.9677 47.3778 10.6819 47.2614 10.2666C47.2009 10.0574 47.1865 9.83547 47.1387 9.62786C46.7339 7.88079 45.3856 6.63197 43.5529 6.31737C42.8325 6.19441 42.4261 5.7265 42.6843 5.1995C42.7722 5.05446 42.8878 4.92828 43.0246 4.82824C43.1614 4.72819 43.3165 4.65627 43.4812 4.61661C45.5912 4.18384 46.8519 2.95578 47.2057 0.812662C47.2869 0.333575 47.5499 -0.012965 48.0742 0.00140765C48.5603 0.0157803 48.8057 0.320799 48.887 0.799886C49.26 2.95258 50.5216 4.2227 52.6721 4.61023C53.2299 4.71882 53.5088 5.03023 53.496 5.52209ZM46.5188 5.44384L48.0535 6.9849L49.5787 5.44224L48.0583 3.92353L46.5188 5.44384Z" fill="#1D4886"></path><path d="M11.2277 21.5142C10.8006 21.4615 10.4946 21.246 10.4197 20.7876C10.1344 19.0469 9.13354 18.0185 7.39161 17.7199C6.9135 17.6368 6.62504 17.351 6.6346 16.8735C6.64416 16.3545 6.99797 16.107 7.48564 16.0383C7.99286 15.9833 8.4795 15.807 8.90464 15.5244C9.32978 15.2418 9.681 14.8611 9.9288 14.4142C10.147 13.992 10.3043 13.5409 10.3958 13.0743C10.5073 12.6064 10.7288 12.3062 11.2245 12.2998C11.76 12.2998 11.9927 12.6304 12.0851 13.1143C12.4038 14.807 13.2883 15.687 15.0191 16.0431C15.4972 16.1421 15.8351 16.3848 15.816 16.9166C15.8032 17.4149 15.4972 17.6432 15.0191 17.7295C13.3473 18.0377 12.3385 19.007 12.0644 20.719C12.0458 20.931 11.9505 21.1289 11.7964 21.2754C11.6423 21.4219 11.44 21.5069 11.2277 21.5142ZM10.0786 16.8831L11.2133 18.0457L12.3656 16.8671L11.2595 15.7189L10.0786 16.8831Z" fill="#1D4886"></path><path d="M27.8644 13.6841C27.9728 13.4909 28.0429 13.2593 28.1943 13.1076C30.1259 11.1561 32.0559 9.20307 34.0114 7.27554C35.4298 5.87821 37.7327 6.43714 38.2761 8.30718C38.5757 9.33242 38.2921 10.2235 37.5335 10.9773C35.3618 13.1396 33.1959 15.3077 31.0359 17.4817C30.3904 18.1301 29.753 18.788 29.0932 19.4236C27.7289 20.7379 25.8006 20.4952 24.8364 18.871C23.8722 17.2469 22.9128 15.5733 21.9677 13.9093C21.2314 12.6014 21.6203 11.0971 22.849 10.3736C24.0778 9.65022 25.6061 10.0542 26.3934 11.3733C26.8189 12.0872 27.2269 12.8106 27.6429 13.5308L27.8644 13.6841ZM36.8147 8.98429C36.6187 8.72877 36.488 8.40619 36.2617 8.31037C36.0083 8.20338 35.6577 8.25767 35.3708 8.32954C35.2019 8.37106 35.0712 8.57706 34.9309 8.7176L28.4397 15.2188C27.5935 16.0668 27.1472 16.0173 26.5592 14.9936C26.0237 14.0642 25.4993 13.1268 24.9479 12.2069C24.6387 11.6895 24.1208 11.5586 23.673 11.838C23.2602 12.0999 23.1454 12.5934 23.4339 13.0996C24.3657 14.7413 25.3086 16.3771 26.2627 18.0071C26.6643 18.6922 27.3465 18.796 27.9058 18.2402C30.7395 15.42 33.5625 12.5902 36.3748 9.75083C36.5613 9.56877 36.6458 9.28931 36.8147 8.98429Z" fill="#F5A623"></path></svg>