<svg width="50" height="50" viewBox="0 0 50 50" fill="none" xmlns="http://www.w3.org/2000/svg"><path d="M43.0227 42.712H40.0682L39.1439 40.5757C44.8636 39.3939 49.0833 34.3181 49.0833 28.4014C49.0833 24.2802 47.053 20.4696 43.6439 18.1363C43.4394 16.7045 42.5076 15.5075 41.2197 14.962L41.9394 12.3408C42.2955 11.0302 41.5303 9.67416 40.2197 9.3181L39.75 9.18931L40.2727 7.27264L41.1742 7.52264C41.3106 7.56052 41.4545 7.57567 41.5909 7.57567C41.8561 7.57567 42.1212 7.50749 42.3636 7.37113C42.7273 7.16658 42.9848 6.83325 43.0985 6.42416L43.5379 4.8181C43.7652 3.98476 43.2727 3.1287 42.447 2.90143L35.2273 0.909004C34.4015 0.681731 33.5379 1.16658 33.3106 1.99991L32.8712 3.60597C32.7576 4.00749 32.8106 4.43173 33.0227 4.79537C33.2348 5.159 33.5606 5.41658 33.9697 5.53022L34.8712 5.78022L34.3485 7.69688L33.8788 7.5681C32.5682 7.20446 31.2121 7.97719 30.8561 9.28779L26.8864 23.7348C26.553 24.9545 27.2045 26.2045 28.3561 26.6666L28.4167 30.1893C28.4242 30.4848 28.6212 30.7423 28.9015 30.8181L32.6212 31.8408C32.6818 31.856 32.7348 31.8636 32.7955 31.8636C33.0227 31.8636 33.2348 31.7499 33.3561 31.5454L35.2045 28.5605C35.3333 28.5833 35.4697 28.5984 35.5985 28.5984C36.6818 28.5984 37.6742 27.8787 37.9697 26.7878L39.0833 22.7272C39.2652 22.7499 39.4394 22.7802 39.6288 22.7802C40.2652 22.7802 40.8561 22.6211 41.3939 22.3636C43.2424 23.8257 44.3485 26.0529 44.3485 28.409C44.3485 32.4393 41.1818 35.7954 37.2045 36.0908L36.7424 35.0226C36.6364 34.7802 36.4015 34.6211 36.1364 34.6211H27.697C27.4318 34.6211 27.1894 34.7802 27.0909 35.0226L26.6136 36.1287H22.2424C20.9394 36.1287 19.8788 37.1893 19.8788 38.4923C19.8788 39.7954 20.9394 40.856 22.2424 40.856H24.5758L23.7727 42.7196H20.8182C18.5758 42.7196 16.75 44.5454 16.75 46.7878V48.4848C16.75 48.8484 17.0455 49.1514 17.4167 49.1514H46.4545C46.8182 49.1514 47.1212 48.856 47.1212 48.4848V46.7802C47.0985 44.5378 45.2727 42.712 43.0227 42.712ZM34.1667 4.13628C34.1515 4.10597 34.1212 4.03779 34.1439 3.95446L34.5833 2.3484C34.6136 2.24234 34.7045 2.17416 34.8106 2.17416C34.8333 2.17416 34.8561 2.17416 34.8712 2.18173L42.0909 4.16658C42.2197 4.20446 42.2879 4.33325 42.2576 4.45446L41.8182 6.0681C41.7955 6.15143 41.7424 6.18931 41.7045 6.21203C41.6742 6.22719 41.6061 6.25749 41.5227 6.23476L34.303 4.24991C34.2273 4.22719 34.1894 4.17416 34.1667 4.13628ZM35.6136 8.04537L36.1364 6.1287L37.3561 6.46203L38.9924 6.909L38.4697 8.82567L37.2348 8.48476L35.6136 8.04537ZM32.4848 30.4166L29.7197 29.659L29.6742 27.0529L31.7652 27.6287L33.8561 28.2045L32.4848 30.4166ZM36.6894 26.4242C36.5227 27.0302 35.8939 27.3787 35.2955 27.2196L35.0682 27.159L31.6591 26.2196L28.947 25.4772C28.3409 25.3105 27.9848 24.6817 28.1515 24.0832L32.1212 9.63628C32.2879 9.03022 32.9167 8.67416 33.5152 8.84082L38.0606 10.0908L38.7576 10.2802L39.8636 10.5832C40.4697 10.7499 40.8258 11.3787 40.6591 11.9772L39.9242 14.659C39.8258 14.6514 39.7348 14.6287 39.6288 14.6287C37.3864 14.6287 35.5606 16.4545 35.5606 18.6969C35.5606 20.2878 36.4848 21.6514 37.8182 22.3257L36.6894 26.4242ZM38.803 21.3029C38.7955 21.3029 38.7955 21.2954 38.7879 21.2954H38.7803C37.6818 20.9317 36.8864 19.9166 36.8864 18.6969C36.8864 17.1817 38.1212 15.9545 39.6288 15.9545C39.8333 15.9545 40.0303 15.9772 40.2197 16.0226C40.2273 16.0226 40.2273 16.0302 40.2273 16.0302H40.2348C41.4545 16.3105 42.3636 17.4014 42.3636 18.6969C42.3636 19.659 41.8636 20.4999 41.1136 20.9923C41.1061 20.9923 41.1061 20.9999 41.0985 20.9999C40.6667 21.2802 40.1591 21.4393 39.6136 21.4393C39.3409 21.4469 39.0606 21.3863 38.803 21.3029ZM45.6742 28.3939C45.6742 25.7651 44.5076 23.2726 42.5227 21.5605C43.0227 21.0529 43.3788 20.4166 43.5606 19.712C46.2045 21.8181 47.7576 24.9848 47.7576 28.3939C47.7576 33.7726 43.8561 38.3711 38.6061 39.3181L37.7576 37.356C42.2045 36.8029 45.6742 32.9696 45.6742 28.3939ZM22.2348 39.5226C21.6591 39.5226 21.197 39.0529 21.197 38.4848C21.197 37.9166 21.6667 37.4469 22.2348 37.4469H26.0379L25.1364 39.5302H22.2348V39.5226ZM26.1818 40.4469L27.6515 37.0378L28.1288 35.9393H35.6894L36.1667 37.0454L38.6136 42.7196H25.2045L26.1818 40.4469ZM45.7727 47.8181H18.0606V46.7802C18.0606 45.2651 19.2955 44.0378 20.803 44.0378H24.1894C24.1894 44.0378 24.1894 44.0378 24.197 44.0378H43.0303C44.5455 44.0378 45.7727 45.2726 45.7727 46.7802V47.8181Z" fill="#F5A623"></path><path d="M39.6287 17.9473C39.212 17.9473 38.8711 18.2882 38.8711 18.7048C38.8711 19.1215 39.212 19.4624 39.6287 19.4624C40.0453 19.4624 40.3862 19.1215 40.3862 18.7048C40.3862 18.2882 40.0529 17.9473 39.6287 17.9473Z" fill="#F5A623"></path><path d="M24.5152 25.1742C25.0227 24.2348 24.9697 23.1439 24.3864 22.2575L21.2576 17.5075L16.2424 9.90144V6.07568H16.8409C17.5303 6.07568 18.0833 5.51508 18.0833 4.83326V2.81811C18.0833 2.12871 17.5227 1.57568 16.8409 1.57568H8.93941C8.25002 1.57568 7.69699 2.13629 7.69699 2.81811V4.82568C7.69699 5.51508 8.25759 6.06811 8.93941 6.06811H9.5379V9.89387L3.8182 18.5757L1.39396 22.2575C0.803046 23.1439 0.757592 24.2348 1.26517 25.1742C1.77274 26.1136 2.70456 26.6742 3.77274 26.6742H22.0152C23.0758 26.6666 24.0076 26.106 24.5152 25.1742ZM9.02274 2.90144H16.7576V4.74993H15.6667C15.6364 4.74235 15.6137 4.73477 15.5833 4.73477H10.2046C10.1743 4.73477 10.1515 4.74993 10.1212 4.74993H9.03032V2.90144H9.02274ZM10.7576 10.462C10.8258 10.356 10.8637 10.2272 10.8637 10.0984V6.07568H14.9167V10.0984C14.9167 10.2272 14.9546 10.356 15.0227 10.462L19.1137 16.6742C18.5682 16.5757 17.9924 16.5151 17.3561 16.5151C14.894 16.5151 13.6515 17.2575 12.4546 17.9772C11.3637 18.6287 10.3333 19.2499 8.24244 19.2499C6.97729 19.2499 6.10608 19.0302 5.33335 18.6893L10.7576 10.462ZM2.43183 24.5454C2.15911 24.0454 2.18941 23.462 2.50002 22.9848L4.5985 19.803C5.48486 20.2272 6.58335 20.5681 8.24244 20.5681C10.7046 20.5681 11.9394 19.8257 13.1364 19.1136C14.2273 18.462 15.2576 17.8408 17.3561 17.8408C18.7576 17.8408 19.6364 18.1211 20.25 18.3939L23.2727 22.9848C23.5833 23.462 23.6137 24.0454 23.3409 24.5454C23.0682 25.0454 22.5682 25.3484 22 25.3484H3.76517C3.19699 25.3408 2.69699 25.0454 2.43183 24.5454Z" fill="#F5A623"></path></svg>