<svg xmlns="http://www.w3.org/2000/svg" xmlns:xlink="http://www.w3.org/1999/xlink" viewBox="0 0 231.62 30.61"><defs><style>.cls-1{fill:#283b91;}.cls-2{fill:url(#linear-gradient);}</style><linearGradient id="linear-gradient" x1="34.05" x2="34.05" y2="30.61" gradientUnits="userSpaceOnUse"><stop offset="0" stop-color="#1176bc"/><stop offset="1" stop-color="#283b91"/></linearGradient></defs><title>logobold_hor_svg</title><g id="Layer_2" data-name="Layer 2"><g id="Layer_1-2" data-name="Layer 1"><path class="cls-1" d="M107,13.66l.05-.06.09-.05a8.15,8.15,0,0,1,3.41-.69,4,4,0,0,1,1.15.2,2.38,2.38,0,0,1,1.54,1.51,4,4,0,0,1,.23,1.18c0,.22,0,.44,0,.65q0,4.11,0,8.22a2.81,2.81,0,0,0,0,.41.4.4,0,0,0,.38.38,1.5,1.5,0,0,0,.27,0h1.2c.39,0,.55-.18.57-.58,0-.11,0-.23,0-.34q0-4.09,0-8.18a11.25,11.25,0,0,0-.06-1.41,6.19,6.19,0,0,0-.46-1.75,3.92,3.92,0,0,0-2.09-2.08,6.1,6.1,0,0,0-2.07-.46,11,11,0,0,0-2.94.23,15.5,15.5,0,0,0-2.33.69c-.34.13-.27.15-.59-.08a4.38,4.38,0,0,0-1.24-.59,6.39,6.39,0,0,0-1.62-.27,12.71,12.71,0,0,0-2.33.12,11,11,0,0,0-2.93.83,3.09,3.09,0,0,0-.45.25,1,1,0,0,0-.46.73,4.52,4.52,0,0,0,0,.58q0,5.76,0,11.52a2,2,0,0,0,0,.27.5.5,0,0,0,.54.5h1.48a.41.41,0,0,0,.4-.43c0-.14,0-.27,0-.41q0-5.12,0-10.25c0-.1,0-.21,0-.31a.71.71,0,0,1,.57-.79,7.56,7.56,0,0,1,2.81-.36,3.77,3.77,0,0,1,1,.2,2.43,2.43,0,0,1,1.55,1.54c0,.1.06.2.09.3a5,5,0,0,1,.14,1.26q0,4.18,0,8.35c0,.13,0,.25,0,.38,0,.38.15.51.53.53h1.38a.5.5,0,0,0,.53-.52c0-.11,0-.23,0-.34q0-4.21,0-8.42c0-.16,0-.32,0-.48a5.67,5.67,0,0,0-.34-1.85C107,13.76,107,13.7,107,13.66Zm63.88-2.49c0-.15,0-.27,0-.39q0-2.61,0-5.23a2.78,2.78,0,0,0,0-.38.44.44,0,0,0-.4-.41h-1.61a.41.41,0,0,0-.37.35,2.62,2.62,0,0,0,0,.41c0,.49,0,1,0,1.48q0,8.73,0,17.47c0,.14,0,.28,0,.41,0,.39.18.52.57.55h1.41a.47.47,0,0,0,.45-.48c0-.14,0-.27,0-.41q0-5.28,0-10.56c0-.15,0-.3,0-.45a2.08,2.08,0,0,1,.25-.13c.27-.09.54-.19.81-.27a7.16,7.16,0,0,1,1.56-.24c.48,0,1,0,1.44,0a4,4,0,0,1,1.11.2,2.64,2.64,0,0,1,1.84,2,4.89,4.89,0,0,1,.14,1.23q0,3.32,0,6.64c0,.63,0,1.26,0,1.89s.14.64.63.64h1.17l.27,0a.4.4,0,0,0,.34-.34,2.32,2.32,0,0,0,0-.41q0-4.26,0-8.53a8.83,8.83,0,0,0-.13-1.54,5.65,5.65,0,0,0-.29-1.06A4.19,4.19,0,0,0,177.35,11a7.12,7.12,0,0,0-2-.34,16,16,0,0,0-2,0,7.82,7.82,0,0,0-2.24.47A1.19,1.19,0,0,1,170.9,11.17Zm-37.08,7.54q0,2.89,0,5.78c0,.14,0,.28,0,.41,0,.37.17.51.54.53h1.24l.31,0a.37.37,0,0,0,.32-.35c0-.15,0-.3,0-.45q0-1.93,0-3.85,0-3.25,0-6.5a4.07,4.07,0,0,1,0-.45.54.54,0,0,1,.37-.46l.2-.06a11.34,11.34,0,0,1,3-.43h1a1.89,1.89,0,0,0,.31,0,.44.44,0,0,0,.38-.39,1,1,0,0,0,0-.17q0-.55,0-1.1a1,1,0,0,0,0-.17.43.43,0,0,0-.35-.37,1.67,1.67,0,0,0-.31,0,19.64,19.64,0,0,0-3.43.21,12.44,12.44,0,0,0-2.46.63,4,4,0,0,0-.59.28,1,1,0,0,0-.53.87c0,.21,0,.41,0,.62Q133.82,16,133.82,18.71Zm65.28-.49q0,3.2,0,6.39a3.81,3.81,0,0,0,0,.45.36.36,0,0,0,.3.33,1.58,1.58,0,0,0,.31,0h1.41a.43.43,0,0,0,.42-.45c0-.11,0-.23,0-.34q0-6.39,0-12.79c0-.08,0-.16,0-.24,0-.43-.15-.57-.59-.57h-1.27l-.24,0a.39.39,0,0,0-.35.37,4,4,0,0,0,0,.45Q199.09,15,199.09,18.21ZM200.34,5.7c-.23,0-.46,0-.68.08a.83.83,0,0,0-.69.75,3.76,3.76,0,0,0,0,1.26.81.81,0,0,0,.7.74,3.32,3.32,0,0,0,1.33,0,.81.81,0,0,0,.69-.71,4,4,0,0,0,0-1.33.78.78,0,0,0-.66-.7C200.8,5.74,200.57,5.72,200.34,5.7Z"/><path class="cls-1" d="M224.54,25.86a2.54,2.54,0,0,0-.33-.07,7.19,7.19,0,0,1-1.77-.39,4.77,4.77,0,0,1-3.17-3.52,6.83,6.83,0,0,1-.21-1.67c0-1.28,0-2.57,0-3.85a7,7,0,0,1,.33-2.1,4.84,4.84,0,0,1,3-3.18,7.37,7.37,0,0,1,1.83-.43,10.22,10.22,0,0,1,1.68,0,7.43,7.43,0,0,1,2.57.55,4.94,4.94,0,0,1,3,3.55c0,.12,0,.25.06.37a1,1,0,0,0,.08.18v3.16s-.06,0-.07.07a.64.64,0,0,1-.52.4,3.36,3.36,0,0,1-.58.05h-8.73l-.21,0c0,.11,0,.2,0,.29,0,.34,0,.69,0,1a5.84,5.84,0,0,0,.07.82,2.8,2.8,0,0,0,1.77,2.23,3.69,3.69,0,0,0,.52.17,6.19,6.19,0,0,0,2.52.07,3.83,3.83,0,0,0,2.77-1.77,1.88,1.88,0,0,1,.26-.32.5.5,0,0,1,.63-.11l1.06.56.11.08a.52.52,0,0,1,.19.55,1.52,1.52,0,0,1-.16.38,5.22,5.22,0,0,1-2.87,2.38,7.89,7.89,0,0,1-2,.43.5.5,0,0,0-.33.08ZM229.19,17a6.24,6.24,0,0,0,0-1.61A3,3,0,0,0,227,12.93l-.3-.08A6.07,6.07,0,0,0,225,12.7a4.32,4.32,0,0,0-1.08.17,3.05,3.05,0,0,0-2.35,2.62,8.45,8.45,0,0,0-.05,1.44.35.35,0,0,0,0,.11c.36,0,5.61.07,7.39,0Z"/><path class="cls-1" d="M123.79,25.86a1,1,0,0,0-.44-.08,9.52,9.52,0,0,1-1.83-.28c-.19,0-.37-.11-.56-.17a3.3,3.3,0,0,1-2.18-2.42,5.32,5.32,0,0,1-.16-1.26,6.78,6.78,0,0,1,.15-1.74,3.14,3.14,0,0,1,1.83-2.22,6.65,6.65,0,0,1,1.68-.48,14.59,14.59,0,0,1,2.36-.17,23.08,23.08,0,0,1,3,.15l.35,0a.85.85,0,0,0,0-.18,12.08,12.08,0,0,0-.05-1.72,4.08,4.08,0,0,0-.19-.8,2.34,2.34,0,0,0-1.45-1.46,4.52,4.52,0,0,0-1.28-.25,5.34,5.34,0,0,0-1.9.19,3.34,3.34,0,0,0-1.88,1.36c-.1.14-.2.28-.31.41a.38.38,0,0,1-.4.14,1.7,1.7,0,0,1-.33-.1l-.88-.39-.12-.06a.51.51,0,0,1-.24-.67,2.08,2.08,0,0,1,.15-.31,5,5,0,0,1,3-2.42,7.56,7.56,0,0,1,1.82-.33,9.65,9.65,0,0,1,2.8.18,5.87,5.87,0,0,1,1,.33,4.1,4.1,0,0,1,2.3,2.42,6.9,6.9,0,0,1,.4,2c0,.24,0,.48,0,.72q0,3.56,0,7.12c0,.14,0,.27,0,.41a1.23,1.23,0,0,1-.8,1.21,7.68,7.68,0,0,1-1.43.47,12.44,12.44,0,0,1-2.11.29.77.77,0,0,0-.4.07ZM128,19.28l-.21,0-1-.08A21.38,21.38,0,0,0,124,19a8,8,0,0,0-.89.08,3.45,3.45,0,0,0-1,.3,1.75,1.75,0,0,0-1,1.25,3.63,3.63,0,0,0,0,1.2,1.84,1.84,0,0,0,1.37,1.66,4.6,4.6,0,0,0,.94.19,14.73,14.73,0,0,0,3.29-.08,5,5,0,0,0,.8-.18.65.65,0,0,0,.54-.73c0-1.08,0-2.15,0-3.23A1.73,1.73,0,0,0,128,19.28Z"/><path class="cls-1" d="M189.05,25.86a3.35,3.35,0,0,0-.37-.08,7.52,7.52,0,0,1-2.1-.5,5.23,5.23,0,0,1-1.33-.77,4.61,4.61,0,0,1-1.69-2.94,6.29,6.29,0,0,1-.08-1c0-1.57,0-3.14,0-4.71a5.62,5.62,0,0,1,.25-1.69,4.65,4.65,0,0,1,2.65-2.94,7.25,7.25,0,0,1,2.18-.57,10.31,10.31,0,0,1,1.71-.05,7.92,7.92,0,0,1,2.68.55,4.72,4.72,0,0,1,2.44,2.12,5.1,5.1,0,0,1,.59,2c0,.24,0,.48,0,.72q0,2.2,0,4.4a6.14,6.14,0,0,1-.23,1.8,4.53,4.53,0,0,1-2,2.63,6.43,6.43,0,0,1-2.38.84l-.68.08a2.26,2.26,0,0,0-.26.07Zm4.53-7.63h0c0-.69,0-1.37,0-2.06a6.34,6.34,0,0,0,0-.72,2.65,2.65,0,0,0-1-1.79,3.23,3.23,0,0,0-1.15-.6,6.08,6.08,0,0,0-3-.09,3.53,3.53,0,0,0-1.26.52A2.68,2.68,0,0,0,186,15a3.14,3.14,0,0,0-.11.85q0,2.34,0,4.67c0,.1,0,.21,0,.31a2.71,2.71,0,0,0,1.14,2,3.54,3.54,0,0,0,1.28.56,6.23,6.23,0,0,0,2.52,0,3.73,3.73,0,0,0,1.4-.54,2.67,2.67,0,0,0,1.19-1.66,4,4,0,0,0,.1-.92C193.58,19.67,193.58,19,193.58,18.23Z"/><path class="cls-1" d="M87.28,25.86a1,1,0,0,0-.43-.08,7.49,7.49,0,0,1-2.26-.55,4.79,4.79,0,0,1-2.67-2.81c-.18-.48-.08-.7.4-.87l.81-.28.13,0a.63.63,0,0,1,.87.38l.06.12a2.92,2.92,0,0,0,1.68,1.58,5,5,0,0,0,1.34.3,9,9,0,0,0,1.68,0A5,5,0,0,0,90,23.38a3.19,3.19,0,0,0,.38-.15,1.87,1.87,0,0,0,1.09-2.06,1.63,1.63,0,0,0-1.07-1.4,4.6,4.6,0,0,0-1.09-.31q-.87-.13-1.74-.22a12.23,12.23,0,0,1-3.18-.68,3.55,3.55,0,0,1-1.13-.64,3.38,3.38,0,0,1-1-1.52,4.75,4.75,0,0,1-.07-2.74,3.58,3.58,0,0,1,1.52-2.09,5.3,5.3,0,0,1,1.83-.75,10.21,10.21,0,0,1,3.14-.17,7.75,7.75,0,0,1,2,.44,4.72,4.72,0,0,1,2.68,2.39l.09.19a.6.6,0,0,1-.32.88l-.06,0-1,.4-.23.07a.38.38,0,0,1-.4-.14l-.13-.16a2,2,0,0,1-.12-.21,3,3,0,0,0-2.36-1.63,7.94,7.94,0,0,0-2.43,0,3.24,3.24,0,0,0-1,.3,1.67,1.67,0,0,0-1,1.6,3.52,3.52,0,0,0,0,.61,1.49,1.49,0,0,0,.82,1.08,3.81,3.81,0,0,0,1,.34,15.82,15.82,0,0,0,1.67.22,14.79,14.79,0,0,1,3,.54,7.06,7.06,0,0,1,1.08.43,2.78,2.78,0,0,1,1.49,1.83,5.24,5.24,0,0,1,0,2.72,3.72,3.72,0,0,1-1.58,2.22,5.54,5.54,0,0,1-2,.82c-.35.07-.7.1-1.05.16a2.27,2.27,0,0,0-.26.07Z"/><path class="cls-1" d="M210,25.86a.45.45,0,0,0-.29-.08,7,7,0,0,1-1.71-.36,4.65,4.65,0,0,1-2.42-1.78,5.13,5.13,0,0,1-.78-1.93,7.23,7.23,0,0,1-.14-1.4c0-1.41,0-2.82,0-4.23a6.45,6.45,0,0,1,.38-2.22,4.49,4.49,0,0,1,2.22-2.51,6.57,6.57,0,0,1,1.89-.61,10.28,10.28,0,0,1,2.4-.13,7.44,7.44,0,0,1,2.28.46,4.71,4.71,0,0,1,2.7,2.55,6.48,6.48,0,0,1,.3.8.57.57,0,0,1-.39.79c-.41.15-.83.27-1.24.4a.48.48,0,0,1-.55-.18,1.39,1.39,0,0,1-.17-.3c-.05-.11-.09-.24-.14-.35a3,3,0,0,0-2-1.81,5.38,5.38,0,0,0-3.12,0,2.81,2.81,0,0,0-2.07,2.59c0,.28,0,.57,0,.86,0,1.24,0,2.48,0,3.71a5.62,5.62,0,0,0,.06.92,2.84,2.84,0,0,0,2.19,2.42,5.31,5.31,0,0,0,2.82,0,3.12,3.12,0,0,0,2.11-1.82c.07-.16.12-.32.19-.48.18-.4.32-.61.88-.42.3.1.62.17.92.27a1.36,1.36,0,0,1,.39.2.52.52,0,0,1,.2.58,2.82,2.82,0,0,1-.1.29,5.33,5.33,0,0,1-4.08,3.51c-.32.07-.66.1-1,.15l-.3.07Z"/><path class="cls-1" d="M158.86,25.86a2.48,2.48,0,0,0-.33-.07,7.15,7.15,0,0,1-1.71-.36,4.62,4.62,0,0,1-3.17-3.58,7,7,0,0,1-.16-1.53q0-2.11,0-4.23a6.54,6.54,0,0,1,.28-1.93,4.55,4.55,0,0,1,2.6-2.94,7.19,7.19,0,0,1,2-.54,10.46,10.46,0,0,1,1.92-.07,7.55,7.55,0,0,1,2.35.46,4.86,4.86,0,0,1,3,3.28,1.09,1.09,0,0,1,0,.13.57.57,0,0,1-.38.72,3.58,3.58,0,0,1-.36.12l-.88.28a.51.51,0,0,1-.62-.23,1.2,1.2,0,0,1-.1-.18c0-.06-.05-.13-.07-.19a3.13,3.13,0,0,0-2.51-2.15,5.64,5.64,0,0,0-2.42,0,3.86,3.86,0,0,0-.46.14A2.76,2.76,0,0,0,156,15.24a4.4,4.4,0,0,0-.08.82c0,1.43,0,2.86,0,4.3a4.08,4.08,0,0,0,.13,1,2.8,2.8,0,0,0,1.83,2,4.31,4.31,0,0,0,1.14.25,5.45,5.45,0,0,0,2-.16,3.14,3.14,0,0,0,2.07-1.78c.08-.17.14-.34.21-.51.17-.4.33-.61.88-.42.26.09.53.15.79.23a2.06,2.06,0,0,1,.35.13.61.61,0,0,1,.34.8,4.44,4.44,0,0,1-.19.48,5.3,5.3,0,0,1-2,2.45,5.74,5.74,0,0,1-1.94.77c-.32.07-.66.1-1,.15a2.29,2.29,0,0,0-.26.07Z"/><path class="cls-1" d="M150.06,25.86a1,1,0,0,0-.47-.08,7.26,7.26,0,0,1-1.82-.34,5,5,0,0,1-.54-.22,3.31,3.31,0,0,1-1.63-1.65,6.18,6.18,0,0,1-.48-1.68,13.35,13.35,0,0,1-.14-2q0-3.06,0-6.12a1,1,0,0,0,0-.4.59.59,0,0,0-.37-.06H142.8a2.77,2.77,0,0,1-.38,0,.44.44,0,0,1-.4-.37.63.63,0,0,1,0-.14c0-.41,0-.83,0-1.24s.17-.48.52-.5h2.4a.62.62,0,0,0,.06-.38c0-.73,0-1.47,0-2.2a2.33,2.33,0,0,1,0-.34.43.43,0,0,1,.43-.42h1.37c.46,0,.62.16.63.62,0,.77,0,1.54,0,2.3,0,.12,0,.25,0,.36a.5.5,0,0,0,.38.07h3.44a.46.46,0,0,1,.47.42.83.83,0,0,1,0,.17c0,.36,0,.71,0,1.07a.82.82,0,0,1,0,.14c-.06.32-.18.44-.5.46h-3.37a.77.77,0,0,0-.42.06c0,.08,0,.17,0,.26q0,3.27,0,6.53a6.16,6.16,0,0,0,.19,1.56l0,.1a2,2,0,0,0,1.42,1.45,5,5,0,0,0,1.08.21l1,.05h.17a.41.41,0,0,1,.41.38.32.32,0,0,1,0,.07c0,.45,0,.89,0,1.34a.46.46,0,0,1-.42.47.62.62,0,0,0-.15.07Z"/><path class="cls-2" d="M29.08,6.23l6.24-2.29,6.24-2.28s0,0,0,.05L28.9,14.28a.32.32,0,0,1-.16-.12l-1.31-1.29c-.85-.83-1.7-1.66-2.59-2.45a24.9,24.9,0,0,0-2.67-2.08,14.6,14.6,0,0,0-2.7-1.43,11,11,0,0,0-2.23-.62,9.58,9.58,0,0,0-1.74-.12A8.89,8.89,0,0,0,9.33,8.68a9.13,9.13,0,0,0-2.8,5.69,9.4,9.4,0,0,0,0,1.73,9.73,9.73,0,0,0,.82,3.3A8.39,8.39,0,0,0,13,24.14a9.51,9.51,0,0,0,1.6.26,9.7,9.7,0,0,0,1.28,0,10.85,10.85,0,0,0,2.41-.4,14.29,14.29,0,0,0,3.29-1.43,22.94,22.94,0,0,0,3-2.08,41.07,41.07,0,0,0,3.07-2.8c1-1,2-2,3-3,1.61-1.64,3.21-3.31,4.85-4.93,1.05-1,2.11-2.08,3.21-3.08a37.49,37.49,0,0,1,3.63-2.93,23.52,23.52,0,0,1,3.33-2,18.1,18.1,0,0,1,4-1.39A13.5,13.5,0,0,1,51,.14l.91-.1h.36a12.68,12.68,0,0,1,1.44,0c.3,0,.6,0,.9.06l.45,0A14.5,14.5,0,0,1,62,2.69a13.76,13.76,0,0,1,4,4.47,15.3,15.3,0,0,1,1.68,4.44q.16.77.25,1.54c.05.47.1.93.11,1.4,0,.24,0,.48,0,.72,0,.44,0,.89-.06,1.33a14.43,14.43,0,0,1-.25,1.74,14.75,14.75,0,0,1-2,4.94,15.31,15.31,0,0,1-8.66,6.64,14.87,14.87,0,0,1-2.32.52c-.46.07-.92.11-1.38.15a16.46,16.46,0,0,1-1.78,0,13,13,0,0,1-1.33-.13,15.11,15.11,0,0,1-2.59-.61,18.49,18.49,0,0,1-3.48-1.58A27.55,27.55,0,0,1,40.94,26c-.6-.48-1.19-1-1.76-1.48L39,24.39a.46.46,0,0,0-.21.06l-5.54,2-6.67,2.45a.73.73,0,0,1-.18,0l.11-.11L39.18,16.32c.08,0,.11.05.15.09l1.12,1.1c.8.79,1.6,1.57,2.44,2.32a27.77,27.77,0,0,0,2.62,2.12,15.36,15.36,0,0,0,2.91,1.64,11,11,0,0,0,2.27.68,9.65,9.65,0,0,0,2.31.15,9.09,9.09,0,0,0,7.61-5,9.16,9.16,0,0,0,1-4.72,9.45,9.45,0,0,0-1.07-4,8.3,8.3,0,0,0-5.09-4.17,9.28,9.28,0,0,0-1.57-.32,9.51,9.51,0,0,0-1.11,0,9,9,0,0,0-1.06.05,11.58,11.58,0,0,0-2.45.55,15.26,15.26,0,0,0-3.09,1.49,24.59,24.59,0,0,0-2.91,2.14c-1,.83-1.93,1.71-2.84,2.63-1.16,1.17-2.31,2.36-3.47,3.54s-2.56,2.62-3.85,3.92-2.47,2.46-3.76,3.62A36.45,36.45,0,0,1,25.73,27a22.84,22.84,0,0,1-3.54,2,17.87,17.87,0,0,1-3.84,1.26c-.49.1-1,.17-1.49.23a16.9,16.9,0,0,1-2.75.09A15.11,15.11,0,0,1,7.79,29a13.78,13.78,0,0,1-5.65-5.37,15.17,15.17,0,0,1-1.7-4.34,17,17,0,0,1-.31-1.81c0-.35-.06-.69-.09-1s0-.9,0-1.35,0-.78.07-1.17a14.56,14.56,0,0,1,.66-3.2A15.37,15.37,0,0,1,8.93,1.46,15.58,15.58,0,0,1,12.08.4c.44-.1.89-.18,1.34-.24.27,0,.55-.06.82-.08A14.72,14.72,0,0,1,16.17,0c.28,0,.56,0,.84.06l.68.08a12.38,12.38,0,0,1,1.45.27,17.15,17.15,0,0,1,4,1.57A26.16,26.16,0,0,1,27,4.5c.64.5,1.27,1,1.88,1.57A.72.72,0,0,0,29.08,6.23Z"/></g></g></svg>