<svg width="209" height="57" viewBox="0 0 209 57" fill="none" xmlns="http://www.w3.org/2000/svg">
<path d="M10 0.5H199C204.247 0.5 208.5 4.7533 208.5 10V47C208.5 52.2467 204.247 56.5 199 56.5H10C4.7533 56.5 0.5 52.2467 0.5 47V10C0.5 4.7533 4.7533 0.500001 10 0.5Z" fill="black" stroke="white"/>
<g clip-path="url(#clip0_1931_1311)">
<path d="M18.7375 12.0001C18.268 12.1527 17.7978 12.3036 17.3292 12.4602C17.2705 12.4849 17.2145 12.5152 17.1621 12.5506L32.8247 27.6904L39.1787 22.0236L36.8466 20.7764C31.7741 18.0705 26.6995 15.3687 21.6226 12.6709C21.0587 12.3722 20.4122 12.2205 19.805 12.0001H18.7375Z" fill="white"/>
<path d="M15.6085 43.0352L31.1741 29.1595L15.5492 14.0649C15.2334 14.5371 15.0839 15.0772 15.0238 15.6431C15.0059 15.825 14.9981 16.0077 15.0004 16.1904C15.0004 24.3968 15.0004 32.6035 15.0004 40.8104C15.0004 41.5878 15.1541 42.3199 15.6085 43.0352Z" fill="white"/>
<path d="M17.1641 44.4567C18.2449 45.0073 19.3358 45.1574 20.4727 44.824C20.8534 44.7094 21.2209 44.5571 21.5694 44.3696C26.9153 41.5254 32.2611 38.6766 37.607 35.8233C37.7114 35.7676 37.8125 35.7046 37.8851 35.6618L32.6813 30.6255L17.1641 44.4567Z" fill="white"/>
<path d="M34.2949 29.1863C34.3785 29.2767 34.4453 29.3477 34.5146 29.4155C36.2286 31.0709 37.9415 32.7274 39.6533 34.3849C39.8154 34.5464 39.9315 34.5916 40.1545 34.4697C41.6831 33.6382 43.225 32.831 44.7569 32.0044C46.2889 31.1777 47.0958 29.9402 46.9897 28.237C46.9011 26.7839 46.0951 25.7289 44.7962 25.0242C43.6535 24.405 42.5017 23.802 41.3573 23.1853C41.2128 23.1045 41.1184 23.0932 40.9839 23.2135C38.7679 25.1985 36.5452 27.1787 34.2949 29.1863Z" fill="white"/>
</g>
<rect x="0.5" y="-0.5" width="31" height="32" transform="matrix(1 0 0 -1 15 44)" stroke="black"/>
<mask id="path-8-outside-1_1931_1311" maskUnits="userSpaceOnUse" x="60.8828" y="9" width="114" height="14" fill="black">
<rect fill="white" x="60.8828" y="9" width="114" height="14"/>
<path d="M65.6487 21H62.1209V11.1621H65.7818C67.1796 11.1621 68.2713 11.6014 69.0833 12.4933C69.8954 13.3852 70.3081 14.5834 70.3081 16.101C70.3081 17.6053 69.8954 18.8034 69.0567 19.6821C68.2313 20.5607 67.0998 21 65.6487 21ZM63.4521 12.4267V19.7353H65.7019C66.7137 19.7353 67.4991 19.3892 68.0716 18.7102C68.644 18.018 68.9236 17.1394 68.9236 16.0611C68.9236 14.9961 68.644 14.1307 68.0716 13.4518C67.4991 12.7729 66.7137 12.4267 65.7019 12.4267H63.4521ZM75.2711 21.1731C74.1795 21.1731 73.2743 20.8136 72.5687 20.0947C71.8631 19.3626 71.517 18.4706 71.517 17.4189C71.517 16.3672 71.8631 15.4886 72.5687 14.7697C73.2743 14.0376 74.1795 13.6781 75.2711 13.6781C76.3494 13.6781 77.2414 14.0376 77.9469 14.7697C78.6525 15.5019 79.0119 16.3806 79.0119 17.4189C79.0119 18.4706 78.6525 19.3626 77.9469 20.0947C77.2414 20.8136 76.3494 21.1731 75.2711 21.1731ZM77.7339 17.4189C77.7339 16.7134 77.4943 16.1143 77.0151 15.6217C76.5358 15.1159 75.9501 14.8629 75.2711 14.8629C74.5922 14.8629 74.0064 15.1159 73.5272 15.6217C73.0479 16.1143 72.8083 16.7134 72.8083 17.4189C72.8083 18.1245 73.0479 18.7369 73.5272 19.2428C74.0064 19.7486 74.5922 20.0016 75.2711 20.0016C75.9501 20.0016 76.5358 19.7486 77.0151 19.2428C77.4943 18.7369 77.7339 18.1245 77.7339 17.4189ZM83.0431 20.9867H81.9914L79.5419 13.8645H80.8865L82.5772 19.2161L84.5208 13.8645H85.4128L87.4363 19.2161L89.0604 13.8645H90.3916L88.0087 20.9867H86.9437L84.9734 15.6484L83.0431 20.9867ZM92.8391 21H91.5611V13.8645H92.8124V14.8762C93.2651 14.0775 94.0239 13.6781 95.0756 13.6781C95.8743 13.6781 96.5399 13.9311 97.0857 14.4502C97.6316 14.9694 97.8978 15.7016 97.8978 16.6734V21H96.6331V17.0329C96.6331 15.6484 95.8876 14.8629 94.8093 14.8629C94.2369 14.8629 93.7576 15.0626 93.3849 15.4753C93.0254 15.888 92.8391 16.4072 92.8391 17.0462V21ZM101.068 10.9224V21H99.7904V10.9224H101.068ZM106.368 21.1731C105.277 21.1731 104.371 20.8136 103.666 20.0947C102.96 19.3626 102.614 18.4706 102.614 17.4189C102.614 16.3672 102.96 15.4886 103.666 14.7697C104.371 14.0376 105.277 13.6781 106.368 13.6781C107.447 13.6781 108.339 14.0376 109.044 14.7697C109.75 15.5019 110.109 16.3806 110.109 17.4189C110.109 18.4706 109.75 19.3626 109.044 20.0947C108.339 20.8136 107.447 21.1731 106.368 21.1731ZM108.831 17.4189C108.831 16.7134 108.591 16.1143 108.112 15.6217C107.633 15.1159 107.047 14.8629 106.368 14.8629C105.689 14.8629 105.104 15.1159 104.624 15.6217C104.145 16.1143 103.905 16.7134 103.905 17.4189C103.905 18.1245 104.145 18.7369 104.624 19.2428C105.104 19.7486 105.689 20.0016 106.368 20.0016C107.047 20.0016 107.633 19.7486 108.112 19.2428C108.591 18.7369 108.831 18.1245 108.831 17.4189ZM117.278 14.9029V13.8645H118.503V21H117.278V19.9882C116.639 20.7737 115.801 21.1731 114.762 21.1731C113.737 21.1731 112.885 20.8136 112.206 20.0814C111.527 19.3492 111.194 18.4573 111.194 17.379C111.194 16.314 111.527 15.4354 112.206 14.7431C112.885 14.0376 113.737 13.6914 114.762 13.6914C115.774 13.6914 116.613 14.0908 117.278 14.9029ZM117.358 17.4189C117.358 16.7134 117.132 16.101 116.679 15.6084C116.227 15.1159 115.641 14.8629 114.909 14.8629C114.176 14.8629 113.591 15.1159 113.151 15.6084C112.712 16.101 112.486 16.7134 112.486 17.4322C112.486 18.1511 112.712 18.7635 113.151 19.2561C113.591 19.7486 114.176 20.0016 114.909 20.0016C115.641 20.0016 116.227 19.7486 116.679 19.2561C117.132 18.7635 117.358 18.1511 117.358 17.4189ZM126.118 14.9029V10.9224H127.396V21H126.118V20.0016C125.493 20.787 124.667 21.1731 123.642 21.1731C122.604 21.1731 121.739 20.8136 121.06 20.0947C120.381 19.3626 120.048 18.4706 120.048 17.4189C120.048 16.3806 120.381 15.5019 121.06 14.7831C121.739 14.0509 122.591 13.6914 123.616 13.6914C124.641 13.6914 125.466 14.0908 126.118 14.9029ZM126.212 17.4189C126.212 16.7134 125.985 16.101 125.533 15.6084C125.093 15.1159 124.508 14.8629 123.775 14.8629C123.043 14.8629 122.457 15.1159 122.005 15.6084C121.565 16.101 121.339 16.7134 121.339 17.4189C121.339 18.1511 121.565 18.7635 122.005 19.2561C122.457 19.7486 123.043 20.0016 123.775 20.0016C124.508 20.0016 125.093 19.7486 125.533 19.2561C125.985 18.7635 126.212 18.1511 126.212 17.4189ZM135.97 21.1731C134.879 21.1731 133.974 20.8136 133.268 20.0947C132.562 19.3626 132.216 18.4706 132.216 17.4189C132.216 16.3672 132.562 15.4886 133.268 14.7697C133.974 14.0376 134.879 13.6781 135.97 13.6781C137.049 13.6781 137.941 14.0376 138.646 14.7697C139.352 15.5019 139.711 16.3806 139.711 17.4189C139.711 18.4706 139.352 19.3626 138.646 20.0947C137.941 20.8136 137.049 21.1731 135.97 21.1731ZM138.433 17.4189C138.433 16.7134 138.194 16.1143 137.714 15.6217C137.235 15.1159 136.649 14.8629 135.97 14.8629C135.291 14.8629 134.706 15.1159 134.226 15.6217C133.747 16.1143 133.508 16.7134 133.508 17.4189C133.508 18.1245 133.747 18.7369 134.226 19.2428C134.706 19.7486 135.291 20.0016 135.97 20.0016C136.649 20.0016 137.235 19.7486 137.714 19.2428C138.194 18.7369 138.433 18.1245 138.433 17.4189ZM142.514 21H141.236V13.8645H142.487V14.8762C142.94 14.0775 143.699 13.6781 144.75 13.6781C145.549 13.6781 146.215 13.9311 146.761 14.4502C147.306 14.9694 147.573 15.7016 147.573 16.6734V21H146.308V17.0329C146.308 15.6484 145.562 14.8629 144.484 14.8629C143.912 14.8629 143.432 15.0626 143.06 15.4753C142.7 15.888 142.514 16.4072 142.514 17.0462V21ZM156.726 19.5889L157.206 20.574C156.687 20.9734 156.061 21.1731 155.302 21.1731C153.798 21.1731 153.026 20.2012 153.026 18.4972V14.9561H151.761V13.8645H153.039V11.3351H154.29V13.8645H156.82V14.9561H154.29V18.5904C154.29 19.5356 154.676 20.0016 155.448 20.0016C155.861 20.0016 156.287 19.8684 156.726 19.5889ZM159.506 21H158.228V10.9224H159.466V14.7431C159.905 14.1041 160.757 13.6781 161.729 13.6781C162.514 13.6781 163.18 13.9311 163.726 14.4502C164.271 14.9694 164.538 15.7016 164.538 16.6734V21H163.273V17.0329C163.273 15.6351 162.541 14.8629 161.462 14.8629C160.304 14.8629 159.506 15.7549 159.506 17.0329V21ZM173.06 17.2991C173.06 17.3923 173.047 17.6053 173.021 17.9514H167.336C167.549 19.1629 168.348 19.9882 169.839 19.9882C170.691 19.9882 171.676 19.6687 172.328 19.1895L172.874 20.1613C172.169 20.7071 170.997 21.1598 169.812 21.1598C167.123 21.1598 166.005 19.2561 166.005 17.4056C166.005 16.3273 166.338 15.4487 167.003 14.7431C167.682 14.0376 168.548 13.6914 169.613 13.6914C170.624 13.6914 171.45 14.0109 172.089 14.6632C172.741 15.3156 173.06 16.1942 173.06 17.2991ZM167.336 16.8465H171.743C171.676 15.6084 170.784 14.823 169.613 14.823C168.441 14.823 167.549 15.6617 167.336 16.8465Z"/>
</mask>
<path d="M65.6487 21H62.1209V11.1621H65.7818C67.1796 11.1621 68.2713 11.6014 69.0833 12.4933C69.8954 13.3852 70.3081 14.5834 70.3081 16.101C70.3081 17.6053 69.8954 18.8034 69.0567 19.6821C68.2313 20.5607 67.0998 21 65.6487 21ZM63.4521 12.4267V19.7353H65.7019C66.7137 19.7353 67.4991 19.3892 68.0716 18.7102C68.644 18.018 68.9236 17.1394 68.9236 16.0611C68.9236 14.9961 68.644 14.1307 68.0716 13.4518C67.4991 12.7729 66.7137 12.4267 65.7019 12.4267H63.4521ZM75.2711 21.1731C74.1795 21.1731 73.2743 20.8136 72.5687 20.0947C71.8631 19.3626 71.517 18.4706 71.517 17.4189C71.517 16.3672 71.8631 15.4886 72.5687 14.7697C73.2743 14.0376 74.1795 13.6781 75.2711 13.6781C76.3494 13.6781 77.2414 14.0376 77.9469 14.7697C78.6525 15.5019 79.0119 16.3806 79.0119 17.4189C79.0119 18.4706 78.6525 19.3626 77.9469 20.0947C77.2414 20.8136 76.3494 21.1731 75.2711 21.1731ZM77.7339 17.4189C77.7339 16.7134 77.4943 16.1143 77.0151 15.6217C76.5358 15.1159 75.9501 14.8629 75.2711 14.8629C74.5922 14.8629 74.0064 15.1159 73.5272 15.6217C73.0479 16.1143 72.8083 16.7134 72.8083 17.4189C72.8083 18.1245 73.0479 18.7369 73.5272 19.2428C74.0064 19.7486 74.5922 20.0016 75.2711 20.0016C75.9501 20.0016 76.5358 19.7486 77.0151 19.2428C77.4943 18.7369 77.7339 18.1245 77.7339 17.4189ZM83.0431 20.9867H81.9914L79.5419 13.8645H80.8865L82.5772 19.2161L84.5208 13.8645H85.4128L87.4363 19.2161L89.0604 13.8645H90.3916L88.0087 20.9867H86.9437L84.9734 15.6484L83.0431 20.9867ZM92.8391 21H91.5611V13.8645H92.8124V14.8762C93.2651 14.0775 94.0239 13.6781 95.0756 13.6781C95.8743 13.6781 96.5399 13.9311 97.0857 14.4502C97.6316 14.9694 97.8978 15.7016 97.8978 16.6734V21H96.6331V17.0329C96.6331 15.6484 95.8876 14.8629 94.8093 14.8629C94.2369 14.8629 93.7576 15.0626 93.3849 15.4753C93.0254 15.888 92.8391 16.4072 92.8391 17.0462V21ZM101.068 10.9224V21H99.7904V10.9224H101.068ZM106.368 21.1731C105.277 21.1731 104.371 20.8136 103.666 20.0947C102.96 19.3626 102.614 18.4706 102.614 17.4189C102.614 16.3672 102.96 15.4886 103.666 14.7697C104.371 14.0376 105.277 13.6781 106.368 13.6781C107.447 13.6781 108.339 14.0376 109.044 14.7697C109.75 15.5019 110.109 16.3806 110.109 17.4189C110.109 18.4706 109.75 19.3626 109.044 20.0947C108.339 20.8136 107.447 21.1731 106.368 21.1731ZM108.831 17.4189C108.831 16.7134 108.591 16.1143 108.112 15.6217C107.633 15.1159 107.047 14.8629 106.368 14.8629C105.689 14.8629 105.104 15.1159 104.624 15.6217C104.145 16.1143 103.905 16.7134 103.905 17.4189C103.905 18.1245 104.145 18.7369 104.624 19.2428C105.104 19.7486 105.689 20.0016 106.368 20.0016C107.047 20.0016 107.633 19.7486 108.112 19.2428C108.591 18.7369 108.831 18.1245 108.831 17.4189ZM117.278 14.9029V13.8645H118.503V21H117.278V19.9882C116.639 20.7737 115.801 21.1731 114.762 21.1731C113.737 21.1731 112.885 20.8136 112.206 20.0814C111.527 19.3492 111.194 18.4573 111.194 17.379C111.194 16.314 111.527 15.4354 112.206 14.7431C112.885 14.0376 113.737 13.6914 114.762 13.6914C115.774 13.6914 116.613 14.0908 117.278 14.9029ZM117.358 17.4189C117.358 16.7134 117.132 16.101 116.679 15.6084C116.227 15.1159 115.641 14.8629 114.909 14.8629C114.176 14.8629 113.591 15.1159 113.151 15.6084C112.712 16.101 112.486 16.7134 112.486 17.4322C112.486 18.1511 112.712 18.7635 113.151 19.2561C113.591 19.7486 114.176 20.0016 114.909 20.0016C115.641 20.0016 116.227 19.7486 116.679 19.2561C117.132 18.7635 117.358 18.1511 117.358 17.4189ZM126.118 14.9029V10.9224H127.396V21H126.118V20.0016C125.493 20.787 124.667 21.1731 123.642 21.1731C122.604 21.1731 121.739 20.8136 121.06 20.0947C120.381 19.3626 120.048 18.4706 120.048 17.4189C120.048 16.3806 120.381 15.5019 121.06 14.7831C121.739 14.0509 122.591 13.6914 123.616 13.6914C124.641 13.6914 125.466 14.0908 126.118 14.9029ZM126.212 17.4189C126.212 16.7134 125.985 16.101 125.533 15.6084C125.093 15.1159 124.508 14.8629 123.775 14.8629C123.043 14.8629 122.457 15.1159 122.005 15.6084C121.565 16.101 121.339 16.7134 121.339 17.4189C121.339 18.1511 121.565 18.7635 122.005 19.2561C122.457 19.7486 123.043 20.0016 123.775 20.0016C124.508 20.0016 125.093 19.7486 125.533 19.2561C125.985 18.7635 126.212 18.1511 126.212 17.4189ZM135.97 21.1731C134.879 21.1731 133.974 20.8136 133.268 20.0947C132.562 19.3626 132.216 18.4706 132.216 17.4189C132.216 16.3672 132.562 15.4886 133.268 14.7697C133.974 14.0376 134.879 13.6781 135.97 13.6781C137.049 13.6781 137.941 14.0376 138.646 14.7697C139.352 15.5019 139.711 16.3806 139.711 17.4189C139.711 18.4706 139.352 19.3626 138.646 20.0947C137.941 20.8136 137.049 21.1731 135.97 21.1731ZM138.433 17.4189C138.433 16.7134 138.194 16.1143 137.714 15.6217C137.235 15.1159 136.649 14.8629 135.97 14.8629C135.291 14.8629 134.706 15.1159 134.226 15.6217C133.747 16.1143 133.508 16.7134 133.508 17.4189C133.508 18.1245 133.747 18.7369 134.226 19.2428C134.706 19.7486 135.291 20.0016 135.97 20.0016C136.649 20.0016 137.235 19.7486 137.714 19.2428C138.194 18.7369 138.433 18.1245 138.433 17.4189ZM142.514 21H141.236V13.8645H142.487V14.8762C142.94 14.0775 143.699 13.6781 144.75 13.6781C145.549 13.6781 146.215 13.9311 146.761 14.4502C147.306 14.9694 147.573 15.7016 147.573 16.6734V21H146.308V17.0329C146.308 15.6484 145.562 14.8629 144.484 14.8629C143.912 14.8629 143.432 15.0626 143.06 15.4753C142.7 15.888 142.514 16.4072 142.514 17.0462V21ZM156.726 19.5889L157.206 20.574C156.687 20.9734 156.061 21.1731 155.302 21.1731C153.798 21.1731 153.026 20.2012 153.026 18.4972V14.9561H151.761V13.8645H153.039V11.3351H154.29V13.8645H156.82V14.9561H154.29V18.5904C154.29 19.5356 154.676 20.0016 155.448 20.0016C155.861 20.0016 156.287 19.8684 156.726 19.5889ZM159.506 21H158.228V10.9224H159.466V14.7431C159.905 14.1041 160.757 13.6781 161.729 13.6781C162.514 13.6781 163.18 13.9311 163.726 14.4502C164.271 14.9694 164.538 15.7016 164.538 16.6734V21H163.273V17.0329C163.273 15.6351 162.541 14.8629 161.462 14.8629C160.304 14.8629 159.506 15.7549 159.506 17.0329V21ZM173.06 17.2991C173.06 17.3923 173.047 17.6053 173.021 17.9514H167.336C167.549 19.1629 168.348 19.9882 169.839 19.9882C170.691 19.9882 171.676 19.6687 172.328 19.1895L172.874 20.1613C172.169 20.7071 170.997 21.1598 169.812 21.1598C167.123 21.1598 166.005 19.2561 166.005 17.4056C166.005 16.3273 166.338 15.4487 167.003 14.7431C167.682 14.0376 168.548 13.6914 169.613 13.6914C170.624 13.6914 171.45 14.0109 172.089 14.6632C172.741 15.3156 173.06 16.1942 173.06 17.2991ZM167.336 16.8465H171.743C171.676 15.6084 170.784 14.823 169.613 14.823C168.441 14.823 167.549 15.6617 167.336 16.8465Z" fill="white"/>
<path d="M62.1209 21H61.1209V22H62.1209V21ZM62.1209 11.1621V10.1621H61.1209V11.1621H62.1209ZM69.0833 12.4933L69.8228 11.8201L69.8228 11.8201L69.0833 12.4933ZM69.0567 19.6821L68.3333 18.9916L68.3278 18.9974L69.0567 19.6821ZM63.4521 12.4267V11.4267H62.4521V12.4267H63.4521ZM63.4521 19.7353H62.4521V20.7353H63.4521V19.7353ZM68.0716 18.7102L68.8361 19.3549L68.8422 19.3475L68.0716 18.7102ZM68.0716 13.4518L68.8361 12.8072L68.8361 12.8072L68.0716 13.4518ZM65.6487 21V20H62.1209V21V22H65.6487V21ZM62.1209 21H63.1209V11.1621H62.1209H61.1209V21H62.1209ZM62.1209 11.1621V12.1621H65.7818V11.1621V10.1621H62.1209V11.1621ZM65.7818 11.1621V12.1621C66.948 12.1621 67.7525 12.517 68.3439 13.1665L69.0833 12.4933L69.8228 11.8201C68.79 10.6858 67.4112 10.1621 65.7818 10.1621V11.1621ZM69.0833 12.4933L68.3439 13.1665C68.951 13.8334 69.3081 14.7709 69.3081 16.101H70.3081H71.3081C71.3081 14.3959 70.8397 12.9371 69.8228 11.8201L69.0833 12.4933ZM70.3081 16.101H69.3081C69.3081 17.418 68.9515 18.344 68.3333 18.9916L69.0567 19.6821L69.78 20.3725C70.8393 19.2628 71.3081 17.7926 71.3081 16.101H70.3081ZM69.0567 19.6821L68.3278 18.9974C67.7285 19.6354 66.8829 20 65.6487 20V21V22C67.3166 22 68.7341 21.486 69.7855 20.3667L69.0567 19.6821ZM63.4521 12.4267H62.4521V19.7353H63.4521H64.4521V12.4267H63.4521ZM63.4521 19.7353V20.7353H65.7019V19.7353V18.7353H63.4521V19.7353ZM65.7019 19.7353V20.7353C66.9704 20.7353 68.0504 20.2867 68.8361 19.3548L68.0716 18.7102L67.307 18.0657C66.9478 18.4917 66.4569 18.7353 65.7019 18.7353V19.7353ZM68.0716 18.7102L68.8422 19.3475C69.593 18.4395 69.9236 17.3199 69.9236 16.0611H68.9236H67.9236C67.9236 16.9589 67.695 17.5965 67.3009 18.073L68.0716 18.7102ZM68.9236 16.0611H69.9236C69.9236 14.8128 69.5914 13.7031 68.8361 12.8072L68.0716 13.4518L67.307 14.0964C67.6966 14.5584 67.9236 15.1793 67.9236 16.0611H68.9236ZM68.0716 13.4518L68.8361 12.8072C68.0504 11.8754 66.9704 11.4267 65.7019 11.4267V12.4267V13.4267C66.4569 13.4267 66.9478 13.6704 67.307 14.0964L68.0716 13.4518ZM65.7019 12.4267V11.4267H63.4521V12.4267V13.4267H65.7019V12.4267ZM72.5687 20.0948L71.8486 20.7887L71.855 20.7952L72.5687 20.0948ZM72.5687 14.7697L73.2824 15.4702L73.2888 15.4636L72.5687 14.7697ZM77.9469 14.7697L78.667 14.0759L78.667 14.0759L77.9469 14.7697ZM77.9469 20.0948L78.6607 20.7952L78.667 20.7886L77.9469 20.0948ZM77.0151 15.6217L76.289 16.3096L76.2983 16.3191L77.0151 15.6217ZM73.5272 15.6217L74.244 16.3192L74.2531 16.3095L73.5272 15.6217ZM73.5272 19.2428L72.8012 19.9305V19.9305L73.5272 19.2428ZM77.0151 19.2428L77.741 19.9305V19.9305L77.0151 19.2428ZM75.2711 21.1731V20.1731C74.4212 20.1731 73.7819 19.9033 73.2824 19.3943L72.5687 20.0948L71.855 20.7952C72.7666 21.724 73.9378 22.1731 75.2711 22.1731V21.1731ZM72.5687 20.0948L73.2888 19.4009C72.7727 18.8653 72.517 18.2264 72.517 17.4189H71.517H70.517C70.517 18.7148 70.9536 19.8598 71.8486 20.7886L72.5687 20.0948ZM71.517 17.4189H72.517C72.517 16.6135 72.7711 15.9912 73.2824 15.4702L72.5687 14.7697L71.855 14.0693C70.9552 14.9861 70.517 16.121 70.517 17.4189H71.517ZM72.5687 14.7697L73.2888 15.4636C73.7866 14.947 74.4222 14.6781 75.2711 14.6781V13.6781V12.6781C73.9368 12.6781 72.7619 13.1281 71.8486 14.0759L72.5687 14.7697ZM75.2711 13.6781V14.6781C76.1009 14.6781 76.7253 14.9431 77.2269 15.4636L77.9469 14.7697L78.667 14.0759C77.7575 13.132 76.598 12.6781 75.2711 12.6781V13.6781ZM77.9469 14.7697L77.2269 15.4636C77.7532 16.0098 78.0119 16.6398 78.0119 17.4189H79.0119H80.0119C80.0119 16.1213 79.5519 14.9941 78.667 14.0759L77.9469 14.7697ZM79.0119 17.4189H78.0119C78.0119 18.217 77.7493 18.8587 77.2269 19.4009L77.9469 20.0948L78.667 20.7886C79.5557 19.8664 80.0119 18.7243 80.0119 17.4189H79.0119ZM77.9469 20.0948L77.2333 19.3943C76.73 19.9071 76.102 20.1731 75.2711 20.1731V21.1731V22.1731C76.5969 22.1731 77.7528 21.7202 78.6606 20.7952L77.9469 20.0948ZM77.7339 17.4189H78.7339C78.7339 16.4606 78.398 15.6091 77.7318 14.9244L77.0151 15.6217L76.2983 16.3191C76.5906 16.6195 76.7339 16.9661 76.7339 17.4189H77.7339ZM77.0151 15.6217L77.741 14.934C77.0764 14.2325 76.2297 13.8629 75.2711 13.8629V14.8629V15.8629C75.6704 15.8629 75.9952 15.9993 76.2891 16.3095L77.0151 15.6217ZM75.2711 14.8629V13.8629C74.3125 13.8629 73.4658 14.2325 72.8012 14.934L73.5272 15.6217L74.2531 16.3095C74.5471 15.9993 74.8718 15.8629 75.2711 15.8629V14.8629ZM73.5272 15.6217L72.8105 14.9244C72.1442 15.6091 71.8083 16.4606 71.8083 17.4189H72.8083H73.8083C73.8083 16.9661 73.9516 16.6195 74.2439 16.3191L73.5272 15.6217ZM72.8083 17.4189H71.8083C71.8083 18.3741 72.1417 19.2344 72.8012 19.9305L73.5272 19.2428L74.2531 18.555C73.9541 18.2394 73.8083 17.8749 73.8083 17.4189H72.8083ZM73.5272 19.2428L72.8012 19.9305C73.4658 20.632 74.3125 21.0016 75.2711 21.0016V20.0016V19.0016C74.8718 19.0016 74.5471 18.8652 74.2531 18.555L73.5272 19.2428ZM75.2711 20.0016V21.0016C76.2297 21.0016 77.0764 20.632 77.741 19.9305L77.0151 19.2428L76.2891 18.555C75.9952 18.8652 75.6704 19.0016 75.2711 19.0016V20.0016ZM77.0151 19.2428L77.741 19.9305C78.4005 19.2344 78.7339 18.3741 78.7339 17.4189H77.7339H76.7339C76.7339 17.8749 76.5881 18.2394 76.2891 18.555L77.0151 19.2428ZM83.0431 20.9867V21.9867H83.7449L83.9835 21.3267L83.0431 20.9867ZM81.9914 20.9867L81.0458 21.3119L81.2779 21.9867H81.9914V20.9867ZM79.5419 13.8645V12.8645H78.1405L78.5963 14.1897L79.5419 13.8645ZM80.8865 13.8645L81.8401 13.5633L81.6193 12.8645H80.8865V13.8645ZM82.5772 19.2161L81.6236 19.5174L82.5113 22.327L83.5171 19.5575L82.5772 19.2161ZM84.5208 13.8645V12.8645H83.8201L83.5809 13.5231L84.5208 13.8645ZM85.4128 13.8645L86.3481 13.5108L86.1037 12.8645H85.4128V13.8645ZM87.4363 19.2161L86.5009 19.5698L87.54 22.3179L88.3932 19.5065L87.4363 19.2161ZM89.0604 13.8645V12.8645H88.3188L88.1035 13.5741L89.0604 13.8645ZM90.3916 13.8645L91.34 14.1818L91.7807 12.8645H90.3916V13.8645ZM88.0087 20.9867V21.9867H88.7286L88.957 21.304L88.0087 20.9867ZM86.9437 20.9867L86.0056 21.3329L86.2468 21.9867H86.9437V20.9867ZM84.9734 15.6484L85.9116 15.3021L84.9638 12.7342L84.033 15.3083L84.9734 15.6484ZM83.0431 20.9867V19.9867H81.9914V20.9867V21.9867H83.0431V20.9867ZM81.9914 20.9867L82.9371 20.6615L80.4876 13.5393L79.5419 13.8645L78.5963 14.1897L81.0458 21.3119L81.9914 20.9867ZM79.5419 13.8645V14.8645H80.8865V13.8645V12.8645H79.5419V13.8645ZM80.8865 13.8645L79.933 14.1657L81.6236 19.5174L82.5772 19.2161L83.5307 18.9149L81.8401 13.5633L80.8865 13.8645ZM82.5772 19.2161L83.5171 19.5575L85.4608 14.2059L84.5208 13.8645L83.5809 13.5231L81.6373 18.8748L82.5772 19.2161ZM84.5208 13.8645V14.8645H85.4128V13.8645V12.8645H84.5208V13.8645ZM85.4128 13.8645L84.4774 14.2182L86.5009 19.5698L87.4363 19.2161L88.3716 18.8625L86.3481 13.5108L85.4128 13.8645ZM87.4363 19.2161L88.3932 19.5065L90.0173 14.1549L89.0604 13.8645L88.1035 13.5741L86.4794 18.9257L87.4363 19.2161ZM89.0604 13.8645V14.8645H90.3916V13.8645V12.8645H89.0604V13.8645ZM90.3916 13.8645L89.4433 13.5472L87.0604 20.6694L88.0087 20.9867L88.957 21.304L91.34 14.1818L90.3916 13.8645ZM88.0087 20.9867V19.9867H86.9437V20.9867V21.9867H88.0087V20.9867ZM86.9437 20.9867L87.8818 20.6404L85.9116 15.3021L84.9734 15.6484L84.0353 15.9946L86.0056 21.3329L86.9437 20.9867ZM84.9734 15.6484L84.033 15.3083L82.1027 20.6466L83.0431 20.9867L83.9835 21.3267L85.9139 15.9884L84.9734 15.6484ZM92.8391 21V22H93.8391V21H92.8391ZM91.5611 21H90.5611V22H91.5611V21ZM91.5611 13.8645V12.8645H90.5611V13.8645H91.5611ZM92.8124 13.8645H93.8124V12.8645H92.8124V13.8645ZM92.8124 14.8762H91.8124V18.6693L93.6824 15.3693L92.8124 14.8762ZM97.8978 21V22H98.8978V21H97.8978ZM96.6331 21H95.6331V22H96.6331V21ZM93.3849 15.4753L92.6428 14.805L92.6367 14.8117L92.6308 14.8185L93.3849 15.4753ZM92.8391 21V20H91.5611V21V22H92.8391V21ZM91.5611 21H92.5611V13.8645H91.5611H90.5611V21H91.5611ZM91.5611 13.8645V14.8645H92.8124V13.8645V12.8645H91.5611V13.8645ZM92.8124 13.8645H91.8124V14.8762H92.8124H93.8124V13.8645H92.8124ZM92.8124 14.8762L93.6824 15.3693C93.9272 14.9374 94.318 14.6781 95.0756 14.6781V13.6781V12.6781C93.7297 12.6781 92.6029 13.2176 91.9424 14.3832L92.8124 14.8762ZM95.0756 13.6781V14.6781C95.6387 14.6781 96.0513 14.8464 96.3965 15.1748L97.0857 14.4502L97.775 13.7257C97.0286 13.0157 96.1099 12.6781 95.0756 12.6781V13.6781ZM97.0857 14.4502L96.3965 15.1748C96.6895 15.4535 96.8978 15.8901 96.8978 16.6734H97.8978H98.8978C98.8978 15.5132 98.5736 14.4854 97.775 13.7257L97.0857 14.4502ZM97.8978 16.6734H96.8978V21H97.8978H98.8978V16.6734H97.8978ZM97.8978 21V20H96.6331V21V22H97.8978V21ZM96.6331 21H97.6331V17.0329H96.6331H95.6331V21H96.6331ZM96.6331 17.0329H97.6331C97.6331 16.1677 97.3992 15.3696 96.8803 14.7726C96.349 14.1616 95.6058 13.8629 94.8093 13.8629V14.8629V15.8629C95.0911 15.8629 95.2598 15.957 95.3709 16.0848C95.4942 16.2267 95.6331 16.5136 95.6331 17.0329H96.6331ZM94.8093 14.8629V13.8629C93.9761 13.8629 93.2194 14.1666 92.6428 14.805L93.3849 15.4753L94.127 16.1456C94.2958 15.9587 94.4976 15.8629 94.8093 15.8629V14.8629ZM93.3849 15.4753L92.6308 14.8185C92.0934 15.4355 91.8391 16.197 91.8391 17.0462H92.8391H93.8391C93.8391 16.6174 93.9574 16.3405 94.1389 16.1321L93.3849 15.4753ZM92.8391 17.0462H91.8391V21H92.8391H93.8391V17.0462H92.8391ZM101.068 10.9224H102.068V9.92244H101.068V10.9224ZM101.068 21V22H102.068V21H101.068ZM99.7904 21H98.7904V22H99.7904V21ZM99.7904 10.9224V9.92244H98.7904V10.9224H99.7904ZM101.068 10.9224H100.068V21H101.068H102.068V10.9224H101.068ZM101.068 21V20H99.7904V21V22H101.068V21ZM99.7904 21H100.79V10.9224H99.7904H98.7904V21H99.7904ZM99.7904 10.9224V11.9224H101.068V10.9224V9.92244H99.7904V10.9224ZM103.666 20.0948L102.946 20.7887L102.952 20.7952L103.666 20.0948ZM103.666 14.7697L104.38 15.4702L104.386 15.4636L103.666 14.7697ZM109.044 14.7697L109.764 14.0759V14.0759L109.044 14.7697ZM109.044 20.0948L109.758 20.7952L109.764 20.7886L109.044 20.0948ZM108.112 15.6217L107.386 16.3096L107.396 16.3191L108.112 15.6217ZM104.624 15.6217L105.341 16.3192L105.35 16.3095L104.624 15.6217ZM104.624 19.2428L103.898 19.9305V19.9305L104.624 19.2428ZM108.112 19.2428L108.838 19.9305V19.9305L108.112 19.2428ZM106.368 21.1731V20.1731C105.518 20.1731 104.879 19.9033 104.38 19.3943L103.666 20.0948L102.952 20.7952C103.864 21.724 105.035 22.1731 106.368 22.1731V21.1731ZM103.666 20.0948L104.386 19.4009C103.87 18.8653 103.614 18.2264 103.614 17.4189H102.614H101.614C101.614 18.7148 102.051 19.8598 102.946 20.7886L103.666 20.0948ZM102.614 17.4189H103.614C103.614 16.6135 103.868 15.9912 104.38 15.4702L103.666 14.7697L102.952 14.0693C102.052 14.9861 101.614 16.121 101.614 17.4189H102.614ZM103.666 14.7697L104.386 15.4636C104.884 14.947 105.519 14.6781 106.368 14.6781V13.6781V12.6781C105.034 12.6781 103.859 13.1281 102.946 14.0759L103.666 14.7697ZM106.368 13.6781V14.6781C107.198 14.6781 107.822 14.9431 108.324 15.4636L109.044 14.7697L109.764 14.0759C108.855 13.132 107.695 12.6781 106.368 12.6781V13.6781ZM109.044 14.7697L108.324 15.4636C108.85 16.0098 109.109 16.6398 109.109 17.4189H110.109H111.109C111.109 16.1213 110.649 14.9941 109.764 14.0759L109.044 14.7697ZM110.109 17.4189H109.109C109.109 18.217 108.846 18.8587 108.324 19.4009L109.044 20.0948L109.764 20.7886C110.653 19.8664 111.109 18.7243 111.109 17.4189H110.109ZM109.044 20.0948L108.33 19.3943C107.827 19.9071 107.199 20.1731 106.368 20.1731V21.1731V22.1731C107.694 22.1731 108.85 21.7202 109.758 20.7952L109.044 20.0948ZM108.831 17.4189H109.831C109.831 16.4606 109.495 15.6091 108.829 14.9244L108.112 15.6217L107.396 16.3191C107.688 16.6195 107.831 16.9661 107.831 17.4189H108.831ZM108.112 15.6217L108.838 14.934C108.174 14.2325 107.327 13.8629 106.368 13.8629V14.8629V15.8629C106.768 15.8629 107.092 15.9993 107.386 16.3095L108.112 15.6217ZM106.368 14.8629V13.8629C105.41 13.8629 104.563 14.2325 103.898 14.934L104.624 15.6217L105.35 16.3095C105.644 15.9993 105.969 15.8629 106.368 15.8629V14.8629ZM104.624 15.6217L103.908 14.9244C103.241 15.6091 102.905 16.4606 102.905 17.4189H103.905H104.905C104.905 16.9661 105.049 16.6195 105.341 16.3191L104.624 15.6217ZM103.905 17.4189H102.905C102.905 18.3741 103.239 19.2344 103.898 19.9305L104.624 19.2428L105.35 18.555C105.051 18.2394 104.905 17.8749 104.905 17.4189H103.905ZM104.624 19.2428L103.898 19.9305C104.563 20.632 105.41 21.0016 106.368 21.0016V20.0016V19.0016C105.969 19.0016 105.644 18.8652 105.35 18.555L104.624 19.2428ZM106.368 20.0016V21.0016C107.327 21.0016 108.174 20.632 108.838 19.9305L108.112 19.2428L107.386 18.555C107.092 18.8652 106.768 19.0016 106.368 19.0016V20.0016ZM108.112 19.2428L108.838 19.9305C109.498 19.2344 109.831 18.3741 109.831 17.4189H108.831H107.831C107.831 17.8749 107.685 18.2394 107.386 18.555L108.112 19.2428ZM117.278 14.9029L116.505 15.5368L118.278 17.7003V14.9029H117.278ZM117.278 13.8645V12.8645H116.278V13.8645H117.278ZM118.503 13.8645H119.503V12.8645H118.503V13.8645ZM118.503 21V22H119.503V21H118.503ZM117.278 21H116.278V22H117.278V21ZM117.278 19.9882H118.278V17.1745L116.503 19.3572L117.278 19.9882ZM112.206 20.0814L112.94 19.4015V19.4015L112.206 20.0814ZM112.206 14.7431L112.92 15.4434L112.927 15.4365L112.206 14.7431ZM116.679 15.6084L115.943 16.2851V16.2851L116.679 15.6084ZM113.151 19.2561L113.898 18.5904V18.5904L113.151 19.2561ZM116.679 19.2561L115.943 18.5794V18.5794L116.679 19.2561ZM117.278 14.9029H118.278V13.8645H117.278H116.278V14.9029H117.278ZM117.278 13.8645V14.8645H118.503V13.8645V12.8645H117.278V13.8645ZM118.503 13.8645H117.503V21H118.503H119.503V13.8645H118.503ZM118.503 21V20H117.278V21V22H118.503V21ZM117.278 21H118.278V19.9882H117.278H116.278V21H117.278ZM117.278 19.9882L116.503 19.3572C116.056 19.9061 115.504 20.1731 114.762 20.1731V21.1731V22.1731C116.097 22.1731 117.223 21.6413 118.054 20.6193L117.278 19.9882ZM114.762 21.1731V20.1731C114.002 20.1731 113.42 19.9201 112.94 19.4015L112.206 20.0814L111.473 20.7614C112.35 21.7072 113.472 22.1731 114.762 22.1731V21.1731ZM112.206 20.0814L112.94 19.4015C112.447 18.8706 112.194 18.2283 112.194 17.379H111.194H110.194C110.194 18.6863 110.607 19.8279 111.473 20.7614L112.206 20.0814ZM111.194 17.379H112.194C112.194 16.5426 112.447 15.9262 112.92 15.4433L112.206 14.7431L111.492 14.0429C110.608 14.9446 110.194 16.0854 110.194 17.379H111.194ZM112.206 14.7431L112.927 15.4365C113.404 14.9403 113.99 14.6914 114.762 14.6914V13.6914V12.6914C113.485 12.6914 112.366 13.1348 111.486 14.0497L112.206 14.7431ZM114.762 13.6914V14.6914C115.466 14.6914 116.024 14.9501 116.505 15.5368L117.278 14.9029L118.052 14.2689C117.201 13.2315 116.082 12.6914 114.762 12.6914V13.6914ZM117.358 17.4189H118.358C118.358 16.4832 118.051 15.6234 117.416 14.9318L116.679 15.6084L115.943 16.2851C116.213 16.5786 116.358 16.9436 116.358 17.4189H117.358ZM116.679 15.6084L117.416 14.9318C116.761 14.2194 115.902 13.8629 114.909 13.8629V14.8629V15.8629C115.38 15.8629 115.692 16.0123 115.943 16.2851L116.679 15.6084ZM114.909 14.8629V13.8629C113.919 13.8629 113.052 14.2179 112.405 14.9428L113.151 15.6084L113.898 16.2741C114.13 16.0139 114.434 15.8629 114.909 15.8629V14.8629ZM113.151 15.6084L112.405 14.9428C111.79 15.6324 111.486 16.487 111.486 17.4323H112.486H113.486C113.486 16.9397 113.634 16.5696 113.898 16.2741L113.151 15.6084ZM112.486 17.4323H111.486C111.486 18.3775 111.79 19.2321 112.405 19.9217L113.151 19.2561L113.898 18.5904C113.634 18.2949 113.486 17.9248 113.486 17.4323H112.486ZM113.151 19.2561L112.405 19.9217C113.052 20.6466 113.919 21.0016 114.909 21.0016V20.0016V19.0016C114.434 19.0016 114.13 18.8506 113.898 18.5904L113.151 19.2561ZM114.909 20.0016V21.0016C115.902 21.0016 116.761 20.6451 117.416 19.9327L116.679 19.2561L115.943 18.5794C115.692 18.8522 115.38 19.0016 114.909 19.0016V20.0016ZM116.679 19.2561L117.416 19.9327C118.054 19.2375 118.358 18.376 118.358 17.4189H117.358H116.358C116.358 17.9262 116.209 18.2895 115.943 18.5794L116.679 19.2561ZM126.118 14.9029L125.339 15.5291L127.118 17.7446V14.9029H126.118ZM126.118 10.9224V9.92244H125.118V10.9224H126.118ZM127.396 10.9224H128.396V9.92244H127.396V10.9224ZM127.396 21V22H128.396V21H127.396ZM126.118 21H125.118V22H126.118V21ZM126.118 20.0016H127.118V17.1413L125.336 19.3785L126.118 20.0016ZM121.06 20.0948L120.326 20.7747L120.333 20.7814L121.06 20.0948ZM121.06 14.7831L121.787 15.4697L121.793 15.463L121.06 14.7831ZM125.533 15.6084L124.786 16.2741L124.791 16.2796L124.796 16.2851L125.533 15.6084ZM122.005 15.6084L121.268 14.9318L121.263 14.9373L121.258 14.9428L122.005 15.6084ZM122.005 19.2561L121.258 19.9217L121.263 19.9272L121.268 19.9327L122.005 19.2561ZM125.533 19.2561L124.796 18.5794L124.791 18.5849L124.786 18.5904L125.533 19.2561ZM126.118 14.9029H127.118V10.9224H126.118H125.118V14.9029H126.118ZM126.118 10.9224V11.9224H127.396V10.9224V9.92244H126.118V10.9224ZM127.396 10.9224H126.396V21H127.396H128.396V10.9224H127.396ZM127.396 21V20H126.118V21V22H127.396V21ZM126.118 21H127.118V20.0016H126.118H125.118V21H126.118ZM126.118 20.0016L125.336 19.3785C124.908 19.9163 124.375 20.1731 123.642 20.1731V21.1731V22.1731C124.959 22.1731 126.078 21.6577 126.9 20.6246L126.118 20.0016ZM123.642 21.1731V20.1731C122.861 20.1731 122.265 19.9146 121.787 19.4081L121.06 20.0948L120.333 20.7814C121.212 21.7127 122.346 22.1731 123.642 22.1731V21.1731ZM121.06 20.0948L121.793 19.4148C121.298 18.8814 121.048 18.238 121.048 17.4189H120.048H119.048C119.048 18.7032 119.463 19.8437 120.326 20.7747L121.06 20.0948ZM120.048 17.4189H121.048C121.048 16.6169 121.296 15.9896 121.787 15.4697L121.06 14.7831L120.333 14.0964C119.466 15.0143 119.048 16.1442 119.048 17.4189H120.048ZM121.06 14.7831L121.793 15.463C122.274 14.9444 122.856 14.6914 123.616 14.6914V13.6914V12.6914C122.325 12.6914 121.203 13.1573 120.326 14.1031L121.06 14.7831ZM123.616 13.6914V14.6914C124.332 14.6914 124.873 14.949 125.339 15.5291L126.118 14.9029L126.898 14.2766C126.059 13.2326 124.949 12.6914 123.616 12.6914V13.6914ZM126.212 17.4189H127.212C127.212 16.4832 126.904 15.6234 126.269 14.9318L125.533 15.6084L124.796 16.2851C125.066 16.5786 125.212 16.9436 125.212 17.4189H126.212ZM125.533 15.6084L126.279 14.9428C125.632 14.2179 124.765 13.8629 123.775 13.8629V14.8629V15.8629C124.25 15.8629 124.554 16.0139 124.786 16.2741L125.533 15.6084ZM123.775 14.8629V13.8629C122.782 13.8629 121.923 14.2194 121.268 14.9318L122.005 15.6084L122.741 16.2851C122.992 16.0123 123.304 15.8629 123.775 15.8629V14.8629ZM122.005 15.6084L121.258 14.9428C120.645 15.6306 120.339 16.4844 120.339 17.4189H121.339H122.339C122.339 16.9423 122.486 16.5714 122.751 16.2741L122.005 15.6084ZM121.339 17.4189H120.339C120.339 18.3749 120.642 19.2303 121.258 19.9217L122.005 19.2561L122.751 18.5904C122.489 18.2967 122.339 17.9274 122.339 17.4189H121.339ZM122.005 19.2561L121.268 19.9327C121.923 20.6451 122.782 21.0016 123.775 21.0016V20.0016V19.0016C123.304 19.0016 122.992 18.8522 122.741 18.5794L122.005 19.2561ZM123.775 20.0016V21.0016C124.765 21.0016 125.632 20.6466 126.279 19.9217L125.533 19.2561L124.786 18.5904C124.554 18.8506 124.25 19.0016 123.775 19.0016V20.0016ZM125.533 19.2561L126.269 19.9327C126.908 19.2375 127.212 18.376 127.212 17.4189H126.212H125.212C125.212 17.9262 125.063 18.2895 124.796 18.5794L125.533 19.2561ZM133.268 20.0948L132.548 20.7887L132.554 20.7952L133.268 20.0948ZM133.268 14.7697L133.982 15.4702L133.988 15.4636L133.268 14.7697ZM138.646 14.7697L139.366 14.0759V14.0759L138.646 14.7697ZM138.646 20.0948L139.36 20.7952L139.366 20.7886L138.646 20.0948ZM137.714 15.6217L136.988 16.3096L136.998 16.3191L137.714 15.6217ZM134.226 15.6217L134.943 16.3192L134.952 16.3095L134.226 15.6217ZM134.226 19.2428L133.501 19.9305V19.9305L134.226 19.2428ZM137.714 19.2428L138.44 19.9305V19.9305L137.714 19.2428ZM135.97 21.1731V20.1731C135.12 20.1731 134.481 19.9033 133.982 19.3943L133.268 20.0948L132.554 20.7952C133.466 21.724 134.637 22.1731 135.97 22.1731V21.1731ZM133.268 20.0948L133.988 19.4009C133.472 18.8653 133.216 18.2264 133.216 17.4189H132.216H131.216C131.216 18.7148 131.653 19.8598 132.548 20.7886L133.268 20.0948ZM132.216 17.4189H133.216C133.216 16.6135 133.47 15.9912 133.982 15.4702L133.268 14.7697L132.554 14.0693C131.654 14.9861 131.216 16.121 131.216 17.4189H132.216ZM133.268 14.7697L133.988 15.4636C134.486 14.947 135.121 14.6781 135.97 14.6781V13.6781V12.6781C134.636 12.6781 133.461 13.1281 132.548 14.0759L133.268 14.7697ZM135.97 13.6781V14.6781C136.8 14.6781 137.425 14.9431 137.926 15.4636L138.646 14.7697L139.366 14.0759C138.457 13.132 137.297 12.6781 135.97 12.6781V13.6781ZM138.646 14.7697L137.926 15.4636C138.452 16.0098 138.711 16.6398 138.711 17.4189H139.711H140.711C140.711 16.1213 140.251 14.9941 139.366 14.0759L138.646 14.7697ZM139.711 17.4189H138.711C138.711 18.217 138.449 18.8587 137.926 19.4009L138.646 20.0948L139.366 20.7886C140.255 19.8664 140.711 18.7243 140.711 17.4189H139.711ZM138.646 20.0948L137.933 19.3943C137.429 19.9071 136.801 20.1731 135.97 20.1731V21.1731V22.1731C137.296 22.1731 138.452 21.7202 139.36 20.7952L138.646 20.0948ZM138.433 17.4189H139.433C139.433 16.4606 139.097 15.6091 138.431 14.9244L137.714 15.6217L136.998 16.3191C137.29 16.6195 137.433 16.9661 137.433 17.4189H138.433ZM137.714 15.6217L138.44 14.934C137.776 14.2325 136.929 13.8629 135.97 13.8629V14.8629V15.8629C136.37 15.8629 136.694 15.9993 136.988 16.3095L137.714 15.6217ZM135.97 14.8629V13.8629C135.012 13.8629 134.165 14.2325 133.501 14.934L134.226 15.6217L134.952 16.3095C135.246 15.9993 135.571 15.8629 135.97 15.8629V14.8629ZM134.226 15.6217L133.51 14.9244C132.844 15.6091 132.508 16.4606 132.508 17.4189H133.508H134.508C134.508 16.9661 134.651 16.6195 134.943 16.3191L134.226 15.6217ZM133.508 17.4189H132.508C132.508 18.3741 132.841 19.2344 133.501 19.9305L134.226 19.2428L134.952 18.555C134.653 18.2394 134.508 17.8749 134.508 17.4189H133.508ZM134.226 19.2428L133.501 19.9305C134.165 20.632 135.012 21.0016 135.97 21.0016V20.0016V19.0016C135.571 19.0016 135.246 18.8652 134.952 18.555L134.226 19.2428ZM135.97 20.0016V21.0016C136.929 21.0016 137.776 20.632 138.44 19.9305L137.714 19.2428L136.988 18.555C136.694 18.8652 136.37 19.0016 135.97 19.0016V20.0016ZM137.714 19.2428L138.44 19.9305C139.1 19.2344 139.433 18.3741 139.433 17.4189H138.433H137.433C137.433 17.8749 137.287 18.2394 136.988 18.555L137.714 19.2428ZM142.514 21V22H143.514V21H142.514ZM141.236 21H140.236V22H141.236V21ZM141.236 13.8645V12.8645H140.236V13.8645H141.236ZM142.487 13.8645H143.487V12.8645H142.487V13.8645ZM142.487 14.8762H141.487V18.6693L143.357 15.3693L142.487 14.8762ZM147.573 21V22H148.573V21H147.573ZM146.308 21H145.308V22H146.308V21ZM143.06 15.4753L142.318 14.805L142.312 14.8117L142.306 14.8185L143.06 15.4753ZM142.514 21V20H141.236V21V22H142.514V21ZM141.236 21H142.236V13.8645H141.236H140.236V21H141.236ZM141.236 13.8645V14.8645H142.487V13.8645V12.8645H141.236V13.8645ZM142.487 13.8645H141.487V14.8762H142.487H143.487V13.8645H142.487ZM142.487 14.8762L143.357 15.3693C143.602 14.9374 143.993 14.6781 144.75 14.6781V13.6781V12.6781C143.405 12.6781 142.278 13.2176 141.617 14.3832L142.487 14.8762ZM144.75 13.6781V14.6781C145.314 14.6781 145.726 14.8464 146.071 15.1748L146.761 14.4502L147.45 13.7257C146.703 13.0157 145.785 12.6781 144.75 12.6781V13.6781ZM146.761 14.4502L146.071 15.1748C146.364 15.4535 146.573 15.8901 146.573 16.6734H147.573H148.573C148.573 15.5132 148.248 14.4854 147.45 13.7257L146.761 14.4502ZM147.573 16.6734H146.573V21H147.573H148.573V16.6734H147.573ZM147.573 21V20H146.308V21V22H147.573V21ZM146.308 21H147.308V17.0329H146.308H145.308V21H146.308ZM146.308 17.0329H147.308C147.308 16.1677 147.074 15.3696 146.555 14.7726C146.024 14.1616 145.281 13.8629 144.484 13.8629V14.8629V15.8629C144.766 15.8629 144.935 15.957 145.046 16.0848C145.169 16.2267 145.308 16.5136 145.308 17.0329H146.308ZM144.484 14.8629V13.8629C143.651 13.8629 142.894 14.1666 142.318 14.805L143.06 15.4753L143.802 16.1456C143.971 15.9587 144.173 15.8629 144.484 15.8629V14.8629ZM143.06 15.4753L142.306 14.8185C141.768 15.4355 141.514 16.197 141.514 17.0462H142.514H143.514C143.514 16.6174 143.632 16.3405 143.814 16.1321L143.06 15.4753ZM142.514 17.0462H141.514V21H142.514H143.514V17.0462H142.514ZM156.726 19.5889L157.626 19.1514L157.135 18.1434L156.19 18.7452L156.726 19.5889ZM157.206 20.574L157.815 21.3666L158.462 20.8696L158.105 20.1365L157.206 20.574ZM153.026 14.9561H154.026V13.9561H153.026V14.9561ZM151.761 14.9561H150.761V15.9561H151.761V14.9561ZM151.761 13.8645V12.8645H150.761V13.8645H151.761ZM153.039 13.8645V14.8645H154.039V13.8645H153.039ZM153.039 11.3351V10.3351H152.039V11.3351H153.039ZM154.29 11.3351H155.29V10.3351H154.29V11.3351ZM154.29 13.8645H153.29V14.8645H154.29V13.8645ZM156.82 13.8645H157.82V12.8645H156.82V13.8645ZM156.82 14.9561V15.9561H157.82V14.9561H156.82ZM154.29 14.9561V13.9561H153.29V14.9561H154.29ZM156.726 19.5889L155.827 20.0263L156.306 21.0115L157.206 20.574L158.105 20.1365L157.626 19.1514L156.726 19.5889ZM157.206 20.574L156.596 19.7814C156.275 20.028 155.872 20.1731 155.302 20.1731V21.1731V22.1731C156.249 22.1731 157.098 21.9187 157.815 21.3666L157.206 20.574ZM155.302 21.1731V20.1731C154.778 20.1731 154.518 20.0139 154.367 19.8329C154.191 19.6219 154.026 19.2167 154.026 18.4972H153.026H152.026C152.026 19.4818 152.247 20.4145 152.832 21.1154C153.443 21.8463 154.322 22.1731 155.302 22.1731V21.1731ZM153.026 18.4972H154.026V14.9561H153.026H152.026V18.4972H153.026ZM153.026 14.9561V13.9561H151.761V14.9561V15.9561H153.026V14.9561ZM151.761 14.9561H152.761V13.8645H151.761H150.761V14.9561H151.761ZM151.761 13.8645V14.8645H153.039V13.8645V12.8645H151.761V13.8645ZM153.039 13.8645H154.039V11.3351H153.039H152.039V13.8645H153.039ZM153.039 11.3351V12.3351H154.29V11.3351V10.3351H153.039V11.3351ZM154.29 11.3351H153.29V13.8645H154.29H155.29V11.3351H154.29ZM154.29 13.8645V14.8645H156.82V13.8645V12.8645H154.29V13.8645ZM156.82 13.8645H155.82V14.9561H156.82H157.82V13.8645H156.82ZM156.82 14.9561V13.9561H154.29V14.9561V15.9561H156.82V14.9561ZM154.29 14.9561H153.29V18.5904H154.29H155.29V14.9561H154.29ZM154.29 18.5904H153.29C153.29 19.1733 153.405 19.7967 153.808 20.2858C154.241 20.8127 154.853 21.0016 155.448 21.0016V20.0016V19.0016C155.354 19.0016 155.317 18.9871 155.316 18.9867C155.316 18.9866 155.317 18.9872 155.32 18.9888C155.323 18.9904 155.327 18.9928 155.331 18.9958C155.34 19.0025 155.348 19.0097 155.352 19.0151C155.368 19.035 155.29 18.9527 155.29 18.5904H154.29ZM155.448 20.0016V21.0016C156.087 21.0016 156.696 20.7935 157.263 20.4325L156.726 19.5889L156.19 18.7452C155.878 18.9434 155.636 19.0016 155.448 19.0016V20.0016ZM159.506 21V22H160.506V21H159.506ZM158.228 21H157.228V22H158.228V21ZM158.228 10.9224V9.92244H157.228V10.9224H158.228ZM159.466 10.9224H160.466V9.92244H159.466V10.9224ZM159.466 14.7431H158.466V17.9628L160.29 15.3097L159.466 14.7431ZM163.726 14.4502L164.415 13.7257V13.7257L163.726 14.4502ZM164.538 21V22H165.538V21H164.538ZM163.273 21H162.273V22H163.273V21ZM159.506 21V20H158.228V21V22H159.506V21ZM158.228 21H159.228V10.9224H158.228H157.228V21H158.228ZM158.228 10.9224V11.9224H159.466V10.9224V9.92244H158.228V10.9224ZM159.466 10.9224H158.466V14.7431H159.466H160.466V10.9224H159.466ZM159.466 14.7431L160.29 15.3097C160.511 14.9873 161.027 14.6781 161.729 14.6781V13.6781V12.6781C160.487 12.6781 159.299 13.221 158.642 14.1766L159.466 14.7431ZM161.729 13.6781V14.6781C162.276 14.6781 162.689 14.8448 163.036 15.1748L163.726 14.4502L164.415 13.7257C163.67 13.0173 162.752 12.6781 161.729 12.6781V13.6781ZM163.726 14.4502L163.036 15.1748C163.329 15.4535 163.538 15.8901 163.538 16.6734H164.538H165.538C165.538 15.5132 165.213 14.4854 164.415 13.7257L163.726 14.4502ZM164.538 16.6734H163.538V21H164.538H165.538V16.6734H164.538ZM164.538 21V20H163.273V21V22H164.538V21ZM163.273 21H164.273V17.0329H163.273H162.273V21H163.273ZM163.273 17.0329H164.273C164.273 16.1675 164.046 15.3681 163.529 14.7698C162.998 14.1555 162.255 13.8629 161.462 13.8629V14.8629V15.8629C161.749 15.8629 161.911 15.9564 162.016 16.0776C162.134 16.2148 162.273 16.5005 162.273 17.0329H163.273ZM161.462 14.8629V13.8629C160.612 13.8629 159.848 14.1975 159.306 14.7997C158.772 15.3937 158.506 16.1867 158.506 17.0329H159.506H160.506C160.506 16.601 160.639 16.3091 160.793 16.1376C160.94 15.9743 161.155 15.8629 161.462 15.8629V14.8629ZM159.506 17.0329H158.506V21H159.506H160.506V17.0329H159.506ZM173.021 17.9514V18.9514H173.947L174.018 18.0281L173.021 17.9514ZM167.336 17.9514V16.9514H166.145L166.351 18.1246L167.336 17.9514ZM172.328 19.1895L173.2 18.6998L172.647 17.7146L171.736 18.3836L172.328 19.1895ZM172.874 20.1613L173.486 20.9523L174.169 20.4242L173.746 19.6716L172.874 20.1613ZM167.003 14.7431L166.283 14.0497L166.276 14.0569L167.003 14.7431ZM172.089 14.6632L171.374 15.3631L171.382 15.3704L172.089 14.6632ZM167.336 16.8465L166.352 16.6696L166.14 17.8465H167.336V16.8465ZM171.743 16.8465V17.8465H172.798L172.741 16.7928L171.743 16.8465ZM173.06 17.2991H172.06C172.06 17.2991 172.06 17.3002 172.06 17.3026C172.06 17.305 172.06 17.3084 172.06 17.3127C172.06 17.3216 172.06 17.3334 172.059 17.3485C172.058 17.3789 172.055 17.4187 172.052 17.469C172.046 17.5698 172.037 17.7038 172.023 17.8747L173.021 17.9514L174.018 18.0281C174.043 17.6964 174.06 17.4394 174.06 17.2991H173.06ZM173.021 17.9514V16.9514H167.336V17.9514V18.9514H173.021V17.9514ZM167.336 17.9514L166.351 18.1246C166.488 18.9009 166.828 19.6382 167.453 20.1797C168.083 20.7256 168.904 20.9882 169.839 20.9882V19.9882V18.9882C169.283 18.9882 168.959 18.8382 168.763 18.6685C168.563 18.4946 168.398 18.2135 168.321 17.7783L167.336 17.9514ZM169.839 19.9882V20.9882C170.896 20.9882 172.09 20.6052 172.92 19.9954L172.328 19.1895L171.736 18.3836C171.262 18.7323 170.486 18.9882 169.839 18.9882V19.9882ZM172.328 19.1895L171.456 19.6792L172.002 20.651L172.874 20.1613L173.746 19.6716L173.2 18.6998L172.328 19.1895ZM172.874 20.1613L172.262 19.3704C171.731 19.7815 170.774 20.1597 169.812 20.1597V21.1597V22.1597C171.22 22.1597 172.606 21.6327 173.486 20.9523L172.874 20.1613ZM169.812 21.1597V20.1597C168.724 20.1597 168.06 19.7857 167.654 19.32C167.228 18.8307 167.005 18.1418 167.005 17.4056H166.005H165.005C165.005 18.5198 165.34 19.708 166.146 20.6332C166.972 21.582 168.211 22.1597 169.812 22.1597V21.1597ZM166.005 17.4056H167.005C167.005 16.5552 167.258 15.9304 167.731 15.4293L167.003 14.7431L166.276 14.0569C165.417 14.967 165.005 16.0994 165.005 17.4056H166.005ZM167.003 14.7431L167.724 15.4365C168.195 14.9471 168.79 14.6914 169.613 14.6914V13.6914V12.6914C168.305 12.6914 167.17 13.1281 166.283 14.0497L167.003 14.7431ZM169.613 13.6914V14.6914C170.393 14.6914 170.948 14.9278 171.374 15.363L172.089 14.6632L172.803 13.9635C171.951 13.0941 170.856 12.6914 169.613 12.6914V13.6914ZM172.089 14.6632L171.382 15.3704C171.807 15.7958 172.06 16.398 172.06 17.2991H173.06H174.06C174.06 15.9904 173.675 14.8354 172.796 13.9561L172.089 14.6632ZM167.336 16.8465V17.8465H171.743V16.8465V15.8465H167.336V16.8465ZM171.743 16.8465L172.741 16.7928C172.695 15.9378 172.356 15.1807 171.773 14.638C171.192 14.0982 170.425 13.823 169.613 13.823V14.823V15.823C169.971 15.823 170.236 15.9405 170.411 16.1029C170.583 16.2625 170.723 16.5172 170.744 16.9002L171.743 16.8465ZM169.613 14.823V13.823C167.892 13.823 166.639 15.0752 166.352 16.6696L167.336 16.8465L168.32 17.0234C168.46 16.2482 168.99 15.823 169.613 15.823V14.823Z" fill="black" mask="url(#path-8-outside-1_1931_1311)"/>
<mask id="path-10-outside-2_1931_1311" maskUnits="userSpaceOnUse" x="60" y="25.6797" width="125" height="23" fill="black">
<rect fill="white" x="60" y="25.6797" width="125" height="23"/>
<path d="M69.5 42.8997C67.26 42.8997 65.42 42.1797 63.96 40.7597C62.52 39.3197 61.8 37.4997 61.8 35.2997C61.8 33.0797 62.54 31.2397 64.04 29.7997C65.54 28.3597 67.4 27.6397 69.62 27.6397C72.02 27.6397 74.24 28.6197 75.58 30.0397L73.64 32.1597C72.54 31.0597 71.2 30.4997 69.62 30.4997C68.24 30.4997 67.1 30.9597 66.2 31.8597C65.3 32.7597 64.84 33.8997 64.84 35.2797C64.84 36.6197 65.28 37.7597 66.16 38.6797C67.06 39.5997 68.2 40.0597 69.58 40.0597C71.1 40.0597 72.6 39.4197 73.54 38.4797V36.4597H69.46V33.8797H76.24V39.9597C74.36 41.9197 72.12 42.8997 69.5 42.8997ZM77.8914 37.2197C77.8914 35.6197 78.4314 34.2597 79.5314 33.1597C80.6314 32.0397 82.0314 31.4797 83.7314 31.4797C85.4314 31.4797 86.8314 32.0397 87.9314 33.1597C89.0314 34.2597 89.5714 35.6197 89.5714 37.2197C89.5714 38.8397 89.0314 40.1997 87.9314 41.2997C86.8314 42.3997 85.4314 42.9597 83.7314 42.9597C82.0314 42.9597 80.6314 42.3997 79.5314 41.2997C78.4314 40.1997 77.8914 38.8397 77.8914 37.2197ZM81.5714 39.4397C82.1514 40.0397 82.8714 40.3397 83.7314 40.3397C84.5914 40.3397 85.2914 40.0397 85.8714 39.4397C86.4514 38.8197 86.7514 38.0797 86.7514 37.2197C86.7514 36.3597 86.4514 35.6197 85.8714 35.0197C85.2914 34.4197 84.5914 34.1197 83.7314 34.1197C82.8714 34.1197 82.1514 34.4197 81.5714 35.0197C80.9914 35.6197 80.7114 36.3597 80.7114 37.2197C80.7114 38.0797 80.9914 38.8197 81.5714 39.4397ZM90.9773 37.2197C90.9773 35.6197 91.5173 34.2597 92.6173 33.1597C93.7173 32.0397 95.1173 31.4797 96.8173 31.4797C98.5173 31.4797 99.9173 32.0397 101.017 33.1597C102.117 34.2597 102.657 35.6197 102.657 37.2197C102.657 38.8397 102.117 40.1997 101.017 41.2997C99.9173 42.3997 98.5173 42.9597 96.8173 42.9597C95.1173 42.9597 93.7173 42.3997 92.6173 41.2997C91.5173 40.1997 90.9773 38.8397 90.9773 37.2197ZM94.6573 39.4397C95.2373 40.0397 95.9573 40.3397 96.8173 40.3397C97.6773 40.3397 98.3773 40.0397 98.9573 39.4397C99.5373 38.8197 99.8373 38.0797 99.8373 37.2197C99.8373 36.3597 99.5373 35.6197 98.9573 35.0197C98.3773 34.4197 97.6773 34.1197 96.8173 34.1197C95.9573 34.1197 95.2373 34.4197 94.6573 35.0197C94.0773 35.6197 93.7973 36.3597 93.7973 37.2197C93.7973 38.0797 94.0773 38.8197 94.6573 39.4397ZM112.983 32.9797V31.7797H115.583V41.5997C115.583 43.3397 115.023 44.7397 113.903 45.7597C112.783 46.7797 111.323 47.2997 109.543 47.2997C107.683 47.2997 106.003 46.7797 104.543 45.7197L105.643 43.5997C106.903 44.4597 108.183 44.8797 109.463 44.8797C111.623 44.8797 112.863 43.6197 112.863 41.8597V41.2997C112.023 42.2397 110.903 42.6997 109.503 42.6997C107.903 42.6997 106.603 42.1797 105.583 41.1197C104.563 40.0597 104.063 38.7397 104.063 37.1197C104.063 35.4997 104.603 34.1597 105.663 33.0997C106.723 32.0397 108.043 31.4997 109.623 31.4997C110.963 31.4997 112.083 31.9997 112.983 32.9797ZM106.903 37.1397C106.903 38.0397 107.183 38.7797 107.763 39.3597C108.343 39.9397 109.063 40.2397 109.923 40.2397C110.783 40.2397 111.503 39.9397 112.083 39.3597C112.663 38.7597 112.943 38.0197 112.943 37.1397C112.943 36.2597 112.663 35.5397 112.083 34.9597C111.503 34.3797 110.783 34.0797 109.923 34.0797C109.063 34.0797 108.343 34.3797 107.763 34.9597C107.183 35.5397 106.903 36.2597 106.903 37.1397ZM120.959 27.4797V42.6797H118.139V27.4797H120.959ZM134.071 36.9797C134.071 37.3597 134.031 37.7797 133.971 38.2197H125.791C126.191 39.7597 127.251 40.5397 128.971 40.5397C130.151 40.5397 131.551 40.0797 132.491 39.4397L133.611 41.4197C132.231 42.4197 130.651 42.9197 128.851 42.9197C126.931 42.9197 125.471 42.3597 124.451 41.2597C123.431 40.1597 122.931 38.7997 122.931 37.2197C122.931 35.5597 123.451 34.1997 124.511 33.1197C125.571 32.0397 126.931 31.4997 128.611 31.4997C130.191 31.4997 131.511 31.9997 132.531 32.9797C133.551 33.9597 134.071 35.2797 134.071 36.9797ZM128.611 33.8397C127.191 33.8397 126.131 34.6997 125.791 36.1197H131.331C131.071 34.6997 130.051 33.8397 128.611 33.8397ZM141.312 27.8997H146.772C148.512 27.8997 149.812 28.3797 150.672 29.3197C151.552 30.2597 151.992 31.4197 151.992 32.7797C151.992 34.1597 151.532 35.2997 150.632 36.2197C149.732 37.1197 148.372 37.5797 146.552 37.5797H144.272V42.6797H141.312V27.8997ZM144.272 34.8997H146.652C148.172 34.8997 148.972 33.9397 148.972 32.7397C148.972 31.5597 148.152 30.6397 146.812 30.6397H144.272V34.8997ZM156.545 27.4797V42.6797H153.725V27.4797H156.545ZM167.377 33.0797V31.7797H170.057V42.6797H167.377V41.4197C166.437 42.4397 165.277 42.9397 163.897 42.9397C162.337 42.9397 161.037 42.3997 160.017 41.2997C158.997 40.1997 158.497 38.8197 158.497 37.1797C158.497 35.5397 159.017 34.1797 160.037 33.1197C161.057 32.0397 162.357 31.4997 163.897 31.4997C165.257 31.4997 166.417 32.0197 167.377 33.0797ZM167.417 37.2197C167.417 36.3597 167.117 35.6197 166.537 34.9997C165.957 34.3797 165.237 34.0797 164.357 34.0797C163.457 34.0797 162.737 34.3797 162.157 34.9997C161.597 35.6197 161.317 36.3597 161.317 37.2197C161.317 38.0997 161.597 38.8397 162.177 39.4597C162.757 40.0797 163.477 40.3797 164.357 40.3797C165.237 40.3797 165.957 40.0797 166.537 39.4597C167.117 38.8397 167.417 38.0997 167.417 37.2197ZM177.553 38.8797L180.033 31.7797H183.113L178.733 43.2197C177.673 45.9997 176.273 47.3197 174.113 47.3197C173.293 47.3197 172.593 47.1397 172.013 46.7797L172.493 44.4197C172.993 44.6597 173.473 44.7797 173.893 44.7797C174.773 44.7797 175.473 44.1997 176.013 43.0597L176.233 42.5597L171.473 31.7797H174.733L177.553 38.8797Z"/>
</mask>
<path d="M69.5 42.8997C67.26 42.8997 65.42 42.1797 63.96 40.7597C62.52 39.3197 61.8 37.4997 61.8 35.2997C61.8 33.0797 62.54 31.2397 64.04 29.7997C65.54 28.3597 67.4 27.6397 69.62 27.6397C72.02 27.6397 74.24 28.6197 75.58 30.0397L73.64 32.1597C72.54 31.0597 71.2 30.4997 69.62 30.4997C68.24 30.4997 67.1 30.9597 66.2 31.8597C65.3 32.7597 64.84 33.8997 64.84 35.2797C64.84 36.6197 65.28 37.7597 66.16 38.6797C67.06 39.5997 68.2 40.0597 69.58 40.0597C71.1 40.0597 72.6 39.4197 73.54 38.4797V36.4597H69.46V33.8797H76.24V39.9597C74.36 41.9197 72.12 42.8997 69.5 42.8997ZM77.8914 37.2197C77.8914 35.6197 78.4314 34.2597 79.5314 33.1597C80.6314 32.0397 82.0314 31.4797 83.7314 31.4797C85.4314 31.4797 86.8314 32.0397 87.9314 33.1597C89.0314 34.2597 89.5714 35.6197 89.5714 37.2197C89.5714 38.8397 89.0314 40.1997 87.9314 41.2997C86.8314 42.3997 85.4314 42.9597 83.7314 42.9597C82.0314 42.9597 80.6314 42.3997 79.5314 41.2997C78.4314 40.1997 77.8914 38.8397 77.8914 37.2197ZM81.5714 39.4397C82.1514 40.0397 82.8714 40.3397 83.7314 40.3397C84.5914 40.3397 85.2914 40.0397 85.8714 39.4397C86.4514 38.8197 86.7514 38.0797 86.7514 37.2197C86.7514 36.3597 86.4514 35.6197 85.8714 35.0197C85.2914 34.4197 84.5914 34.1197 83.7314 34.1197C82.8714 34.1197 82.1514 34.4197 81.5714 35.0197C80.9914 35.6197 80.7114 36.3597 80.7114 37.2197C80.7114 38.0797 80.9914 38.8197 81.5714 39.4397ZM90.9773 37.2197C90.9773 35.6197 91.5173 34.2597 92.6173 33.1597C93.7173 32.0397 95.1173 31.4797 96.8173 31.4797C98.5173 31.4797 99.9173 32.0397 101.017 33.1597C102.117 34.2597 102.657 35.6197 102.657 37.2197C102.657 38.8397 102.117 40.1997 101.017 41.2997C99.9173 42.3997 98.5173 42.9597 96.8173 42.9597C95.1173 42.9597 93.7173 42.3997 92.6173 41.2997C91.5173 40.1997 90.9773 38.8397 90.9773 37.2197ZM94.6573 39.4397C95.2373 40.0397 95.9573 40.3397 96.8173 40.3397C97.6773 40.3397 98.3773 40.0397 98.9573 39.4397C99.5373 38.8197 99.8373 38.0797 99.8373 37.2197C99.8373 36.3597 99.5373 35.6197 98.9573 35.0197C98.3773 34.4197 97.6773 34.1197 96.8173 34.1197C95.9573 34.1197 95.2373 34.4197 94.6573 35.0197C94.0773 35.6197 93.7973 36.3597 93.7973 37.2197C93.7973 38.0797 94.0773 38.8197 94.6573 39.4397ZM112.983 32.9797V31.7797H115.583V41.5997C115.583 43.3397 115.023 44.7397 113.903 45.7597C112.783 46.7797 111.323 47.2997 109.543 47.2997C107.683 47.2997 106.003 46.7797 104.543 45.7197L105.643 43.5997C106.903 44.4597 108.183 44.8797 109.463 44.8797C111.623 44.8797 112.863 43.6197 112.863 41.8597V41.2997C112.023 42.2397 110.903 42.6997 109.503 42.6997C107.903 42.6997 106.603 42.1797 105.583 41.1197C104.563 40.0597 104.063 38.7397 104.063 37.1197C104.063 35.4997 104.603 34.1597 105.663 33.0997C106.723 32.0397 108.043 31.4997 109.623 31.4997C110.963 31.4997 112.083 31.9997 112.983 32.9797ZM106.903 37.1397C106.903 38.0397 107.183 38.7797 107.763 39.3597C108.343 39.9397 109.063 40.2397 109.923 40.2397C110.783 40.2397 111.503 39.9397 112.083 39.3597C112.663 38.7597 112.943 38.0197 112.943 37.1397C112.943 36.2597 112.663 35.5397 112.083 34.9597C111.503 34.3797 110.783 34.0797 109.923 34.0797C109.063 34.0797 108.343 34.3797 107.763 34.9597C107.183 35.5397 106.903 36.2597 106.903 37.1397ZM120.959 27.4797V42.6797H118.139V27.4797H120.959ZM134.071 36.9797C134.071 37.3597 134.031 37.7797 133.971 38.2197H125.791C126.191 39.7597 127.251 40.5397 128.971 40.5397C130.151 40.5397 131.551 40.0797 132.491 39.4397L133.611 41.4197C132.231 42.4197 130.651 42.9197 128.851 42.9197C126.931 42.9197 125.471 42.3597 124.451 41.2597C123.431 40.1597 122.931 38.7997 122.931 37.2197C122.931 35.5597 123.451 34.1997 124.511 33.1197C125.571 32.0397 126.931 31.4997 128.611 31.4997C130.191 31.4997 131.511 31.9997 132.531 32.9797C133.551 33.9597 134.071 35.2797 134.071 36.9797ZM128.611 33.8397C127.191 33.8397 126.131 34.6997 125.791 36.1197H131.331C131.071 34.6997 130.051 33.8397 128.611 33.8397ZM141.312 27.8997H146.772C148.512 27.8997 149.812 28.3797 150.672 29.3197C151.552 30.2597 151.992 31.4197 151.992 32.7797C151.992 34.1597 151.532 35.2997 150.632 36.2197C149.732 37.1197 148.372 37.5797 146.552 37.5797H144.272V42.6797H141.312V27.8997ZM144.272 34.8997H146.652C148.172 34.8997 148.972 33.9397 148.972 32.7397C148.972 31.5597 148.152 30.6397 146.812 30.6397H144.272V34.8997ZM156.545 27.4797V42.6797H153.725V27.4797H156.545ZM167.377 33.0797V31.7797H170.057V42.6797H167.377V41.4197C166.437 42.4397 165.277 42.9397 163.897 42.9397C162.337 42.9397 161.037 42.3997 160.017 41.2997C158.997 40.1997 158.497 38.8197 158.497 37.1797C158.497 35.5397 159.017 34.1797 160.037 33.1197C161.057 32.0397 162.357 31.4997 163.897 31.4997C165.257 31.4997 166.417 32.0197 167.377 33.0797ZM167.417 37.2197C167.417 36.3597 167.117 35.6197 166.537 34.9997C165.957 34.3797 165.237 34.0797 164.357 34.0797C163.457 34.0797 162.737 34.3797 162.157 34.9997C161.597 35.6197 161.317 36.3597 161.317 37.2197C161.317 38.0997 161.597 38.8397 162.177 39.4597C162.757 40.0797 163.477 40.3797 164.357 40.3797C165.237 40.3797 165.957 40.0797 166.537 39.4597C167.117 38.8397 167.417 38.0997 167.417 37.2197ZM177.553 38.8797L180.033 31.7797H183.113L178.733 43.2197C177.673 45.9997 176.273 47.3197 174.113 47.3197C173.293 47.3197 172.593 47.1397 172.013 46.7797L172.493 44.4197C172.993 44.6597 173.473 44.7797 173.893 44.7797C174.773 44.7797 175.473 44.1997 176.013 43.0597L176.233 42.5597L171.473 31.7797H174.733L177.553 38.8797Z" fill="white"/>
<path d="M63.96 40.7597L63.2528 41.4669L63.2628 41.4765L63.96 40.7597ZM64.04 29.7997L63.3475 29.0783L63.3475 29.0783L64.04 29.7997ZM75.58 30.0397L76.3177 30.7148L76.9451 30.0292L76.3073 29.3534L75.58 30.0397ZM73.64 32.1597L72.9329 32.8668L73.672 33.6059L74.3777 32.8348L73.64 32.1597ZM66.2 31.8597L66.9071 32.5668L66.9071 32.5668L66.2 31.8597ZM66.16 38.6797L65.4373 39.371L65.4452 39.379L66.16 38.6797ZM73.54 38.4797L74.2471 39.1868L74.54 38.8939V38.4797H73.54ZM73.54 36.4597H74.54V35.4597H73.54V36.4597ZM69.46 36.4597H68.46V37.4597H69.46V36.4597ZM69.46 33.8797V32.8797H68.46V33.8797H69.46ZM76.24 33.8797H77.24V32.8797H76.24V33.8797ZM76.24 39.9597L76.9617 40.6519L77.24 40.3618V39.9597H76.24ZM69.5 42.8997V41.8997C67.4969 41.8997 65.9143 41.2655 64.6572 40.0428L63.96 40.7597L63.2628 41.4765C64.9257 43.0939 67.0231 43.8997 69.5 43.8997V42.8997ZM63.96 40.7597L64.6671 40.0526C63.4306 38.8161 62.8 37.258 62.8 35.2997H61.8H60.8C60.8 37.7414 61.6094 39.8233 63.2529 41.4668L63.96 40.7597ZM61.8 35.2997H62.8C62.8 33.3265 63.4466 31.7555 64.7325 30.5211L64.04 29.7997L63.3475 29.0783C61.6334 30.7238 60.8 32.8329 60.8 35.2997H61.8ZM64.04 29.7997L64.7325 30.5211C66.0329 29.2727 67.6389 28.6397 69.62 28.6397V27.6397V26.6397C67.1611 26.6397 65.0471 27.4466 63.3475 29.0783L64.04 29.7997ZM69.62 27.6397V28.6397C71.7674 28.6397 73.7167 29.5221 74.8527 30.726L75.58 30.0397L76.3073 29.3534C74.7633 27.7172 72.2726 26.6397 69.62 26.6397V27.6397ZM75.58 30.0397L74.8423 29.3646L72.9023 31.4846L73.64 32.1597L74.3777 32.8348L76.3177 30.7148L75.58 30.0397ZM73.64 32.1597L74.3471 31.4526C73.0595 30.165 71.4652 29.4997 69.62 29.4997V30.4997V31.4997C70.9348 31.4997 72.0205 31.9544 72.9329 32.8668L73.64 32.1597ZM69.62 30.4997V29.4997C67.9938 29.4997 66.5934 30.052 65.4929 31.1526L66.2 31.8597L66.9071 32.5668C67.6066 31.8673 68.4862 31.4997 69.62 31.4997V30.4997ZM66.2 31.8597L65.4929 31.1526C64.3923 32.2531 63.84 33.6535 63.84 35.2797H64.84H65.84C65.84 34.1459 66.2077 33.2663 66.9071 32.5668L66.2 31.8597ZM64.84 35.2797H63.84C63.84 36.8601 64.3678 38.2528 65.4374 39.3709L66.16 38.6797L66.8826 37.9885C66.1922 37.2666 65.84 36.3793 65.84 35.2797H64.84ZM66.16 38.6797L65.4452 39.379C66.5479 40.5062 67.9526 41.0597 69.58 41.0597V40.0597V39.0597C68.4474 39.0597 67.5721 38.6932 66.8748 37.9804L66.16 38.6797ZM69.58 40.0597V41.0597C71.3557 41.0597 73.113 40.3209 74.2471 39.1868L73.54 38.4797L72.8329 37.7726C72.087 38.5184 70.8443 39.0597 69.58 39.0597V40.0597ZM73.54 38.4797H74.54V36.4597H73.54H72.54V38.4797H73.54ZM73.54 36.4597V35.4597H69.46V36.4597V37.4597H73.54V36.4597ZM69.46 36.4597H70.46V33.8797H69.46H68.46V36.4597H69.46ZM69.46 33.8797V34.8797H76.24V33.8797V32.8797H69.46V33.8797ZM76.24 33.8797H75.24V39.9597H76.24H77.24V33.8797H76.24ZM76.24 39.9597L75.5183 39.2675C73.8183 41.0398 71.8354 41.8997 69.5 41.8997V42.8997V43.8997C72.4046 43.8997 74.9017 42.7996 76.9617 40.6519L76.24 39.9597ZM79.5314 33.1597L80.2385 33.8668L80.2449 33.8604L79.5314 33.1597ZM87.9314 33.1597L87.2179 33.8604L87.2243 33.8668L87.9314 33.1597ZM87.9314 41.2997L87.2243 40.5926H87.2243L87.9314 41.2997ZM79.5314 41.2997L80.2385 40.5926V40.5926L79.5314 41.2997ZM81.5714 39.4397L80.8411 40.1228L80.8467 40.1288L80.8524 40.1347L81.5714 39.4397ZM85.8714 39.4397L86.5904 40.1347L86.5961 40.1288L86.6017 40.1228L85.8714 39.4397ZM85.8714 35.0197L85.1524 35.7147V35.7147L85.8714 35.0197ZM77.8914 37.2197H78.8914C78.8914 35.8699 79.3364 34.7689 80.2385 33.8668L79.5314 33.1597L78.8243 32.4526C77.5264 33.7505 76.8914 35.3695 76.8914 37.2197H77.8914ZM79.5314 33.1597L80.2449 33.8604C81.1402 32.9487 82.2751 32.4797 83.7314 32.4797V31.4797V30.4797C81.7877 30.4797 80.1226 31.1307 78.818 32.459L79.5314 33.1597ZM83.7314 31.4797V32.4797C85.1877 32.4797 86.3226 32.9487 87.218 33.8604L87.9314 33.1597L88.6449 32.459C87.3402 31.1307 85.6751 30.4797 83.7314 30.4797V31.4797ZM87.9314 33.1597L87.2243 33.8668C88.1264 34.7689 88.5714 35.8699 88.5714 37.2197H89.5714H90.5714C90.5714 35.3695 89.9364 33.7505 88.6385 32.4526L87.9314 33.1597ZM89.5714 37.2197H88.5714C88.5714 38.5914 88.1251 39.6917 87.2243 40.5926L87.9314 41.2997L88.6385 42.0068C89.9377 40.7076 90.5714 39.088 90.5714 37.2197H89.5714ZM87.9314 41.2997L87.2243 40.5926C86.3271 41.4897 85.1886 41.9597 83.7314 41.9597V42.9597V43.9597C85.6742 43.9597 87.3357 43.3096 88.6385 42.0068L87.9314 41.2997ZM83.7314 42.9597V41.9597C82.2742 41.9597 81.1357 41.4897 80.2385 40.5926L79.5314 41.2997L78.8243 42.0068C80.1271 43.3096 81.7886 43.9597 83.7314 43.9597V42.9597ZM79.5314 41.2997L80.2385 40.5926C79.3377 39.6917 78.8914 38.5914 78.8914 37.2197H77.8914H76.8914C76.8914 39.088 77.5251 40.7076 78.8243 42.0068L79.5314 41.2997ZM81.5714 39.4397L80.8524 40.1347C81.6272 40.9362 82.6096 41.3397 83.7314 41.3397V40.3397V39.3397C83.1332 39.3397 82.6756 39.1432 82.2904 38.7447L81.5714 39.4397ZM83.7314 40.3397V41.3397C84.8605 41.3397 85.8206 40.9311 86.5904 40.1347L85.8714 39.4397L85.1524 38.7447C84.7622 39.1483 84.3223 39.3397 83.7314 39.3397V40.3397ZM85.8714 39.4397L86.6017 40.1228C87.3517 39.3211 87.7514 38.3381 87.7514 37.2197H86.7514H85.7514C85.7514 37.8213 85.5511 38.3183 85.1411 38.7565L85.8714 39.4397ZM86.7514 37.2197H87.7514C87.7514 36.104 87.3532 35.1138 86.5904 34.3247L85.8714 35.0197L85.1524 35.7147C85.5496 36.1256 85.7514 36.6154 85.7514 37.2197H86.7514ZM85.8714 35.0197L86.5904 34.3247C85.8206 33.5283 84.8605 33.1197 83.7314 33.1197V34.1197V35.1197C84.3223 35.1197 84.7622 35.3111 85.1524 35.7147L85.8714 35.0197ZM83.7314 34.1197V33.1197C82.6096 33.1197 81.6272 33.5232 80.8524 34.3247L81.5714 35.0197L82.2904 35.7147C82.6756 35.3162 83.1332 35.1197 83.7314 35.1197V34.1197ZM81.5714 35.0197L80.8524 34.3247C80.0781 35.1257 79.7114 36.1213 79.7114 37.2197H80.7114H81.7114C81.7114 36.5981 81.9047 36.1137 82.2904 35.7147L81.5714 35.0197ZM80.7114 37.2197H79.7114C79.7114 38.3212 80.0797 39.3089 80.8411 40.1228L81.5714 39.4397L82.3017 38.7565C81.9031 38.3305 81.7114 37.8382 81.7114 37.2197H80.7114ZM92.6173 33.1597L93.3245 33.8668L93.3308 33.8604L92.6173 33.1597ZM101.017 33.1597L100.304 33.8604L100.31 33.8668L101.017 33.1597ZM101.017 41.2997L100.31 40.5926V40.5926L101.017 41.2997ZM92.6173 41.2997L93.3245 40.5926V40.5926L92.6173 41.2997ZM94.6573 39.4397L93.9271 40.1228L93.9327 40.1288L93.9384 40.1347L94.6573 39.4397ZM98.9573 39.4397L99.6763 40.1347L99.682 40.1288L99.6876 40.1228L98.9573 39.4397ZM98.9573 35.0197L98.2384 35.7147H98.2384L98.9573 35.0197ZM90.9773 37.2197H91.9773C91.9773 35.8699 92.4224 34.7689 93.3245 33.8668L92.6173 33.1597L91.9102 32.4526C90.6123 33.7505 89.9773 35.3695 89.9773 37.2197H90.9773ZM92.6173 33.1597L93.3308 33.8604C94.2262 32.9487 95.3611 32.4797 96.8173 32.4797V31.4797V30.4797C94.8736 30.4797 93.2085 31.1307 91.9039 32.459L92.6173 33.1597ZM96.8173 31.4797V32.4797C98.2736 32.4797 99.4085 32.9487 100.304 33.8604L101.017 33.1597L101.731 32.459C100.426 31.1307 98.7611 30.4797 96.8173 30.4797V31.4797ZM101.017 33.1597L100.31 33.8668C101.212 34.7689 101.657 35.8699 101.657 37.2197H102.657H103.657C103.657 35.3695 103.022 33.7505 101.724 32.4526L101.017 33.1597ZM102.657 37.2197H101.657C101.657 38.5914 101.211 39.6917 100.31 40.5926L101.017 41.2997L101.724 42.0068C103.024 40.7076 103.657 39.088 103.657 37.2197H102.657ZM101.017 41.2997L100.31 40.5926C99.4131 41.4897 98.2746 41.9597 96.8173 41.9597V42.9597V43.9597C98.7601 43.9597 100.422 43.3096 101.724 42.0068L101.017 41.2997ZM96.8173 42.9597V41.9597C95.3601 41.9597 94.2216 41.4897 93.3245 40.5926L92.6173 41.2997L91.9102 42.0068C93.2131 43.3096 94.8746 43.9597 96.8173 43.9597V42.9597ZM92.6173 41.2997L93.3245 40.5926C92.4236 39.6917 91.9773 38.5914 91.9773 37.2197H90.9773H89.9773C89.9773 39.088 90.6111 40.7076 91.9102 42.0068L92.6173 41.2997ZM94.6573 39.4397L93.9384 40.1347C94.7131 40.9362 95.6956 41.3397 96.8173 41.3397V40.3397V39.3397C96.2191 39.3397 95.7615 39.1432 95.3763 38.7447L94.6573 39.4397ZM96.8173 40.3397V41.3397C97.9464 41.3397 98.9065 40.9311 99.6763 40.1347L98.9573 39.4397L98.2384 38.7447C97.8482 39.1483 97.4083 39.3397 96.8173 39.3397V40.3397ZM98.9573 39.4397L99.6876 40.1228C100.438 39.3211 100.837 38.3381 100.837 37.2197H99.8373H98.8373C98.8373 37.8213 98.637 38.3183 98.2271 38.7565L98.9573 39.4397ZM99.8373 37.2197H100.837C100.837 36.104 100.439 35.1138 99.6763 34.3247L98.9573 35.0197L98.2384 35.7147C98.6356 36.1256 98.8373 36.6154 98.8373 37.2197H99.8373ZM98.9573 35.0197L99.6763 34.3247C98.9065 33.5283 97.9464 33.1197 96.8173 33.1197V34.1197V35.1197C97.4083 35.1197 97.8482 35.3111 98.2384 35.7147L98.9573 35.0197ZM96.8173 34.1197V33.1197C95.6956 33.1197 94.7131 33.5232 93.9384 34.3247L94.6573 35.0197L95.3763 35.7147C95.7615 35.3162 96.2191 35.1197 96.8173 35.1197V34.1197ZM94.6573 35.0197L93.9384 34.3247C93.164 35.1257 92.7973 36.1213 92.7973 37.2197H93.7973H94.7973C94.7973 36.5981 94.9906 36.1137 95.3763 35.7147L94.6573 35.0197ZM93.7973 37.2197H92.7973C92.7973 38.3212 93.1656 39.3089 93.9271 40.1228L94.6573 39.4397L95.3876 38.7565C94.9891 38.3305 94.7973 37.8382 94.7973 37.2197H93.7973ZM112.983 32.9797L112.247 33.6561L113.983 35.547V32.9797H112.983ZM112.983 31.7797V30.7797H111.983V31.7797H112.983ZM115.583 31.7797H116.583V30.7797H115.583V31.7797ZM113.903 45.7597L114.577 46.499V46.499L113.903 45.7597ZM104.543 45.7197L103.656 45.2591L103.259 46.0232L103.956 46.5289L104.543 45.7197ZM105.643 43.5997L106.207 42.7737L105.275 42.1378L104.756 43.1391L105.643 43.5997ZM112.863 41.2997H113.863V38.6799L112.118 40.6334L112.863 41.2997ZM105.583 41.1197L106.304 40.4263V40.4263L105.583 41.1197ZM105.663 33.0997L104.956 32.3926V32.3926L105.663 33.0997ZM112.083 39.3597L112.79 40.0668L112.796 40.0608L112.802 40.0547L112.083 39.3597ZM112.083 34.9597L111.376 35.6668V35.6668L112.083 34.9597ZM107.763 34.9597L108.47 35.6668L108.47 35.6668L107.763 34.9597ZM112.983 32.9797H113.983V31.7797H112.983H111.983V32.9797H112.983ZM112.983 31.7797V32.7797H115.583V31.7797V30.7797H112.983V31.7797ZM115.583 31.7797H114.583V41.5997H115.583H116.583V31.7797H115.583ZM115.583 41.5997H114.583C114.583 43.1082 114.108 44.2211 113.23 45.0203L113.903 45.7597L114.577 46.499C115.939 45.2583 116.583 43.5711 116.583 41.5997H115.583ZM113.903 45.7597L113.23 45.0203C112.324 45.8456 111.117 46.2997 109.543 46.2997V47.2997V48.2997C111.529 48.2997 113.243 47.7137 114.577 46.499L113.903 45.7597ZM109.543 47.2997V46.2997C107.881 46.2997 106.409 45.8388 105.131 44.9105L104.543 45.7197L103.956 46.5289C105.597 47.7205 107.486 48.2997 109.543 48.2997V47.2997ZM104.543 45.7197L105.431 46.1803L106.531 44.0602L105.643 43.5997L104.756 43.1391L103.656 45.2591L104.543 45.7197ZM105.643 43.5997L105.08 44.4256C106.479 45.3809 107.952 45.8797 109.463 45.8797V44.8797V43.8797C108.414 43.8797 107.328 43.5385 106.207 42.7737L105.643 43.5997ZM109.463 44.8797V45.8797C110.736 45.8797 111.848 45.5059 112.651 44.7647C113.461 44.0178 113.863 42.9837 113.863 41.8597H112.863H111.863C111.863 42.4957 111.646 42.9716 111.295 43.2946C110.939 43.6235 110.35 43.8797 109.463 43.8797V44.8797ZM112.863 41.8597H113.863V41.2997H112.863H111.863V41.8597H112.863ZM112.863 41.2997L112.118 40.6334C111.493 41.3323 110.66 41.6997 109.503 41.6997V42.6997V43.6997C111.147 43.6997 112.554 43.1471 113.609 41.966L112.863 41.2997ZM109.503 42.6997V41.6997C108.146 41.6997 107.116 41.2702 106.304 40.4263L105.583 41.1197L104.863 41.8131C106.091 43.0892 107.661 43.6997 109.503 43.6997V42.6997ZM105.583 41.1197L106.304 40.4263C105.483 39.573 105.063 38.5109 105.063 37.1197H104.063H103.063C103.063 38.9685 103.644 40.5464 104.863 41.8131L105.583 41.1197ZM104.063 37.1197H105.063C105.063 35.7461 105.511 34.6664 106.37 33.8068L105.663 33.0997L104.956 32.3926C103.696 33.653 103.063 35.2533 103.063 37.1197H104.063ZM105.663 33.0997L106.37 33.8068C107.235 32.942 108.297 32.4997 109.623 32.4997V31.4997V30.4997C107.789 30.4997 106.211 31.1373 104.956 32.3926L105.663 33.0997ZM109.623 31.4997V32.4997C110.68 32.4997 111.534 32.88 112.247 33.6561L112.983 32.9797L113.72 32.3033C112.633 31.1194 111.246 30.4997 109.623 30.4997V31.4997ZM106.903 37.1397H105.903C105.903 38.2676 106.264 39.2744 107.056 40.0668L107.763 39.3597L108.47 38.6526C108.103 38.2849 107.903 37.8117 107.903 37.1397H106.903ZM107.763 39.3597L107.056 40.0668C107.828 40.8382 108.804 41.2397 109.923 41.2397V40.2397V39.2397C109.323 39.2397 108.859 39.0411 108.47 38.6526L107.763 39.3597ZM109.923 40.2397V41.2397C111.043 41.2397 112.019 40.8382 112.79 40.0668L112.083 39.3597L111.376 38.6526C110.988 39.0411 110.524 39.2397 109.923 39.2397V40.2397ZM112.083 39.3597L112.802 40.0547C113.579 39.2514 113.943 38.2547 113.943 37.1397H112.943H111.943C111.943 37.7847 111.748 38.2679 111.364 38.6647L112.083 39.3597ZM112.943 37.1397H113.943C113.943 36.0212 113.576 35.0382 112.79 34.2526L112.083 34.9597L111.376 35.6668C111.751 36.0411 111.943 36.4981 111.943 37.1397H112.943ZM112.083 34.9597L112.79 34.2526C112.019 33.4811 111.043 33.0797 109.923 33.0797V34.0797V35.0797C110.524 35.0797 110.988 35.2782 111.376 35.6668L112.083 34.9597ZM109.923 34.0797V33.0797C108.804 33.0797 107.828 33.4811 107.056 34.2526L107.763 34.9597L108.47 35.6668C108.859 35.2782 109.323 35.0797 109.923 35.0797V34.0797ZM107.763 34.9597L107.056 34.2526C106.271 35.0382 105.903 36.0212 105.903 37.1397H106.903H107.903C107.903 36.4981 108.096 36.0411 108.47 35.6668L107.763 34.9597ZM120.959 27.4797H121.959V26.4797H120.959V27.4797ZM120.959 42.6797V43.6797H121.959V42.6797H120.959ZM118.139 42.6797H117.139V43.6797H118.139V42.6797ZM118.139 27.4797V26.4797H117.139V27.4797H118.139ZM120.959 27.4797H119.959V42.6797H120.959H121.959V27.4797H120.959ZM120.959 42.6797V41.6797H118.139V42.6797V43.6797H120.959V42.6797ZM118.139 42.6797H119.139V27.4797H118.139H117.139V42.6797H118.139ZM118.139 27.4797V28.4797H120.959V27.4797V26.4797H118.139V27.4797ZM133.971 38.2197V39.2197H134.844L134.962 38.3548L133.971 38.2197ZM125.791 38.2197V37.2197H124.498L124.823 38.4711L125.791 38.2197ZM132.491 39.4397L133.361 38.9473L132.826 38.0015L131.928 38.6131L132.491 39.4397ZM133.611 41.4197L134.198 42.2294L134.921 41.7051L134.481 40.9273L133.611 41.4197ZM124.451 41.2597L125.184 40.5797L124.451 41.2597ZM124.511 33.1197L123.797 32.4192V32.4192L124.511 33.1197ZM132.531 32.9797L131.838 33.7008V33.7008L132.531 32.9797ZM125.791 36.1197L124.818 35.8868L124.523 37.1197H125.791V36.1197ZM131.331 36.1197V37.1197H132.531L132.315 35.9396L131.331 36.1197ZM134.071 36.9797H133.071C133.071 37.2953 133.037 37.6651 132.98 38.0846L133.971 38.2197L134.962 38.3548C135.025 37.8943 135.071 37.4241 135.071 36.9797H134.071ZM133.971 38.2197V37.2197H125.791V38.2197V39.2197H133.971V38.2197ZM125.791 38.2197L124.823 38.4711C125.068 39.4147 125.542 40.2133 126.296 40.7644C127.042 41.3104 127.963 41.5397 128.971 41.5397V40.5397V39.5397C128.259 39.5397 127.789 39.379 127.476 39.1499C127.17 38.9261 126.914 38.5647 126.759 37.9683L125.791 38.2197ZM128.971 40.5397V41.5397C130.363 41.5397 131.957 41.0128 133.054 40.2663L132.491 39.4397L131.928 38.6131C131.145 39.1466 129.939 39.5397 128.971 39.5397V40.5397ZM132.491 39.4397L131.621 39.932L132.741 41.912L133.611 41.4197L134.481 40.9273L133.361 38.9473L132.491 39.4397ZM133.611 41.4197L133.024 40.6099C131.824 41.4798 130.451 41.9197 128.851 41.9197V42.9197V43.9197C130.85 43.9197 132.638 43.3596 134.198 42.2294L133.611 41.4197ZM128.851 42.9197V41.9197C127.133 41.9197 125.969 41.426 125.184 40.5797L124.451 41.2597L123.718 41.9396C124.973 43.2934 126.729 43.9197 128.851 43.9197V42.9197ZM124.451 41.2597L125.184 40.5797C124.351 39.681 123.931 38.5707 123.931 37.2197H122.931H121.931C121.931 39.0287 122.511 40.6384 123.718 41.9396L124.451 41.2597ZM122.931 37.2197H123.931C123.931 35.7909 124.369 34.6923 125.225 33.8202L124.511 33.1197L123.797 32.4192C122.533 33.7071 121.931 35.3285 121.931 37.2197H122.931ZM124.511 33.1197L125.225 33.8202C126.076 32.9525 127.169 32.4997 128.611 32.4997V31.4997V30.4997C126.693 30.4997 125.066 31.1268 123.797 32.4192L124.511 33.1197ZM128.611 31.4997V32.4997C129.964 32.4997 131.026 32.9205 131.838 33.7008L132.531 32.9797L133.224 32.2586C131.996 31.0789 130.418 30.4997 128.611 30.4997V31.4997ZM132.531 32.9797L131.838 33.7008C132.628 34.4602 133.071 35.5018 133.071 36.9797H134.071H135.071C135.071 35.0576 134.473 33.4592 133.224 32.2586L132.531 32.9797ZM128.611 33.8397V32.8397C126.707 32.8397 125.261 34.0377 124.818 35.8868L125.791 36.1197L126.763 36.3525C127.001 35.3616 127.675 34.8397 128.611 34.8397V33.8397ZM125.791 36.1197V37.1197H131.331V36.1197V35.1197H125.791V36.1197ZM131.331 36.1197L132.315 35.9396C132.149 35.033 131.726 34.2433 131.056 33.6813C130.386 33.1188 129.535 32.8397 128.611 32.8397V33.8397V34.8397C129.127 34.8397 129.506 34.9906 129.77 35.2131C130.036 35.436 130.253 35.7864 130.347 36.2998L131.331 36.1197ZM141.312 27.8997V26.8997H140.312V27.8997H141.312ZM150.672 29.3197L149.934 29.9947L149.942 30.0031L150.672 29.3197ZM150.632 36.2197L151.339 36.9268L151.347 36.919L150.632 36.2197ZM144.272 37.5797V36.5797H143.272V37.5797H144.272ZM144.272 42.6797V43.6797H145.272V42.6797H144.272ZM141.312 42.6797H140.312V43.6797H141.312V42.6797ZM144.272 34.8997H143.272V35.8997H144.272V34.8997ZM144.272 30.6397V29.6397H143.272V30.6397H144.272ZM141.312 27.8997V28.8997H146.772V27.8997V26.8997H141.312V27.8997ZM146.772 27.8997V28.8997C148.332 28.8997 149.322 29.3261 149.934 29.9947L150.672 29.3197L151.41 28.6447C150.301 27.4333 148.692 26.8997 146.772 26.8997V27.8997ZM150.672 29.3197L149.942 30.0031C150.637 30.7452 150.992 31.6557 150.992 32.7797H151.992H152.992C152.992 31.1837 152.467 29.7742 151.402 28.6363L150.672 29.3197ZM151.992 32.7797H150.992C150.992 33.9113 150.625 34.7964 149.917 35.5204L150.632 36.2197L151.347 36.919C152.438 35.803 152.992 34.4081 152.992 32.7797H151.992ZM150.632 36.2197L149.925 35.5126C149.278 36.1598 148.216 36.5797 146.552 36.5797V37.5797V38.5797C148.528 38.5797 150.186 38.0795 151.339 36.9268L150.632 36.2197ZM146.552 37.5797V36.5797H144.272V37.5797V38.5797H146.552V37.5797ZM144.272 37.5797H143.272V42.6797H144.272H145.272V37.5797H144.272ZM144.272 42.6797V41.6797H141.312V42.6797V43.6797H144.272V42.6797ZM141.312 42.6797H142.312V27.8997H141.312H140.312V42.6797H141.312ZM144.272 34.8997V35.8997H146.652V34.8997V33.8997H144.272V34.8997ZM146.652 34.8997V35.8997C147.628 35.8997 148.48 35.5862 149.089 34.9768C149.694 34.3715 149.972 33.563 149.972 32.7397H148.972H147.972C147.972 33.1164 147.85 33.3878 147.675 33.5626C147.504 33.7332 147.195 33.8997 146.652 33.8997V34.8997ZM148.972 32.7397H149.972C149.972 31.9154 149.682 31.1289 149.106 30.5448C148.526 29.9566 147.719 29.6397 146.812 29.6397V30.6397V31.6397C147.244 31.6397 147.518 31.7828 147.683 31.9496C147.851 32.1205 147.972 32.384 147.972 32.7397H148.972ZM146.812 30.6397V29.6397H144.272V30.6397V31.6397H146.812V30.6397ZM144.272 30.6397H143.272V34.8997H144.272H145.272V30.6397H144.272ZM156.545 27.4797H157.545V26.4797H156.545V27.4797ZM156.545 42.6797V43.6797H157.545V42.6797H156.545ZM153.725 42.6797H152.725V43.6797H153.725V42.6797ZM153.725 27.4797V26.4797H152.725V27.4797H153.725ZM156.545 27.4797H155.545V42.6797H156.545H157.545V27.4797H156.545ZM156.545 42.6797V41.6797H153.725V42.6797V43.6797H156.545V42.6797ZM153.725 42.6797H154.725V27.4797H153.725H152.725V42.6797H153.725ZM153.725 27.4797V28.4797H156.545V27.4797V26.4797H153.725V27.4797ZM167.377 33.0797L166.636 33.751L168.377 35.6735V33.0797H167.377ZM167.377 31.7797V30.7797H166.377V31.7797H167.377ZM170.057 31.7797H171.057V30.7797H170.057V31.7797ZM170.057 42.6797V43.6797H171.057V42.6797H170.057ZM167.377 42.6797H166.377V43.6797H167.377V42.6797ZM167.377 41.4197H168.377V38.859L166.642 40.742L167.377 41.4197ZM160.017 41.2997L160.75 40.6197V40.6197L160.017 41.2997ZM160.037 33.1197L160.757 33.8131L160.764 33.8063L160.037 33.1197ZM166.537 34.9997L165.807 35.6828V35.6828L166.537 34.9997ZM162.157 34.9997L161.427 34.3165L161.421 34.3229L161.415 34.3294L162.157 34.9997ZM162.177 39.4597L162.907 38.7765V38.7765L162.177 39.4597ZM166.537 39.4597L165.807 38.7765V38.7765L166.537 39.4597ZM167.377 33.0797H168.377V31.7797H167.377H166.377V33.0797H167.377ZM167.377 31.7797V32.7797H170.057V31.7797V30.7797H167.377V31.7797ZM170.057 31.7797H169.057V42.6797H170.057H171.057V31.7797H170.057ZM170.057 42.6797V41.6797H167.377V42.6797V43.6797H170.057V42.6797ZM167.377 42.6797H168.377V41.4197H167.377H166.377V42.6797H167.377ZM167.377 41.4197L166.642 40.742C165.893 41.5539 165.001 41.9397 163.897 41.9397V42.9397V43.9397C165.553 43.9397 166.98 43.3255 168.112 42.0974L167.377 41.4197ZM163.897 42.9397V41.9397C162.596 41.9397 161.568 41.5018 160.75 40.6197L160.017 41.2997L159.284 41.9796C160.506 43.2976 162.078 43.9397 163.897 43.9397V42.9397ZM160.017 41.2997L160.75 40.6197C159.922 39.727 159.497 38.5997 159.497 37.1797H158.497H157.497C157.497 39.0397 158.071 40.6724 159.284 41.9796L160.017 41.2997ZM158.497 37.1797H159.497C159.497 35.769 159.936 34.6667 160.757 33.8131L160.037 33.1197L159.316 32.4263C158.098 33.6927 157.497 35.3104 157.497 37.1797H158.497ZM160.037 33.1197L160.764 33.8063C161.585 32.9373 162.617 32.4997 163.897 32.4997V31.4997V30.4997C162.097 30.4997 160.529 31.1421 159.31 32.4331L160.037 33.1197ZM163.897 31.4997V32.4997C164.964 32.4997 165.858 32.892 166.636 33.751L167.377 33.0797L168.118 32.4084C166.976 31.1473 165.55 30.4997 163.897 30.4997V31.4997ZM167.417 37.2197H168.417C168.417 36.1013 168.017 35.1183 167.267 34.3165L166.537 34.9997L165.807 35.6828C166.217 36.1211 166.417 36.6181 166.417 37.2197H167.417ZM166.537 34.9997L167.267 34.3165C166.487 33.4827 165.497 33.0797 164.357 33.0797V34.0797V35.0797C164.977 35.0797 165.427 35.2766 165.807 35.6828L166.537 34.9997ZM164.357 34.0797V33.0797C163.2 33.0797 162.209 33.4802 161.427 34.3165L162.157 34.9997L162.887 35.6828C163.265 35.2792 163.714 35.0797 164.357 35.0797V34.0797ZM162.157 34.9997L161.415 34.3294C160.683 35.139 160.317 36.12 160.317 37.2197H161.317H162.317C162.317 36.5993 162.51 36.1003 162.899 35.67L162.157 34.9997ZM161.317 37.2197H160.317C160.317 38.3379 160.683 39.3266 161.447 40.1428L162.177 39.4597L162.907 38.7765C162.511 38.3528 162.317 37.8615 162.317 37.2197H161.317ZM162.177 39.4597L161.447 40.1428C162.227 40.9766 163.216 41.3797 164.357 41.3797V40.3797V39.3797C163.737 39.3797 163.287 39.1827 162.907 38.7765L162.177 39.4597ZM164.357 40.3797V41.3797C165.497 41.3797 166.487 40.9766 167.267 40.1428L166.537 39.4597L165.807 38.7765C165.427 39.1827 164.977 39.3797 164.357 39.3797V40.3797ZM166.537 39.4597L167.267 40.1428C168.019 39.3386 168.417 38.3548 168.417 37.2197H167.417H166.417C166.417 37.8446 166.214 38.3408 165.807 38.7765L166.537 39.4597ZM177.552 38.8797L176.623 39.2488L177.613 41.7401L178.497 39.2094L177.552 38.8797ZM180.033 31.7797V30.7797H179.323L179.088 31.4499L180.033 31.7797ZM183.113 31.7797L184.046 32.1372L184.566 30.7797H183.113V31.7797ZM178.732 43.2197L177.799 42.8621L177.798 42.8634L178.732 43.2197ZM172.012 46.7797L171.033 46.5804L170.894 47.2623L171.485 47.6293L172.012 46.7797ZM172.493 44.4197L172.925 43.5182L171.768 42.9629L171.513 44.2204L172.493 44.4197ZM176.012 43.0597L176.916 43.4878L176.922 43.4752L176.928 43.4624L176.012 43.0597ZM176.232 42.5597L177.148 42.9624L177.325 42.559L177.147 42.1558L176.232 42.5597ZM171.473 31.7797V30.7797H169.938L170.558 32.1836L171.473 31.7797ZM174.732 31.7797L175.662 31.4106L175.411 30.7797H174.732V31.7797ZM177.552 38.8797L178.497 39.2094L180.977 32.1094L180.033 31.7797L179.088 31.4499L176.608 38.5499L177.552 38.8797ZM180.033 31.7797V32.7797H183.113V31.7797V30.7797H180.033V31.7797ZM183.113 31.7797L182.179 31.4221L177.799 42.8621L178.732 43.2197L179.666 43.5772L184.046 32.1372L183.113 31.7797ZM178.732 43.2197L177.798 42.8634C177.296 44.1808 176.752 45.041 176.166 45.569C175.609 46.07 174.963 46.3197 174.113 46.3197V47.3197V48.3197C175.422 48.3197 176.556 47.9094 177.504 47.0554C178.423 46.2284 179.109 45.0385 179.667 43.576L178.732 43.2197ZM174.113 47.3197V46.3197C173.441 46.3197 172.932 46.1736 172.54 45.93L172.012 46.7797L171.485 47.6293C172.253 48.1058 173.144 48.3197 174.113 48.3197V47.3197ZM172.012 46.7797L172.992 46.979L173.472 44.619L172.493 44.4197L171.513 44.2204L171.033 46.5804L172.012 46.7797ZM172.493 44.4197L172.06 45.3212C172.661 45.6096 173.289 45.7797 173.893 45.7797V44.7797V43.7797C173.656 43.7797 173.324 43.7097 172.925 43.5182L172.493 44.4197ZM173.893 44.7797V45.7797C175.33 45.7797 176.299 44.7902 176.916 43.4878L176.012 43.0597L175.109 42.6316C174.646 43.6092 174.215 43.7797 173.893 43.7797V44.7797ZM176.012 43.0597L176.928 43.4624L177.148 42.9624L176.232 42.5597L175.317 42.1569L175.097 42.6569L176.012 43.0597ZM176.232 42.5597L177.147 42.1558L172.387 31.3758L171.473 31.7797L170.558 32.1836L175.318 42.9636L176.232 42.5597ZM171.473 31.7797V32.7797H174.732V31.7797V30.7797H171.473V31.7797ZM174.732 31.7797L173.803 32.1488L176.623 39.2488L177.552 38.8797L178.482 38.5106L175.662 31.4106L174.732 31.7797Z" fill="black" mask="url(#path-10-outside-2_1931_1311)"/>
<defs>
<clipPath id="clip0_1931_1311">
<rect width="32" height="33" transform="matrix(1 0 0 -1 15 45)" fill="white"/>
</clipPath>
</defs>
</svg>
