<svg width="50" height="50" viewBox="0 0 50 50" fill="none" xmlns="http://www.w3.org/2000/svg"><g clip-path="url(#clip0_1914_2113)"><path d="M17.0369 31.0897C16.6069 31.0897 16.2559 30.7387 16.2559 30.3072C16.2559 29.8772 16.6069 29.5263 17.0369 29.5263H25.5561C25.9876 29.5263 26.3371 29.8772 26.3371 30.3072C26.3371 30.7387 25.9876 31.0897 25.5561 31.0897H17.0369ZM8.52224 7.46627H8.48882C8.31409 7.46627 8.15607 7.53768 8.0406 7.65315C7.92512 7.76863 7.85371 7.92816 7.85371 8.10137V9.69825C7.85371 9.8593 7.91449 10.0082 8.01325 10.1206L8.0406 10.1465C8.15607 10.2619 8.31409 10.3334 8.48882 10.3334H27.744C27.9066 10.3334 28.0555 10.2741 28.1664 10.1753L28.1938 10.1465C28.3092 10.031 28.3806 9.87146 28.3806 9.69825V8.10137C28.3806 7.92816 28.3092 7.76863 28.1938 7.65315L28.1953 7.65163L28.1938 7.65012C28.0798 7.53616 27.9203 7.46627 27.744 7.46627H27.7106C27.2943 7.46627 26.9144 7.29762 26.6364 7.02413C26.5255 6.91473 26.4297 6.7871 26.3553 6.64732C26.3234 6.59262 26.296 6.53489 26.2763 6.47259C26.217 6.31154 26.1821 6.13833 26.179 5.956L26.1638 5.33609C26.1638 5.17351 26.1031 5.02461 26.0043 4.91218L25.977 4.88635C25.8615 4.77088 25.702 4.69946 25.5287 4.69946H21.8549C21.4811 4.69946 21.1362 4.56728 20.8673 4.34089L20.8688 4.33937L20.8673 4.33785C20.5983 4.11146 20.4069 3.79391 20.3431 3.42926C20.2489 2.89443 19.9678 2.42342 19.5682 2.08916C19.1777 1.76097 18.6718 1.56193 18.1172 1.56193C17.5611 1.56193 17.0551 1.76097 16.6646 2.08916C16.265 2.42342 15.984 2.89443 15.8913 3.42926C15.8259 3.79695 15.636 4.1145 15.3656 4.34089C15.0966 4.56728 14.7517 4.69946 14.3795 4.69946H10.7056C10.5309 4.69946 10.3729 4.77088 10.2574 4.88635L10.2559 4.88483C10.1404 5.0003 10.069 5.15984 10.069 5.33609L10.0553 5.956C10.0523 6.13833 10.0173 6.31305 9.95655 6.47411C9.93679 6.53489 9.91096 6.59262 9.87906 6.6458C9.80461 6.78558 9.70889 6.91321 9.59797 7.02413C9.3184 7.29762 8.93856 7.46627 8.52224 7.46627ZM8.50705 5.46068V5.33609C8.50705 4.73137 8.75471 4.18287 9.15279 3.78479L9.15431 3.78327L9.15279 3.78176C9.55087 3.38368 10.1009 3.13754 10.7056 3.13754H14.3567C14.5193 2.24262 14.9933 1.45557 15.6634 0.89188C16.3273 0.335785 17.1812 0 18.1172 0C19.0516 0 19.907 0.335785 20.5695 0.89188C21.2395 1.45557 21.7136 2.24262 21.8761 3.13754H25.5287C26.1335 3.13754 26.6835 3.38368 27.0816 3.78176L27.1287 3.83493C27.4994 4.22846 27.7273 4.7572 27.7273 5.33609V5.46068H31.743C32.9783 5.46068 34.1011 5.96511 34.9155 6.77951C35.7284 7.59238 36.2328 8.71521 36.2328 9.95047V23.6781C36.2328 24.1096 35.8834 24.4591 35.4519 24.4591C35.0204 24.4591 34.6709 24.1096 34.6709 23.6781V9.95047C34.6709 9.14671 34.3412 8.41437 33.8109 7.8841C33.2791 7.35232 32.5468 7.02261 31.743 7.02261H29.6584C29.8392 7.34168 29.9426 7.71089 29.9426 8.10137V8.68178L30.0778 8.68482C30.9104 8.69849 31.6595 9.04491 32.2019 9.59645C32.7443 10.148 33.0801 10.9046 33.0801 11.7342V24.2251C33.0801 24.6566 32.7291 25.0061 32.2976 25.0061C31.8676 25.0061 31.5167 24.6566 31.5167 24.2251V11.7342C31.5167 11.3255 31.3541 10.9563 31.0912 10.6889C30.8253 10.4184 30.4576 10.2483 30.0535 10.2407L29.8757 10.2376C29.777 10.6266 29.5734 10.9761 29.2983 11.2511C29.2801 11.2678 29.2634 11.2845 29.2452 11.2997C28.8501 11.6689 28.3214 11.8968 27.744 11.8968H8.48882C7.8841 11.8968 7.33408 11.6491 6.936 11.2511L6.88738 11.1994C6.63365 10.9274 6.44676 10.5932 6.35408 10.2224L6.15808 10.2285C5.75696 10.2422 5.39534 10.4139 5.13401 10.6843C4.87571 10.9502 4.71618 11.3164 4.71618 11.7206V44.0926C4.71618 44.4193 4.8514 44.7171 5.06716 44.9328C5.28291 45.1486 5.58071 45.2823 5.90586 45.2823H30.327C30.7585 45.2823 31.1079 45.6333 31.1079 46.0648C31.1079 46.4948 30.7585 46.8458 30.327 46.8458H5.90586C5.1492 46.8458 4.46092 46.5358 3.96256 46.0374C3.4642 45.5391 3.15425 44.8508 3.15425 44.0926V11.7206C3.15425 10.8986 3.48244 10.1495 4.01726 9.59797C4.54905 9.04947 5.28595 8.69849 6.10946 8.67266L6.29026 8.66659V8.10137C6.29026 7.71089 6.39358 7.34168 6.57439 7.02261H4.48979C3.68603 7.02261 2.95369 7.35232 2.42342 7.8841C1.89164 8.41437 1.56345 9.14671 1.56345 9.95047V45.5087C1.56345 46.3124 1.89316 47.0448 2.42342 47.5766C2.95369 48.1068 3.68603 48.4366 4.48979 48.4366H31.743C32.1745 48.4366 32.524 48.786 32.524 49.2175C32.524 49.649 32.1745 50 31.743 50H4.48979C3.25453 50 2.1317 49.494 1.31883 48.6812C0.505956 47.8668 0 46.7439 0 45.5087V9.95047C0 8.71521 0.504437 7.59238 1.31883 6.77951C2.1317 5.96511 3.25453 5.46068 4.48979 5.46068H8.50705ZM18.1172 1.80503C18.7067 1.80503 19.243 2.04661 19.6335 2.43558L19.635 2.43406C20.024 2.82302 20.2641 3.36088 20.2641 3.95345C20.2641 4.54601 20.024 5.08235 19.635 5.47131C19.6183 5.48955 19.6001 5.50474 19.5819 5.51993C19.1959 5.88003 18.6809 6.10034 18.1172 6.10034C17.5261 6.10034 16.9898 5.86028 16.5993 5.46979L16.5978 5.47131C16.2103 5.08235 15.9688 4.54601 15.9688 3.95345C15.9688 3.36088 16.2103 2.82302 16.5978 2.43406C16.616 2.41735 16.6343 2.40063 16.6525 2.38544C17.0369 2.02534 17.552 1.80503 18.1172 1.80503ZM18.5304 3.53713C18.4271 3.4323 18.2797 3.36848 18.1172 3.36848C17.9668 3.36848 17.8315 3.42318 17.7297 3.5113L17.7024 3.53865C17.5975 3.64501 17.5322 3.79087 17.5322 3.95345C17.5322 4.1145 17.5975 4.26188 17.7024 4.36672L17.7009 4.36824L17.7024 4.36976C17.8072 4.47308 17.9531 4.53841 18.1172 4.53841C18.2676 4.53841 18.4028 4.48371 18.5046 4.39407L18.5304 4.36672C18.6368 4.26188 18.7021 4.1145 18.7021 3.95345C18.7021 3.79087 18.6368 3.64349 18.5304 3.53713ZM17.0369 42.122C16.6069 42.122 16.2559 41.7725 16.2559 41.341C16.2559 40.9095 16.6069 40.5585 17.0369 40.5585H25.5561C25.9876 40.5585 26.3371 40.9095 26.3371 41.341C26.3371 41.7725 25.9876 42.122 25.5561 42.122H17.0369ZM17.0369 39.0574C16.6069 39.0574 16.2559 38.7079 16.2559 38.2764C16.2559 37.8449 16.6069 37.4954 17.0369 37.4954H27.9431C28.373 37.4954 28.724 37.8449 28.724 38.2764C28.724 38.7079 28.373 39.0574 27.9431 39.0574H17.0369ZM5.83141 18.5304C5.51386 18.2387 5.4941 17.7449 5.78431 17.4289C6.07603 17.1113 6.56983 17.0916 6.88738 17.3833L8.73952 19.085L12.4073 15.0906C12.699 14.773 13.1913 14.7533 13.5089 15.045C13.8249 15.3352 13.8462 15.829 13.5545 16.1465L9.74535 20.296C9.50073 20.5604 9.17102 20.7062 8.83372 20.7275L8.80941 20.729C8.46603 20.7442 8.11809 20.6287 7.8446 20.3811L5.83141 18.5304ZM5.83141 29.5627C5.51386 29.271 5.4941 28.7772 5.78431 28.4612C6.07603 28.1436 6.56983 28.1239 6.88738 28.4156L8.73952 30.1188L12.4073 26.1228C12.699 25.8053 13.1913 25.7855 13.5089 26.0772C13.8249 26.369 13.8462 26.8612 13.5545 27.1788L9.74535 31.3282C9.50073 31.5941 9.17102 31.7385 8.83372 31.7598L8.80941 31.7613C8.46603 31.7765 8.11657 31.661 7.84308 31.4118L5.83141 29.5627ZM5.83141 40.595C5.51386 40.3033 5.4941 39.811 5.78431 39.4934C6.07603 39.1774 6.56983 39.1561 6.88738 39.4479L8.73952 41.1511L12.4073 37.1551C12.699 36.8391 13.1913 36.8178 13.5089 37.1095C13.8249 37.4012 13.8462 37.8935 13.5545 38.2111L9.74535 42.3605C9.50073 42.6264 9.17102 42.7723 8.83372 42.792L8.80941 42.7935C8.46603 42.8087 8.11657 42.6933 7.84308 42.4456L5.83141 40.595ZM17.0369 17.1828C16.6069 17.1828 16.2559 16.8318 16.2559 16.4003C16.2559 15.9688 16.6069 15.6193 17.0369 15.6193H29.2801C29.7116 15.6193 30.0611 15.9688 30.0611 16.4003C30.0611 16.8318 29.7116 17.1828 29.2801 17.1828H17.0369ZM17.0369 20.2458C16.6069 20.2458 16.2559 19.8964 16.2559 19.4649C16.2559 19.0334 16.6069 18.6839 17.0369 18.6839H25.5561C25.9876 18.6839 26.3371 19.0334 26.3371 19.4649C26.3371 19.8964 25.9876 20.2458 25.5561 20.2458H17.0369ZM17.0369 28.0251C16.6069 28.0251 16.2559 27.6756 16.2559 27.2441C16.2559 26.8126 16.6069 26.4632 17.0369 26.4632H27.7607C28.1907 26.4632 28.5417 26.8126 28.5417 27.2441C28.5417 27.6756 28.1907 28.0251 27.7607 28.0251H17.0369Z" fill="#F5A623"></path><path fill-rule="evenodd" clip-rule="evenodd" d="M38.7035 49.0987C28.7302 44.4068 29.0858 37.8582 29.2924 27.6328C29.3015 27.1921 29.6616 26.8381 30.1038 26.8381C33.4358 26.8351 36.3029 25.8399 38.705 23.854C39.0074 23.6033 39.4358 23.6033 39.7382 23.854C42.1403 25.8399 45.0074 26.8351 48.3395 26.8381C48.7816 26.8381 49.1417 27.1921 49.1508 27.6328C49.3574 37.8582 49.7115 44.4068 39.7397 49.0987C39.3994 49.2582 39.0438 49.2582 38.7035 49.0987ZM38.8934 39.5797C38.5455 39.9276 37.9787 39.9276 37.6323 39.5797L34.6224 36.5713C34.2745 36.2234 34.2745 35.6566 34.6224 35.3087L34.7105 35.2221C35.0585 34.8742 35.6237 34.8742 35.9716 35.2221L38.0547 37.3052C38.1687 37.4191 38.3556 37.4191 38.4695 37.3052L42.4716 33.3031C42.8195 32.9552 43.3862 32.9552 43.7327 33.3031L43.8208 33.3912C44.1687 33.7392 44.1687 34.3044 43.8208 34.6523L38.8934 39.5797ZM39.2216 29.8404C42.8666 29.8404 45.8233 32.7956 45.8233 36.4422C45.8233 40.0872 42.8666 43.0424 39.2216 43.0424C35.5751 43.0424 32.6199 40.0872 32.6199 36.4422C32.6199 32.7956 35.5751 29.8404 39.2216 29.8404Z" fill="#F5A623"></path></g><defs><clipPath id="clip0_1914_2113"><rect width="50" height="50" fill="white"></rect></clipPath></defs></svg>