<svg width="61" height="61" viewBox="0 0 61 61" fill="none" xmlns="http://www.w3.org/2000/svg"><path d="M22.527 0.0444336C23.1045 0.121937 23.6833 0.185689 24.2583 0.276943C30.9611 1.33824 36.0438 4.80463 39.5014 10.6286C41.4715 13.9488 42.3578 17.5889 42.299 21.4278C42.2605 25.2963 41.1342 29.076 39.0489 32.3345C38.8939 32.5845 38.7464 32.8345 38.5776 33.1058L40.1264 34.8659C41.8915 36.851 43.6491 38.8435 45.4342 40.8111C45.6412 41.0234 45.9206 41.1497 46.2167 41.1649C46.6677 41.1565 47.1156 41.2416 47.5321 41.4148C47.9486 41.588 48.3247 41.8455 48.6368 42.1712C52.0119 45.5126 55.4008 48.8327 58.7335 52.2129C59.3385 52.8266 59.6923 53.6879 60.1623 54.4354V56.5468C59.7973 57.5231 59.3185 58.4119 58.471 59.0794C57.6872 59.7071 56.7124 60.0482 55.7082 60.0462C54.7041 60.0441 53.7307 59.6991 52.9495 59.0681C52.6914 58.8595 52.4444 58.6375 52.2094 58.4031C48.9481 55.153 45.7017 51.8728 42.419 48.6377C41.6278 47.8577 41.1952 47.0014 41.2552 45.8876C41.2655 45.6603 41.1951 45.4367 41.0565 45.2563C38.8531 42.7487 36.6392 40.2486 34.415 37.756C34.3665 37.7133 34.3142 37.6752 34.2587 37.6422C33.5987 38.0873 32.9624 38.5748 32.2749 38.9711C24.5245 43.4387 16.8042 43.335 9.36392 38.401C4.24996 35.0071 1.30983 30.0519 0.469797 23.9417C-0.383988 17.7377 1.25233 12.1912 5.2825 7.44099C8.73514 3.36582 13.1953 0.995723 18.5068 0.268193C18.9881 0.19694 19.4668 0.118187 19.9469 0.0444336H22.527ZM21.3194 2.30328C10.7765 2.40453 2.43613 10.7249 2.38613 21.2441C2.33613 31.6707 10.8752 40.1711 21.3194 40.1711C31.7636 40.1711 40.2602 31.6832 40.2515 21.2441C40.2289 10.8611 31.9399 2.39828 21.3194 2.30328ZM46.1779 43.0125C45.8229 43.2212 45.5054 43.3462 45.2704 43.5612C44.7216 44.0613 44.2129 44.6013 43.6891 45.1263C43.0828 45.7326 43.0641 46.5651 43.6766 47.1789C47.0392 50.5499 50.4081 53.9163 53.7833 57.2781C54.8671 58.3544 56.5109 58.3769 57.5334 57.3768C58.556 56.3768 58.4885 54.828 57.3772 53.7129C54.0304 50.3519 50.674 47.0006 47.308 43.6587C47.028 43.3825 46.6042 43.2512 46.1779 43.0125ZM35.7838 36.4097L42.2515 43.6712C42.8028 43.155 43.3103 42.6787 43.8429 42.1774L37.2726 34.8159L35.7838 36.4097Z" fill="#F5A623"></path><path d="M5.41401 40.2124H7.37534V40.8774C7.37534 43.8467 7.37534 46.8164 7.37534 49.7866C7.37534 51.9941 8.52789 53.1392 10.7392 53.1392H45.2232V55.093C45.0369 55.1068 44.8681 55.1305 44.6994 55.1305C33.3464 55.1305 21.993 55.1305 10.6392 55.1305C8.07287 55.1305 6.21029 53.778 5.56401 51.4454C5.44591 50.992 5.38791 50.5251 5.39151 50.0566C5.37651 46.8914 5.38276 43.7263 5.38401 40.5562C5.38401 40.4649 5.40026 40.3699 5.41401 40.2124Z" fill="#1D4886"></path><path d="M9.40289 50.095V48.1787H40.2154V50.095H9.40289Z" fill="#1D4886"></path><path d="M9.40167 46.1102V44.1938H36.2253V46.1102H9.40167Z" fill="#1D4886"></path><path d="M39.2929 7.30233V5.356C39.4396 5.33359 39.5873 5.31857 39.7354 5.311C43.1931 5.311 46.652 5.2935 50.1109 5.311C52.611 5.326 54.4223 6.71856 55.0436 9.08741C55.1635 9.57821 55.2207 10.0823 55.2136 10.5875C55.2219 21.2546 55.224 31.9217 55.2198 42.5888C55.2198 42.7601 55.2036 42.9313 55.1923 43.1351H53.226V42.395C53.226 31.8463 53.2218 21.2975 53.2135 10.7487C53.2135 10.175 53.1485 9.55618 52.9285 9.03616C52.411 7.80735 51.3847 7.28608 50.0721 7.29483C46.7111 7.29483 43.3502 7.29483 39.9892 7.29483L39.2929 7.30233Z" fill="#1D4886"></path><path d="M42.268 12.2163V10.3237H51.1884V12.2163H42.268Z" fill="#1D4886"></path><path d="M44.2693 17.2128V15.314H51.1921V17.2128H44.2693Z" fill="#1D4886"></path><path d="M44.2769 25.2729H51.2021V27.1905H44.2769V25.2729Z" fill="#1D4886"></path><path d="M44.2681 22.1964V20.2764H51.2021V22.1964H44.2681Z" fill="#1D4886"></path><path d="M51.1822 32.1705H44.2869V30.2617H51.1822V32.1705Z" fill="#1D4886"></path><path d="M45.2806 37.1599V35.2373H51.1871V37.1599H45.2806Z" fill="#1D4886"></path><path d="M33.6827 21.2081C32.9327 22.4431 31.8976 23.2944 30.8076 24.0332C25.2861 27.7683 19.5383 28.1196 13.6231 25.017C12.0005 24.1707 10.6555 22.9381 9.42792 21.5831C9.21166 21.3443 9.12416 21.1218 9.37042 20.8843C10.238 20.0455 11.0417 19.1292 12.0005 18.4204C14.8756 16.3053 18.1508 15.3178 21.7134 15.4203C25.7323 15.5453 29.2312 17.0041 32.1826 19.7455C32.6851 20.2193 33.1652 20.7043 33.6827 21.2081ZM22.8335 25.0057C26.0261 24.5869 28.6725 23.3394 30.9701 21.2418C28.7 19.1255 26.0711 17.9254 22.9072 17.4916C26.2286 19.2367 26.0611 23.4394 22.8335 25.0057ZM11.6955 21.2218C13.5243 23.2219 17.557 24.9807 19.4371 24.827C18.0383 23.9744 17.222 22.7794 17.2907 21.1255C17.3595 19.4717 18.2245 18.3154 19.6658 17.5416C16.6095 17.9029 13.9844 19.1517 11.6955 21.2218ZM19.3433 21.2431C19.3432 21.7664 19.5483 22.269 19.9145 22.6429C20.2807 23.0169 20.7789 23.2323 21.3022 23.2431C21.8355 23.2366 22.3451 23.0213 22.7216 22.6434C23.0981 22.2656 23.3115 21.7552 23.316 21.2218C23.302 20.6986 23.0846 20.2015 22.71 19.8359C22.3354 19.4704 21.8331 19.2653 21.3097 19.2642C21.0505 19.2647 20.794 19.3163 20.5549 19.4161C20.3157 19.5159 20.0986 19.6618 19.9159 19.8457C19.7333 20.0295 19.5887 20.2475 19.4904 20.4873C19.3922 20.7271 19.3422 20.9839 19.3433 21.2431Z" fill="#F5A623"></path><path d="M14.3656 13.239V11.3276H28.2574V13.239H14.3656Z" fill="#1D4886"></path><path d="M28.2587 29.2559V31.1859H14.3756V29.2559H28.2587Z" fill="#1D4886"></path></svg>