<svg width="44" height="45" viewBox="0 0 44 45" fill="none" xmlns="http://www.w3.org/2000/svg"><g clip-path="url(#clip0_1132_1306)"><path d="M22.8834 25.7478C22.0461 26.5076 21.2528 27.2214 20.4762 27.953C20.3866 28.0635 20.3371 28.2011 20.3359 28.3434C20.293 29.0509 20.2647 29.7594 20.2406 30.468C20.2405 30.7032 20.1923 30.9359 20.0991 31.1519C20.0059 31.3678 19.8696 31.5625 19.6986 31.7239C19.4076 32.0013 19.1354 32.2975 18.8455 32.5727C18.6757 32.7558 18.4625 32.8931 18.2255 32.9717C17.9885 33.0504 17.7354 33.0679 17.4898 33.0226C17.2443 32.9772 17.0141 32.8706 16.8208 32.7125C16.6274 32.5545 16.4772 32.3502 16.384 32.1185C15.9737 31.2477 15.5958 30.3612 15.1761 29.4946C15.0753 29.2993 14.9162 29.1402 14.7209 29.0394C13.8909 28.6375 13.0463 28.2722 12.2028 27.8881C11.9481 27.8055 11.7202 27.6559 11.5431 27.4551C11.366 27.2543 11.246 27.0095 11.1959 26.7465C11.1457 26.4835 11.1672 26.2118 11.258 25.9599C11.3487 25.708 11.5055 25.4851 11.7119 25.3145C13.1332 23.8953 12.7711 23.9727 14.7648 23.9665C15.2246 24 15.6852 23.9128 16.1008 23.7134C16.5165 23.514 16.8728 23.2094 17.1344 22.8298C17.5512 22.3067 17.9971 21.8074 18.4699 21.3342C18.3181 21.2296 18.1956 21.1249 18.0648 21.0433C16.6801 20.1275 15.2944 19.2169 13.9118 18.2991C13.684 18.1868 13.4886 18.0185 13.3436 17.81C13.1987 17.6015 13.109 17.3597 13.083 17.1071C13.0571 16.8545 13.0958 16.5994 13.1953 16.3658C13.2949 16.1322 13.4521 15.9277 13.6523 15.7715C13.87 15.5517 14.1013 15.3476 14.3033 15.1153C14.5211 14.8602 14.8063 14.6714 15.1263 14.5705C15.4462 14.4697 15.7881 14.4608 16.1128 14.5449C18.4604 14.9415 20.8143 15.2974 23.1639 15.6846C23.2775 15.7156 23.3979 15.711 23.5089 15.6716C23.6198 15.6321 23.716 15.5596 23.7846 15.4638C24.1404 15.0295 24.5172 14.6108 24.9034 14.2016C26.097 12.9074 27.7404 12.1188 29.4968 11.9974C31.3399 11.8467 32.4714 13.1801 32.1794 15.1624C31.9567 16.7834 31.1699 18.2741 29.9574 19.3729C29.5534 19.7444 29.1484 20.1139 28.7266 20.4666C28.6415 20.5286 28.5768 20.6146 28.5408 20.7136C28.5048 20.8126 28.4992 20.9201 28.5246 21.0223C28.9213 23.4505 29.3054 25.8817 29.699 28.3099C29.752 28.5731 29.7376 28.8455 29.6571 29.1017C29.5765 29.3579 29.4325 29.5896 29.2384 29.7751C28.9715 30.0389 28.7077 30.3047 28.443 30.5695C28.2875 30.7667 28.0852 30.9217 27.8544 31.0204C27.6235 31.1191 27.3716 31.1584 27.1217 31.1345C26.8717 31.1107 26.6318 31.0245 26.4238 30.8839C26.2158 30.7433 26.0464 30.5528 25.9311 30.3298C24.9975 28.926 24.0671 27.5204 23.1398 26.113C23.0686 26.0052 22.9912 25.8995 22.8834 25.7478ZM30.9057 14.6035C30.9374 14.4265 30.926 14.2445 30.8724 14.0729C30.8189 13.9013 30.7247 13.7451 30.598 13.6176C30.4713 13.49 30.3157 13.3949 30.1445 13.3403C29.9732 13.2856 29.7913 13.273 29.6141 13.3036C28.1539 13.4075 26.7905 14.0725 25.8097 15.1592C25.121 15.9076 24.4491 16.6695 23.7646 17.4252C21.5406 19.8889 19.3218 22.3578 17.081 24.8069C16.875 25.005 16.6109 25.1319 16.3275 25.169C15.8106 25.2439 15.2876 25.2688 14.7659 25.2433C14.3759 25.1994 13.9812 25.26 13.6224 25.4189C13.2636 25.5778 12.9535 25.8293 12.7239 26.1476C12.4528 26.5097 12.4215 26.5317 12.8569 26.7305C13.7559 27.1419 14.6528 27.5626 15.5613 27.9572C15.7212 28.0224 15.8663 28.1193 15.9879 28.2419C16.1095 28.3646 16.205 28.5105 16.2688 28.671C16.6686 29.5909 17.0904 30.5015 17.508 31.4141C17.6775 31.7857 17.7476 31.7951 18.0438 31.5041C18.2259 31.3262 18.3903 31.1274 18.586 30.9672C18.704 30.8698 18.7974 30.746 18.8587 30.6058C18.9199 30.4656 18.9474 30.313 18.9388 30.1603C18.9503 29.3973 18.9712 28.6322 19.0434 27.8745C19.0787 27.6033 19.2006 27.3508 19.3909 27.1544C19.9801 26.5715 20.6133 26.0314 21.2287 25.4799C23.832 23.1306 26.4345 20.7799 29.0364 18.4278C30.1407 17.4509 30.8125 16.076 30.9046 14.6045L30.9057 14.6035ZM27.3105 21.7393C26.1592 22.7859 25.0896 23.7477 24.0294 24.7263C24.0029 24.7722 23.9883 24.824 23.9868 24.877C23.9854 24.93 23.9971 24.9825 24.0211 25.0298C25.0237 26.5652 26.0379 28.0932 27.0468 29.6244C27.1881 29.8337 27.3211 29.8337 27.4917 29.6558C27.7366 29.428 27.9699 29.1881 28.1908 28.9368C28.3123 28.7772 28.3724 28.5792 28.3603 28.379C28.1845 27.1335 27.9782 25.8933 27.7783 24.6509C27.6234 23.7205 27.4769 22.7786 27.3095 21.7403L27.3105 21.7393ZM22.4616 16.9186C22.2282 16.8725 22.0753 16.8359 21.9194 16.8139C20.1778 16.5366 18.4363 16.2686 16.6968 15.9819C15.4849 15.782 15.488 15.7725 14.635 16.6507C14.6175 16.6708 14.5987 16.6897 14.5786 16.7072C14.3431 16.9029 14.4027 17.0505 14.6361 17.2022C15.3687 17.6753 16.0856 18.1578 16.8099 18.6361C17.6556 19.1939 18.5012 19.7497 19.374 20.3242L22.4616 16.9186Z" fill="#F5A623"></path><path d="M34.7331 35.8905C35.3422 35.1966 35.9146 34.5299 36.5122 33.8758C36.8804 33.462 37.3945 33.2069 37.9467 33.1641C38.4989 33.1213 39.0462 33.2942 39.4737 33.6463C39.9012 33.9985 40.1755 34.5026 40.2392 35.0528C40.303 35.6029 40.151 36.1564 39.8153 36.5969C38.6871 37.9575 37.5128 39.2773 36.3197 40.574C36.128 40.782 35.8958 40.9486 35.6373 41.0635C35.3789 41.1783 35.0996 41.2391 34.8167 41.2421C34.5339 41.245 34.2535 41.1901 33.9927 41.0806C33.7319 40.9711 33.4962 40.8094 33.3002 40.6054C32.7162 40.0371 32.149 39.4542 31.588 38.8555C31.204 38.4607 30.9865 37.9335 30.9804 37.3829C30.9742 36.8322 31.1799 36.3003 31.5549 35.897C31.9299 35.4938 32.4456 35.2501 32.9953 35.2163C33.5449 35.1826 34.0865 35.3614 34.5081 35.7157C34.5635 35.7638 34.6284 35.8099 34.7331 35.8905ZM32.1689 37.3044C32.2864 37.5487 32.4265 37.7813 32.5875 37.9994C33.0752 38.5311 33.587 39.046 34.0977 39.5547C34.18 39.667 34.2885 39.7577 34.4137 39.8188C34.5388 39.88 34.677 39.9098 34.8162 39.9057C34.9555 39.9015 35.0917 39.8636 35.213 39.7952C35.3344 39.7267 35.4372 39.6298 35.5128 39.5128C35.9796 38.9968 36.4338 38.4662 36.8932 37.9429C37.5023 37.2479 38.1198 36.5614 38.7153 35.8559C38.8205 35.7516 38.8956 35.6206 38.9324 35.477C38.9692 35.3335 38.9663 35.1826 38.9242 35.0405C38.8821 34.8984 38.8024 34.7703 38.6934 34.6699C38.5843 34.5695 38.4502 34.5005 38.3051 34.4702C38.1397 34.4388 37.9688 34.4548 37.8121 34.5165C37.6554 34.5782 37.5193 34.683 37.4197 34.8188C36.7171 35.6281 36.0109 36.4333 35.3013 37.2343C35.2407 37.329 35.1575 37.4071 35.0592 37.4617C34.9609 37.5162 34.8507 37.5455 34.7383 37.5469C34.6259 37.5482 34.5149 37.5216 34.4153 37.4694C34.3157 37.4172 34.2307 37.3411 34.1678 37.2479C33.9674 37.0338 33.7532 36.8331 33.5264 36.6472C33.4142 36.5468 33.2707 36.4884 33.1203 36.4819C32.97 36.4755 32.8219 36.5213 32.7015 36.6116C32.4972 36.8203 32.3185 37.0525 32.1689 37.3034V37.3044Z" fill="#F5A623"></path><path d="M2.00358 12.9872C1.84391 10.7464 1.85477 8.49673 2.03603 6.25755C2.09464 5.57412 2.28719 5.44329 2.95284 5.62958C6.25551 6.55897 9.73814 6.64819 13.0841 5.88914C16.1112 5.2933 18.9035 3.84017 21.1283 1.70271C21.6213 1.21603 21.7898 1.20871 22.2796 1.70271C23.4447 2.87242 24.8092 3.82476 26.309 4.51494C30.7372 6.57404 35.7595 6.96684 40.4539 5.62121C41.1102 5.44538 41.3195 5.57935 41.3739 6.25441C41.7615 11.376 41.3419 16.5268 40.1306 21.5182C39.9045 22.4674 39.6239 23.4021 39.3717 24.344C39.336 24.4299 39.3188 24.5223 39.3212 24.6153C39.3236 24.7083 39.3456 24.7997 39.3857 24.8836C39.4259 24.9675 39.4833 25.042 39.5541 25.1022C39.625 25.1624 39.7078 25.207 39.7971 25.2331C39.8864 25.2591 39.9802 25.2661 40.0723 25.2534C40.1645 25.2408 40.253 25.2089 40.3319 25.1597C40.4109 25.1106 40.4785 25.0454 40.5306 24.9683C40.5826 24.8912 40.6179 24.804 40.634 24.7124C40.6643 24.6234 40.6884 24.5334 40.7156 24.4424C41.6466 21.3114 42.2723 18.0976 42.5838 14.846C42.8861 11.8895 42.9134 8.91138 42.6655 5.94984C42.6572 5.6658 42.5816 5.38776 42.4451 5.13854C42.3086 4.88931 42.115 4.67599 41.8801 4.51606C41.6452 4.35613 41.3757 4.25416 41.0938 4.21849C40.8118 4.18282 40.5255 4.21447 40.2582 4.31086C37.7297 5.04184 35.0786 5.24875 32.4673 4.91893C28.9 4.60363 25.5515 3.06385 22.9902 0.560852C22.8238 0.384079 22.623 0.243227 22.4002 0.146942C22.1774 0.0506571 21.9372 0.000976563 21.6944 0.000976562C21.4517 0.000976563 21.2115 0.0506571 20.9887 0.146942C20.7659 0.243227 20.5652 0.384079 20.3988 0.560852C17.9607 2.9545 14.7927 4.46484 11.398 4.85196C8.63487 5.26696 5.8147 5.08132 3.12978 4.30771C2.86201 4.21776 2.57698 4.19111 2.29717 4.22984C2.01737 4.26858 1.75033 4.37167 1.51707 4.53099C1.28381 4.69032 1.09075 4.90154 0.952883 5.14809C0.815019 5.39464 0.736138 5.66979 0.722532 5.95194C0.521063 8.29795 0.501889 10.656 0.66504 13.005C0.701101 13.1775 0.794608 13.3325 0.930398 13.4447C1.06619 13.5569 1.23618 13.6196 1.41231 13.6225C1.49413 13.6239 1.57529 13.608 1.65058 13.576C1.72587 13.5439 1.79362 13.4964 1.84937 13.4365C1.90513 13.3766 1.94762 13.3057 1.9742 13.2283C2.00077 13.1509 2.01078 13.0688 2.00358 12.9872Z" fill="#2A3B8F"></path><path d="M1.58169 15.6613C1.47938 15.677 1.38174 15.7151 1.29589 15.773C1.21005 15.8308 1.1381 15.9069 1.08509 15.9958C1.03209 16.0847 0.999318 16.1842 0.989271 16.2872C0.979224 16.3903 0.992131 16.4942 1.02696 16.5917C1.24361 18.1972 1.52721 19.7964 1.88934 21.3894C2.82145 25.7433 4.48464 29.9077 6.80835 33.7059C9.80898 38.7295 14.4237 42.5879 19.8994 44.6513C21.0179 45.0966 22.2617 45.1119 23.3908 44.6942C25.3043 43.9981 27.1256 43.0709 28.8144 41.9332C28.9337 41.8527 29.0583 41.7794 29.2048 41.6863C29.8822 42.6541 30.7718 43.4544 31.8057 44.026C32.8396 44.5975 33.9905 44.9253 35.1704 44.9841C36.3526 45.0716 37.5388 44.8792 38.6327 44.4226C39.7266 43.966 40.6977 43.258 41.4669 42.3561C42.173 41.5972 42.7116 40.6983 43.0481 39.7179C43.3845 38.7374 43.5112 37.6972 43.4199 36.6646C43.3308 35.2107 42.8379 33.8104 41.9966 32.6211C41.1554 31.4319 39.9991 30.501 38.6577 29.9328L38.8452 29.4975C39.0807 28.9427 39.3265 28.3933 39.5473 27.8344C39.5913 27.7542 39.6179 27.6655 39.6253 27.5743C39.6326 27.4832 39.6207 27.3914 39.5901 27.3052C39.5596 27.2189 39.5112 27.1401 39.4481 27.0738C39.385 27.0076 39.3086 26.9554 39.224 26.9207C39.1402 26.8862 39.0504 26.869 38.9598 26.8702C38.8692 26.8714 38.7798 26.8909 38.697 26.9276C38.6141 26.9643 38.5395 27.0173 38.4777 27.0836C38.416 27.1499 38.3682 27.228 38.3374 27.3132C38.2862 27.4178 38.2433 27.535 38.1951 27.646C37.9628 28.1871 37.7367 28.7303 37.4918 29.264C37.4437 29.3687 37.3118 29.5058 37.2281 29.4995C36.2368 29.3679 35.2329 29.3616 34.2401 29.4807C33.3233 29.6499 32.4434 29.9786 31.6403 30.4519C30.6477 31.061 29.7955 31.8735 29.1399 32.836C28.4843 33.7985 28.0402 34.889 27.8369 36.0356C27.7188 36.71 27.7026 37.3983 27.7887 38.0775C27.9202 38.8012 28.1283 39.5089 28.4094 40.1886C28.4375 40.235 28.4554 40.287 28.462 40.3409C28.4685 40.3949 28.4635 40.4496 28.4473 40.5015C28.4311 40.5534 28.404 40.6012 28.3678 40.6418C28.3317 40.6824 28.2874 40.7149 28.2378 40.737C26.5676 41.8788 24.7579 42.8018 22.8529 43.4833C22.1024 43.756 21.2791 43.7515 20.5316 43.4707C17.2287 42.2892 14.2345 40.3785 11.7714 37.8808C8.40928 34.3821 5.89773 30.1563 4.43151 25.5308C3.45336 22.6265 2.7628 19.6331 2.36972 16.5938C2.36972 16.5938 2.37188 15.5168 1.58169 15.6613ZM35.63 43.6895C34.3429 43.6924 33.084 43.3133 32.0124 42.6003C30.9409 41.8873 30.1051 40.8724 29.6107 39.6841C29.1163 38.4958 28.9855 37.1875 29.2351 35.9249C29.4846 34.6623 30.1032 33.5021 31.0125 32.5912C31.9217 31.6803 33.0809 31.0597 34.343 30.8079C35.6052 30.5561 36.9137 30.6845 38.1029 31.1768C39.2921 31.6691 40.3084 32.5031 41.0233 33.5734C41.7382 34.6436 42.1195 35.9019 42.1189 37.189C42.1167 38.9103 41.4327 40.5607 40.2165 41.779C39.0004 42.9973 37.3513 43.6842 35.63 43.6895Z" fill="#2A3B8F"></path></g><defs><clipPath id="clip0_1132_1306"><rect width="42.8838" height="45" fill="white" transform="translate(0.558105)"></rect></clipPath></defs></svg>