<svg width="56" height="60" viewBox="0 0 56 60" fill="none" xmlns="http://www.w3.org/2000/svg"><path d="M44.0487 32.2168H47.0499C48.5995 32.2168 48.588 32.2168 48.9068 30.686C49.031 30.0919 49.1307 29.4702 49.3972 28.9349C50.0707 27.5656 51.2165 26.8296 52.7547 26.7643C53.4871 26.7333 54.2259 26.7643 54.9566 26.7513C55.4372 26.7513 55.7739 26.9683 55.787 27.4498C55.8033 27.9687 55.4486 28.2103 54.9533 28.2201C54.2995 28.2315 53.6456 28.2201 52.9918 28.2201C51.6497 28.2315 50.6935 29.0018 50.4564 30.3139C49.6206 34.8987 48.7967 39.4819 47.9849 44.0634C47.7838 45.1846 47.5909 46.3074 47.3719 47.4237C47.2084 48.314 46.7371 49.1187 46.0402 49.6976C45.3432 50.2765 44.4649 50.5928 43.5583 50.5914C39.6449 50.6093 35.73 50.5995 31.815 50.5914C31.2233 50.5914 30.88 50.3107 30.8817 49.8603C30.8833 49.4098 31.2315 49.1307 31.8199 49.1307C35.5905 49.1307 39.3622 49.1307 43.1349 49.1307C44.8954 49.1307 45.7405 48.4045 46.0266 46.6501C46.0707 46.3743 46.1116 46.0985 46.1639 45.7591H45.443C41.9563 45.7591 38.4696 45.7476 34.9813 45.7754C34.5635 45.785 34.1566 45.9105 33.806 46.1377C30.1412 48.6052 26.4905 51.0929 22.854 53.6008C22.2851 53.9941 21.8486 54.0186 21.2651 53.6171C16.9186 50.6289 12.5034 47.7419 8.20433 44.6852C2.91792 40.9382 0.163554 35.7403 0.0523988 29.2743C-0.0538526 23.3535 0.037687 17.4277 0.0180714 11.5052C0.0180714 10.8524 0.222401 10.4673 0.825582 10.1735C7.59952 6.88341 14.3642 3.57591 21.1196 0.250997C21.7735 -0.0672415 22.2753 -0.0933534 22.9373 0.233045C29.6873 3.5721 36.4476 6.89048 43.2183 10.1882C43.8018 10.4722 44.0634 10.8312 44.0601 11.5052C44.0388 17.5436 44.0487 23.5966 44.0487 29.6415V32.2168ZM37.3466 22.8035C37.3466 20.38 37.3352 17.9581 37.3565 15.5362C37.3565 15.1135 37.2355 14.8834 36.8481 14.7039C32.0717 12.38 27.3013 10.0435 22.5368 7.69451C22.3934 7.60765 22.2293 7.5605 22.0615 7.55792C21.8937 7.55534 21.7283 7.59741 21.5822 7.67982C16.7993 10.0342 12.0076 12.3734 7.20721 14.6974C6.83614 14.8769 6.73316 15.0923 6.7348 15.4889C6.74951 20.0895 6.66778 24.6917 6.76749 29.2906C6.85412 33.3151 8.60482 36.6232 11.843 38.9945C15.0453 41.338 18.393 43.4857 21.6688 45.7313C21.9435 45.9206 22.1331 45.9451 22.4208 45.746C23.4016 45.0606 24.402 44.3866 25.4269 43.7582C25.8519 43.4971 25.8715 43.2523 25.7146 42.8231C24.6324 39.8855 23.619 36.9235 22.4943 34.0022C21.8813 32.4094 22.3063 32.1874 23.7808 32.207C28.0014 32.2445 32.2221 32.207 36.4443 32.2282C36.8873 32.2282 37.1227 32.1385 37.1472 31.6489C37.1864 30.8574 37.3254 30.0707 37.3368 29.2808C37.3581 27.1185 37.3401 24.9691 37.3417 22.8035H37.3466ZM26.7722 44.6134C25.4171 45.5094 24.1094 46.3384 22.849 47.2246C22.2753 47.6277 21.829 47.6244 21.252 47.2246C17.8601 44.8941 14.3849 42.6697 11.0666 40.2511C7.39192 37.5795 5.40257 33.8716 5.29632 29.3168C5.18353 24.4942 5.27833 19.6668 5.26035 14.8426C5.26035 14.2535 5.45651 13.9206 5.99267 13.6611C11.1211 11.1728 16.2429 8.67044 21.3583 6.15391C21.5687 6.03596 21.8059 5.97402 22.0473 5.97402C22.2886 5.97402 22.5258 6.03596 22.7363 6.15391C27.8265 8.66717 32.9244 11.1696 38.0299 13.6611C38.6037 13.9401 38.8325 14.2894 38.8293 14.9324C38.8064 19.595 38.8293 24.2576 38.8113 28.9185C38.8113 29.7345 38.7328 30.5505 38.6805 31.3551C38.6625 31.6277 38.6102 31.8986 38.5743 32.1711H42.5873V29.7492C42.5873 23.8469 42.5916 17.9429 42.6004 12.0372C42.6004 11.6162 42.4369 11.435 42.092 11.2637C35.5763 8.08346 29.065 4.89347 22.5581 1.69368C22.4048 1.60282 22.2303 1.55393 22.0521 1.55192C21.8738 1.54992 21.6982 1.59487 21.543 1.68225C15.0447 4.87878 8.53725 8.06116 2.0205 11.2294C1.60367 11.4318 1.48598 11.6635 1.48761 12.1074C1.50396 17.8896 1.40915 23.6733 1.52357 29.4522C1.63636 35.2001 4.07688 39.8969 8.73723 43.2654C12.9595 46.3188 17.342 49.1552 21.6509 52.101C21.9582 52.3131 22.1576 52.2968 22.4535 52.0928C24.9201 50.3955 27.3982 48.7146 29.8714 47.0336L31.6826 45.795C29.8535 45.7068 28.1028 46.0365 26.7722 44.6134ZM24.0113 33.7231C24.0231 33.8156 24.0411 33.9072 24.0652 33.9973C25.1016 36.8647 26.1314 39.7337 27.1808 42.5946C27.6107 43.7697 28.5033 44.2952 29.7341 44.2952C35.1361 44.2952 40.5385 44.2979 45.9416 44.3033C46.3568 44.3033 46.4843 44.1597 46.5513 43.7599C46.8782 41.8015 47.2558 39.8431 47.6089 37.8847C47.8557 36.5138 48.0993 35.1397 48.3478 33.7297L24.0113 33.7231Z" fill="#1D4886"></path><path fill-rule="evenodd" clip-rule="evenodd" d="M48.4544 32.0119C48.688 31.8215 48.7648 31.4389 48.925 30.6694C48.9425 30.5859 48.9594 30.5019 48.9765 30.4176C49.0806 29.9023 49.1864 29.3783 49.4154 28.9183C50.0889 27.549 51.2347 26.813 52.7729 26.7477C53.2012 26.7296 53.6316 26.7327 54.0614 26.7357C54.3666 26.7379 54.6714 26.7401 54.9748 26.7347C55.4554 26.7347 55.7921 26.9517 55.8052 27.4332C55.8215 27.9521 55.4668 28.1937 54.9715 28.2035C54.5356 28.2111 54.0997 28.2085 53.6638 28.206C53.4459 28.2047 53.2279 28.2035 53.01 28.2035C51.6679 28.2149 50.7117 28.9852 50.4746 30.2973C49.6388 34.8821 48.8149 39.4653 48.0031 44.0468C47.9555 44.3121 47.9084 44.5774 47.8613 44.8427C47.7093 45.6989 47.5573 46.5549 47.3901 47.4071C47.2266 48.2974 46.7553 49.1022 46.0584 49.6811C45.3614 50.26 44.4831 50.5762 43.5765 50.5748C39.881 50.5917 36.184 50.584 32.487 50.5762H32.4861L31.8332 50.5748C31.2415 50.5748 30.8982 50.2941 30.8999 49.8437C30.9015 49.3932 31.2497 49.1142 31.8381 49.1142H43.1531C44.9136 49.1142 45.7587 48.3879 46.0448 46.6335C46.0735 46.4539 46.1009 46.2743 46.1309 46.0771C46.147 45.9715 46.1638 45.8608 46.1821 45.7425H45.4612C41.9745 45.7425 34.9995 45.7588 34.9995 45.7588L31.7008 45.7784C31.7008 45.7784 28.121 46.0199 26.7904 44.5968L25.7328 42.8065C25.3205 41.6872 24.9181 40.5643 24.5158 39.4415C23.8622 37.6176 23.2087 35.7938 22.5125 33.9856C21.8996 32.3928 22.3246 32.1708 23.799 32.1904C28.0196 32.228 36.4625 32.2116 36.4625 32.2116L38.5925 32.1545L47.0681 32.2002C47.8388 32.2002 48.2233 32.2002 48.4544 32.0119ZM24.06 34.0064C24.0358 33.9163 24.0178 33.8247 24.006 33.7322L48.3425 33.7388C48.094 35.1488 47.8505 36.5229 47.6036 37.8938C47.4885 38.5324 47.3708 39.171 47.253 39.8096C47.0097 41.1294 46.7663 42.4492 46.546 43.769C46.479 44.1688 46.3515 44.3124 45.9363 44.3124C40.5333 44.307 35.1308 44.3043 29.7289 44.3043C28.498 44.3043 27.6055 43.7788 27.1756 42.6037C26.3781 40.4297 25.5919 38.251 24.8056 36.0718C24.5572 35.3833 24.3088 34.6948 24.06 34.0064Z" fill="#F5A623"></path><path d="M35.4031 56.3793C35.3939 57.1042 35.1693 57.8101 34.7578 58.4074C34.3462 59.0047 33.7663 59.4666 33.0915 59.7345C32.4167 60.0023 31.6775 60.0641 30.9675 59.912C30.2575 59.7598 29.6087 59.4006 29.1035 58.8799C28.5982 58.3592 28.2592 57.7004 28.1294 56.9871C27.9997 56.2737 28.085 55.538 28.3746 54.8732C28.6641 54.2083 29.1449 53.6443 29.756 53.2526C30.3671 52.8609 31.0809 52.6592 31.8069 52.673C32.7756 52.6898 33.6981 53.0893 34.3723 53.7841C35.0464 54.4788 35.4171 55.4121 35.4031 56.3793ZM33.9319 56.3695C33.9385 56.0791 33.8868 55.7904 33.7799 55.5203C33.6731 55.2502 33.5133 55.0041 33.3098 54.7966C33.1063 54.589 32.8633 54.4242 32.5951 54.3117C32.3269 54.1993 32.0389 54.1415 31.748 54.1418C31.1649 54.1418 30.6057 54.3731 30.1934 54.7847C29.7811 55.1964 29.5495 55.7547 29.5495 56.3368C29.5495 56.919 29.7811 57.4773 30.1934 57.889C30.6057 58.3006 31.1649 58.5319 31.748 58.5319C32.324 58.5315 32.8765 58.3041 33.2855 57.8992C33.6944 57.4942 33.9268 56.9445 33.9319 56.3695Z" fill="#F5A623"></path><path d="M42.6641 60C41.9395 60.0009 41.2308 59.7877 40.6274 59.3871C40.024 58.9865 39.5529 58.4166 39.2735 57.7491C38.994 57.0816 38.9188 56.3465 39.0572 55.6363C39.1956 54.9262 39.5415 54.2729 40.0513 53.7587C40.561 53.2446 41.2118 52.8926 41.9217 52.7472C42.6315 52.6017 43.3686 52.6694 44.04 52.9415C44.7113 53.2137 45.287 53.6782 45.6944 54.2765C46.1017 54.8748 46.3225 55.5801 46.329 56.3035C46.3338 56.7871 46.2425 57.2669 46.0605 57.715C45.8784 58.1632 45.6092 58.5709 45.2685 58.9146C44.9277 59.2583 44.5221 59.5312 44.0751 59.7175C43.6281 59.9038 43.1485 59.9998 42.6641 60ZM44.8611 56.3443C44.8604 55.914 44.7324 55.4934 44.4932 55.1353C44.254 54.7773 43.9142 54.4978 43.5165 54.3318C43.1188 54.1658 42.6808 54.1208 42.2575 54.2023C41.8343 54.2839 41.4446 54.4884 41.1373 54.7902C40.83 55.0921 40.6188 55.4778 40.5302 55.899C40.4417 56.3202 40.4796 56.7581 40.6394 57.1578C40.7992 57.5576 41.0736 57.9013 41.4283 58.1459C41.783 58.3905 42.2021 58.5251 42.6331 58.5328C42.9234 58.5365 43.2115 58.4826 43.4807 58.3743C43.75 58.266 43.995 58.1054 44.2017 57.9018C44.4083 57.6983 44.5724 57.4558 44.6845 57.1884C44.7966 56.9211 44.8544 56.6342 44.8546 56.3443H44.8611Z" fill="#F5A623"></path><path d="M20.4036 28.978L26.3488 23.5386C26.5805 23.3097 26.8267 23.096 27.086 22.8988C27.4129 22.6671 27.8085 22.7013 27.9981 23.0343C28.1305 23.2676 28.0831 23.6283 28.0455 23.9221C28.0292 24.051 27.8412 24.162 27.7186 24.2713C25.5119 26.2939 23.3045 28.3138 21.0967 30.3309C20.487 30.8874 20.165 30.8793 19.6092 30.2819C18.4649 29.0612 17.3436 27.834 16.2059 26.61C15.8626 26.2411 15.7008 25.8527 16.0865 25.4317C16.4135 25.0661 16.8352 25.1346 17.288 25.6193C18.3194 26.7193 19.3378 27.8274 20.4036 28.978Z" fill="#F5A623"></path></svg>